<?xml version="1.0" encoding="utf-8"?>
<svg xmlns="http://www.w3.org/2000/svg" xmlns:xlink="http://www.w3.org/1999/xlink" width="1000" height="800" viewBox="0 0 4000 3200">
<defs>
  <clipPath id="clip660">
    <rect x="0" y="0" width="4000" height="3200"/>
  </clipPath>
</defs>
<path clip-path="url(#clip660)" d="M0 3200 L4000 3200 L4000 0 L0 0  Z" fill="#ffffff" fill-rule="evenodd" fill-opacity="1"/>
<defs>
  <clipPath id="clip661">
    <rect x="800" y="0" width="2801" height="2801"/>
  </clipPath>
</defs>
<path clip-path="url(#clip660)" d="M763.569 2876.72 L3952.76 2876.72 L3952.76 47.2441 L763.569 47.2441  Z" fill="#ffffff" fill-rule="evenodd" fill-opacity="1"/>
<defs>
  <clipPath id="clip662">
    <rect x="763" y="47" width="3190" height="2830"/>
  </clipPath>
</defs>
<polyline clip-path="url(#clip662)" style="stroke:#000000; stroke-linecap:round; stroke-linejoin:round; stroke-width:2; stroke-opacity:0.1; fill:none" points="763.569,2876.72 763.569,47.2441 "/>
<polyline clip-path="url(#clip662)" style="stroke:#000000; stroke-linecap:round; stroke-linejoin:round; stroke-width:2; stroke-opacity:0.1; fill:none" points="1376.87,2876.72 1376.87,47.2441 "/>
<polyline clip-path="url(#clip662)" style="stroke:#000000; stroke-linecap:round; stroke-linejoin:round; stroke-width:2; stroke-opacity:0.1; fill:none" points="1990.18,2876.72 1990.18,47.2441 "/>
<polyline clip-path="url(#clip662)" style="stroke:#000000; stroke-linecap:round; stroke-linejoin:round; stroke-width:2; stroke-opacity:0.1; fill:none" points="2603.48,2876.72 2603.48,47.2441 "/>
<polyline clip-path="url(#clip662)" style="stroke:#000000; stroke-linecap:round; stroke-linejoin:round; stroke-width:2; stroke-opacity:0.1; fill:none" points="3216.79,2876.72 3216.79,47.2441 "/>
<polyline clip-path="url(#clip662)" style="stroke:#000000; stroke-linecap:round; stroke-linejoin:round; stroke-width:2; stroke-opacity:0.1; fill:none" points="3830.09,2876.72 3830.09,47.2441 "/>
<polyline clip-path="url(#clip660)" style="stroke:#000000; stroke-linecap:round; stroke-linejoin:round; stroke-width:4; stroke-opacity:1; fill:none" points="763.569,2876.72 3952.76,2876.72 "/>
<polyline clip-path="url(#clip660)" style="stroke:#000000; stroke-linecap:round; stroke-linejoin:round; stroke-width:4; stroke-opacity:1; fill:none" points="763.569,2876.72 763.569,2857.82 "/>
<polyline clip-path="url(#clip660)" style="stroke:#000000; stroke-linecap:round; stroke-linejoin:round; stroke-width:4; stroke-opacity:1; fill:none" points="1376.87,2876.72 1376.87,2857.82 "/>
<polyline clip-path="url(#clip660)" style="stroke:#000000; stroke-linecap:round; stroke-linejoin:round; stroke-width:4; stroke-opacity:1; fill:none" points="1990.18,2876.72 1990.18,2857.82 "/>
<polyline clip-path="url(#clip660)" style="stroke:#000000; stroke-linecap:round; stroke-linejoin:round; stroke-width:4; stroke-opacity:1; fill:none" points="2603.48,2876.72 2603.48,2857.82 "/>
<polyline clip-path="url(#clip660)" style="stroke:#000000; stroke-linecap:round; stroke-linejoin:round; stroke-width:4; stroke-opacity:1; fill:none" points="3216.79,2876.72 3216.79,2857.82 "/>
<polyline clip-path="url(#clip660)" style="stroke:#000000; stroke-linecap:round; stroke-linejoin:round; stroke-width:4; stroke-opacity:1; fill:none" points="3830.09,2876.72 3830.09,2857.82 "/>
<path clip-path="url(#clip660)" d="M671.694 2961.46 L731.046 2961.46 L731.046 2969.33 L671.694 2969.33 L671.694 2961.46 Z" fill="#000000" fill-rule="nonzero" fill-opacity="1" /><path clip-path="url(#clip660)" d="M751.324 2926 L788.036 2926 L788.036 2933.87 L759.888 2933.87 L759.888 2950.81 Q761.925 2950.12 763.962 2949.79 Q765.999 2949.42 768.036 2949.42 Q779.61 2949.42 786.37 2955.76 Q793.129 2962.11 793.129 2972.94 Q793.129 2984.1 786.184 2990.3 Q779.24 2996.46 766.601 2996.46 Q762.249 2996.46 757.712 2995.72 Q753.222 2994.98 748.407 2993.5 L748.407 2984.1 Q752.574 2986.37 757.018 2987.48 Q761.462 2988.59 766.416 2988.59 Q774.425 2988.59 779.101 2984.38 Q783.777 2980.16 783.777 2972.94 Q783.777 2965.72 779.101 2961.5 Q774.425 2957.29 766.416 2957.29 Q762.666 2957.29 758.916 2958.13 Q755.212 2958.96 751.324 2960.72 L751.324 2926 Z" fill="#000000" fill-rule="nonzero" fill-opacity="1" /><path clip-path="url(#clip660)" d="M831.555 2932.15 Q824.332 2932.15 820.675 2939.28 Q817.064 2946.37 817.064 2960.63 Q817.064 2974.84 820.675 2981.97 Q824.332 2989.05 831.555 2989.05 Q838.823 2989.05 842.434 2981.97 Q846.092 2974.84 846.092 2960.63 Q846.092 2946.37 842.434 2939.28 Q838.823 2932.15 831.555 2932.15 M831.555 2924.75 Q843.175 2924.75 849.286 2933.96 Q855.443 2943.13 855.443 2960.63 Q855.443 2978.08 849.286 2987.29 Q843.175 2996.46 831.555 2996.46 Q819.934 2996.46 813.777 2987.29 Q807.666 2978.08 807.666 2960.63 Q807.666 2943.13 813.777 2933.96 Q819.934 2924.75 831.555 2924.75 Z" fill="#000000" fill-rule="nonzero" fill-opacity="1" /><path clip-path="url(#clip660)" d="M1285 2961.46 L1344.35 2961.46 L1344.35 2969.33 L1285 2969.33 L1285 2961.46 Z" fill="#000000" fill-rule="nonzero" fill-opacity="1" /><path clip-path="url(#clip660)" d="M1390.23 2934.14 L1366.62 2971.04 L1390.23 2971.04 L1390.23 2934.14 M1387.78 2926 L1399.54 2926 L1399.54 2971.04 L1409.4 2971.04 L1409.4 2978.82 L1399.54 2978.82 L1399.54 2995.12 L1390.23 2995.12 L1390.23 2978.82 L1359.03 2978.82 L1359.03 2969.79 L1387.78 2926 Z" fill="#000000" fill-rule="nonzero" fill-opacity="1" /><path clip-path="url(#clip660)" d="M1444.86 2932.15 Q1437.64 2932.15 1433.98 2939.28 Q1430.37 2946.37 1430.37 2960.63 Q1430.37 2974.84 1433.98 2981.97 Q1437.64 2989.05 1444.86 2989.05 Q1452.13 2989.05 1455.74 2981.97 Q1459.4 2974.84 1459.4 2960.63 Q1459.4 2946.37 1455.74 2939.28 Q1452.13 2932.15 1444.86 2932.15 M1444.86 2924.75 Q1456.48 2924.75 1462.59 2933.96 Q1468.75 2943.13 1468.75 2960.63 Q1468.75 2978.08 1462.59 2987.29 Q1456.48 2996.46 1444.86 2996.46 Q1433.24 2996.46 1427.08 2987.29 Q1420.97 2978.08 1420.97 2960.63 Q1420.97 2943.13 1427.08 2933.96 Q1433.24 2924.75 1444.86 2924.75 Z" fill="#000000" fill-rule="nonzero" fill-opacity="1" /><path clip-path="url(#clip660)" d="M1898.3 2961.46 L1957.66 2961.46 L1957.66 2969.33 L1898.3 2969.33 L1898.3 2961.46 Z" fill="#000000" fill-rule="nonzero" fill-opacity="1" /><path clip-path="url(#clip660)" d="M2006.17 2957.85 Q2012.89 2959.28 2016.64 2963.82 Q2020.43 2968.36 2020.43 2975.02 Q2020.43 2985.25 2013.4 2990.86 Q2006.36 2996.46 1993.4 2996.46 Q1989.05 2996.46 1984.42 2995.58 Q1979.83 2994.75 1974.92 2993.03 L1974.92 2984 Q1978.81 2986.27 1983.44 2987.43 Q1988.07 2988.59 1993.12 2988.59 Q2001.92 2988.59 2006.5 2985.12 Q2011.13 2981.64 2011.13 2975.02 Q2011.13 2968.91 2006.82 2965.49 Q2002.56 2962.01 1994.92 2962.01 L1986.87 2962.01 L1986.87 2954.33 L1995.29 2954.33 Q2002.19 2954.33 2005.85 2951.6 Q2009.51 2948.82 2009.51 2943.63 Q2009.51 2938.31 2005.71 2935.49 Q2001.96 2932.62 1994.92 2932.62 Q1991.08 2932.62 1986.68 2933.45 Q1982.29 2934.28 1977.01 2936.04 L1977.01 2927.71 Q1982.33 2926.23 1986.96 2925.49 Q1991.64 2924.75 1995.76 2924.75 Q2006.41 2924.75 2012.61 2929.61 Q2018.81 2934.42 2018.81 2942.66 Q2018.81 2948.4 2015.53 2952.38 Q2012.24 2956.32 2006.17 2957.85 Z" fill="#000000" fill-rule="nonzero" fill-opacity="1" /><path clip-path="url(#clip660)" d="M2058.17 2932.15 Q2050.94 2932.15 2047.29 2939.28 Q2043.67 2946.37 2043.67 2960.63 Q2043.67 2974.84 2047.29 2981.97 Q2050.94 2989.05 2058.17 2989.05 Q2065.43 2989.05 2069.04 2981.97 Q2072.7 2974.84 2072.7 2960.63 Q2072.7 2946.37 2069.04 2939.28 Q2065.43 2932.15 2058.17 2932.15 M2058.17 2924.75 Q2069.79 2924.75 2075.9 2933.96 Q2082.05 2943.13 2082.05 2960.63 Q2082.05 2978.08 2075.9 2987.29 Q2069.79 2996.46 2058.17 2996.46 Q2046.54 2996.46 2040.39 2987.29 Q2034.28 2978.08 2034.28 2960.63 Q2034.28 2943.13 2040.39 2933.96 Q2046.54 2924.75 2058.17 2924.75 Z" fill="#000000" fill-rule="nonzero" fill-opacity="1" /><path clip-path="url(#clip660)" d="M2511.61 2961.46 L2570.96 2961.46 L2570.96 2969.33 L2511.61 2969.33 L2511.61 2961.46 Z" fill="#000000" fill-rule="nonzero" fill-opacity="1" /><path clip-path="url(#clip660)" d="M2599.2 2987.25 L2631.84 2987.25 L2631.84 2995.12 L2587.95 2995.12 L2587.95 2987.25 Q2593.28 2981.74 2602.44 2972.48 Q2611.66 2963.17 2614.02 2960.49 Q2618.51 2955.44 2620.27 2951.97 Q2622.07 2948.45 2622.07 2945.07 Q2622.07 2939.56 2618.18 2936.09 Q2614.34 2932.62 2608.14 2932.62 Q2603.74 2932.62 2598.83 2934.14 Q2593.97 2935.67 2588.42 2938.77 L2588.42 2929.33 Q2594.06 2927.06 2598.97 2925.9 Q2603.88 2924.75 2607.95 2924.75 Q2618.69 2924.75 2625.08 2930.12 Q2631.47 2935.49 2631.47 2944.47 Q2631.47 2948.73 2629.85 2952.57 Q2628.28 2956.37 2624.06 2961.55 Q2622.91 2962.89 2616.7 2969.33 Q2610.5 2975.72 2599.2 2987.25 Z" fill="#000000" fill-rule="nonzero" fill-opacity="1" /><path clip-path="url(#clip660)" d="M2671.47 2932.15 Q2664.25 2932.15 2660.59 2939.28 Q2656.98 2946.37 2656.98 2960.63 Q2656.98 2974.84 2660.59 2981.97 Q2664.25 2989.05 2671.47 2989.05 Q2678.74 2989.05 2682.35 2981.97 Q2686.01 2974.84 2686.01 2960.63 Q2686.01 2946.37 2682.35 2939.28 Q2678.74 2932.15 2671.47 2932.15 M2671.47 2924.75 Q2683.09 2924.75 2689.2 2933.96 Q2695.36 2943.13 2695.36 2960.63 Q2695.36 2978.08 2689.2 2987.29 Q2683.09 2996.46 2671.47 2996.46 Q2659.85 2996.46 2653.69 2987.29 Q2647.58 2978.08 2647.58 2960.63 Q2647.58 2943.13 2653.69 2933.96 Q2659.85 2924.75 2671.47 2924.75 Z" fill="#000000" fill-rule="nonzero" fill-opacity="1" /><path clip-path="url(#clip660)" d="M3124.92 2961.46 L3184.27 2961.46 L3184.27 2969.33 L3124.92 2969.33 L3124.92 2961.46 Z" fill="#000000" fill-rule="nonzero" fill-opacity="1" /><path clip-path="url(#clip660)" d="M3206.07 2987.25 L3221.35 2987.25 L3221.35 2934.51 L3204.73 2937.85 L3204.73 2929.33 L3221.26 2926 L3230.61 2926 L3230.61 2987.25 L3245.89 2987.25 L3245.89 2995.12 L3206.07 2995.12 L3206.07 2987.25 Z" fill="#000000" fill-rule="nonzero" fill-opacity="1" /><path clip-path="url(#clip660)" d="M3284.78 2932.15 Q3277.55 2932.15 3273.9 2939.28 Q3270.28 2946.37 3270.28 2960.63 Q3270.28 2974.84 3273.9 2981.97 Q3277.55 2989.05 3284.78 2989.05 Q3292.04 2989.05 3295.65 2981.97 Q3299.31 2974.84 3299.31 2960.63 Q3299.31 2946.37 3295.65 2939.28 Q3292.04 2932.15 3284.78 2932.15 M3284.78 2924.75 Q3296.4 2924.75 3302.51 2933.96 Q3308.66 2943.13 3308.66 2960.63 Q3308.66 2978.08 3302.51 2987.29 Q3296.4 2996.46 3284.78 2996.46 Q3273.16 2996.46 3267 2987.29 Q3260.89 2978.08 3260.89 2960.63 Q3260.89 2943.13 3267 2933.96 Q3273.16 2924.75 3284.78 2924.75 Z" fill="#000000" fill-rule="nonzero" fill-opacity="1" /><path clip-path="url(#clip660)" d="M3830.09 2932.15 Q3822.87 2932.15 3819.22 2939.28 Q3815.6 2946.37 3815.6 2960.63 Q3815.6 2974.84 3819.22 2981.97 Q3822.87 2989.05 3830.09 2989.05 Q3837.36 2989.05 3840.97 2981.97 Q3844.63 2974.84 3844.63 2960.63 Q3844.63 2946.37 3840.97 2939.28 Q3837.36 2932.15 3830.09 2932.15 M3830.09 2924.75 Q3841.72 2924.75 3847.83 2933.96 Q3853.98 2943.13 3853.98 2960.63 Q3853.98 2978.08 3847.83 2987.29 Q3841.72 2996.46 3830.09 2996.46 Q3818.47 2996.46 3812.32 2987.29 Q3806.21 2978.08 3806.21 2960.63 Q3806.21 2943.13 3812.32 2933.96 Q3818.47 2924.75 3830.09 2924.75 Z" fill="#000000" fill-rule="nonzero" fill-opacity="1" /><path clip-path="url(#clip660)" d="M2166.03 3142.32 L2166.03 3137.71 L2169.62 3137.71 Q2177.75 3137.71 2179.58 3136.39 Q2181.48 3135 2181.48 3130.61 L2181.48 3051.63 Q2181.48 3047.31 2179.58 3045.99 Q2177.67 3044.6 2169.62 3044.6 L2166.03 3044.6 L2166.03 3039.92 L2213.1 3039.92 Q2229.42 3039.92 2240.77 3047.97 Q2252.19 3055.95 2252.19 3066.93 Q2252.19 3075.34 2244.79 3081.93 Q2237.4 3088.52 2225.98 3091.37 Q2240.84 3096.5 2244.28 3108.72 L2246.18 3120.73 Q2246.77 3125.04 2247.14 3127.24 Q2247.57 3129.44 2248.23 3132.44 Q2248.89 3135.44 2249.55 3136.9 Q2250.28 3138.29 2251.31 3139.83 Q2252.33 3141.29 2253.65 3141.81 Q2255.04 3142.32 2256.87 3142.32 Q2260.31 3142.32 2263.24 3139.24 Q2266.17 3136.17 2266.75 3129 Q2267.04 3126.58 2268.58 3126.58 Q2270.48 3126.58 2270.48 3129 Q2270.48 3131.12 2269.9 3133.61 Q2269.31 3136.02 2267.85 3138.88 Q2266.46 3141.73 2263.38 3143.64 Q2260.31 3145.61 2256.28 3145.61 Q2244.57 3145.61 2237.4 3139.32 Q2234.4 3136.61 2233.01 3133.1 Q2231.69 3129.58 2231.47 3126.8 Q2231.25 3124.02 2231.25 3117.87 Q2231.25 3109.16 2230.3 3105.35 Q2229.42 3101.55 2225.54 3097.82 Q2220.27 3092.69 2211.56 3092.69 L2194.36 3092.69 L2194.36 3130.61 Q2194.36 3134.93 2196.19 3136.32 Q2198.09 3137.71 2206.22 3137.71 L2209.81 3137.71 L2209.81 3142.32 Q2204.39 3141.88 2187.92 3141.88 Q2171.45 3141.88 2166.03 3142.32 M2194.36 3089.4 L2210.98 3089.4 Q2218.96 3089.4 2224.3 3087.5 Q2229.71 3085.52 2232.28 3082.01 Q2234.84 3078.49 2235.79 3074.98 Q2236.74 3071.39 2236.74 3066.93 Q2236.74 3061.66 2235.57 3057.7 Q2234.4 3053.75 2231.84 3051.41 Q2229.28 3049.07 2226.71 3047.6 Q2224.15 3046.07 2220.2 3045.48 Q2216.25 3044.9 2213.54 3044.75 Q2210.83 3044.6 2206.51 3044.6 Q2199.19 3044.6 2197.66 3044.9 Q2195.97 3045.04 2195.31 3045.85 Q2194.65 3046.65 2194.51 3047.6 Q2194.36 3048.48 2194.36 3050.6 L2194.36 3089.4 Z" fill="#000000" fill-rule="nonzero" fill-opacity="1" /><path clip-path="url(#clip660)" d="M2275.81 3109.31 Q2275.81 3095.18 2284.88 3085.15 Q2293.96 3075.13 2306.99 3075.13 Q2320.16 3075.13 2326.97 3083.69 Q2333.85 3092.25 2333.85 3104.55 Q2333.85 3106.82 2333.26 3107.26 Q2332.68 3107.7 2330.12 3107.7 L2288.25 3107.7 Q2288.25 3122.99 2292.79 3130.17 Q2299.08 3140.2 2309.69 3140.2 Q2311.16 3140.2 2312.92 3139.9 Q2314.67 3139.61 2318.26 3138.37 Q2321.85 3137.05 2324.99 3133.61 Q2328.14 3130.17 2329.97 3124.75 Q2330.41 3122.63 2331.87 3122.7 Q2333.85 3122.7 2333.85 3124.46 Q2333.85 3125.78 2332.39 3128.78 Q2330.99 3131.7 2328.29 3135.22 Q2325.58 3138.73 2320.31 3141.37 Q2315.11 3144 2308.82 3144 Q2295.64 3144 2285.69 3134.05 Q2275.81 3124.02 2275.81 3109.31 M2288.39 3104.55 L2323.97 3104.55 Q2323.97 3101.4 2323.38 3097.89 Q2322.87 3094.38 2321.26 3089.54 Q2319.72 3084.64 2316.06 3081.57 Q2312.4 3078.49 2306.99 3078.49 Q2304.57 3078.49 2301.94 3079.52 Q2299.37 3080.54 2296.23 3083.03 Q2293.08 3085.52 2290.88 3091.15 Q2288.69 3096.79 2288.39 3104.55 Z" fill="#000000" fill-rule="nonzero" fill-opacity="1" /><path clip-path="url(#clip660)" d="M2381.31 3179.79 L2381.31 3029.89 L2403.93 3029.89 L2403.93 3033.33 L2391.34 3033.33 L2391.34 3176.35 L2403.93 3176.35 L2403.93 3179.79 L2381.31 3179.79 Z" fill="#000000" fill-rule="nonzero" fill-opacity="1" /><path clip-path="url(#clip660)" d="M2496.71 3142.46 Q2496.71 3143.86 2495.1 3144 L2491.8 3144 Q2488.43 3144 2486.97 3143.49 Q2485.51 3142.98 2483.82 3140.63 Q2482.8 3139.17 2480.24 3132.36 Q2477.75 3125.48 2474.09 3115.09 Q2470.5 3104.7 2468.09 3098.55 L2432 3141.15 Q2429.51 3144.29 2427.02 3144.29 Q2425.19 3144.29 2423.88 3143.05 Q2422.56 3141.81 2422.56 3139.9 Q2422.56 3138.51 2423.07 3137.71 Q2423.66 3136.9 2425.19 3135.29 L2466.62 3094.23 L2452.06 3053.46 Q2449.28 3045.92 2447.66 3044.02 Q2446.13 3042.11 2442.32 3041.46 Q2440.93 3041.09 2440.93 3039.92 Q2440.93 3038.31 2443.64 3038.31 Q2458.13 3038.31 2461.94 3048.92 L2492.53 3134.19 Q2494.22 3139.1 2495.97 3141.15 Q2496.71 3142.1 2496.71 3142.46 Z" fill="#000000" fill-rule="nonzero" fill-opacity="1" /><path clip-path="url(#clip660)" d="M2509.04 3176.35 L2521.63 3176.35 L2521.63 3033.33 L2509.04 3033.33 L2509.04 3029.89 L2531.66 3029.89 L2531.66 3179.79 L2509.04 3179.79 L2509.04 3176.35 Z" fill="#000000" fill-rule="nonzero" fill-opacity="1" /><polyline clip-path="url(#clip662)" style="stroke:#000000; stroke-linecap:round; stroke-linejoin:round; stroke-width:2; stroke-opacity:0.1; fill:none" points="763.569,2602.9 3952.76,2602.9 "/>
<polyline clip-path="url(#clip662)" style="stroke:#000000; stroke-linecap:round; stroke-linejoin:round; stroke-width:2; stroke-opacity:0.1; fill:none" points="763.569,2032.44 3952.76,2032.44 "/>
<polyline clip-path="url(#clip662)" style="stroke:#000000; stroke-linecap:round; stroke-linejoin:round; stroke-width:2; stroke-opacity:0.1; fill:none" points="763.569,1461.98 3952.76,1461.98 "/>
<polyline clip-path="url(#clip662)" style="stroke:#000000; stroke-linecap:round; stroke-linejoin:round; stroke-width:2; stroke-opacity:0.1; fill:none" points="763.569,891.522 3952.76,891.522 "/>
<polyline clip-path="url(#clip662)" style="stroke:#000000; stroke-linecap:round; stroke-linejoin:round; stroke-width:2; stroke-opacity:0.1; fill:none" points="763.569,321.064 3952.76,321.064 "/>
<polyline clip-path="url(#clip660)" style="stroke:#000000; stroke-linecap:round; stroke-linejoin:round; stroke-width:4; stroke-opacity:1; fill:none" points="763.569,2876.72 763.569,47.2441 "/>
<polyline clip-path="url(#clip660)" style="stroke:#000000; stroke-linecap:round; stroke-linejoin:round; stroke-width:4; stroke-opacity:1; fill:none" points="763.569,2602.9 782.467,2602.9 "/>
<polyline clip-path="url(#clip660)" style="stroke:#000000; stroke-linecap:round; stroke-linejoin:round; stroke-width:4; stroke-opacity:1; fill:none" points="763.569,2032.44 782.467,2032.44 "/>
<polyline clip-path="url(#clip660)" style="stroke:#000000; stroke-linecap:round; stroke-linejoin:round; stroke-width:4; stroke-opacity:1; fill:none" points="763.569,1461.98 782.467,1461.98 "/>
<polyline clip-path="url(#clip660)" style="stroke:#000000; stroke-linecap:round; stroke-linejoin:round; stroke-width:4; stroke-opacity:1; fill:none" points="763.569,891.522 782.467,891.522 "/>
<polyline clip-path="url(#clip660)" style="stroke:#000000; stroke-linecap:round; stroke-linejoin:round; stroke-width:4; stroke-opacity:1; fill:none" points="763.569,321.064 782.467,321.064 "/>
<path clip-path="url(#clip660)" d="M188.34 2616.69 L247.692 2616.69 L247.692 2624.56 L188.34 2624.56 L188.34 2616.69 Z" fill="#000000" fill-rule="nonzero" fill-opacity="1" /><path clip-path="url(#clip660)" d="M267.969 2581.23 L304.682 2581.23 L304.682 2589.1 L276.534 2589.1 L276.534 2606.05 Q278.571 2605.35 280.608 2605.03 Q282.645 2604.66 284.682 2604.66 Q296.256 2604.66 303.015 2611 Q309.775 2617.34 309.775 2628.18 Q309.775 2639.33 302.83 2645.54 Q295.886 2651.69 283.247 2651.69 Q278.895 2651.69 274.358 2650.95 Q269.867 2650.21 265.053 2648.73 L265.053 2639.33 Q269.219 2641.6 273.664 2642.71 Q278.108 2643.82 283.062 2643.82 Q291.071 2643.82 295.747 2639.61 Q300.423 2635.4 300.423 2628.18 Q300.423 2620.95 295.747 2616.74 Q291.071 2612.53 283.062 2612.53 Q279.312 2612.53 275.562 2613.36 Q271.858 2614.19 267.969 2615.95 L267.969 2581.23 Z" fill="#000000" fill-rule="nonzero" fill-opacity="1" /><path clip-path="url(#clip660)" d="M328.201 2638.59 L337.969 2638.59 L337.969 2650.35 L328.201 2650.35 L328.201 2638.59 Z" fill="#000000" fill-rule="nonzero" fill-opacity="1" /><path clip-path="url(#clip660)" d="M378.339 2587.39 Q371.117 2587.39 367.46 2594.52 Q363.848 2601.6 363.848 2615.86 Q363.848 2630.07 367.46 2637.2 Q371.117 2644.29 378.339 2644.29 Q385.608 2644.29 389.219 2637.2 Q392.876 2630.07 392.876 2615.86 Q392.876 2601.6 389.219 2594.52 Q385.608 2587.39 378.339 2587.39 M378.339 2579.98 Q389.959 2579.98 396.071 2589.19 Q402.228 2598.36 402.228 2615.86 Q402.228 2633.31 396.071 2642.53 Q389.959 2651.69 378.339 2651.69 Q366.719 2651.69 360.561 2642.53 Q354.45 2633.31 354.45 2615.86 Q354.45 2598.36 360.561 2589.19 Q366.719 2579.98 378.339 2579.98 Z" fill="#000000" fill-rule="nonzero" fill-opacity="1" /><path clip-path="url(#clip660)" d="M438.663 2587.39 Q431.441 2587.39 427.783 2594.52 Q424.172 2601.6 424.172 2615.86 Q424.172 2630.07 427.783 2637.2 Q431.441 2644.29 438.663 2644.29 Q445.931 2644.29 449.542 2637.2 Q453.2 2630.07 453.2 2615.86 Q453.2 2601.6 449.542 2594.52 Q445.931 2587.39 438.663 2587.39 M438.663 2579.98 Q450.283 2579.98 456.394 2589.19 Q462.552 2598.36 462.552 2615.86 Q462.552 2633.31 456.394 2642.53 Q450.283 2651.69 438.663 2651.69 Q427.043 2651.69 420.885 2642.53 Q414.774 2633.31 414.774 2615.86 Q414.774 2598.36 420.885 2589.19 Q427.043 2579.98 438.663 2579.98 Z" fill="#000000" fill-rule="nonzero" fill-opacity="1" /><path clip-path="url(#clip660)" d="M535.329 2599.43 L514.172 2620.68 L535.329 2641.83 L529.82 2647.43 L508.57 2626.18 L487.32 2647.43 L481.857 2641.83 L502.968 2620.68 L481.857 2599.43 L487.32 2593.82 L508.57 2615.07 L529.82 2593.82 L535.329 2599.43 Z" fill="#000000" fill-rule="nonzero" fill-opacity="1" /><path clip-path="url(#clip660)" d="M560.051 2642.48 L575.329 2642.48 L575.329 2589.75 L558.709 2593.08 L558.709 2584.56 L575.236 2581.23 L584.588 2581.23 L584.588 2642.48 L599.866 2642.48 L599.866 2650.35 L560.051 2650.35 L560.051 2642.48 Z" fill="#000000" fill-rule="nonzero" fill-opacity="1" /><path clip-path="url(#clip660)" d="M638.754 2587.39 Q631.532 2587.39 627.875 2594.52 Q624.264 2601.6 624.264 2615.86 Q624.264 2630.07 627.875 2637.2 Q631.532 2644.29 638.754 2644.29 Q646.023 2644.29 649.634 2637.2 Q653.291 2630.07 653.291 2615.86 Q653.291 2601.6 649.634 2594.52 Q646.023 2587.39 638.754 2587.39 M638.754 2579.98 Q650.375 2579.98 656.486 2589.19 Q662.643 2598.36 662.643 2615.86 Q662.643 2633.31 656.486 2642.53 Q650.375 2651.69 638.754 2651.69 Q627.134 2651.69 620.977 2642.53 Q614.866 2633.31 614.866 2615.86 Q614.866 2598.36 620.977 2589.19 Q627.134 2579.98 638.754 2579.98 Z" fill="#000000" fill-rule="nonzero" fill-opacity="1" /><path clip-path="url(#clip660)" d="M687.996 2545.99 L668.812 2575.97 L687.996 2575.97 L687.996 2545.99 M686.002 2539.37 L695.557 2539.37 L695.557 2575.97 L703.569 2575.97 L703.569 2582.29 L695.557 2582.29 L695.557 2595.53 L687.996 2595.53 L687.996 2582.29 L662.643 2582.29 L662.643 2574.95 L686.002 2539.37 Z" fill="#000000" fill-rule="nonzero" fill-opacity="1" /><path clip-path="url(#clip660)" d="M188.34 2046.24 L247.692 2046.24 L247.692 2054.11 L188.34 2054.11 L188.34 2046.24 Z" fill="#000000" fill-rule="nonzero" fill-opacity="1" /><path clip-path="url(#clip660)" d="M275.932 2072.02 L308.571 2072.02 L308.571 2079.89 L264.682 2079.89 L264.682 2072.02 Q270.006 2066.51 279.173 2057.25 Q288.386 2047.95 290.747 2045.26 Q295.238 2040.22 296.997 2036.75 Q298.803 2033.23 298.803 2029.85 Q298.803 2024.34 294.914 2020.87 Q291.071 2017.39 284.867 2017.39 Q280.469 2017.39 275.562 2018.92 Q270.701 2020.45 265.145 2023.55 L265.145 2014.11 Q270.793 2011.84 275.701 2010.68 Q280.608 2009.52 284.682 2009.52 Q295.423 2009.52 301.812 2014.89 Q308.201 2020.26 308.201 2029.25 Q308.201 2033.5 306.58 2037.35 Q305.006 2041.14 300.793 2046.33 Q299.636 2047.67 293.432 2054.11 Q287.229 2060.5 275.932 2072.02 Z" fill="#000000" fill-rule="nonzero" fill-opacity="1" /><path clip-path="url(#clip660)" d="M328.201 2068.13 L337.969 2068.13 L337.969 2079.89 L328.201 2079.89 L328.201 2068.13 Z" fill="#000000" fill-rule="nonzero" fill-opacity="1" /><path clip-path="url(#clip660)" d="M358.432 2010.77 L395.145 2010.77 L395.145 2018.64 L366.997 2018.64 L366.997 2035.59 Q369.034 2034.89 371.071 2034.57 Q373.108 2034.2 375.145 2034.2 Q386.719 2034.2 393.478 2040.54 Q400.237 2046.88 400.237 2057.72 Q400.237 2068.87 393.293 2075.08 Q386.348 2081.24 373.71 2081.24 Q369.358 2081.24 364.821 2080.5 Q360.33 2079.75 355.515 2078.27 L355.515 2068.87 Q359.682 2071.14 364.126 2072.25 Q368.571 2073.37 373.524 2073.37 Q381.534 2073.37 386.209 2069.15 Q390.885 2064.94 390.885 2057.72 Q390.885 2050.5 386.209 2046.28 Q381.534 2042.07 373.524 2042.07 Q369.774 2042.07 366.024 2042.9 Q362.321 2043.74 358.432 2045.5 L358.432 2010.77 Z" fill="#000000" fill-rule="nonzero" fill-opacity="1" /><path clip-path="url(#clip660)" d="M438.663 2016.93 Q431.441 2016.93 427.783 2024.06 Q424.172 2031.14 424.172 2045.4 Q424.172 2059.62 427.783 2066.75 Q431.441 2073.83 438.663 2073.83 Q445.931 2073.83 449.542 2066.75 Q453.2 2059.62 453.2 2045.4 Q453.2 2031.14 449.542 2024.06 Q445.931 2016.93 438.663 2016.93 M438.663 2009.52 Q450.283 2009.52 456.394 2018.74 Q462.552 2027.9 462.552 2045.4 Q462.552 2062.86 456.394 2072.07 Q450.283 2081.24 438.663 2081.24 Q427.043 2081.24 420.885 2072.07 Q414.774 2062.86 414.774 2045.4 Q414.774 2027.9 420.885 2018.74 Q427.043 2009.52 438.663 2009.52 Z" fill="#000000" fill-rule="nonzero" fill-opacity="1" /><path clip-path="url(#clip660)" d="M535.329 2028.97 L514.172 2050.22 L535.329 2071.37 L529.82 2076.98 L508.57 2055.73 L487.32 2076.98 L481.857 2071.37 L502.968 2050.22 L481.857 2028.97 L487.32 2023.37 L508.57 2044.62 L529.82 2023.37 L535.329 2028.97 Z" fill="#000000" fill-rule="nonzero" fill-opacity="1" /><path clip-path="url(#clip660)" d="M560.051 2072.02 L575.329 2072.02 L575.329 2019.29 L558.709 2022.62 L558.709 2014.11 L575.236 2010.77 L584.588 2010.77 L584.588 2072.02 L599.866 2072.02 L599.866 2079.89 L560.051 2079.89 L560.051 2072.02 Z" fill="#000000" fill-rule="nonzero" fill-opacity="1" /><path clip-path="url(#clip660)" d="M638.754 2016.93 Q631.532 2016.93 627.875 2024.06 Q624.264 2031.14 624.264 2045.4 Q624.264 2059.62 627.875 2066.75 Q631.532 2073.83 638.754 2073.83 Q646.023 2073.83 649.634 2066.75 Q653.291 2059.62 653.291 2045.4 Q653.291 2031.14 649.634 2024.06 Q646.023 2016.93 638.754 2016.93 M638.754 2009.52 Q650.375 2009.52 656.486 2018.74 Q662.643 2027.9 662.643 2045.4 Q662.643 2062.86 656.486 2072.07 Q650.375 2081.24 638.754 2081.24 Q627.134 2081.24 620.977 2072.07 Q614.866 2062.86 614.866 2045.4 Q614.866 2027.9 620.977 2018.74 Q627.134 2009.52 638.754 2009.52 Z" fill="#000000" fill-rule="nonzero" fill-opacity="1" /><path clip-path="url(#clip660)" d="M687.996 1975.53 L668.812 2005.51 L687.996 2005.51 L687.996 1975.53 M686.002 1968.91 L695.557 1968.91 L695.557 2005.51 L703.569 2005.51 L703.569 2011.83 L695.557 2011.83 L695.557 2025.07 L687.996 2025.07 L687.996 2011.83 L662.643 2011.83 L662.643 2004.5 L686.002 1968.91 Z" fill="#000000" fill-rule="nonzero" fill-opacity="1" /><path clip-path="url(#clip660)" d="M679.68 1433.58 Q672.458 1433.58 668.801 1440.71 Q665.189 1447.79 665.189 1462.05 Q665.189 1476.26 668.801 1483.39 Q672.458 1490.48 679.68 1490.48 Q686.949 1490.48 690.56 1483.39 Q694.217 1476.26 694.217 1462.05 Q694.217 1447.79 690.56 1440.71 Q686.949 1433.58 679.68 1433.58 M679.68 1426.17 Q691.3 1426.17 697.412 1435.38 Q703.569 1444.55 703.569 1462.05 Q703.569 1479.5 697.412 1488.72 Q691.3 1497.88 679.68 1497.88 Q668.06 1497.88 661.902 1488.72 Q655.791 1479.5 655.791 1462.05 Q655.791 1444.55 661.902 1435.38 Q668.06 1426.17 679.68 1426.17 Z" fill="#000000" fill-rule="nonzero" fill-opacity="1" /><path clip-path="url(#clip660)" d="M275.932 931.107 L308.571 931.107 L308.571 938.977 L264.682 938.977 L264.682 931.107 Q270.006 925.598 279.173 916.338 Q288.386 907.033 290.747 904.348 Q295.238 899.301 296.997 895.829 Q298.803 892.311 298.803 888.931 Q298.803 883.422 294.914 879.95 Q291.071 876.477 284.867 876.477 Q280.469 876.477 275.562 878.005 Q270.701 879.533 265.145 882.635 L265.145 873.19 Q270.793 870.922 275.701 869.765 Q280.608 868.607 284.682 868.607 Q295.423 868.607 301.812 873.978 Q308.201 879.348 308.201 888.329 Q308.201 892.589 306.58 896.431 Q305.006 900.227 300.793 905.413 Q299.636 906.755 293.432 913.19 Q287.229 919.579 275.932 931.107 Z" fill="#000000" fill-rule="nonzero" fill-opacity="1" /><path clip-path="url(#clip660)" d="M328.201 927.218 L337.969 927.218 L337.969 938.977 L328.201 938.977 L328.201 927.218 Z" fill="#000000" fill-rule="nonzero" fill-opacity="1" /><path clip-path="url(#clip660)" d="M358.432 869.857 L395.145 869.857 L395.145 877.727 L366.997 877.727 L366.997 894.672 Q369.034 893.977 371.071 893.653 Q373.108 893.283 375.145 893.283 Q386.719 893.283 393.478 899.626 Q400.237 905.968 400.237 916.801 Q400.237 927.959 393.293 934.162 Q386.348 940.32 373.71 940.32 Q369.358 940.32 364.821 939.579 Q360.33 938.838 355.515 937.357 L355.515 927.959 Q359.682 930.227 364.126 931.338 Q368.571 932.449 373.524 932.449 Q381.534 932.449 386.209 928.236 Q390.885 924.024 390.885 916.801 Q390.885 909.579 386.209 905.366 Q381.534 901.153 373.524 901.153 Q369.774 901.153 366.024 901.987 Q362.321 902.82 358.432 904.579 L358.432 869.857 Z" fill="#000000" fill-rule="nonzero" fill-opacity="1" /><path clip-path="url(#clip660)" d="M438.663 876.015 Q431.441 876.015 427.783 883.144 Q424.172 890.227 424.172 904.487 Q424.172 918.699 427.783 925.829 Q431.441 932.912 438.663 932.912 Q445.931 932.912 449.542 925.829 Q453.2 918.699 453.2 904.487 Q453.2 890.227 449.542 883.144 Q445.931 876.015 438.663 876.015 M438.663 868.607 Q450.283 868.607 456.394 877.82 Q462.552 886.987 462.552 904.487 Q462.552 921.94 456.394 931.153 Q450.283 940.32 438.663 940.32 Q427.043 940.32 420.885 931.153 Q414.774 921.94 414.774 904.487 Q414.774 886.987 420.885 877.82 Q427.043 868.607 438.663 868.607 Z" fill="#000000" fill-rule="nonzero" fill-opacity="1" /><path clip-path="url(#clip660)" d="M535.329 888.052 L514.172 909.301 L535.329 930.459 L529.82 936.061 L508.57 914.811 L487.32 936.061 L481.857 930.459 L502.968 909.301 L481.857 888.052 L487.32 882.45 L508.57 903.7 L529.82 882.45 L535.329 888.052 Z" fill="#000000" fill-rule="nonzero" fill-opacity="1" /><path clip-path="url(#clip660)" d="M560.051 931.107 L575.329 931.107 L575.329 878.376 L558.709 881.709 L558.709 873.19 L575.236 869.857 L584.588 869.857 L584.588 931.107 L599.866 931.107 L599.866 938.977 L560.051 938.977 L560.051 931.107 Z" fill="#000000" fill-rule="nonzero" fill-opacity="1" /><path clip-path="url(#clip660)" d="M638.754 876.015 Q631.532 876.015 627.875 883.144 Q624.264 890.227 624.264 904.487 Q624.264 918.699 627.875 925.829 Q631.532 932.912 638.754 932.912 Q646.023 932.912 649.634 925.829 Q653.291 918.699 653.291 904.487 Q653.291 890.227 649.634 883.144 Q646.023 876.015 638.754 876.015 M638.754 868.607 Q650.375 868.607 656.486 877.82 Q662.643 886.987 662.643 904.487 Q662.643 921.94 656.486 931.153 Q650.375 940.32 638.754 940.32 Q627.134 940.32 620.977 931.153 Q614.866 921.94 614.866 904.487 Q614.866 886.987 620.977 877.82 Q627.134 868.607 638.754 868.607 Z" fill="#000000" fill-rule="nonzero" fill-opacity="1" /><path clip-path="url(#clip660)" d="M687.996 834.617 L668.812 864.596 L687.996 864.596 L687.996 834.617 M686.002 827.996 L695.557 827.996 L695.557 864.596 L703.569 864.596 L703.569 870.916 L695.557 870.916 L695.557 884.156 L687.996 884.156 L687.996 870.916 L662.643 870.916 L662.643 863.581 L686.002 827.996 Z" fill="#000000" fill-rule="nonzero" fill-opacity="1" /><path clip-path="url(#clip660)" d="M267.969 299.399 L304.682 299.399 L304.682 307.269 L276.534 307.269 L276.534 324.214 Q278.571 323.519 280.608 323.195 Q282.645 322.825 284.682 322.825 Q296.256 322.825 303.015 329.168 Q309.775 335.51 309.775 346.343 Q309.775 357.501 302.83 363.704 Q295.886 369.862 283.247 369.862 Q278.895 369.862 274.358 369.121 Q269.867 368.38 265.053 366.899 L265.053 357.501 Q269.219 359.769 273.664 360.88 Q278.108 361.991 283.062 361.991 Q291.071 361.991 295.747 357.778 Q300.423 353.566 300.423 346.343 Q300.423 339.121 295.747 334.908 Q291.071 330.695 283.062 330.695 Q279.312 330.695 275.562 331.529 Q271.858 332.362 267.969 334.121 L267.969 299.399 Z" fill="#000000" fill-rule="nonzero" fill-opacity="1" /><path clip-path="url(#clip660)" d="M328.201 356.76 L337.969 356.76 L337.969 368.519 L328.201 368.519 L328.201 356.76 Z" fill="#000000" fill-rule="nonzero" fill-opacity="1" /><path clip-path="url(#clip660)" d="M378.339 305.557 Q371.117 305.557 367.46 312.686 Q363.848 319.769 363.848 334.029 Q363.848 348.241 367.46 355.371 Q371.117 362.454 378.339 362.454 Q385.608 362.454 389.219 355.371 Q392.876 348.241 392.876 334.029 Q392.876 319.769 389.219 312.686 Q385.608 305.557 378.339 305.557 M378.339 298.149 Q389.959 298.149 396.071 307.362 Q402.228 316.529 402.228 334.029 Q402.228 351.482 396.071 360.695 Q389.959 369.862 378.339 369.862 Q366.719 369.862 360.561 360.695 Q354.45 351.482 354.45 334.029 Q354.45 316.529 360.561 307.362 Q366.719 298.149 378.339 298.149 Z" fill="#000000" fill-rule="nonzero" fill-opacity="1" /><path clip-path="url(#clip660)" d="M438.663 305.557 Q431.441 305.557 427.783 312.686 Q424.172 319.769 424.172 334.029 Q424.172 348.241 427.783 355.371 Q431.441 362.454 438.663 362.454 Q445.931 362.454 449.542 355.371 Q453.2 348.241 453.2 334.029 Q453.2 319.769 449.542 312.686 Q445.931 305.557 438.663 305.557 M438.663 298.149 Q450.283 298.149 456.394 307.362 Q462.552 316.529 462.552 334.029 Q462.552 351.482 456.394 360.695 Q450.283 369.862 438.663 369.862 Q427.043 369.862 420.885 360.695 Q414.774 351.482 414.774 334.029 Q414.774 316.529 420.885 307.362 Q427.043 298.149 438.663 298.149 Z" fill="#000000" fill-rule="nonzero" fill-opacity="1" /><path clip-path="url(#clip660)" d="M535.329 317.593 L514.172 338.843 L535.329 360.001 L529.82 365.602 L508.57 344.353 L487.32 365.602 L481.857 360.001 L502.968 338.843 L481.857 317.593 L487.32 311.992 L508.57 333.242 L529.82 311.992 L535.329 317.593 Z" fill="#000000" fill-rule="nonzero" fill-opacity="1" /><path clip-path="url(#clip660)" d="M560.051 360.649 L575.329 360.649 L575.329 307.918 L558.709 311.251 L558.709 302.732 L575.236 299.399 L584.588 299.399 L584.588 360.649 L599.866 360.649 L599.866 368.519 L560.051 368.519 L560.051 360.649 Z" fill="#000000" fill-rule="nonzero" fill-opacity="1" /><path clip-path="url(#clip660)" d="M638.754 305.557 Q631.532 305.557 627.875 312.686 Q624.264 319.769 624.264 334.029 Q624.264 348.241 627.875 355.371 Q631.532 362.454 638.754 362.454 Q646.023 362.454 649.634 355.371 Q653.291 348.241 653.291 334.029 Q653.291 319.769 649.634 312.686 Q646.023 305.557 638.754 305.557 M638.754 298.149 Q650.375 298.149 656.486 307.362 Q662.643 316.529 662.643 334.029 Q662.643 351.482 656.486 360.695 Q650.375 369.862 638.754 369.862 Q627.134 369.862 620.977 360.695 Q614.866 351.482 614.866 334.029 Q614.866 316.529 620.977 307.362 Q627.134 298.149 638.754 298.149 Z" fill="#000000" fill-rule="nonzero" fill-opacity="1" /><path clip-path="url(#clip660)" d="M687.996 264.159 L668.812 294.138 L687.996 294.138 L687.996 264.159 M686.002 257.538 L695.557 257.538 L695.557 294.138 L703.569 294.138 L703.569 300.458 L695.557 300.458 L695.557 313.698 L687.996 313.698 L687.996 300.458 L662.643 300.458 L662.643 293.123 L686.002 257.538 Z" fill="#000000" fill-rule="nonzero" fill-opacity="1" /><path clip-path="url(#clip660)" d="M100.663 1660.86 L96.0513 1660.86 L96.0513 1656.91 Q96.0513 1648.49 94.7337 1646.59 Q93.343 1644.61 88.9513 1644.61 L9.97378 1644.61 Q5.65526 1644.61 4.33775 1646.59 Q2.94704 1648.56 2.94704 1656.91 L2.94704 1660.86 L-1.73745 1660.86 Q-1.29828 1655.59 -1.29828 1637.88 Q-1.29828 1620.31 -1.73745 1615.11 L2.94704 1615.11 L2.94704 1618.99 Q2.94704 1627.41 4.33775 1629.39 Q5.65526 1631.29 9.97378 1631.29 L88.9513 1631.29 Q93.2698 1631.29 94.6606 1629.39 Q96.0513 1627.41 96.0513 1618.99 L96.0513 1615.11 L100.663 1615.11 Q100.223 1620.38 100.223 1638.02 Q100.223 1655.59 100.663 1660.86 Z" fill="#000000" fill-rule="nonzero" fill-opacity="1" /><path clip-path="url(#clip660)" d="M100.663 1595.29 L96.0513 1595.29 Q96.0513 1587.31 95.0997 1585.48 Q94.075 1583.65 89.2441 1583.65 L49.06 1583.65 Q43.4971 1583.65 42.1064 1585.63 Q40.7157 1587.53 40.7157 1595.29 L36.0312 1595.29 L34.421 1574.21 L50.1579 1574.21 Q34.421 1567.18 34.421 1552.03 Q34.421 1534.46 49.06 1532.05 Q43.3508 1529.49 38.8859 1524.14 Q34.421 1518.73 34.421 1510.31 Q34.421 1499.04 39.9838 1494.57 Q43.7167 1491.28 47.8889 1490.62 Q52.061 1489.96 62.8939 1489.96 L91.5132 1489.96 Q94.6606 1489.81 95.3925 1487.4 Q96.0513 1484.98 96.0513 1478.25 L100.663 1478.25 Q100.223 1493.55 100.223 1495.01 Q100.223 1496.18 100.663 1511.99 L96.0513 1511.99 Q96.0513 1504.01 95.0997 1502.18 Q94.075 1500.28 89.2441 1500.28 L54.33 1500.28 Q46.7177 1500.28 42.2528 1502.62 Q37.7147 1504.97 37.7147 1511.41 Q37.7147 1519.17 44.2291 1525.39 Q50.7435 1531.61 61.7227 1531.61 L89.2441 1531.61 Q94.075 1531.61 95.0997 1529.78 Q96.0513 1527.88 96.0513 1519.9 L100.663 1519.9 Q100.223 1535.2 100.223 1536.73 Q100.223 1537.9 100.663 1553.64 L96.0513 1553.64 Q96.0513 1545.66 95.0997 1543.83 Q94.075 1541.93 89.2441 1541.93 L54.33 1541.93 Q46.7177 1541.93 42.2528 1544.27 Q37.7147 1546.61 37.7147 1553.05 Q37.7147 1560.81 44.2291 1567.03 Q50.7435 1573.26 61.7227 1573.26 L89.2441 1573.26 Q94.075 1573.26 95.0997 1571.43 Q96.0513 1569.52 96.0513 1561.62 L100.663 1561.62 Q100.223 1576.92 100.223 1578.38 Q100.223 1579.55 100.663 1595.29 Z" fill="#000000" fill-rule="nonzero" fill-opacity="1" /><path clip-path="url(#clip660)" d="M138.138 1432.08 L-11.7652 1432.08 L-11.7652 1409.46 L-8.32501 1409.46 L-8.32501 1422.05 L134.698 1422.05 L134.698 1409.46 L138.138 1409.46 L138.138 1432.08 Z" fill="#000000" fill-rule="nonzero" fill-opacity="1" /><path clip-path="url(#clip660)" d="M100.809 1316.68 Q102.2 1316.68 102.346 1318.29 L102.346 1321.59 Q102.346 1324.96 101.834 1326.42 Q101.321 1327.88 98.9791 1329.57 Q97.5152 1330.59 90.708 1333.15 Q83.8277 1335.64 73.434 1339.3 Q63.0403 1342.89 56.8919 1345.3 L99.4914 1381.39 Q102.639 1383.88 102.639 1386.37 Q102.639 1388.2 101.395 1389.51 Q100.15 1390.83 98.2471 1390.83 Q96.8564 1390.83 96.0513 1390.32 Q95.2461 1389.73 93.6358 1388.2 L52.5733 1346.77 L11.8037 1361.33 Q4.26455 1364.11 2.36148 1365.72 Q0.458407 1367.26 -0.200349 1371.07 Q-0.566324 1372.46 -1.73745 1372.46 Q-3.34774 1372.46 -3.34774 1369.75 Q-3.34774 1355.26 7.26556 1351.45 L92.5379 1320.86 Q97.442 1319.17 99.4914 1317.42 Q100.443 1316.68 100.809 1316.68 Z" fill="#000000" fill-rule="nonzero" fill-opacity="1" /><path clip-path="url(#clip660)" d="M134.698 1304.35 L134.698 1291.76 L-8.32501 1291.76 L-8.32501 1304.35 L-11.7652 1304.35 L-11.7652 1281.73 L138.138 1281.73 L138.138 1304.35 L134.698 1304.35 Z" fill="#000000" fill-rule="nonzero" fill-opacity="1" /><circle clip-path="url(#clip662)" cx="1145.84" cy="1890.81" r="36" fill="#bed2e6" fill-rule="evenodd" fill-opacity="1" stroke="#000000" stroke-opacity="1" stroke-width="6.4"/>
<circle clip-path="url(#clip662)" cx="1145.84" cy="1033.15" r="36" fill="#bed2e6" fill-rule="evenodd" fill-opacity="1" stroke="#000000" stroke-opacity="1" stroke-width="6.4"/>
<circle clip-path="url(#clip662)" cx="1170.23" cy="1468.66" r="36" fill="#bed2e6" fill-rule="evenodd" fill-opacity="1" stroke="#000000" stroke-opacity="1" stroke-width="6.4"/>
<circle clip-path="url(#clip662)" cx="1170.23" cy="1455.3" r="36" fill="#bed2e6" fill-rule="evenodd" fill-opacity="1" stroke="#000000" stroke-opacity="1" stroke-width="6.4"/>
<circle clip-path="url(#clip662)" cx="1311.87" cy="1858.04" r="36" fill="#bed2e6" fill-rule="evenodd" fill-opacity="1" stroke="#000000" stroke-opacity="1" stroke-width="6.4"/>
<circle clip-path="url(#clip662)" cx="1311.87" cy="1065.92" r="36" fill="#bed2e6" fill-rule="evenodd" fill-opacity="1" stroke="#000000" stroke-opacity="1" stroke-width="6.4"/>
<circle clip-path="url(#clip662)" cx="1686.64" cy="2260.5" r="36" fill="#bed2e6" fill-rule="evenodd" fill-opacity="1" stroke="#000000" stroke-opacity="1" stroke-width="6.4"/>
<circle clip-path="url(#clip662)" cx="1686.64" cy="663.46" r="36" fill="#bed2e6" fill-rule="evenodd" fill-opacity="1" stroke="#000000" stroke-opacity="1" stroke-width="6.4"/>
<circle clip-path="url(#clip662)" cx="1736.99" cy="2232.01" r="36" fill="#bed2e6" fill-rule="evenodd" fill-opacity="1" stroke="#000000" stroke-opacity="1" stroke-width="6.4"/>
<circle clip-path="url(#clip662)" cx="1736.99" cy="691.945" r="36" fill="#bed2e6" fill-rule="evenodd" fill-opacity="1" stroke="#000000" stroke-opacity="1" stroke-width="6.4"/>
<circle clip-path="url(#clip662)" cx="2272.33" cy="2552.99" r="36" fill="#bed2e6" fill-rule="evenodd" fill-opacity="1" stroke="#000000" stroke-opacity="1" stroke-width="6.4"/>
<circle clip-path="url(#clip662)" cx="2272.33" cy="370.975" r="36" fill="#bed2e6" fill-rule="evenodd" fill-opacity="1" stroke="#000000" stroke-opacity="1" stroke-width="6.4"/>
<circle clip-path="url(#clip662)" cx="2285.27" cy="2529.82" r="36" fill="#bed2e6" fill-rule="evenodd" fill-opacity="1" stroke="#000000" stroke-opacity="1" stroke-width="6.4"/>
<circle clip-path="url(#clip662)" cx="2285.27" cy="394.144" r="36" fill="#bed2e6" fill-rule="evenodd" fill-opacity="1" stroke="#000000" stroke-opacity="1" stroke-width="6.4"/>
<circle clip-path="url(#clip662)" cx="2738.65" cy="2740.34" r="36" fill="#bed2e6" fill-rule="evenodd" fill-opacity="1" stroke="#000000" stroke-opacity="1" stroke-width="6.4"/>
<circle clip-path="url(#clip662)" cx="2738.65" cy="183.621" r="36" fill="#bed2e6" fill-rule="evenodd" fill-opacity="1" stroke="#000000" stroke-opacity="1" stroke-width="6.4"/>
<circle clip-path="url(#clip662)" cx="2740.43" cy="2721.48" r="36" fill="#bed2e6" fill-rule="evenodd" fill-opacity="1" stroke="#000000" stroke-opacity="1" stroke-width="6.4"/>
<circle clip-path="url(#clip662)" cx="2740.43" cy="202.477" r="36" fill="#bed2e6" fill-rule="evenodd" fill-opacity="1" stroke="#000000" stroke-opacity="1" stroke-width="6.4"/>
<circle clip-path="url(#clip662)" cx="2757.7" cy="1461.98" r="36" fill="#bed2e6" fill-rule="evenodd" fill-opacity="1" stroke="#000000" stroke-opacity="1" stroke-width="6.4"/>
<circle clip-path="url(#clip662)" cx="3137.16" cy="1461.98" r="36" fill="#bed2e6" fill-rule="evenodd" fill-opacity="1" stroke="#000000" stroke-opacity="1" stroke-width="6.4"/>
<circle clip-path="url(#clip662)" cx="3144.51" cy="1461.98" r="36" fill="#bed2e6" fill-rule="evenodd" fill-opacity="1" stroke="#000000" stroke-opacity="1" stroke-width="6.4"/>
<circle clip-path="url(#clip662)" cx="3289.88" cy="1461.98" r="36" fill="#bed2e6" fill-rule="evenodd" fill-opacity="1" stroke="#000000" stroke-opacity="1" stroke-width="6.4"/>
<circle clip-path="url(#clip662)" cx="3401.6" cy="1462.54" r="36" fill="#bed2e6" fill-rule="evenodd" fill-opacity="1" stroke="#000000" stroke-opacity="1" stroke-width="6.4"/>
<circle clip-path="url(#clip662)" cx="3401.6" cy="1461.42" r="36" fill="#bed2e6" fill-rule="evenodd" fill-opacity="1" stroke="#000000" stroke-opacity="1" stroke-width="6.4"/>
<circle clip-path="url(#clip662)" cx="3589.18" cy="1462.14" r="36" fill="#bed2e6" fill-rule="evenodd" fill-opacity="1" stroke="#000000" stroke-opacity="1" stroke-width="6.4"/>
<circle clip-path="url(#clip662)" cx="3589.18" cy="1461.82" r="36" fill="#bed2e6" fill-rule="evenodd" fill-opacity="1" stroke="#000000" stroke-opacity="1" stroke-width="6.4"/>
<circle clip-path="url(#clip662)" cx="3686.86" cy="1462" r="36" fill="#bed2e6" fill-rule="evenodd" fill-opacity="1" stroke="#000000" stroke-opacity="1" stroke-width="6.4"/>
<circle clip-path="url(#clip662)" cx="3686.86" cy="1461.96" r="36" fill="#bed2e6" fill-rule="evenodd" fill-opacity="1" stroke="#000000" stroke-opacity="1" stroke-width="6.4"/>
<circle clip-path="url(#clip662)" cx="3768.28" cy="1461.98" r="36" fill="#bed2e6" fill-rule="evenodd" fill-opacity="1" stroke="#000000" stroke-opacity="1" stroke-width="6.4"/>
<circle clip-path="url(#clip662)" cx="3809.93" cy="1462.01" r="36" fill="#bed2e6" fill-rule="evenodd" fill-opacity="1" stroke="#000000" stroke-opacity="1" stroke-width="6.4"/>
<circle clip-path="url(#clip662)" cx="3809.93" cy="1461.95" r="36" fill="#bed2e6" fill-rule="evenodd" fill-opacity="1" stroke="#000000" stroke-opacity="1" stroke-width="6.4"/>
<circle clip-path="url(#clip662)" cx="3830.09" cy="1461.98" r="36" fill="#bed2e6" fill-rule="evenodd" fill-opacity="1" stroke="#000000" stroke-opacity="1" stroke-width="6.4"/>
<circle clip-path="url(#clip662)" cx="1153.47" cy="1468.87" r="25.2" fill="#8b6bb0" fill-rule="evenodd" fill-opacity="1" stroke="#000000" stroke-opacity="1" stroke-width="6.4"/>
<circle clip-path="url(#clip662)" cx="1153.47" cy="1455.09" r="25.2" fill="#8b6bb0" fill-rule="evenodd" fill-opacity="1" stroke="#000000" stroke-opacity="1" stroke-width="6.4"/>
<circle clip-path="url(#clip662)" cx="1175.24" cy="1890.82" r="25.2" fill="#8b6bb0" fill-rule="evenodd" fill-opacity="1" stroke="#000000" stroke-opacity="1" stroke-width="6.4"/>
<circle clip-path="url(#clip662)" cx="1175.24" cy="1033.14" r="25.2" fill="#8b6bb0" fill-rule="evenodd" fill-opacity="1" stroke="#000000" stroke-opacity="1" stroke-width="6.4"/>
<circle clip-path="url(#clip662)" cx="1337.86" cy="1858.04" r="25.2" fill="#8b6bb0" fill-rule="evenodd" fill-opacity="1" stroke="#000000" stroke-opacity="1" stroke-width="6.4"/>
<circle clip-path="url(#clip662)" cx="1337.86" cy="1065.92" r="25.2" fill="#8b6bb0" fill-rule="evenodd" fill-opacity="1" stroke="#000000" stroke-opacity="1" stroke-width="6.4"/>
<circle clip-path="url(#clip662)" cx="1695.4" cy="2260.5" r="25.2" fill="#8b6bb0" fill-rule="evenodd" fill-opacity="1" stroke="#000000" stroke-opacity="1" stroke-width="6.4"/>
<circle clip-path="url(#clip662)" cx="1695.4" cy="663.459" r="25.2" fill="#8b6bb0" fill-rule="evenodd" fill-opacity="1" stroke="#000000" stroke-opacity="1" stroke-width="6.4"/>
<circle clip-path="url(#clip662)" cx="1740.26" cy="2232.01" r="25.2" fill="#8b6bb0" fill-rule="evenodd" fill-opacity="1" stroke="#000000" stroke-opacity="1" stroke-width="6.4"/>
<circle clip-path="url(#clip662)" cx="1740.26" cy="691.946" r="25.2" fill="#8b6bb0" fill-rule="evenodd" fill-opacity="1" stroke="#000000" stroke-opacity="1" stroke-width="6.4"/>
<circle clip-path="url(#clip662)" cx="2276.55" cy="2552.99" r="25.2" fill="#8b6bb0" fill-rule="evenodd" fill-opacity="1" stroke="#000000" stroke-opacity="1" stroke-width="6.4"/>
<circle clip-path="url(#clip662)" cx="2276.55" cy="370.974" r="25.2" fill="#8b6bb0" fill-rule="evenodd" fill-opacity="1" stroke="#000000" stroke-opacity="1" stroke-width="6.4"/>
<circle clip-path="url(#clip662)" cx="2285.48" cy="2529.82" r="25.2" fill="#8b6bb0" fill-rule="evenodd" fill-opacity="1" stroke="#000000" stroke-opacity="1" stroke-width="6.4"/>
<circle clip-path="url(#clip662)" cx="2285.48" cy="394.144" r="25.2" fill="#8b6bb0" fill-rule="evenodd" fill-opacity="1" stroke="#000000" stroke-opacity="1" stroke-width="6.4"/>
<circle clip-path="url(#clip662)" cx="2739.94" cy="2740.34" r="25.2" fill="#8b6bb0" fill-rule="evenodd" fill-opacity="1" stroke="#000000" stroke-opacity="1" stroke-width="6.4"/>
<circle clip-path="url(#clip662)" cx="2739.94" cy="183.621" r="25.2" fill="#8b6bb0" fill-rule="evenodd" fill-opacity="1" stroke="#000000" stroke-opacity="1" stroke-width="6.4"/>
<circle clip-path="url(#clip662)" cx="2740.43" cy="2721.48" r="25.2" fill="#8b6bb0" fill-rule="evenodd" fill-opacity="1" stroke="#000000" stroke-opacity="1" stroke-width="6.4"/>
<circle clip-path="url(#clip662)" cx="2740.43" cy="202.477" r="25.2" fill="#8b6bb0" fill-rule="evenodd" fill-opacity="1" stroke="#000000" stroke-opacity="1" stroke-width="6.4"/>
<circle clip-path="url(#clip662)" cx="2942.29" cy="1462.02" r="25.2" fill="#8b6bb0" fill-rule="evenodd" fill-opacity="1" stroke="#000000" stroke-opacity="1" stroke-width="6.4"/>
<circle clip-path="url(#clip662)" cx="2942.29" cy="1461.94" r="25.2" fill="#8b6bb0" fill-rule="evenodd" fill-opacity="1" stroke="#000000" stroke-opacity="1" stroke-width="6.4"/>
<circle clip-path="url(#clip662)" cx="3097.8" cy="1462.02" r="25.2" fill="#8b6bb0" fill-rule="evenodd" fill-opacity="1" stroke="#000000" stroke-opacity="1" stroke-width="6.4"/>
<circle clip-path="url(#clip662)" cx="3097.8" cy="1461.94" r="25.2" fill="#8b6bb0" fill-rule="evenodd" fill-opacity="1" stroke="#000000" stroke-opacity="1" stroke-width="6.4"/>
<circle clip-path="url(#clip662)" cx="3137.27" cy="1461.98" r="25.2" fill="#8b6bb0" fill-rule="evenodd" fill-opacity="1" stroke="#000000" stroke-opacity="1" stroke-width="6.4"/>
<circle clip-path="url(#clip662)" cx="3269.73" cy="1462.14" r="25.2" fill="#8b6bb0" fill-rule="evenodd" fill-opacity="1" stroke="#000000" stroke-opacity="1" stroke-width="6.4"/>
<circle clip-path="url(#clip662)" cx="3269.73" cy="1461.82" r="25.2" fill="#8b6bb0" fill-rule="evenodd" fill-opacity="1" stroke="#000000" stroke-opacity="1" stroke-width="6.4"/>
<circle clip-path="url(#clip662)" cx="3570.01" cy="1462.48" r="25.2" fill="#8b6bb0" fill-rule="evenodd" fill-opacity="1" stroke="#000000" stroke-opacity="1" stroke-width="6.4"/>
<circle clip-path="url(#clip662)" cx="3570.01" cy="1461.48" r="25.2" fill="#8b6bb0" fill-rule="evenodd" fill-opacity="1" stroke="#000000" stroke-opacity="1" stroke-width="6.4"/>
<circle clip-path="url(#clip662)" cx="3752.49" cy="1461.98" r="25.2" fill="#8b6bb0" fill-rule="evenodd" fill-opacity="1" stroke="#000000" stroke-opacity="1" stroke-width="6.4"/>
<circle clip-path="url(#clip662)" cx="3760.77" cy="1461.98" r="25.2" fill="#8b6bb0" fill-rule="evenodd" fill-opacity="1" stroke="#000000" stroke-opacity="1" stroke-width="6.4"/>
<circle clip-path="url(#clip662)" cx="3830.09" cy="1461.98" r="25.2" fill="#8b6bb0" fill-rule="evenodd" fill-opacity="1" stroke="#000000" stroke-opacity="1" stroke-width="6.4"/>
<circle clip-path="url(#clip662)" cx="3845.41" cy="1462.01" r="25.2" fill="#8b6bb0" fill-rule="evenodd" fill-opacity="1" stroke="#000000" stroke-opacity="1" stroke-width="6.4"/>
<circle clip-path="url(#clip662)" cx="3845.41" cy="1461.95" r="25.2" fill="#8b6bb0" fill-rule="evenodd" fill-opacity="1" stroke="#000000" stroke-opacity="1" stroke-width="6.4"/>
<polyline clip-path="url(#clip662)" style="stroke:#ff0000; stroke-linecap:round; stroke-linejoin:round; stroke-width:12; stroke-opacity:1; fill:none" points="3707.43,1233.8 3952.76,1233.8 "/>
<polyline clip-path="url(#clip662)" style="stroke:#ff0000; stroke-linecap:round; stroke-linejoin:round; stroke-width:12; stroke-opacity:1; fill:none" points="3892.76,1203.8 3952.76,1233.8 3892.76,1263.8 "/>
<polyline clip-path="url(#clip662)" style="stroke:#ff0000; stroke-linecap:round; stroke-linejoin:round; stroke-width:12; stroke-opacity:1; fill:none" points="3952.76,1233.8 3707.43,1233.8 "/>
<path clip-path="url(#clip660)" d="M3229.47 556.28 L3846.45 556.28 L3846.45 141.56 L3229.47 141.56  Z" fill="#ffffff" fill-rule="evenodd" fill-opacity="1"/>
<polyline clip-path="url(#clip660)" style="stroke:#000000; stroke-linecap:round; stroke-linejoin:round; stroke-width:4; stroke-opacity:1; fill:none" points="3229.47,556.28 3846.45,556.28 3846.45,141.56 3229.47,141.56 3229.47,556.28 "/>
<path clip-path="url(#clip660)" d="M3446.48 251.235 Q3446.48 251.429 3446.22 252.169 L3441.01 266.404 Q3440.72 267.242 3440.43 267.403 Q3440.14 267.531 3438.95 267.531 L3408.41 267.531 Q3407.67 267.531 3407.38 267.499 Q3407.09 267.467 3406.87 267.306 Q3406.64 267.145 3406.64 266.791 Q3406.64 266.147 3406.87 265.857 Q3407.13 265.567 3407.42 265.535 Q3407.71 265.503 3408.41 265.503 Q3410.03 265.503 3410.99 265.406 Q3411.96 265.309 3412.57 265.18 Q3413.21 265.019 3413.54 264.569 Q3413.89 264.118 3414.05 263.731 Q3414.21 263.313 3414.44 262.379 L3423.26 226.952 Q3423.52 225.889 3423.52 225.728 Q3423.52 225.116 3423.13 224.955 Q3422.78 224.762 3421.75 224.665 L3419.24 224.537 Q3418.46 224.537 3418.14 224.504 Q3417.85 224.472 3417.63 224.311 Q3417.4 224.15 3417.4 223.796 Q3417.4 223.184 3417.63 222.894 Q3417.88 222.572 3418.08 222.54 Q3418.3 222.475 3418.66 222.475 L3427.42 222.669 L3437.17 222.475 Q3438.24 222.475 3438.24 223.281 Q3438.24 224.182 3437.79 224.376 Q3437.34 224.537 3435.73 224.537 Q3432.63 224.537 3431.22 224.859 Q3429.83 225.181 3429.45 225.728 Q3429.09 226.244 3428.74 227.628 L3419.82 263.248 Q3419.49 264.44 3419.49 264.762 Q3419.49 265.116 3419.65 265.245 Q3419.85 265.341 3420.36 265.406 Q3420.94 265.503 3421.81 265.503 L3428 265.503 Q3429.86 265.503 3431.51 265.213 Q3433.15 264.923 3434.41 264.504 Q3435.69 264.085 3436.85 263.313 Q3438.01 262.54 3438.82 261.863 Q3439.65 261.155 3440.46 260.06 Q3441.3 258.933 3441.78 258.16 Q3442.3 257.354 3442.88 256.066 Q3443.45 254.746 3443.74 254.005 Q3444.07 253.232 3444.55 251.912 Q3444.84 251.235 3444.94 251.042 Q3445.03 250.849 3445.19 250.688 Q3445.39 250.527 3445.68 250.527 Q3446.06 250.527 3446.26 250.752 Q3446.48 250.978 3446.48 251.235 Z" fill="#000000" fill-rule="nonzero" fill-opacity="1" /><path clip-path="url(#clip660)" d="M3466.62 226.308 Q3466.62 227.725 3465.46 228.788 Q3464.34 229.818 3463.11 229.818 Q3461.99 229.818 3461.28 229.142 Q3460.6 228.434 3460.6 227.435 Q3460.6 226.115 3461.73 225.02 Q3462.86 223.925 3464.18 223.925 Q3465.27 223.925 3465.95 224.601 Q3466.62 225.277 3466.62 226.308 M3467.2 258.095 Q3467.2 258.353 3466.91 259.383 Q3466.62 260.382 3465.91 261.928 Q3465.24 263.441 3464.3 264.858 Q3463.37 266.275 3461.82 267.274 Q3460.31 268.272 3458.57 268.272 Q3456.22 268.272 3454.67 266.726 Q3453.16 265.18 3453.16 262.862 Q3453.16 261.606 3454.67 257.58 Q3459.05 245.857 3459.22 245.374 Q3459.96 243.538 3459.96 241.928 Q3459.96 241.187 3459.8 240.736 Q3459.63 240.253 3459.31 240.092 Q3458.99 239.899 3458.8 239.867 Q3458.64 239.834 3458.31 239.834 Q3456.41 239.834 3454.64 241.767 Q3452.87 243.699 3451.65 248.015 Q3451.39 248.82 3451.23 249.013 Q3451.07 249.206 3450.58 249.206 Q3449.78 249.174 3449.78 248.53 Q3449.78 248.337 3450 247.596 Q3450.23 246.823 3450.65 245.664 Q3451.07 244.472 3451.81 243.248 Q3452.55 241.992 3453.45 240.897 Q3454.38 239.802 3455.71 239.094 Q3457.03 238.385 3458.51 238.385 Q3460.92 238.385 3462.4 239.963 Q3463.92 241.509 3463.92 243.796 Q3463.92 245.052 3463.05 247.274 Q3461.99 250.173 3461.6 251.106 L3459.02 258.031 Q3458.09 260.543 3457.8 261.316 Q3457.54 262.056 3457.32 262.958 Q3457.12 263.828 3457.12 264.633 Q3457.12 265.76 3457.48 266.275 Q3457.86 266.791 3458.7 266.791 Q3461.02 266.791 3462.73 264.504 Q3464.43 262.185 3465.43 258.643 Q3465.46 258.546 3465.5 258.385 Q3465.75 257.58 3466.01 257.483 Q3466.14 257.451 3466.4 257.451 Q3467.2 257.451 3467.2 258.095 Z" fill="#000000" fill-rule="nonzero" fill-opacity="1" /><path clip-path="url(#clip660)" d="M3508.57 258.095 Q3508.57 258.353 3508.28 259.351 Q3507.99 260.35 3507.28 261.895 Q3506.61 263.441 3505.67 264.858 Q3504.74 266.243 3503.19 267.274 Q3501.68 268.272 3499.94 268.272 Q3497.62 268.272 3496.08 266.726 Q3494.53 265.18 3494.53 262.862 Q3494.53 261.573 3495.21 259.802 Q3499.49 248.369 3499.49 244.44 Q3499.49 239.834 3495.91 239.834 Q3494.14 239.834 3492.47 240.511 Q3490.83 241.155 3489.7 242.057 Q3488.57 242.958 3487.54 244.214 Q3486.54 245.438 3486.03 246.276 Q3485.54 247.081 3485.16 247.886 L3484.32 251.171 Q3484.13 252.073 3483.19 255.583 L3481.74 261.541 Q3480.71 265.986 3480.49 266.404 Q3480.17 267.306 3479.46 267.789 Q3478.75 268.272 3478.04 268.272 Q3477.23 268.272 3476.69 267.789 Q3476.14 267.306 3476.14 266.469 Q3476.14 266.34 3476.24 265.857 Q3476.33 265.374 3476.49 264.697 Q3476.65 264.021 3476.72 263.635 L3480.55 248.401 Q3481.26 245.632 3481.42 244.762 Q3481.61 243.86 3481.61 242.862 Q3481.61 239.834 3479.55 239.834 Q3477.88 239.834 3476.78 241.831 Q3475.69 243.828 3474.75 247.693 Q3474.46 248.755 3474.27 248.981 Q3474.11 249.206 3473.63 249.206 Q3472.82 249.174 3472.82 248.53 Q3472.82 248.369 3473.08 247.306 Q3473.34 246.243 3473.82 244.73 Q3474.34 243.184 3474.82 242.153 Q3475.24 241.38 3475.46 241.026 Q3475.72 240.64 3476.33 239.899 Q3476.98 239.126 3477.81 238.772 Q3478.68 238.385 3479.75 238.385 Q3482.13 238.385 3483.87 239.931 Q3485.61 241.445 3485.83 244.118 Q3490.12 238.385 3496.11 238.385 Q3499.65 238.385 3501.68 240.253 Q3503.71 242.121 3503.71 245.438 Q3503.71 246.211 3503.55 247.21 Q3503.42 248.176 3503.1 249.4 Q3502.81 250.623 3502.55 251.557 Q3502.29 252.491 3501.78 254.005 Q3501.26 255.486 3501.03 256.131 Q3500.81 256.775 3500.26 258.288 Q3499.75 259.77 3499.68 259.931 Q3498.49 262.926 3498.49 264.633 Q3498.49 265.76 3498.84 266.275 Q3499.23 266.791 3500.07 266.791 Q3502.32 266.791 3504 264.569 Q3505.7 262.314 3506.8 258.643 Q3507.06 257.838 3507.19 257.644 Q3507.35 257.451 3507.8 257.451 Q3508.57 257.451 3508.57 258.095 Z" fill="#000000" fill-rule="nonzero" fill-opacity="1" /><path clip-path="url(#clip660)" d="M3538.92 259.899 Q3539.18 260.189 3539.18 260.478 Q3539.18 260.768 3538.53 261.606 Q3537.92 262.443 3536.6 263.57 Q3535.28 264.697 3533.57 265.76 Q3531.87 266.823 3529.36 267.531 Q3526.84 268.272 3524.2 268.272 Q3519.47 268.272 3516.63 264.891 Q3513.83 261.509 3513.83 256.324 Q3513.83 253.007 3514.93 250.076 Q3516.02 247.113 3517.79 245.02 Q3519.6 242.926 3521.85 241.413 Q3524.14 239.867 3526.52 239.126 Q3528.9 238.385 3531.13 238.385 Q3534.38 238.385 3536.28 240.028 Q3538.18 241.67 3538.18 243.989 Q3538.18 244.537 3538.02 245.213 Q3537.89 245.889 3537.44 246.952 Q3537.02 248.015 3535.93 249.078 Q3534.83 250.108 3533.22 250.784 Q3529.65 252.298 3523.14 252.298 L3519.63 252.298 Q3518.6 256.453 3518.6 259.158 Q3518.6 260.221 3518.79 261.316 Q3518.99 262.379 3519.5 263.731 Q3520.05 265.084 3521.27 265.953 Q3522.53 266.791 3524.33 266.791 Q3524.91 266.791 3525.52 266.759 Q3526.17 266.726 3527.78 266.372 Q3529.42 266.018 3530.87 265.406 Q3532.32 264.794 3534.15 263.474 Q3536.02 262.121 3537.5 260.285 Q3538.02 259.609 3538.37 259.609 Q3538.66 259.609 3538.92 259.899 M3535.99 243.989 Q3535.99 242.218 3534.67 241.026 Q3533.38 239.834 3531.13 239.834 Q3530.42 239.834 3529.55 239.995 Q3528.68 240.157 3527.23 240.833 Q3525.81 241.509 3524.56 242.636 Q3523.3 243.731 3522.04 245.889 Q3520.79 248.015 3520.05 250.849 L3522.75 250.849 Q3523.69 250.849 3524.36 250.849 Q3525.04 250.817 3526.52 250.688 Q3528.04 250.559 3529.13 250.334 Q3530.23 250.076 3531.61 249.561 Q3532.99 249.045 3533.86 248.369 Q3534.77 247.66 3535.38 246.533 Q3535.99 245.406 3535.99 243.989 Z" fill="#000000" fill-rule="nonzero" fill-opacity="1" /><path clip-path="url(#clip660)" d="M3585.97 244.053 Q3585.97 245.857 3585.07 246.823 Q3584.17 247.757 3582.94 247.757 Q3581.94 247.757 3581.4 247.177 Q3580.88 246.598 3580.88 245.825 Q3580.88 244.698 3581.78 243.796 Q3582.72 242.894 3584.07 242.862 Q3583.62 241.67 3582.43 240.962 Q3581.24 240.221 3580.17 240.028 Q3579.14 239.834 3578.11 239.834 Q3576.08 239.834 3574.54 240.479 Q3572.99 241.123 3572.22 242.121 Q3571.44 243.087 3571.09 244.021 Q3570.74 244.955 3570.74 245.76 Q3570.74 246.469 3570.9 247.049 Q3571.09 247.596 3571.54 248.015 Q3571.99 248.401 3572.31 248.659 Q3572.67 248.916 3573.44 249.142 Q3574.21 249.367 3574.54 249.464 Q3574.86 249.528 3575.76 249.722 Q3577.63 250.108 3578.47 250.334 Q3579.3 250.527 3580.4 251.074 Q3581.53 251.622 3582.36 252.491 Q3584.39 254.52 3584.39 257.322 Q3584.39 258.353 3584.04 259.609 Q3583.72 260.865 3582.78 262.443 Q3581.85 264.021 3580.43 265.277 Q3579.01 266.533 3576.57 267.403 Q3574.15 268.272 3571.12 268.272 Q3566.9 268.272 3564.3 266.501 Q3561.69 264.697 3561.69 261.863 Q3561.69 259.802 3562.81 258.675 Q3563.94 257.515 3565.39 257.515 Q3566.49 257.515 3567.16 258.127 Q3567.84 258.707 3567.84 259.802 Q3567.84 261.284 3566.65 262.411 Q3565.45 263.538 3563.68 263.313 Q3565.2 266.791 3571.19 266.791 Q3573.44 266.791 3575.18 266.211 Q3576.95 265.599 3577.92 264.762 Q3578.92 263.892 3579.56 262.829 Q3580.2 261.767 3580.4 260.961 Q3580.62 260.156 3580.62 259.544 Q3580.62 258.482 3580.2 257.676 Q3579.79 256.871 3579.21 256.42 Q3578.66 255.937 3577.6 255.551 Q3576.57 255.132 3575.82 254.971 Q3575.08 254.81 3573.76 254.553 Q3573.15 254.424 3572.77 254.359 Q3572.38 254.263 3571.57 254.005 Q3570.8 253.715 3570.25 253.425 Q3569.74 253.135 3569.06 252.62 Q3568.39 252.105 3567.97 251.493 Q3567.55 250.881 3567.26 249.979 Q3566.97 249.078 3566.97 248.015 Q3566.97 247.049 3567.26 245.889 Q3567.58 244.73 3568.39 243.377 Q3569.22 242.024 3570.41 240.929 Q3571.61 239.834 3573.6 239.126 Q3575.63 238.385 3578.11 238.385 Q3581.72 238.385 3583.84 240.06 Q3585.97 241.702 3585.97 244.053 Z" fill="#000000" fill-rule="nonzero" fill-opacity="1" /><path clip-path="url(#clip660)" d="M3617.45 259.899 Q3617.71 260.189 3617.71 260.478 Q3617.71 260.768 3617.06 261.606 Q3616.45 262.443 3615.13 263.57 Q3613.81 264.697 3612.1 265.76 Q3610.39 266.823 3607.88 267.531 Q3605.37 268.272 3602.73 268.272 Q3597.8 268.272 3594.9 265.019 Q3592.04 261.767 3592.04 257.097 Q3592.04 252.556 3594.58 248.208 Q3597.13 243.828 3601.25 241.123 Q3605.37 238.385 3609.72 238.385 Q3613.16 238.385 3615.32 239.995 Q3617.48 241.606 3617.48 244.053 Q3617.48 245.954 3616.39 247.113 Q3615.29 248.272 3613.81 248.272 Q3612.78 248.272 3612.07 247.693 Q3611.36 247.081 3611.36 245.954 Q3611.36 244.504 3612.55 243.377 Q3613 242.926 3613.52 242.733 Q3614.07 242.508 3614.39 242.508 Q3614.71 242.475 3615.45 242.475 Q3614.77 241.219 3613.16 240.543 Q3611.59 239.834 3609.78 239.834 Q3607.11 239.834 3604.57 241.702 Q3602.02 243.538 3600.48 246.437 Q3598.93 249.271 3597.93 253.296 Q3596.93 257.29 3596.93 259.609 Q3596.93 262.797 3598.41 264.794 Q3599.9 266.791 3602.86 266.791 Q3603.44 266.791 3604.05 266.759 Q3604.69 266.726 3606.3 266.372 Q3607.95 266.018 3609.4 265.406 Q3610.85 264.794 3612.68 263.474 Q3614.55 262.121 3616.03 260.285 Q3616.55 259.609 3616.9 259.609 Q3617.19 259.609 3617.45 259.899 Z" fill="#000000" fill-rule="nonzero" fill-opacity="1" /><path clip-path="url(#clip660)" d="M3649.97 258.095 Q3649.1 262.25 3647.98 264.633 Q3646.17 268.272 3643.11 268.272 Q3640.8 268.272 3639.15 266.855 Q3637.51 265.438 3637.12 263.313 Q3632.9 268.272 3628.52 268.272 Q3624.66 268.272 3622.21 265.341 Q3619.76 262.379 3619.76 257.709 Q3619.76 253.007 3622.08 248.498 Q3624.43 243.989 3628.14 241.187 Q3631.84 238.385 3635.64 238.385 Q3639.67 238.385 3641.73 242.604 Q3641.89 241.445 3642.63 240.575 Q3643.37 239.706 3644.5 239.706 Q3645.37 239.706 3645.88 240.189 Q3646.4 240.64 3646.4 241.477 Q3646.4 241.896 3645.95 243.731 L3643.57 252.942 L3642.12 258.9 Q3641.57 261.09 3641.41 261.895 Q3641.28 262.701 3641.28 263.763 Q3641.28 266.791 3643.24 266.791 Q3644.21 266.791 3644.98 266.179 Q3645.76 265.567 3646.37 264.279 Q3646.98 262.99 3647.37 261.799 Q3647.75 260.575 3648.27 258.643 Q3648.43 257.87 3648.56 257.676 Q3648.72 257.451 3649.17 257.451 Q3649.97 257.451 3649.97 258.095 M3640.92 245.632 Q3640.92 245.342 3640.7 244.537 Q3640.47 243.731 3639.96 242.604 Q3639.44 241.477 3638.32 240.672 Q3637.22 239.834 3635.74 239.834 Q3633.74 239.834 3631.65 241.541 Q3629.59 243.248 3628.07 246.147 Q3626.91 248.466 3625.66 253.329 Q3624.43 258.192 3624.43 260.607 Q3624.43 262.089 3624.76 263.409 Q3625.11 264.697 3626.11 265.76 Q3627.11 266.791 3628.65 266.791 Q3632.42 266.791 3636.13 262.121 Q3636.83 261.316 3637 260.994 Q3637.19 260.639 3637.45 259.673 L3640.73 246.759 Q3640.92 245.793 3640.92 245.632 Z" fill="#000000" fill-rule="nonzero" fill-opacity="1" /><path clip-path="url(#clip660)" d="M3668.14 222.475 L3658.64 260.607 Q3658.26 262.121 3658.26 263.763 Q3658.26 266.791 3660.25 266.791 Q3661.19 266.791 3661.96 266.179 Q3662.73 265.535 3663.31 264.279 Q3663.93 262.99 3664.31 261.767 Q3664.73 260.543 3665.25 258.643 Q3665.41 257.902 3665.57 257.676 Q3665.73 257.451 3666.18 257.451 Q3666.99 257.451 3666.99 258.095 Q3666.18 262.056 3664.99 264.569 Q3663.25 268.272 3660.03 268.272 Q3657.61 268.272 3655.81 266.598 Q3654.04 264.891 3654.04 262.185 Q3654.04 261.155 3654.36 259.931 L3662.67 226.952 L3662.9 225.664 Q3662.9 225.31 3662.77 225.116 Q3662.64 224.923 3661.86 224.73 Q3661.12 224.537 3659.64 224.537 Q3659.03 224.537 3658.74 224.504 Q3658.48 224.472 3658.23 224.311 Q3658 224.15 3658 223.796 Q3658 223.216 3658.23 222.894 Q3658.48 222.572 3658.68 222.508 Q3658.87 222.443 3659.26 222.411 Q3659.8 222.379 3661.64 222.218 Q3663.48 222.025 3665.05 221.896 Q3666.63 221.767 3667.31 221.767 Q3667.69 221.767 3667.89 221.96 Q3668.11 222.121 3668.14 222.314 L3668.14 222.475 Z" fill="#000000" fill-rule="nonzero" fill-opacity="1" /><path clip-path="url(#clip660)" d="M3699.37 259.899 Q3699.63 260.189 3699.63 260.478 Q3699.63 260.768 3698.99 261.606 Q3698.37 262.443 3697.05 263.57 Q3695.73 264.697 3694.03 265.76 Q3692.32 266.823 3689.81 267.531 Q3687.3 268.272 3684.65 268.272 Q3679.92 268.272 3677.09 264.891 Q3674.28 261.509 3674.28 256.324 Q3674.28 253.007 3675.38 250.076 Q3676.47 247.113 3678.25 245.02 Q3680.05 242.926 3682.3 241.413 Q3684.59 239.867 3686.97 239.126 Q3689.36 238.385 3691.58 238.385 Q3694.83 238.385 3696.73 240.028 Q3698.63 241.67 3698.63 243.989 Q3698.63 244.537 3698.47 245.213 Q3698.34 245.889 3697.89 246.952 Q3697.47 248.015 3696.38 249.078 Q3695.28 250.108 3693.67 250.784 Q3690.1 252.298 3683.59 252.298 L3680.08 252.298 Q3679.05 256.453 3679.05 259.158 Q3679.05 260.221 3679.24 261.316 Q3679.44 262.379 3679.95 263.731 Q3680.5 265.084 3681.72 265.953 Q3682.98 266.791 3684.78 266.791 Q3685.36 266.791 3685.97 266.759 Q3686.62 266.726 3688.23 266.372 Q3689.87 266.018 3691.32 265.406 Q3692.77 264.794 3694.61 263.474 Q3696.47 262.121 3697.96 260.285 Q3698.47 259.609 3698.83 259.609 Q3699.11 259.609 3699.37 259.899 M3696.44 243.989 Q3696.44 242.218 3695.12 241.026 Q3693.83 239.834 3691.58 239.834 Q3690.87 239.834 3690 239.995 Q3689.13 240.157 3687.68 240.833 Q3686.26 241.509 3685.01 242.636 Q3683.75 243.731 3682.5 245.889 Q3681.24 248.015 3680.5 250.849 L3683.21 250.849 Q3684.14 250.849 3684.82 250.849 Q3685.49 250.817 3686.97 250.688 Q3688.49 250.559 3689.58 250.334 Q3690.68 250.076 3692.06 249.561 Q3693.45 249.045 3694.32 248.369 Q3695.22 247.66 3695.83 246.533 Q3696.44 245.406 3696.44 243.989 Z" fill="#000000" fill-rule="nonzero" fill-opacity="1" /><circle clip-path="url(#clip660)" cx="3371.21" cy="348.92" r="43.8857" fill="#bed2e6" fill-rule="evenodd" fill-opacity="1" stroke="#000000" stroke-opacity="1" stroke-width="7.8019"/>
<path clip-path="url(#clip660)" d="M3512.95 324.757 L3512.95 321.759 Q3524.47 321.759 3530.42 315.622 Q3532.06 315.622 3532.34 315.997 Q3532.62 316.372 3532.62 318.105 L3532.62 371.93 Q3532.62 374.787 3534.03 375.677 Q3535.44 376.568 3541.57 376.568 L3544.62 376.568 L3544.62 379.519 Q3541.24 379.238 3529.06 379.238 Q3516.88 379.238 3513.56 379.519 L3513.56 376.568 L3516.6 376.568 Q3522.65 376.568 3524.1 375.724 Q3525.55 374.834 3525.55 371.93 L3525.55 322.227 Q3520.54 324.757 3512.95 324.757 Z" fill="#000000" fill-rule="nonzero" fill-opacity="1" /><path clip-path="url(#clip660)" d="M3552.12 377.973 Q3550.67 376.427 3550.67 374.413 Q3550.67 372.398 3552.12 370.946 Q3553.58 369.447 3555.78 369.447 Q3557.89 369.447 3559.29 370.852 Q3560.74 372.211 3560.74 374.46 Q3560.74 376.661 3559.2 378.113 Q3557.7 379.519 3555.78 379.519 Q3553.58 379.519 3552.12 377.973 Z" fill="#000000" fill-rule="nonzero" fill-opacity="1" /><path clip-path="url(#clip660)" d="M3577.07 348.835 Q3577.07 334.735 3580.63 327.053 Q3585.6 315.622 3597.31 315.622 Q3599.79 315.622 3602.37 316.325 Q3604.99 316.981 3608.27 319.557 Q3611.6 322.134 3613.61 326.35 Q3617.45 334.501 3617.45 348.835 Q3617.45 362.842 3613.89 370.478 Q3608.69 381.627 3597.22 381.627 Q3592.91 381.627 3588.5 379.425 Q3584.15 377.223 3581.38 371.93 Q3577.07 364.013 3577.07 348.835 M3585.04 347.664 Q3585.04 362.139 3586.07 367.901 Q3587.24 374.132 3590.42 376.849 Q3593.66 379.519 3597.22 379.519 Q3601.06 379.519 3604.24 376.661 Q3607.47 373.757 3608.46 367.526 Q3609.54 361.39 3609.49 347.664 Q3609.49 334.313 3608.55 328.973 Q3607.29 322.743 3603.91 320.26 Q3600.59 317.73 3597.22 317.73 Q3595.95 317.73 3594.59 318.105 Q3593.28 318.48 3591.36 319.557 Q3589.44 320.635 3587.94 323.305 Q3586.49 325.975 3585.79 330.004 Q3585.04 335.204 3585.04 347.664 Z" fill="#000000" fill-rule="nonzero" fill-opacity="1" /><circle clip-path="url(#clip660)" cx="3371.21" cy="452.6" r="43.008" fill="#8b6bb0" fill-rule="evenodd" fill-opacity="1" stroke="#000000" stroke-opacity="1" stroke-width="10.9227"/>
<path clip-path="url(#clip660)" d="M3512.95 470.27 Q3512.95 467.412 3514.59 466.054 Q3516.23 464.695 3518.34 464.695 Q3520.54 464.695 3522.08 466.147 Q3523.68 467.553 3523.68 470.035 Q3523.68 472.706 3521.8 474.205 Q3519.98 475.704 3517.35 475.329 Q3519.65 479.17 3523.86 480.903 Q3528.13 482.637 3532.06 482.637 Q3536.18 482.637 3539.51 479.076 Q3542.88 475.516 3542.88 466.803 Q3542.88 459.402 3539.98 455.139 Q3537.12 450.876 3531.45 450.876 L3527.24 450.876 Q3525.79 450.876 3525.36 450.735 Q3524.94 450.595 3524.94 449.798 Q3524.94 448.861 3526.39 448.674 Q3527.85 448.674 3530.14 448.393 Q3535.72 448.206 3538.67 443.381 Q3541.34 438.884 3541.34 432.466 Q3541.34 426.61 3538.53 424.174 Q3535.76 421.691 3532.16 421.691 Q3528.78 421.691 3525.08 423.097 Q3521.38 424.502 3519.37 427.641 Q3525.32 427.641 3525.32 432.466 Q3525.32 434.574 3523.96 435.979 Q3522.65 437.338 3520.45 437.338 Q3518.34 437.338 3516.93 436.026 Q3515.53 434.667 3515.53 432.372 Q3515.53 426.891 3520.4 423.097 Q3525.32 419.302 3532.53 419.302 Q3539.65 419.302 3544.9 423.05 Q3550.19 426.798 3550.19 432.559 Q3550.19 438.228 3546.44 442.865 Q3542.7 447.503 3536.75 449.424 Q3544.05 450.876 3548.41 455.841 Q3552.77 460.76 3552.77 466.803 Q3552.77 474.298 3546.87 479.826 Q3540.96 485.307 3532.34 485.307 Q3524.38 485.307 3518.66 480.997 Q3512.95 476.687 3512.95 470.27 Z" fill="#000000" fill-rule="nonzero" fill-opacity="1" /><path clip-path="url(#clip660)" d="M3561.92 481.653 Q3560.46 480.107 3560.46 478.093 Q3560.46 476.078 3561.92 474.626 Q3563.37 473.127 3565.57 473.127 Q3567.68 473.127 3569.08 474.532 Q3570.53 475.891 3570.53 478.14 Q3570.53 480.341 3568.99 481.793 Q3567.49 483.199 3565.57 483.199 Q3563.37 483.199 3561.92 481.653 Z" fill="#000000" fill-rule="nonzero" fill-opacity="1" /><path clip-path="url(#clip660)" d="M3586.86 452.515 Q3586.86 438.415 3590.42 430.733 Q3595.39 419.302 3607.1 419.302 Q3609.58 419.302 3612.16 420.005 Q3614.78 420.661 3618.06 423.237 Q3621.39 425.814 3623.4 430.03 Q3627.24 438.181 3627.24 452.515 Q3627.24 466.522 3623.68 474.158 Q3618.48 485.307 3607.01 485.307 Q3602.7 485.307 3598.29 483.105 Q3593.94 480.903 3591.17 475.61 Q3586.86 467.693 3586.86 452.515 M3594.83 451.344 Q3594.83 465.819 3595.86 471.581 Q3597.03 477.812 3600.21 480.529 Q3603.45 483.199 3607.01 483.199 Q3610.85 483.199 3614.03 480.341 Q3617.27 477.437 3618.25 471.206 Q3619.33 465.07 3619.28 451.344 Q3619.28 437.993 3618.34 432.653 Q3617.08 426.423 3613.71 423.94 Q3610.38 421.41 3607.01 421.41 Q3605.74 421.41 3604.38 421.785 Q3603.07 422.16 3601.15 423.237 Q3599.23 424.315 3597.73 426.985 Q3596.28 429.655 3595.58 433.684 Q3594.83 438.884 3594.83 451.344 Z" fill="#000000" fill-rule="nonzero" fill-opacity="1" /></svg>
