<?xml version="1.0" encoding="utf-8"?>
<svg xmlns="http://www.w3.org/2000/svg" xmlns:xlink="http://www.w3.org/1999/xlink" width="600" height="400" viewBox="0 0 2400 1600">
<defs>
  <clipPath id="clip930">
    <rect x="0" y="0" width="2400" height="1600"/>
  </clipPath>
</defs>
<path clip-path="url(#clip930)" d="M0 1600 L2400 1600 L2400 0 L0 0  Z" fill="#ffffff" fill-rule="evenodd" fill-opacity="1"/>
<defs>
  <clipPath id="clip931">
    <rect x="480" y="0" width="1681" height="1600"/>
  </clipPath>
</defs>
<path clip-path="url(#clip930)" d="M377.713 1423.18 L2352.76 1423.18 L2352.76 47.2441 L377.713 47.2441  Z" fill="#ffffff" fill-rule="evenodd" fill-opacity="1"/>
<defs>
  <clipPath id="clip932">
    <rect x="377" y="47" width="1976" height="1377"/>
  </clipPath>
</defs>
<polyline clip-path="url(#clip932)" style="stroke:#000000; stroke-linecap:round; stroke-linejoin:round; stroke-width:2; stroke-opacity:0.1; fill:none" points="377.713,1423.18 377.713,47.2441 "/>
<polyline clip-path="url(#clip932)" style="stroke:#000000; stroke-linecap:round; stroke-linejoin:round; stroke-width:2; stroke-opacity:0.1; fill:none" points="757.529,1423.18 757.529,47.2441 "/>
<polyline clip-path="url(#clip932)" style="stroke:#000000; stroke-linecap:round; stroke-linejoin:round; stroke-width:2; stroke-opacity:0.1; fill:none" points="1137.34,1423.18 1137.34,47.2441 "/>
<polyline clip-path="url(#clip932)" style="stroke:#000000; stroke-linecap:round; stroke-linejoin:round; stroke-width:2; stroke-opacity:0.1; fill:none" points="1517.16,1423.18 1517.16,47.2441 "/>
<polyline clip-path="url(#clip932)" style="stroke:#000000; stroke-linecap:round; stroke-linejoin:round; stroke-width:2; stroke-opacity:0.1; fill:none" points="1896.98,1423.18 1896.98,47.2441 "/>
<polyline clip-path="url(#clip932)" style="stroke:#000000; stroke-linecap:round; stroke-linejoin:round; stroke-width:2; stroke-opacity:0.1; fill:none" points="2276.79,1423.18 2276.79,47.2441 "/>
<polyline clip-path="url(#clip930)" style="stroke:#000000; stroke-linecap:round; stroke-linejoin:round; stroke-width:4; stroke-opacity:1; fill:none" points="377.713,1423.18 2352.76,1423.18 "/>
<polyline clip-path="url(#clip930)" style="stroke:#000000; stroke-linecap:round; stroke-linejoin:round; stroke-width:4; stroke-opacity:1; fill:none" points="377.713,1423.18 377.713,1404.28 "/>
<polyline clip-path="url(#clip930)" style="stroke:#000000; stroke-linecap:round; stroke-linejoin:round; stroke-width:4; stroke-opacity:1; fill:none" points="757.529,1423.18 757.529,1404.28 "/>
<polyline clip-path="url(#clip930)" style="stroke:#000000; stroke-linecap:round; stroke-linejoin:round; stroke-width:4; stroke-opacity:1; fill:none" points="1137.34,1423.18 1137.34,1404.28 "/>
<polyline clip-path="url(#clip930)" style="stroke:#000000; stroke-linecap:round; stroke-linejoin:round; stroke-width:4; stroke-opacity:1; fill:none" points="1517.16,1423.18 1517.16,1404.28 "/>
<polyline clip-path="url(#clip930)" style="stroke:#000000; stroke-linecap:round; stroke-linejoin:round; stroke-width:4; stroke-opacity:1; fill:none" points="1896.98,1423.18 1896.98,1404.28 "/>
<polyline clip-path="url(#clip930)" style="stroke:#000000; stroke-linecap:round; stroke-linejoin:round; stroke-width:4; stroke-opacity:1; fill:none" points="2276.79,1423.18 2276.79,1404.28 "/>
<path clip-path="url(#clip930)" d="M331.775 1468.75 L361.451 1468.75 L361.451 1472.69 L331.775 1472.69 L331.775 1468.75 Z" fill="#000000" fill-rule="nonzero" fill-opacity="1" /><path clip-path="url(#clip930)" d="M371.59 1451.02 L389.946 1451.02 L389.946 1454.96 L375.872 1454.96 L375.872 1463.43 Q376.891 1463.08 377.909 1462.92 Q378.928 1462.73 379.946 1462.73 Q385.733 1462.73 389.113 1465.9 Q392.493 1469.08 392.493 1474.49 Q392.493 1480.07 389.02 1483.17 Q385.548 1486.25 379.229 1486.25 Q377.053 1486.25 374.784 1485.88 Q372.539 1485.51 370.132 1484.77 L370.132 1480.07 Q372.215 1481.2 374.437 1481.76 Q376.659 1482.32 379.136 1482.32 Q383.141 1482.32 385.479 1480.21 Q387.817 1478.1 387.817 1474.49 Q387.817 1470.88 385.479 1468.77 Q383.141 1466.67 379.136 1466.67 Q377.261 1466.67 375.386 1467.08 Q373.534 1467.5 371.59 1468.38 L371.59 1451.02 Z" fill="#000000" fill-rule="nonzero" fill-opacity="1" /><path clip-path="url(#clip930)" d="M411.706 1454.1 Q408.094 1454.1 406.266 1457.66 Q404.46 1461.2 404.46 1468.33 Q404.46 1475.44 406.266 1479.01 Q408.094 1482.55 411.706 1482.55 Q415.34 1482.55 417.145 1479.01 Q418.974 1475.44 418.974 1468.33 Q418.974 1461.2 417.145 1457.66 Q415.34 1454.1 411.706 1454.1 M411.706 1450.39 Q417.516 1450.39 420.571 1455 Q423.65 1459.58 423.65 1468.33 Q423.65 1477.06 420.571 1481.67 Q417.516 1486.25 411.706 1486.25 Q405.895 1486.25 402.817 1481.67 Q399.761 1477.06 399.761 1468.33 Q399.761 1459.58 402.817 1455 Q405.895 1450.39 411.706 1450.39 Z" fill="#000000" fill-rule="nonzero" fill-opacity="1" /><path clip-path="url(#clip930)" d="M711.591 1468.75 L741.267 1468.75 L741.267 1472.69 L711.591 1472.69 L711.591 1468.75 Z" fill="#000000" fill-rule="nonzero" fill-opacity="1" /><path clip-path="url(#clip930)" d="M764.207 1455.09 L752.401 1473.54 L764.207 1473.54 L764.207 1455.09 M762.98 1451.02 L768.86 1451.02 L768.86 1473.54 L773.79 1473.54 L773.79 1477.43 L768.86 1477.43 L768.86 1485.58 L764.207 1485.58 L764.207 1477.43 L748.605 1477.43 L748.605 1472.92 L762.98 1451.02 Z" fill="#000000" fill-rule="nonzero" fill-opacity="1" /><path clip-path="url(#clip930)" d="M791.522 1454.1 Q787.91 1454.1 786.082 1457.66 Q784.276 1461.2 784.276 1468.33 Q784.276 1475.44 786.082 1479.01 Q787.91 1482.55 791.522 1482.55 Q795.156 1482.55 796.961 1479.01 Q798.79 1475.44 798.79 1468.33 Q798.79 1461.2 796.961 1457.66 Q795.156 1454.1 791.522 1454.1 M791.522 1450.39 Q797.332 1450.39 800.387 1455 Q803.466 1459.58 803.466 1468.33 Q803.466 1477.06 800.387 1481.67 Q797.332 1486.25 791.522 1486.25 Q785.711 1486.25 782.633 1481.67 Q779.577 1477.06 779.577 1468.33 Q779.577 1459.58 782.633 1455 Q785.711 1450.39 791.522 1450.39 Z" fill="#000000" fill-rule="nonzero" fill-opacity="1" /><path clip-path="url(#clip930)" d="M1091.41 1468.75 L1121.08 1468.75 L1121.08 1472.69 L1091.41 1472.69 L1091.41 1468.75 Z" fill="#000000" fill-rule="nonzero" fill-opacity="1" /><path clip-path="url(#clip930)" d="M1145.34 1466.95 Q1148.7 1467.66 1150.57 1469.93 Q1152.47 1472.2 1152.47 1475.53 Q1152.47 1480.65 1148.95 1483.45 Q1145.43 1486.25 1138.95 1486.25 Q1136.78 1486.25 1134.46 1485.81 Q1132.17 1485.39 1129.72 1484.54 L1129.72 1480.02 Q1131.66 1481.16 1133.98 1481.74 Q1136.29 1482.32 1138.81 1482.32 Q1143.21 1482.32 1145.5 1480.58 Q1147.82 1478.84 1147.82 1475.53 Q1147.82 1472.48 1145.67 1470.77 Q1143.54 1469.03 1139.72 1469.03 L1135.69 1469.03 L1135.69 1465.19 L1139.9 1465.19 Q1143.35 1465.19 1145.18 1463.82 Q1147.01 1462.43 1147.01 1459.84 Q1147.01 1457.18 1145.11 1455.77 Q1143.24 1454.33 1139.72 1454.33 Q1137.8 1454.33 1135.6 1454.75 Q1133.4 1455.16 1130.76 1456.04 L1130.76 1451.88 Q1133.42 1451.14 1135.74 1450.77 Q1138.07 1450.39 1140.13 1450.39 Q1145.46 1450.39 1148.56 1452.83 Q1151.66 1455.23 1151.66 1459.35 Q1151.66 1462.22 1150.02 1464.21 Q1148.37 1466.18 1145.34 1466.95 Z" fill="#000000" fill-rule="nonzero" fill-opacity="1" /><path clip-path="url(#clip930)" d="M1171.34 1454.1 Q1167.73 1454.1 1165.9 1457.66 Q1164.09 1461.2 1164.09 1468.33 Q1164.09 1475.44 1165.9 1479.01 Q1167.73 1482.55 1171.34 1482.55 Q1174.97 1482.55 1176.78 1479.01 Q1178.61 1475.44 1178.61 1468.33 Q1178.61 1461.2 1176.78 1457.66 Q1174.97 1454.1 1171.34 1454.1 M1171.34 1450.39 Q1177.15 1450.39 1180.2 1455 Q1183.28 1459.58 1183.28 1468.33 Q1183.28 1477.06 1180.2 1481.67 Q1177.15 1486.25 1171.34 1486.25 Q1165.53 1486.25 1162.45 1481.67 Q1159.39 1477.06 1159.39 1468.33 Q1159.39 1459.58 1162.45 1455 Q1165.53 1450.39 1171.34 1450.39 Z" fill="#000000" fill-rule="nonzero" fill-opacity="1" /><path clip-path="url(#clip930)" d="M1471.22 1468.75 L1500.9 1468.75 L1500.9 1472.69 L1471.22 1472.69 L1471.22 1468.75 Z" fill="#000000" fill-rule="nonzero" fill-opacity="1" /><path clip-path="url(#clip930)" d="M1515.02 1481.64 L1531.34 1481.64 L1531.34 1485.58 L1509.39 1485.58 L1509.39 1481.64 Q1512.06 1478.89 1516.64 1474.26 Q1521.25 1469.61 1522.43 1468.27 Q1524.67 1465.74 1525.55 1464.01 Q1526.45 1462.25 1526.45 1460.56 Q1526.45 1457.8 1524.51 1456.07 Q1522.59 1454.33 1519.49 1454.33 Q1517.29 1454.33 1514.83 1455.09 Q1512.4 1455.86 1509.63 1457.41 L1509.63 1452.69 Q1512.45 1451.55 1514.9 1450.97 Q1517.36 1450.39 1519.39 1450.39 Q1524.76 1450.39 1527.96 1453.08 Q1531.15 1455.77 1531.15 1460.26 Q1531.15 1462.39 1530.34 1464.31 Q1529.56 1466.2 1527.45 1468.8 Q1526.87 1469.47 1523.77 1472.69 Q1520.67 1475.88 1515.02 1481.64 Z" fill="#000000" fill-rule="nonzero" fill-opacity="1" /><path clip-path="url(#clip930)" d="M1551.15 1454.1 Q1547.54 1454.1 1545.71 1457.66 Q1543.91 1461.2 1543.91 1468.33 Q1543.91 1475.44 1545.71 1479.01 Q1547.54 1482.55 1551.15 1482.55 Q1554.79 1482.55 1556.59 1479.01 Q1558.42 1475.44 1558.42 1468.33 Q1558.42 1461.2 1556.59 1457.66 Q1554.79 1454.1 1551.15 1454.1 M1551.15 1450.39 Q1556.96 1450.39 1560.02 1455 Q1563.1 1459.58 1563.1 1468.33 Q1563.1 1477.06 1560.02 1481.67 Q1556.96 1486.25 1551.15 1486.25 Q1545.34 1486.25 1542.26 1481.67 Q1539.21 1477.06 1539.21 1468.33 Q1539.21 1459.58 1542.26 1455 Q1545.34 1450.39 1551.15 1450.39 Z" fill="#000000" fill-rule="nonzero" fill-opacity="1" /><path clip-path="url(#clip930)" d="M1851.04 1468.75 L1880.72 1468.75 L1880.72 1472.69 L1851.04 1472.69 L1851.04 1468.75 Z" fill="#000000" fill-rule="nonzero" fill-opacity="1" /><path clip-path="url(#clip930)" d="M1891.62 1481.64 L1899.26 1481.64 L1899.26 1455.28 L1890.95 1456.95 L1890.95 1452.69 L1899.21 1451.02 L1903.89 1451.02 L1903.89 1481.64 L1911.53 1481.64 L1911.53 1485.58 L1891.62 1485.58 L1891.62 1481.64 Z" fill="#000000" fill-rule="nonzero" fill-opacity="1" /><path clip-path="url(#clip930)" d="M1930.97 1454.1 Q1927.36 1454.1 1925.53 1457.66 Q1923.72 1461.2 1923.72 1468.33 Q1923.72 1475.44 1925.53 1479.01 Q1927.36 1482.55 1930.97 1482.55 Q1934.6 1482.55 1936.41 1479.01 Q1938.24 1475.44 1938.24 1468.33 Q1938.24 1461.2 1936.41 1457.66 Q1934.6 1454.1 1930.97 1454.1 M1930.97 1450.39 Q1936.78 1450.39 1939.84 1455 Q1942.91 1459.58 1942.91 1468.33 Q1942.91 1477.06 1939.84 1481.67 Q1936.78 1486.25 1930.97 1486.25 Q1925.16 1486.25 1922.08 1481.67 Q1919.03 1477.06 1919.03 1468.33 Q1919.03 1459.58 1922.08 1455 Q1925.16 1450.39 1930.97 1450.39 Z" fill="#000000" fill-rule="nonzero" fill-opacity="1" /><path clip-path="url(#clip930)" d="M2276.79 1454.1 Q2273.18 1454.1 2271.35 1457.66 Q2269.55 1461.2 2269.55 1468.33 Q2269.55 1475.44 2271.35 1479.01 Q2273.18 1482.55 2276.79 1482.55 Q2280.43 1482.55 2282.23 1479.01 Q2284.06 1475.44 2284.06 1468.33 Q2284.06 1461.2 2282.23 1457.66 Q2280.43 1454.1 2276.79 1454.1 M2276.79 1450.39 Q2282.6 1450.39 2285.66 1455 Q2288.74 1459.58 2288.74 1468.33 Q2288.74 1477.06 2285.66 1481.67 Q2282.6 1486.25 2276.79 1486.25 Q2270.98 1486.25 2267.9 1481.67 Q2264.85 1477.06 2264.85 1468.33 Q2264.85 1459.58 2267.9 1455 Q2270.98 1450.39 2276.79 1450.39 Z" fill="#000000" fill-rule="nonzero" fill-opacity="1" /><path clip-path="url(#clip930)" d="M1301.5 1561.48 L1301.5 1559.45 L1303.08 1559.45 Q1306.65 1559.45 1307.46 1558.87 Q1308.29 1558.26 1308.29 1556.32 L1308.29 1521.57 Q1308.29 1519.67 1307.46 1519.09 Q1306.62 1518.48 1303.08 1518.48 L1301.5 1518.48 L1301.5 1516.42 L1322.21 1516.42 Q1329.39 1516.42 1334.38 1519.96 Q1339.41 1523.47 1339.41 1528.31 Q1339.41 1532.01 1336.15 1534.91 Q1332.9 1537.81 1327.88 1539.06 Q1334.41 1541.32 1335.93 1546.69 L1336.76 1551.98 Q1337.02 1553.88 1337.18 1554.84 Q1337.38 1555.81 1337.67 1557.13 Q1337.96 1558.45 1338.25 1559.09 Q1338.57 1559.71 1339.02 1560.38 Q1339.47 1561.03 1340.05 1561.25 Q1340.66 1561.48 1341.47 1561.48 Q1342.98 1561.48 1344.27 1560.12 Q1345.56 1558.77 1345.81 1555.62 Q1345.94 1554.55 1346.62 1554.55 Q1347.46 1554.55 1347.46 1555.62 Q1347.46 1556.55 1347.2 1557.64 Q1346.94 1558.71 1346.3 1559.96 Q1345.69 1561.22 1344.33 1562.06 Q1342.98 1562.93 1341.21 1562.93 Q1336.06 1562.93 1332.9 1560.16 Q1331.58 1558.97 1330.97 1557.42 Q1330.39 1555.87 1330.29 1554.65 Q1330.19 1553.43 1330.19 1550.72 Q1330.19 1546.89 1329.78 1545.21 Q1329.39 1543.54 1327.68 1541.9 Q1325.36 1539.64 1321.53 1539.64 L1313.96 1539.64 L1313.96 1556.32 Q1313.96 1558.22 1314.77 1558.84 Q1315.61 1559.45 1319.18 1559.45 L1320.76 1559.45 L1320.76 1561.48 Q1318.38 1561.28 1311.13 1561.28 Q1303.88 1561.28 1301.5 1561.48 M1313.96 1538.19 L1321.27 1538.19 Q1324.78 1538.19 1327.14 1537.35 Q1329.52 1536.49 1330.65 1534.94 Q1331.77 1533.39 1332.19 1531.85 Q1332.61 1530.27 1332.61 1528.31 Q1332.61 1525.99 1332.09 1524.25 Q1331.58 1522.51 1330.45 1521.48 Q1329.33 1520.45 1328.2 1519.8 Q1327.07 1519.13 1325.33 1518.87 Q1323.59 1518.61 1322.4 1518.55 Q1321.21 1518.48 1319.31 1518.48 Q1316.09 1518.48 1315.41 1518.61 Q1314.67 1518.68 1314.38 1519.03 Q1314.09 1519.38 1314.03 1519.8 Q1313.96 1520.19 1313.96 1521.12 L1313.96 1538.19 Z" fill="#000000" fill-rule="nonzero" fill-opacity="1" /><path clip-path="url(#clip930)" d="M1349.75 1546.95 Q1349.75 1540.74 1353.74 1536.32 Q1357.74 1531.91 1363.47 1531.91 Q1369.27 1531.91 1372.26 1535.68 Q1375.29 1539.45 1375.29 1544.86 Q1375.29 1545.86 1375.03 1546.05 Q1374.78 1546.24 1373.65 1546.24 L1355.23 1546.24 Q1355.23 1552.97 1357.22 1556.13 Q1359.99 1560.54 1364.66 1560.54 Q1365.31 1560.54 1366.08 1560.41 Q1366.85 1560.29 1368.43 1559.74 Q1370.01 1559.16 1371.39 1557.64 Q1372.78 1556.13 1373.58 1553.75 Q1373.78 1552.81 1374.42 1552.85 Q1375.29 1552.85 1375.29 1553.62 Q1375.29 1554.2 1374.65 1555.52 Q1374.03 1556.81 1372.84 1558.35 Q1371.65 1559.9 1369.33 1561.06 Q1367.05 1562.22 1364.28 1562.22 Q1358.48 1562.22 1354.1 1557.84 Q1349.75 1553.43 1349.75 1546.95 M1355.29 1544.86 L1370.94 1544.86 Q1370.94 1543.47 1370.68 1541.93 Q1370.46 1540.38 1369.75 1538.26 Q1369.07 1536.1 1367.46 1534.75 Q1365.85 1533.39 1363.47 1533.39 Q1362.41 1533.39 1361.25 1533.84 Q1360.12 1534.3 1358.74 1535.39 Q1357.35 1536.49 1356.39 1538.97 Q1355.42 1541.45 1355.29 1544.86 Z" fill="#000000" fill-rule="nonzero" fill-opacity="1" /><path clip-path="url(#clip930)" d="M1378.48 1555.2 Q1378.48 1549.59 1385.09 1546.63 Q1389.05 1544.73 1397.23 1544.25 L1397.23 1541.83 Q1397.23 1537.74 1395.07 1535.58 Q1392.94 1533.39 1390.24 1533.39 Q1385.41 1533.39 1383.09 1536.42 Q1385.05 1536.49 1385.76 1537.48 Q1386.47 1538.45 1386.47 1539.45 Q1386.47 1540.77 1385.63 1541.64 Q1384.83 1542.48 1383.44 1542.48 Q1382.12 1542.48 1381.25 1541.67 Q1380.38 1540.83 1380.38 1539.38 Q1380.38 1536.16 1383.28 1534.04 Q1386.21 1531.91 1390.37 1531.91 Q1395.78 1531.91 1399.38 1535.55 Q1400.51 1536.68 1401.06 1538.13 Q1401.64 1539.58 1401.7 1540.54 Q1401.77 1541.48 1401.77 1543.35 L1401.77 1556.52 Q1401.77 1556.9 1401.9 1557.55 Q1402.03 1558.19 1402.61 1559.03 Q1403.22 1559.83 1404.22 1559.83 Q1406.6 1559.83 1406.57 1555.62 L1406.57 1551.91 L1408.24 1551.91 L1408.24 1555.62 Q1408.24 1559.13 1406.37 1560.51 Q1404.54 1561.86 1402.83 1561.86 Q1400.64 1561.86 1399.26 1560.25 Q1397.87 1558.64 1397.68 1556.45 Q1396.68 1558.97 1394.39 1560.61 Q1392.14 1562.22 1389.05 1562.22 Q1386.66 1562.22 1384.41 1561.61 Q1382.19 1561.03 1380.32 1559.38 Q1378.48 1557.71 1378.48 1555.2 M1383.57 1555.13 Q1383.57 1557.58 1385.31 1559.16 Q1387.05 1560.74 1389.5 1560.74 Q1392.27 1560.74 1394.75 1558.61 Q1397.23 1556.45 1397.23 1552.23 L1397.23 1545.63 Q1389.92 1545.89 1386.73 1548.82 Q1383.57 1551.72 1383.57 1555.13 Z" fill="#000000" fill-rule="nonzero" fill-opacity="1" /><path clip-path="url(#clip930)" d="M1410.88 1561.48 L1410.88 1559.45 Q1414.39 1559.45 1415.2 1559.03 Q1416 1558.58 1416 1556.45 L1416 1522.15 Q1416 1519.71 1415.13 1519.09 Q1414.3 1518.48 1410.88 1518.48 L1410.88 1516.42 L1420.35 1515.71 L1420.35 1556.45 Q1420.35 1558.58 1421.19 1559.03 Q1422.03 1559.45 1425.5 1559.45 L1425.5 1561.48 Q1424.7 1561.48 1423.02 1561.41 Q1421.35 1561.35 1420.13 1561.32 Q1418.9 1561.28 1418.19 1561.28 Q1417.42 1561.28 1410.88 1561.48 Z" fill="#000000" fill-rule="nonzero" fill-opacity="1" /><polyline clip-path="url(#clip932)" style="stroke:#000000; stroke-linecap:round; stroke-linejoin:round; stroke-width:2; stroke-opacity:0.1; fill:none" points="377.713,1423.18 2352.76,1423.18 "/>
<polyline clip-path="url(#clip932)" style="stroke:#000000; stroke-linecap:round; stroke-linejoin:round; stroke-width:2; stroke-opacity:0.1; fill:none" points="377.713,1193.86 2352.76,1193.86 "/>
<polyline clip-path="url(#clip932)" style="stroke:#000000; stroke-linecap:round; stroke-linejoin:round; stroke-width:2; stroke-opacity:0.1; fill:none" points="377.713,964.535 2352.76,964.535 "/>
<polyline clip-path="url(#clip932)" style="stroke:#000000; stroke-linecap:round; stroke-linejoin:round; stroke-width:2; stroke-opacity:0.1; fill:none" points="377.713,735.212 2352.76,735.212 "/>
<polyline clip-path="url(#clip932)" style="stroke:#000000; stroke-linecap:round; stroke-linejoin:round; stroke-width:2; stroke-opacity:0.1; fill:none" points="377.713,505.889 2352.76,505.889 "/>
<polyline clip-path="url(#clip932)" style="stroke:#000000; stroke-linecap:round; stroke-linejoin:round; stroke-width:2; stroke-opacity:0.1; fill:none" points="377.713,276.567 2352.76,276.567 "/>
<polyline clip-path="url(#clip932)" style="stroke:#000000; stroke-linecap:round; stroke-linejoin:round; stroke-width:2; stroke-opacity:0.1; fill:none" points="377.713,47.2441 2352.76,47.2441 "/>
<polyline clip-path="url(#clip930)" style="stroke:#000000; stroke-linecap:round; stroke-linejoin:round; stroke-width:4; stroke-opacity:1; fill:none" points="377.713,1423.18 377.713,47.2441 "/>
<polyline clip-path="url(#clip930)" style="stroke:#000000; stroke-linecap:round; stroke-linejoin:round; stroke-width:4; stroke-opacity:1; fill:none" points="377.713,1423.18 396.61,1423.18 "/>
<polyline clip-path="url(#clip930)" style="stroke:#000000; stroke-linecap:round; stroke-linejoin:round; stroke-width:4; stroke-opacity:1; fill:none" points="377.713,1193.86 396.61,1193.86 "/>
<polyline clip-path="url(#clip930)" style="stroke:#000000; stroke-linecap:round; stroke-linejoin:round; stroke-width:4; stroke-opacity:1; fill:none" points="377.713,964.535 396.61,964.535 "/>
<polyline clip-path="url(#clip930)" style="stroke:#000000; stroke-linecap:round; stroke-linejoin:round; stroke-width:4; stroke-opacity:1; fill:none" points="377.713,735.212 396.61,735.212 "/>
<polyline clip-path="url(#clip930)" style="stroke:#000000; stroke-linecap:round; stroke-linejoin:round; stroke-width:4; stroke-opacity:1; fill:none" points="377.713,505.889 396.61,505.889 "/>
<polyline clip-path="url(#clip930)" style="stroke:#000000; stroke-linecap:round; stroke-linejoin:round; stroke-width:4; stroke-opacity:1; fill:none" points="377.713,276.567 396.61,276.567 "/>
<polyline clip-path="url(#clip930)" style="stroke:#000000; stroke-linecap:round; stroke-linejoin:round; stroke-width:4; stroke-opacity:1; fill:none" points="377.713,47.2441 396.61,47.2441 "/>
<path clip-path="url(#clip930)" d="M114.26 1430.08 L143.936 1430.08 L143.936 1434.01 L114.26 1434.01 L114.26 1430.08 Z" fill="#000000" fill-rule="nonzero" fill-opacity="1" /><path clip-path="url(#clip930)" d="M164.607 1427.76 Q161.459 1427.76 159.607 1429.92 Q157.778 1432.07 157.778 1435.82 Q157.778 1439.55 159.607 1441.72 Q161.459 1443.88 164.607 1443.88 Q167.755 1443.88 169.584 1441.72 Q171.436 1439.55 171.436 1435.82 Q171.436 1432.07 169.584 1429.92 Q167.755 1427.76 164.607 1427.76 M173.889 1413.11 L173.889 1417.37 Q172.13 1416.54 170.325 1416.1 Q168.542 1415.66 166.783 1415.66 Q162.153 1415.66 159.7 1418.78 Q157.269 1421.91 156.922 1428.23 Q158.288 1426.21 160.348 1425.15 Q162.408 1424.06 164.885 1424.06 Q170.093 1424.06 173.102 1427.23 Q176.135 1430.38 176.135 1435.82 Q176.135 1441.14 172.987 1444.36 Q169.839 1447.58 164.607 1447.58 Q158.612 1447.58 155.44 1443 Q152.269 1438.39 152.269 1429.66 Q152.269 1421.47 156.158 1416.61 Q160.047 1411.72 166.598 1411.72 Q168.357 1411.72 170.139 1412.07 Q171.945 1412.42 173.889 1413.11 Z" fill="#000000" fill-rule="nonzero" fill-opacity="1" /><path clip-path="url(#clip930)" d="M184.19 1441.03 L189.075 1441.03 L189.075 1446.91 L184.19 1446.91 L184.19 1441.03 Z" fill="#000000" fill-rule="nonzero" fill-opacity="1" /><path clip-path="url(#clip930)" d="M209.26 1415.43 Q205.649 1415.43 203.82 1418.99 Q202.014 1422.53 202.014 1429.66 Q202.014 1436.77 203.82 1440.33 Q205.649 1443.88 209.26 1443.88 Q212.894 1443.88 214.699 1440.33 Q216.528 1436.77 216.528 1429.66 Q216.528 1422.53 214.699 1418.99 Q212.894 1415.43 209.26 1415.43 M209.26 1411.72 Q215.07 1411.72 218.125 1416.33 Q221.204 1420.91 221.204 1429.66 Q221.204 1438.39 218.125 1443 Q215.07 1447.58 209.26 1447.58 Q203.449 1447.58 200.371 1443 Q197.315 1438.39 197.315 1429.66 Q197.315 1420.91 200.371 1416.33 Q203.449 1411.72 209.26 1411.72 Z" fill="#000000" fill-rule="nonzero" fill-opacity="1" /><path clip-path="url(#clip930)" d="M257.593 1421.44 L247.014 1432.07 L257.593 1442.65 L254.838 1445.45 L244.213 1434.82 L233.588 1445.45 L230.857 1442.65 L241.412 1432.07 L230.857 1421.44 L233.588 1418.64 L244.213 1429.27 L254.838 1418.64 L257.593 1421.44 Z" fill="#000000" fill-rule="nonzero" fill-opacity="1" /><path clip-path="url(#clip930)" d="M269.954 1442.97 L277.593 1442.97 L277.593 1416.61 L269.282 1418.27 L269.282 1414.01 L277.546 1412.35 L282.222 1412.35 L282.222 1442.97 L289.861 1442.97 L289.861 1446.91 L269.954 1446.91 L269.954 1442.97 Z" fill="#000000" fill-rule="nonzero" fill-opacity="1" /><path clip-path="url(#clip930)" d="M309.305 1415.43 Q305.694 1415.43 303.866 1418.99 Q302.06 1422.53 302.06 1429.66 Q302.06 1436.77 303.866 1440.33 Q305.694 1443.88 309.305 1443.88 Q312.94 1443.88 314.745 1440.33 Q316.574 1436.77 316.574 1429.66 Q316.574 1422.53 314.745 1418.99 Q312.94 1415.43 309.305 1415.43 M309.305 1411.72 Q315.116 1411.72 318.171 1416.33 Q321.25 1420.91 321.25 1429.66 Q321.25 1438.39 318.171 1443 Q315.116 1447.58 309.305 1447.58 Q303.495 1447.58 300.417 1443 Q297.361 1438.39 297.361 1429.66 Q297.361 1420.91 300.417 1416.33 Q303.495 1411.72 309.305 1411.72 Z" fill="#000000" fill-rule="nonzero" fill-opacity="1" /><path clip-path="url(#clip930)" d="M333.926 1394.73 L324.334 1409.72 L333.926 1409.72 L333.926 1394.73 M332.929 1391.42 L337.707 1391.42 L337.707 1409.72 L341.713 1409.72 L341.713 1412.88 L337.707 1412.88 L337.707 1419.5 L333.926 1419.5 L333.926 1412.88 L321.25 1412.88 L321.25 1409.21 L332.929 1391.42 Z" fill="#000000" fill-rule="nonzero" fill-opacity="1" /><path clip-path="url(#clip930)" d="M114.26 1200.76 L143.936 1200.76 L143.936 1204.69 L114.26 1204.69 L114.26 1200.76 Z" fill="#000000" fill-rule="nonzero" fill-opacity="1" /><path clip-path="url(#clip930)" d="M166.876 1187.1 L155.07 1205.55 L166.876 1205.55 L166.876 1187.1 M165.649 1183.02 L171.528 1183.02 L171.528 1205.55 L176.459 1205.55 L176.459 1209.44 L171.528 1209.44 L171.528 1217.58 L166.876 1217.58 L166.876 1209.44 L151.274 1209.44 L151.274 1204.92 L165.649 1183.02 Z" fill="#000000" fill-rule="nonzero" fill-opacity="1" /><path clip-path="url(#clip930)" d="M184.19 1211.71 L189.075 1211.71 L189.075 1217.58 L184.19 1217.58 L184.19 1211.71 Z" fill="#000000" fill-rule="nonzero" fill-opacity="1" /><path clip-path="url(#clip930)" d="M209.26 1186.1 Q205.649 1186.1 203.82 1189.67 Q202.014 1193.21 202.014 1200.34 Q202.014 1207.45 203.82 1211.01 Q205.649 1214.55 209.26 1214.55 Q212.894 1214.55 214.699 1211.01 Q216.528 1207.45 216.528 1200.34 Q216.528 1193.21 214.699 1189.67 Q212.894 1186.1 209.26 1186.1 M209.26 1182.4 Q215.07 1182.4 218.125 1187.01 Q221.204 1191.59 221.204 1200.34 Q221.204 1209.07 218.125 1213.67 Q215.07 1218.26 209.26 1218.26 Q203.449 1218.26 200.371 1213.67 Q197.315 1209.07 197.315 1200.34 Q197.315 1191.59 200.371 1187.01 Q203.449 1182.4 209.26 1182.4 Z" fill="#000000" fill-rule="nonzero" fill-opacity="1" /><path clip-path="url(#clip930)" d="M257.593 1192.12 L247.014 1202.75 L257.593 1213.33 L254.838 1216.13 L244.213 1205.5 L233.588 1216.13 L230.857 1213.33 L241.412 1202.75 L230.857 1192.12 L233.588 1189.32 L244.213 1199.95 L254.838 1189.32 L257.593 1192.12 Z" fill="#000000" fill-rule="nonzero" fill-opacity="1" /><path clip-path="url(#clip930)" d="M269.954 1213.65 L277.593 1213.65 L277.593 1187.28 L269.282 1188.95 L269.282 1184.69 L277.546 1183.02 L282.222 1183.02 L282.222 1213.65 L289.861 1213.65 L289.861 1217.58 L269.954 1217.58 L269.954 1213.65 Z" fill="#000000" fill-rule="nonzero" fill-opacity="1" /><path clip-path="url(#clip930)" d="M309.305 1186.1 Q305.694 1186.1 303.866 1189.67 Q302.06 1193.21 302.06 1200.34 Q302.06 1207.45 303.866 1211.01 Q305.694 1214.55 309.305 1214.55 Q312.94 1214.55 314.745 1211.01 Q316.574 1207.45 316.574 1200.34 Q316.574 1193.21 314.745 1189.67 Q312.94 1186.1 309.305 1186.1 M309.305 1182.4 Q315.116 1182.4 318.171 1187.01 Q321.25 1191.59 321.25 1200.34 Q321.25 1209.07 318.171 1213.67 Q315.116 1218.26 309.305 1218.26 Q303.495 1218.26 300.417 1213.67 Q297.361 1209.07 297.361 1200.34 Q297.361 1191.59 300.417 1187.01 Q303.495 1182.4 309.305 1182.4 Z" fill="#000000" fill-rule="nonzero" fill-opacity="1" /><path clip-path="url(#clip930)" d="M333.926 1165.4 L324.334 1180.39 L333.926 1180.39 L333.926 1165.4 M332.929 1162.09 L337.707 1162.09 L337.707 1180.39 L341.713 1180.39 L341.713 1183.55 L337.707 1183.55 L337.707 1190.17 L333.926 1190.17 L333.926 1183.55 L321.25 1183.55 L321.25 1179.89 L332.929 1162.09 Z" fill="#000000" fill-rule="nonzero" fill-opacity="1" /><path clip-path="url(#clip930)" d="M114.26 971.434 L143.936 971.434 L143.936 975.369 L114.26 975.369 L114.26 971.434 Z" fill="#000000" fill-rule="nonzero" fill-opacity="1" /><path clip-path="url(#clip930)" d="M158.056 984.327 L174.376 984.327 L174.376 988.262 L152.431 988.262 L152.431 984.327 Q155.093 981.572 159.677 976.943 Q164.283 972.29 165.464 970.947 Q167.709 968.424 168.589 966.688 Q169.491 964.929 169.491 963.239 Q169.491 960.485 167.547 958.748 Q165.626 957.012 162.524 957.012 Q160.325 957.012 157.871 957.776 Q155.44 958.54 152.663 960.091 L152.663 955.369 Q155.487 954.235 157.94 953.656 Q160.394 953.077 162.431 953.077 Q167.802 953.077 170.996 955.762 Q174.19 958.448 174.19 962.938 Q174.19 965.068 173.38 966.989 Q172.593 968.887 170.487 971.48 Q169.908 972.151 166.806 975.369 Q163.704 978.563 158.056 984.327 Z" fill="#000000" fill-rule="nonzero" fill-opacity="1" /><path clip-path="url(#clip930)" d="M184.19 982.383 L189.075 982.383 L189.075 988.262 L184.19 988.262 L184.19 982.383 Z" fill="#000000" fill-rule="nonzero" fill-opacity="1" /><path clip-path="url(#clip930)" d="M209.26 956.781 Q205.649 956.781 203.82 960.346 Q202.014 963.887 202.014 971.017 Q202.014 978.123 203.82 981.688 Q205.649 985.23 209.26 985.23 Q212.894 985.23 214.699 981.688 Q216.528 978.123 216.528 971.017 Q216.528 963.887 214.699 960.346 Q212.894 956.781 209.26 956.781 M209.26 953.077 Q215.07 953.077 218.125 957.684 Q221.204 962.267 221.204 971.017 Q221.204 979.744 218.125 984.35 Q215.07 988.933 209.26 988.933 Q203.449 988.933 200.371 984.35 Q197.315 979.744 197.315 971.017 Q197.315 962.267 200.371 957.684 Q203.449 953.077 209.26 953.077 Z" fill="#000000" fill-rule="nonzero" fill-opacity="1" /><path clip-path="url(#clip930)" d="M257.593 962.799 L247.014 973.424 L257.593 984.003 L254.838 986.804 L244.213 976.179 L233.588 986.804 L230.857 984.003 L241.412 973.424 L230.857 962.799 L233.588 959.998 L244.213 970.623 L254.838 959.998 L257.593 962.799 Z" fill="#000000" fill-rule="nonzero" fill-opacity="1" /><path clip-path="url(#clip930)" d="M269.954 984.327 L277.593 984.327 L277.593 957.961 L269.282 959.628 L269.282 955.369 L277.546 953.702 L282.222 953.702 L282.222 984.327 L289.861 984.327 L289.861 988.262 L269.954 988.262 L269.954 984.327 Z" fill="#000000" fill-rule="nonzero" fill-opacity="1" /><path clip-path="url(#clip930)" d="M309.305 956.781 Q305.694 956.781 303.866 960.346 Q302.06 963.887 302.06 971.017 Q302.06 978.123 303.866 981.688 Q305.694 985.23 309.305 985.23 Q312.94 985.23 314.745 981.688 Q316.574 978.123 316.574 971.017 Q316.574 963.887 314.745 960.346 Q312.94 956.781 309.305 956.781 M309.305 953.077 Q315.116 953.077 318.171 957.684 Q321.25 962.267 321.25 971.017 Q321.25 979.744 318.171 984.35 Q315.116 988.933 309.305 988.933 Q303.495 988.933 300.417 984.35 Q297.361 979.744 297.361 971.017 Q297.361 962.267 300.417 957.684 Q303.495 953.077 309.305 953.077 Z" fill="#000000" fill-rule="nonzero" fill-opacity="1" /><path clip-path="url(#clip930)" d="M333.926 936.082 L324.334 951.072 L333.926 951.072 L333.926 936.082 M332.929 932.772 L337.707 932.772 L337.707 951.072 L341.713 951.072 L341.713 954.231 L337.707 954.231 L337.707 960.852 L333.926 960.852 L333.926 954.231 L321.25 954.231 L321.25 950.564 L332.929 932.772 Z" fill="#000000" fill-rule="nonzero" fill-opacity="1" /><path clip-path="url(#clip930)" d="M329.768 721.011 Q326.157 721.011 324.328 724.575 Q322.523 728.117 322.523 735.247 Q322.523 742.353 324.328 745.918 Q326.157 749.46 329.768 749.46 Q333.403 749.46 335.208 745.918 Q337.037 742.353 337.037 735.247 Q337.037 728.117 335.208 724.575 Q333.403 721.011 329.768 721.011 M329.768 717.307 Q335.578 717.307 338.634 721.913 Q341.713 726.497 341.713 735.247 Q341.713 743.973 338.634 748.58 Q335.578 753.163 329.768 753.163 Q323.958 753.163 320.879 748.58 Q317.824 743.973 317.824 735.247 Q317.824 726.497 320.879 721.913 Q323.958 717.307 329.768 717.307 Z" fill="#000000" fill-rule="nonzero" fill-opacity="1" /><path clip-path="url(#clip930)" d="M158.056 525.682 L174.376 525.682 L174.376 529.617 L152.431 529.617 L152.431 525.682 Q155.093 522.927 159.677 518.298 Q164.283 513.645 165.464 512.302 Q167.709 509.779 168.589 508.043 Q169.491 506.284 169.491 504.594 Q169.491 501.839 167.547 500.103 Q165.626 498.367 162.524 498.367 Q160.325 498.367 157.871 499.131 Q155.44 499.895 152.663 501.446 L152.663 496.724 Q155.487 495.589 157.94 495.011 Q160.394 494.432 162.431 494.432 Q167.802 494.432 170.996 497.117 Q174.19 499.802 174.19 504.293 Q174.19 506.423 173.38 508.344 Q172.593 510.242 170.487 512.835 Q169.908 513.506 166.806 516.723 Q163.704 519.918 158.056 525.682 Z" fill="#000000" fill-rule="nonzero" fill-opacity="1" /><path clip-path="url(#clip930)" d="M184.19 523.737 L189.075 523.737 L189.075 529.617 L184.19 529.617 L184.19 523.737 Z" fill="#000000" fill-rule="nonzero" fill-opacity="1" /><path clip-path="url(#clip930)" d="M209.26 498.136 Q205.649 498.136 203.82 501.7 Q202.014 505.242 202.014 512.372 Q202.014 519.478 203.82 523.043 Q205.649 526.585 209.26 526.585 Q212.894 526.585 214.699 523.043 Q216.528 519.478 216.528 512.372 Q216.528 505.242 214.699 501.7 Q212.894 498.136 209.26 498.136 M209.26 494.432 Q215.07 494.432 218.125 499.038 Q221.204 503.622 221.204 512.372 Q221.204 521.098 218.125 525.705 Q215.07 530.288 209.26 530.288 Q203.449 530.288 200.371 525.705 Q197.315 521.098 197.315 512.372 Q197.315 503.622 200.371 499.038 Q203.449 494.432 209.26 494.432 Z" fill="#000000" fill-rule="nonzero" fill-opacity="1" /><path clip-path="url(#clip930)" d="M257.593 504.154 L247.014 514.779 L257.593 525.358 L254.838 528.159 L244.213 517.534 L233.588 528.159 L230.857 525.358 L241.412 514.779 L230.857 504.154 L233.588 501.353 L244.213 511.978 L254.838 501.353 L257.593 504.154 Z" fill="#000000" fill-rule="nonzero" fill-opacity="1" /><path clip-path="url(#clip930)" d="M269.954 525.682 L277.593 525.682 L277.593 499.316 L269.282 500.983 L269.282 496.724 L277.546 495.057 L282.222 495.057 L282.222 525.682 L289.861 525.682 L289.861 529.617 L269.954 529.617 L269.954 525.682 Z" fill="#000000" fill-rule="nonzero" fill-opacity="1" /><path clip-path="url(#clip930)" d="M309.305 498.136 Q305.694 498.136 303.866 501.7 Q302.06 505.242 302.06 512.372 Q302.06 519.478 303.866 523.043 Q305.694 526.585 309.305 526.585 Q312.94 526.585 314.745 523.043 Q316.574 519.478 316.574 512.372 Q316.574 505.242 314.745 501.7 Q312.94 498.136 309.305 498.136 M309.305 494.432 Q315.116 494.432 318.171 499.038 Q321.25 503.622 321.25 512.372 Q321.25 521.098 318.171 525.705 Q315.116 530.288 309.305 530.288 Q303.495 530.288 300.417 525.705 Q297.361 521.098 297.361 512.372 Q297.361 503.622 300.417 499.038 Q303.495 494.432 309.305 494.432 Z" fill="#000000" fill-rule="nonzero" fill-opacity="1" /><path clip-path="url(#clip930)" d="M333.926 477.437 L324.334 492.427 L333.926 492.427 L333.926 477.437 M332.929 474.127 L337.707 474.127 L337.707 492.427 L341.713 492.427 L341.713 495.586 L337.707 495.586 L337.707 502.207 L333.926 502.207 L333.926 495.586 L321.25 495.586 L321.25 491.919 L332.929 474.127 Z" fill="#000000" fill-rule="nonzero" fill-opacity="1" /><path clip-path="url(#clip930)" d="M166.876 269.808 L155.07 288.257 L166.876 288.257 L166.876 269.808 M165.649 265.734 L171.528 265.734 L171.528 288.257 L176.459 288.257 L176.459 292.146 L171.528 292.146 L171.528 300.294 L166.876 300.294 L166.876 292.146 L151.274 292.146 L151.274 287.632 L165.649 265.734 Z" fill="#000000" fill-rule="nonzero" fill-opacity="1" /><path clip-path="url(#clip930)" d="M184.19 294.415 L189.075 294.415 L189.075 300.294 L184.19 300.294 L184.19 294.415 Z" fill="#000000" fill-rule="nonzero" fill-opacity="1" /><path clip-path="url(#clip930)" d="M209.26 268.813 Q205.649 268.813 203.82 272.378 Q202.014 275.919 202.014 283.049 Q202.014 290.155 203.82 293.72 Q205.649 297.262 209.26 297.262 Q212.894 297.262 214.699 293.72 Q216.528 290.155 216.528 283.049 Q216.528 275.919 214.699 272.378 Q212.894 268.813 209.26 268.813 M209.26 265.109 Q215.07 265.109 218.125 269.716 Q221.204 274.299 221.204 283.049 Q221.204 291.776 218.125 296.382 Q215.07 300.966 209.26 300.966 Q203.449 300.966 200.371 296.382 Q197.315 291.776 197.315 283.049 Q197.315 274.299 200.371 269.716 Q203.449 265.109 209.26 265.109 Z" fill="#000000" fill-rule="nonzero" fill-opacity="1" /><path clip-path="url(#clip930)" d="M257.593 274.831 L247.014 285.456 L257.593 296.035 L254.838 298.836 L244.213 288.211 L233.588 298.836 L230.857 296.035 L241.412 285.456 L230.857 274.831 L233.588 272.031 L244.213 282.656 L254.838 272.031 L257.593 274.831 Z" fill="#000000" fill-rule="nonzero" fill-opacity="1" /><path clip-path="url(#clip930)" d="M269.954 296.359 L277.593 296.359 L277.593 269.994 L269.282 271.66 L269.282 267.401 L277.546 265.734 L282.222 265.734 L282.222 296.359 L289.861 296.359 L289.861 300.294 L269.954 300.294 L269.954 296.359 Z" fill="#000000" fill-rule="nonzero" fill-opacity="1" /><path clip-path="url(#clip930)" d="M309.305 268.813 Q305.694 268.813 303.866 272.378 Q302.06 275.919 302.06 283.049 Q302.06 290.155 303.866 293.72 Q305.694 297.262 309.305 297.262 Q312.94 297.262 314.745 293.72 Q316.574 290.155 316.574 283.049 Q316.574 275.919 314.745 272.378 Q312.94 268.813 309.305 268.813 M309.305 265.109 Q315.116 265.109 318.171 269.716 Q321.25 274.299 321.25 283.049 Q321.25 291.776 318.171 296.382 Q315.116 300.966 309.305 300.966 Q303.495 300.966 300.417 296.382 Q297.361 291.776 297.361 283.049 Q297.361 274.299 300.417 269.716 Q303.495 265.109 309.305 265.109 Z" fill="#000000" fill-rule="nonzero" fill-opacity="1" /><path clip-path="url(#clip930)" d="M333.926 248.114 L324.334 263.104 L333.926 263.104 L333.926 248.114 M332.929 244.804 L337.707 244.804 L337.707 263.104 L341.713 263.104 L341.713 266.264 L337.707 266.264 L337.707 272.884 L333.926 272.884 L333.926 266.264 L321.25 266.264 L321.25 262.596 L332.929 244.804 Z" fill="#000000" fill-rule="nonzero" fill-opacity="1" /><path clip-path="url(#clip930)" d="M164.607 51.8283 Q161.459 51.8283 159.607 53.981 Q157.778 56.1338 157.778 59.8838 Q157.778 63.6106 159.607 65.7865 Q161.459 67.9393 164.607 67.9393 Q167.755 67.9393 169.584 65.7865 Q171.436 63.6106 171.436 59.8838 Q171.436 56.1338 169.584 53.981 Q167.755 51.8283 164.607 51.8283 M173.889 37.1756 L173.889 41.4348 Q172.13 40.6015 170.325 40.1617 Q168.542 39.7219 166.783 39.7219 Q162.153 39.7219 159.7 42.8468 Q157.269 45.9718 156.922 52.2912 Q158.288 50.2774 160.348 49.2126 Q162.408 48.1246 164.885 48.1246 Q170.093 48.1246 173.102 51.2959 Q176.135 54.444 176.135 59.8838 Q176.135 65.2078 172.987 68.4254 Q169.839 71.643 164.607 71.643 Q158.612 71.643 155.44 67.0597 Q152.269 62.4532 152.269 53.7264 Q152.269 45.532 156.158 40.6709 Q160.047 35.7867 166.598 35.7867 Q168.357 35.7867 170.139 36.1339 Q171.945 36.4811 173.889 37.1756 Z" fill="#000000" fill-rule="nonzero" fill-opacity="1" /><path clip-path="url(#clip930)" d="M184.19 65.0921 L189.075 65.0921 L189.075 70.9717 L184.19 70.9717 L184.19 65.0921 Z" fill="#000000" fill-rule="nonzero" fill-opacity="1" /><path clip-path="url(#clip930)" d="M209.26 39.4904 Q205.649 39.4904 203.82 43.0552 Q202.014 46.5968 202.014 53.7264 Q202.014 60.8329 203.82 64.3977 Q205.649 67.9393 209.26 67.9393 Q212.894 67.9393 214.699 64.3977 Q216.528 60.8329 216.528 53.7264 Q216.528 46.5968 214.699 43.0552 Q212.894 39.4904 209.26 39.4904 M209.26 35.7867 Q215.07 35.7867 218.125 40.3932 Q221.204 44.9765 221.204 53.7264 Q221.204 62.4532 218.125 67.0597 Q215.07 71.643 209.26 71.643 Q203.449 71.643 200.371 67.0597 Q197.315 62.4532 197.315 53.7264 Q197.315 44.9765 200.371 40.3932 Q203.449 35.7867 209.26 35.7867 Z" fill="#000000" fill-rule="nonzero" fill-opacity="1" /><path clip-path="url(#clip930)" d="M257.593 45.5089 L247.014 56.1338 L257.593 66.7125 L254.838 69.5134 L244.213 58.8884 L233.588 69.5134 L230.857 66.7125 L241.412 56.1338 L230.857 45.5089 L233.588 42.708 L244.213 53.3329 L254.838 42.708 L257.593 45.5089 Z" fill="#000000" fill-rule="nonzero" fill-opacity="1" /><path clip-path="url(#clip930)" d="M269.954 67.0365 L277.593 67.0365 L277.593 40.6709 L269.282 42.3376 L269.282 38.0784 L277.546 36.4117 L282.222 36.4117 L282.222 67.0365 L289.861 67.0365 L289.861 70.9717 L269.954 70.9717 L269.954 67.0365 Z" fill="#000000" fill-rule="nonzero" fill-opacity="1" /><path clip-path="url(#clip930)" d="M309.305 39.4904 Q305.694 39.4904 303.866 43.0552 Q302.06 46.5968 302.06 53.7264 Q302.06 60.8329 303.866 64.3977 Q305.694 67.9393 309.305 67.9393 Q312.94 67.9393 314.745 64.3977 Q316.574 60.8329 316.574 53.7264 Q316.574 46.5968 314.745 43.0552 Q312.94 39.4904 309.305 39.4904 M309.305 35.7867 Q315.116 35.7867 318.171 40.3932 Q321.25 44.9765 321.25 53.7264 Q321.25 62.4532 318.171 67.0597 Q315.116 71.643 309.305 71.643 Q303.495 71.643 300.417 67.0597 Q297.361 62.4532 297.361 53.7264 Q297.361 44.9765 300.417 40.3932 Q303.495 35.7867 309.305 35.7867 Z" fill="#000000" fill-rule="nonzero" fill-opacity="1" /><path clip-path="url(#clip930)" d="M333.926 18.7915 L324.334 33.7813 L333.926 33.7813 L333.926 18.7915 M332.929 15.4813 L337.707 15.4813 L337.707 33.7813 L341.713 33.7813 L341.713 36.941 L337.707 36.941 L337.707 43.5613 L333.926 43.5613 L333.926 36.941 L321.25 36.941 L321.25 33.2734 L332.929 15.4813 Z" fill="#000000" fill-rule="nonzero" fill-opacity="1" /><path clip-path="url(#clip930)" d="M65.3263 808.572 L63.2973 808.572 L63.2973 806.833 Q63.2973 803.129 62.7176 802.292 Q62.1057 801.422 60.1733 801.422 L25.4232 801.422 Q23.5231 801.422 22.9434 802.292 Q22.3315 803.161 22.3315 806.833 L22.3315 808.572 L20.2703 808.572 Q20.4635 806.253 20.4635 798.459 Q20.4635 790.73 20.2703 788.443 L22.3315 788.443 L22.3315 790.15 Q22.3315 793.854 22.9434 794.723 Q23.5231 795.561 25.4232 795.561 L60.1733 795.561 Q62.0735 795.561 62.6854 794.723 Q63.2973 793.854 63.2973 790.15 L63.2973 788.443 L65.3263 788.443 Q65.133 790.762 65.133 798.524 Q65.133 806.253 65.3263 808.572 Z" fill="#000000" fill-rule="nonzero" fill-opacity="1" /><path clip-path="url(#clip930)" d="M65.3263 779.719 L63.2973 779.719 Q63.2973 776.209 62.8786 775.403 Q62.4278 774.598 60.3022 774.598 L42.6212 774.598 Q40.1735 774.598 39.5616 775.468 Q38.9497 776.305 38.9497 779.719 L36.8885 779.719 L36.18 770.444 L43.1042 770.444 Q36.18 767.352 36.18 760.685 Q36.18 752.956 42.6212 751.893 Q40.1091 750.766 38.1445 748.415 Q36.18 746.032 36.18 742.328 Q36.18 737.368 38.6276 735.404 Q40.2701 733.954 42.1059 733.665 Q43.9416 733.375 48.7081 733.375 L61.3005 733.375 Q62.6854 733.31 63.0075 732.248 Q63.2973 731.185 63.2973 728.222 L65.3263 728.222 Q65.133 734.953 65.133 735.597 Q65.133 736.112 65.3263 743.069 L63.2973 743.069 Q63.2973 739.558 62.8786 738.753 Q62.4278 737.916 60.3022 737.916 L44.94 737.916 Q41.5906 737.916 39.626 738.946 Q37.6292 739.977 37.6292 742.811 Q37.6292 746.225 40.4956 748.962 Q43.3619 751.7 48.1928 751.7 L60.3022 751.7 Q62.4278 751.7 62.8786 750.895 Q63.2973 750.057 63.2973 746.547 L65.3263 746.547 Q65.133 753.278 65.133 753.954 Q65.133 754.47 65.3263 761.394 L63.2973 761.394 Q63.2973 757.883 62.8786 757.078 Q62.4278 756.241 60.3022 756.241 L44.94 756.241 Q41.5906 756.241 39.626 757.272 Q37.6292 758.302 37.6292 761.136 Q37.6292 764.55 40.4956 767.288 Q43.3619 770.025 48.1928 770.025 L60.3022 770.025 Q62.4278 770.025 62.8786 769.22 Q63.2973 768.383 63.2973 764.904 L65.3263 764.904 Q65.133 771.635 65.133 772.279 Q65.133 772.795 65.3263 779.719 Z" fill="#000000" fill-rule="nonzero" fill-opacity="1" /><path clip-path="url(#clip930)" d="M59.0461 724.54 Q53.4423 724.54 50.4794 717.938 Q48.5792 713.977 48.0961 705.796 L45.6807 705.796 Q41.5906 705.796 39.4328 707.954 Q37.2428 710.08 37.2428 712.785 Q37.2428 717.616 40.2701 719.935 Q40.3345 717.97 41.3329 717.262 Q42.2991 716.553 43.2975 716.553 Q44.6179 716.553 45.4875 717.39 Q46.3248 718.196 46.3248 719.58 Q46.3248 720.901 45.5197 721.77 Q44.6823 722.64 43.2331 722.64 Q40.0125 722.64 37.8869 719.741 Q35.7613 716.811 35.7613 712.656 Q35.7613 707.246 39.4006 703.638 Q40.5278 702.511 41.977 701.964 Q43.4263 701.384 44.3925 701.32 Q45.3264 701.255 47.1944 701.255 L60.3666 701.255 Q60.7531 701.255 61.3972 701.126 Q62.0413 700.998 62.8786 700.418 Q63.6838 699.806 63.6838 698.808 Q63.6838 696.424 59.4648 696.457 L55.7611 696.457 L55.7611 694.782 L59.4648 694.782 Q62.9753 694.782 64.3601 696.65 Q65.7128 698.486 65.7128 700.192 Q65.7128 702.382 64.1025 703.767 Q62.4922 705.152 60.3022 705.345 Q62.8142 706.344 64.4567 708.63 Q66.067 710.885 66.067 713.977 Q66.067 716.36 65.4551 718.614 Q64.8754 720.836 63.2329 722.704 Q61.5582 724.54 59.0461 724.54 M58.9817 719.452 Q61.4294 719.452 63.0075 717.712 Q64.5855 715.973 64.5855 713.526 Q64.5855 710.756 62.46 708.276 Q60.3022 705.796 56.0832 705.796 L49.481 705.796 Q49.7386 713.107 52.6694 716.295 Q55.5679 719.452 58.9817 719.452 Z" fill="#000000" fill-rule="nonzero" fill-opacity="1" /><path clip-path="url(#clip930)" d="M70.5436 694.516 Q68.418 694.516 66.5823 692.906 Q64.7466 691.263 63.9414 688.429 Q62.1057 691.328 58.08 691.328 Q54.9882 691.328 52.605 689.299 Q50.0285 692.39 45.8095 692.39 Q41.9126 692.39 39.0463 689.299 Q36.18 686.207 36.18 681.698 Q36.18 677.737 38.5632 674.709 Q35.4714 671.553 35.4392 667.721 Q35.4392 666.014 36.502 665.209 Q37.5648 664.371 38.692 664.371 Q39.6904 664.371 40.1735 665.015 Q40.6566 665.627 40.6566 666.271 Q40.6566 667.077 40.1413 667.656 Q39.5938 668.204 38.7564 668.204 Q37.3716 668.204 36.9529 667.141 Q36.8885 667.334 36.8885 667.785 Q36.8885 671.006 39.465 673.743 Q41.977 671.038 45.8739 671.038 Q49.7709 671.038 52.6372 674.13 Q55.5035 677.221 55.5035 681.698 Q55.5035 685.402 53.4423 688.236 Q54.7628 689.363 56.5663 689.363 Q58.2088 689.363 59.497 688.365 Q60.7853 687.366 60.9785 685.853 Q61.0429 685.402 61.0429 680.925 Q61.0429 678.284 61.1073 676.835 Q61.1717 675.386 61.6226 673.325 Q62.0413 671.231 62.8786 669.589 Q65.2619 665.305 70.4148 665.273 Q74.1829 665.273 76.5339 669.621 Q78.9172 673.936 78.9172 679.927 Q78.9172 685.981 76.5017 690.265 Q74.1185 694.516 70.5436 694.516 M70.5436 691.07 Q73.2489 691.07 75.3101 687.882 Q77.4035 684.693 77.4035 679.862 Q77.4035 675.128 75.3423 671.94 Q73.3133 668.719 70.5436 668.719 Q68.5791 668.719 67.323 669.846 Q66.067 670.974 65.5517 673.292 Q65.0686 675.579 64.972 677.189 Q64.8754 678.8 64.8754 681.762 L64.8754 685.659 Q65.0042 687.914 66.6467 689.492 Q68.2892 691.07 70.5436 691.07 M45.8739 687.463 Q53.9898 687.463 53.9898 681.698 Q53.9898 678.8 51.3489 677.028 Q49.5776 675.965 45.8095 675.965 Q37.6937 675.965 37.6937 681.698 Q37.6937 684.597 40.3345 686.4 Q42.1059 687.463 45.8739 687.463 Z" fill="#000000" fill-rule="nonzero" fill-opacity="1" /><circle clip-path="url(#clip932)" cx="614.449" cy="950.699" r="21.6" fill="#bed2e6" fill-rule="evenodd" fill-opacity="1" stroke="#000000" stroke-opacity="1" stroke-width="3.2"/>
<circle clip-path="url(#clip932)" cx="614.449" cy="519.725" r="21.6" fill="#bed2e6" fill-rule="evenodd" fill-opacity="1" stroke="#000000" stroke-opacity="1" stroke-width="3.2"/>
<circle clip-path="url(#clip932)" cx="629.553" cy="738.568" r="21.6" fill="#bed2e6" fill-rule="evenodd" fill-opacity="1" stroke="#000000" stroke-opacity="1" stroke-width="3.2"/>
<circle clip-path="url(#clip932)" cx="629.553" cy="731.856" r="21.6" fill="#bed2e6" fill-rule="evenodd" fill-opacity="1" stroke="#000000" stroke-opacity="1" stroke-width="3.2"/>
<circle clip-path="url(#clip932)" cx="717.27" cy="934.232" r="21.6" fill="#bed2e6" fill-rule="evenodd" fill-opacity="1" stroke="#000000" stroke-opacity="1" stroke-width="3.2"/>
<circle clip-path="url(#clip932)" cx="717.27" cy="536.191" r="21.6" fill="#bed2e6" fill-rule="evenodd" fill-opacity="1" stroke="#000000" stroke-opacity="1" stroke-width="3.2"/>
<circle clip-path="url(#clip932)" cx="949.364" cy="1136.47" r="21.6" fill="#bed2e6" fill-rule="evenodd" fill-opacity="1" stroke="#000000" stroke-opacity="1" stroke-width="3.2"/>
<circle clip-path="url(#clip932)" cx="949.364" cy="333.958" r="21.6" fill="#bed2e6" fill-rule="evenodd" fill-opacity="1" stroke="#000000" stroke-opacity="1" stroke-width="3.2"/>
<circle clip-path="url(#clip932)" cx="980.545" cy="1122.15" r="21.6" fill="#bed2e6" fill-rule="evenodd" fill-opacity="1" stroke="#000000" stroke-opacity="1" stroke-width="3.2"/>
<circle clip-path="url(#clip932)" cx="980.545" cy="348.272" r="21.6" fill="#bed2e6" fill-rule="evenodd" fill-opacity="1" stroke="#000000" stroke-opacity="1" stroke-width="3.2"/>
<circle clip-path="url(#clip932)" cx="1312.08" cy="1283.44" r="21.6" fill="#bed2e6" fill-rule="evenodd" fill-opacity="1" stroke="#000000" stroke-opacity="1" stroke-width="3.2"/>
<circle clip-path="url(#clip932)" cx="1312.08" cy="186.985" r="21.6" fill="#bed2e6" fill-rule="evenodd" fill-opacity="1" stroke="#000000" stroke-opacity="1" stroke-width="3.2"/>
<circle clip-path="url(#clip932)" cx="1320.09" cy="1271.8" r="21.6" fill="#bed2e6" fill-rule="evenodd" fill-opacity="1" stroke="#000000" stroke-opacity="1" stroke-width="3.2"/>
<circle clip-path="url(#clip932)" cx="1320.09" cy="198.628" r="21.6" fill="#bed2e6" fill-rule="evenodd" fill-opacity="1" stroke="#000000" stroke-opacity="1" stroke-width="3.2"/>
<circle clip-path="url(#clip932)" cx="1600.87" cy="1377.58" r="21.6" fill="#bed2e6" fill-rule="evenodd" fill-opacity="1" stroke="#000000" stroke-opacity="1" stroke-width="3.2"/>
<circle clip-path="url(#clip932)" cx="1600.87" cy="92.8408" r="21.6" fill="#bed2e6" fill-rule="evenodd" fill-opacity="1" stroke="#000000" stroke-opacity="1" stroke-width="3.2"/>
<circle clip-path="url(#clip932)" cx="1601.97" cy="1368.11" r="21.6" fill="#bed2e6" fill-rule="evenodd" fill-opacity="1" stroke="#000000" stroke-opacity="1" stroke-width="3.2"/>
<circle clip-path="url(#clip932)" cx="1601.97" cy="102.316" r="21.6" fill="#bed2e6" fill-rule="evenodd" fill-opacity="1" stroke="#000000" stroke-opacity="1" stroke-width="3.2"/>
<circle clip-path="url(#clip932)" cx="1612.66" cy="735.212" r="21.6" fill="#bed2e6" fill-rule="evenodd" fill-opacity="1" stroke="#000000" stroke-opacity="1" stroke-width="3.2"/>
<circle clip-path="url(#clip932)" cx="1847.67" cy="735.212" r="21.6" fill="#bed2e6" fill-rule="evenodd" fill-opacity="1" stroke="#000000" stroke-opacity="1" stroke-width="3.2"/>
<circle clip-path="url(#clip932)" cx="1852.21" cy="735.212" r="21.6" fill="#bed2e6" fill-rule="evenodd" fill-opacity="1" stroke="#000000" stroke-opacity="1" stroke-width="3.2"/>
<circle clip-path="url(#clip932)" cx="1942.24" cy="735.212" r="21.6" fill="#bed2e6" fill-rule="evenodd" fill-opacity="1" stroke="#000000" stroke-opacity="1" stroke-width="3.2"/>
<circle clip-path="url(#clip932)" cx="2011.43" cy="735.492" r="21.6" fill="#bed2e6" fill-rule="evenodd" fill-opacity="1" stroke="#000000" stroke-opacity="1" stroke-width="3.2"/>
<circle clip-path="url(#clip932)" cx="2011.43" cy="734.932" r="21.6" fill="#bed2e6" fill-rule="evenodd" fill-opacity="1" stroke="#000000" stroke-opacity="1" stroke-width="3.2"/>
<circle clip-path="url(#clip932)" cx="2127.6" cy="735.294" r="21.6" fill="#bed2e6" fill-rule="evenodd" fill-opacity="1" stroke="#000000" stroke-opacity="1" stroke-width="3.2"/>
<circle clip-path="url(#clip932)" cx="2127.6" cy="735.129" r="21.6" fill="#bed2e6" fill-rule="evenodd" fill-opacity="1" stroke="#000000" stroke-opacity="1" stroke-width="3.2"/>
<circle clip-path="url(#clip932)" cx="2188.09" cy="735.222" r="21.6" fill="#bed2e6" fill-rule="evenodd" fill-opacity="1" stroke="#000000" stroke-opacity="1" stroke-width="3.2"/>
<circle clip-path="url(#clip932)" cx="2188.09" cy="735.201" r="21.6" fill="#bed2e6" fill-rule="evenodd" fill-opacity="1" stroke="#000000" stroke-opacity="1" stroke-width="3.2"/>
<circle clip-path="url(#clip932)" cx="2238.51" cy="735.212" r="21.6" fill="#bed2e6" fill-rule="evenodd" fill-opacity="1" stroke="#000000" stroke-opacity="1" stroke-width="3.2"/>
<circle clip-path="url(#clip932)" cx="2264.3" cy="735.229" r="21.6" fill="#bed2e6" fill-rule="evenodd" fill-opacity="1" stroke="#000000" stroke-opacity="1" stroke-width="3.2"/>
<circle clip-path="url(#clip932)" cx="2264.3" cy="735.195" r="21.6" fill="#bed2e6" fill-rule="evenodd" fill-opacity="1" stroke="#000000" stroke-opacity="1" stroke-width="3.2"/>
<circle clip-path="url(#clip932)" cx="2276.79" cy="735.212" r="21.6" fill="#bed2e6" fill-rule="evenodd" fill-opacity="1" stroke="#000000" stroke-opacity="1" stroke-width="3.2"/>
<circle clip-path="url(#clip932)" cx="474.191" cy="738.689" r="21.6" fill="#8b95c5" fill-rule="evenodd" fill-opacity="1" stroke="#000000" stroke-opacity="1" stroke-width="3.2"/>
<circle clip-path="url(#clip932)" cx="474.191" cy="731.735" r="21.6" fill="#8b95c5" fill-rule="evenodd" fill-opacity="1" stroke="#000000" stroke-opacity="1" stroke-width="3.2"/>
<circle clip-path="url(#clip932)" cx="550.194" cy="950.794" r="21.6" fill="#8b95c5" fill-rule="evenodd" fill-opacity="1" stroke="#000000" stroke-opacity="1" stroke-width="3.2"/>
<circle clip-path="url(#clip932)" cx="550.194" cy="519.63" r="21.6" fill="#8b95c5" fill-rule="evenodd" fill-opacity="1" stroke="#000000" stroke-opacity="1" stroke-width="3.2"/>
<circle clip-path="url(#clip932)" cx="643.479" cy="831.885" r="21.6" fill="#8b95c5" fill-rule="evenodd" fill-opacity="1" stroke="#000000" stroke-opacity="1" stroke-width="3.2"/>
<circle clip-path="url(#clip932)" cx="643.479" cy="638.539" r="21.6" fill="#8b95c5" fill-rule="evenodd" fill-opacity="1" stroke="#000000" stroke-opacity="1" stroke-width="3.2"/>
<circle clip-path="url(#clip932)" cx="736.142" cy="1047.45" r="21.6" fill="#8b95c5" fill-rule="evenodd" fill-opacity="1" stroke="#000000" stroke-opacity="1" stroke-width="3.2"/>
<circle clip-path="url(#clip932)" cx="736.142" cy="422.976" r="21.6" fill="#8b95c5" fill-rule="evenodd" fill-opacity="1" stroke="#000000" stroke-opacity="1" stroke-width="3.2"/>
<circle clip-path="url(#clip932)" cx="751.311" cy="934.308" r="21.6" fill="#8b95c5" fill-rule="evenodd" fill-opacity="1" stroke="#000000" stroke-opacity="1" stroke-width="3.2"/>
<circle clip-path="url(#clip932)" cx="751.311" cy="536.116" r="21.6" fill="#8b95c5" fill-rule="evenodd" fill-opacity="1" stroke="#000000" stroke-opacity="1" stroke-width="3.2"/>
<circle clip-path="url(#clip932)" cx="859.05" cy="1031.91" r="21.6" fill="#8b95c5" fill-rule="evenodd" fill-opacity="1" stroke="#000000" stroke-opacity="1" stroke-width="3.2"/>
<circle clip-path="url(#clip932)" cx="859.05" cy="438.517" r="21.6" fill="#8b95c5" fill-rule="evenodd" fill-opacity="1" stroke="#000000" stroke-opacity="1" stroke-width="3.2"/>
<circle clip-path="url(#clip932)" cx="916.186" cy="1136.52" r="21.6" fill="#8b95c5" fill-rule="evenodd" fill-opacity="1" stroke="#000000" stroke-opacity="1" stroke-width="3.2"/>
<circle clip-path="url(#clip932)" cx="916.186" cy="333.909" r="21.6" fill="#8b95c5" fill-rule="evenodd" fill-opacity="1" stroke="#000000" stroke-opacity="1" stroke-width="3.2"/>
<circle clip-path="url(#clip932)" cx="962.033" cy="1407.93" r="21.6" fill="#8b95c5" fill-rule="evenodd" fill-opacity="1" stroke="#000000" stroke-opacity="1" stroke-width="3.2"/>
<circle clip-path="url(#clip932)" cx="962.033" cy="62.4952" r="21.6" fill="#8b95c5" fill-rule="evenodd" fill-opacity="1" stroke="#000000" stroke-opacity="1" stroke-width="3.2"/>
<circle clip-path="url(#clip932)" cx="964.604" cy="1399.27" r="21.6" fill="#8b95c5" fill-rule="evenodd" fill-opacity="1" stroke="#000000" stroke-opacity="1" stroke-width="3.2"/>
<circle clip-path="url(#clip932)" cx="964.604" cy="71.1493" r="21.6" fill="#8b95c5" fill-rule="evenodd" fill-opacity="1" stroke="#000000" stroke-opacity="1" stroke-width="3.2"/>
<circle clip-path="url(#clip932)" cx="997.199" cy="1122.17" r="21.6" fill="#8b95c5" fill-rule="evenodd" fill-opacity="1" stroke="#000000" stroke-opacity="1" stroke-width="3.2"/>
<circle clip-path="url(#clip932)" cx="997.199" cy="348.256" r="21.6" fill="#8b95c5" fill-rule="evenodd" fill-opacity="1" stroke="#000000" stroke-opacity="1" stroke-width="3.2"/>
<circle clip-path="url(#clip932)" cx="1102.63" cy="1215.83" r="21.6" fill="#8b95c5" fill-rule="evenodd" fill-opacity="1" stroke="#000000" stroke-opacity="1" stroke-width="3.2"/>
<circle clip-path="url(#clip932)" cx="1102.63" cy="254.598" r="21.6" fill="#8b95c5" fill-rule="evenodd" fill-opacity="1" stroke="#000000" stroke-opacity="1" stroke-width="3.2"/>
<circle clip-path="url(#clip932)" cx="1155.99" cy="1202.81" r="21.6" fill="#8b95c5" fill-rule="evenodd" fill-opacity="1" stroke="#000000" stroke-opacity="1" stroke-width="3.2"/>
<circle clip-path="url(#clip932)" cx="1155.99" cy="267.614" r="21.6" fill="#8b95c5" fill-rule="evenodd" fill-opacity="1" stroke="#000000" stroke-opacity="1" stroke-width="3.2"/>
<circle clip-path="url(#clip932)" cx="1287.23" cy="1283.47" r="21.6" fill="#8b95c5" fill-rule="evenodd" fill-opacity="1" stroke="#000000" stroke-opacity="1" stroke-width="3.2"/>
<circle clip-path="url(#clip932)" cx="1287.23" cy="186.957" r="21.6" fill="#8b95c5" fill-rule="evenodd" fill-opacity="1" stroke="#000000" stroke-opacity="1" stroke-width="3.2"/>
<circle clip-path="url(#clip932)" cx="1320.51" cy="1271.79" r="21.6" fill="#8b95c5" fill-rule="evenodd" fill-opacity="1" stroke="#000000" stroke-opacity="1" stroke-width="3.2"/>
<circle clip-path="url(#clip932)" cx="1320.51" cy="198.632" r="21.6" fill="#8b95c5" fill-rule="evenodd" fill-opacity="1" stroke="#000000" stroke-opacity="1" stroke-width="3.2"/>
<circle clip-path="url(#clip932)" cx="1455.62" cy="1337.82" r="21.6" fill="#8b95c5" fill-rule="evenodd" fill-opacity="1" stroke="#000000" stroke-opacity="1" stroke-width="3.2"/>
<circle clip-path="url(#clip932)" cx="1455.62" cy="132.603" r="21.6" fill="#8b95c5" fill-rule="evenodd" fill-opacity="1" stroke="#000000" stroke-opacity="1" stroke-width="3.2"/>
<circle clip-path="url(#clip932)" cx="1474.07" cy="1327.36" r="21.6" fill="#8b95c5" fill-rule="evenodd" fill-opacity="1" stroke="#000000" stroke-opacity="1" stroke-width="3.2"/>
<circle clip-path="url(#clip932)" cx="1474.07" cy="143.061" r="21.6" fill="#8b95c5" fill-rule="evenodd" fill-opacity="1" stroke="#000000" stroke-opacity="1" stroke-width="3.2"/>
<circle clip-path="url(#clip932)" cx="1591.59" cy="1377.59" r="21.6" fill="#8b95c5" fill-rule="evenodd" fill-opacity="1" stroke="#000000" stroke-opacity="1" stroke-width="3.2"/>
<circle clip-path="url(#clip932)" cx="1591.59" cy="92.8318" r="21.6" fill="#8b95c5" fill-rule="evenodd" fill-opacity="1" stroke="#000000" stroke-opacity="1" stroke-width="3.2"/>
<circle clip-path="url(#clip932)" cx="1599.72" cy="1368.11" r="21.6" fill="#8b95c5" fill-rule="evenodd" fill-opacity="1" stroke="#000000" stroke-opacity="1" stroke-width="3.2"/>
<circle clip-path="url(#clip932)" cx="1599.72" cy="102.319" r="21.6" fill="#8b95c5" fill-rule="evenodd" fill-opacity="1" stroke="#000000" stroke-opacity="1" stroke-width="3.2"/>
<circle clip-path="url(#clip932)" cx="1628.72" cy="735.212" r="21.6" fill="#8b95c5" fill-rule="evenodd" fill-opacity="1" stroke="#000000" stroke-opacity="1" stroke-width="3.2"/>
<circle clip-path="url(#clip932)" cx="1680.26" cy="1401.84" r="21.6" fill="#8b95c5" fill-rule="evenodd" fill-opacity="1" stroke="#000000" stroke-opacity="1" stroke-width="3.2"/>
<circle clip-path="url(#clip932)" cx="1680.26" cy="68.5865" r="21.6" fill="#8b95c5" fill-rule="evenodd" fill-opacity="1" stroke="#000000" stroke-opacity="1" stroke-width="3.2"/>
<circle clip-path="url(#clip932)" cx="1682.28" cy="1392.98" r="21.6" fill="#8b95c5" fill-rule="evenodd" fill-opacity="1" stroke="#000000" stroke-opacity="1" stroke-width="3.2"/>
<circle clip-path="url(#clip932)" cx="1682.28" cy="77.4479" r="21.6" fill="#8b95c5" fill-rule="evenodd" fill-opacity="1" stroke="#000000" stroke-opacity="1" stroke-width="3.2"/>
<circle clip-path="url(#clip932)" cx="1847.84" cy="735.212" r="21.6" fill="#8b95c5" fill-rule="evenodd" fill-opacity="1" stroke="#000000" stroke-opacity="1" stroke-width="3.2"/>
<circle clip-path="url(#clip932)" cx="1849.84" cy="735.212" r="21.6" fill="#8b95c5" fill-rule="evenodd" fill-opacity="1" stroke="#000000" stroke-opacity="1" stroke-width="3.2"/>
<circle clip-path="url(#clip932)" cx="1976.91" cy="735.212" r="21.6" fill="#8b95c5" fill-rule="evenodd" fill-opacity="1" stroke="#000000" stroke-opacity="1" stroke-width="3.2"/>
<circle clip-path="url(#clip932)" cx="2035.31" cy="735.478" r="21.6" fill="#8b95c5" fill-rule="evenodd" fill-opacity="1" stroke="#000000" stroke-opacity="1" stroke-width="3.2"/>
<circle clip-path="url(#clip932)" cx="2035.31" cy="734.945" r="21.6" fill="#8b95c5" fill-rule="evenodd" fill-opacity="1" stroke="#000000" stroke-opacity="1" stroke-width="3.2"/>
<circle clip-path="url(#clip932)" cx="2126.54" cy="735.294" r="21.6" fill="#8b95c5" fill-rule="evenodd" fill-opacity="1" stroke="#000000" stroke-opacity="1" stroke-width="3.2"/>
<circle clip-path="url(#clip932)" cx="2126.54" cy="735.13" r="21.6" fill="#8b95c5" fill-rule="evenodd" fill-opacity="1" stroke="#000000" stroke-opacity="1" stroke-width="3.2"/>
<circle clip-path="url(#clip932)" cx="2137.61" cy="735.212" r="21.6" fill="#8b95c5" fill-rule="evenodd" fill-opacity="1" stroke="#000000" stroke-opacity="1" stroke-width="3.2"/>
<circle clip-path="url(#clip932)" cx="2208.04" cy="735.212" r="21.6" fill="#8b95c5" fill-rule="evenodd" fill-opacity="1" stroke="#000000" stroke-opacity="1" stroke-width="3.2"/>
<circle clip-path="url(#clip932)" cx="2239.1" cy="735.212" r="21.6" fill="#8b95c5" fill-rule="evenodd" fill-opacity="1" stroke="#000000" stroke-opacity="1" stroke-width="3.2"/>
<circle clip-path="url(#clip932)" cx="2269.94" cy="735.23" r="21.6" fill="#8b95c5" fill-rule="evenodd" fill-opacity="1" stroke="#000000" stroke-opacity="1" stroke-width="3.2"/>
<circle clip-path="url(#clip932)" cx="2269.94" cy="735.194" r="21.6" fill="#8b95c5" fill-rule="evenodd" fill-opacity="1" stroke="#000000" stroke-opacity="1" stroke-width="3.2"/>
<circle clip-path="url(#clip932)" cx="2276.79" cy="735.212" r="21.6" fill="#8b95c5" fill-rule="evenodd" fill-opacity="1" stroke="#000000" stroke-opacity="1" stroke-width="3.2"/>
<circle clip-path="url(#clip932)" cx="499.334" cy="950.893" r="21.6" fill="#87419d" fill-rule="evenodd" fill-opacity="1" stroke="#000000" stroke-opacity="1" stroke-width="3.2"/>
<circle clip-path="url(#clip932)" cx="499.334" cy="519.531" r="21.6" fill="#87419d" fill-rule="evenodd" fill-opacity="1" stroke="#000000" stroke-opacity="1" stroke-width="3.2"/>
<circle clip-path="url(#clip932)" cx="558.076" cy="797.377" r="21.6" fill="#87419d" fill-rule="evenodd" fill-opacity="1" stroke="#000000" stroke-opacity="1" stroke-width="3.2"/>
<circle clip-path="url(#clip932)" cx="558.076" cy="673.047" r="21.6" fill="#87419d" fill-rule="evenodd" fill-opacity="1" stroke="#000000" stroke-opacity="1" stroke-width="3.2"/>
<circle clip-path="url(#clip932)" cx="637.446" cy="1016.04" r="21.6" fill="#87419d" fill-rule="evenodd" fill-opacity="1" stroke="#000000" stroke-opacity="1" stroke-width="3.2"/>
<circle clip-path="url(#clip932)" cx="637.446" cy="454.386" r="21.6" fill="#87419d" fill-rule="evenodd" fill-opacity="1" stroke="#000000" stroke-opacity="1" stroke-width="3.2"/>
<circle clip-path="url(#clip932)" cx="729.3" cy="866.5" r="21.6" fill="#87419d" fill-rule="evenodd" fill-opacity="1" stroke="#000000" stroke-opacity="1" stroke-width="3.2"/>
<circle clip-path="url(#clip932)" cx="729.3" cy="603.923" r="21.6" fill="#87419d" fill-rule="evenodd" fill-opacity="1" stroke="#000000" stroke-opacity="1" stroke-width="3.2"/>
<circle clip-path="url(#clip932)" cx="757.136" cy="1078.16" r="21.6" fill="#87419d" fill-rule="evenodd" fill-opacity="1" stroke="#000000" stroke-opacity="1" stroke-width="3.2"/>
<circle clip-path="url(#clip932)" cx="757.136" cy="392.263" r="21.6" fill="#87419d" fill-rule="evenodd" fill-opacity="1" stroke="#000000" stroke-opacity="1" stroke-width="3.2"/>
<circle clip-path="url(#clip932)" cx="793.441" cy="934.373" r="21.6" fill="#87419d" fill-rule="evenodd" fill-opacity="1" stroke="#000000" stroke-opacity="1" stroke-width="3.2"/>
<circle clip-path="url(#clip932)" cx="793.441" cy="536.051" r="21.6" fill="#87419d" fill-rule="evenodd" fill-opacity="1" stroke="#000000" stroke-opacity="1" stroke-width="3.2"/>
<circle clip-path="url(#clip932)" cx="855.635" cy="1000.11" r="21.6" fill="#87419d" fill-rule="evenodd" fill-opacity="1" stroke="#000000" stroke-opacity="1" stroke-width="3.2"/>
<circle clip-path="url(#clip932)" cx="855.635" cy="470.315" r="21.6" fill="#87419d" fill-rule="evenodd" fill-opacity="1" stroke="#000000" stroke-opacity="1" stroke-width="3.2"/>
<circle clip-path="url(#clip932)" cx="875.398" cy="1136.58" r="21.6" fill="#87419d" fill-rule="evenodd" fill-opacity="1" stroke="#000000" stroke-opacity="1" stroke-width="3.2"/>
<circle clip-path="url(#clip932)" cx="875.398" cy="333.847" r="21.6" fill="#87419d" fill-rule="evenodd" fill-opacity="1" stroke="#000000" stroke-opacity="1" stroke-width="3.2"/>
<circle clip-path="url(#clip932)" cx="929.148" cy="1062.95" r="21.6" fill="#87419d" fill-rule="evenodd" fill-opacity="1" stroke="#000000" stroke-opacity="1" stroke-width="3.2"/>
<circle clip-path="url(#clip932)" cx="929.148" cy="407.479" r="21.6" fill="#87419d" fill-rule="evenodd" fill-opacity="1" stroke="#000000" stroke-opacity="1" stroke-width="3.2"/>
<circle clip-path="url(#clip932)" cx="996.686" cy="1190.65" r="21.6" fill="#87419d" fill-rule="evenodd" fill-opacity="1" stroke="#000000" stroke-opacity="1" stroke-width="3.2"/>
<circle clip-path="url(#clip932)" cx="996.686" cy="279.772" r="21.6" fill="#87419d" fill-rule="evenodd" fill-opacity="1" stroke="#000000" stroke-opacity="1" stroke-width="3.2"/>
<circle clip-path="url(#clip932)" cx="1014.28" cy="1122.17" r="21.6" fill="#87419d" fill-rule="evenodd" fill-opacity="1" stroke="#000000" stroke-opacity="1" stroke-width="3.2"/>
<circle clip-path="url(#clip932)" cx="1014.28" cy="348.251" r="21.6" fill="#87419d" fill-rule="evenodd" fill-opacity="1" stroke="#000000" stroke-opacity="1" stroke-width="3.2"/>
<circle clip-path="url(#clip932)" cx="1108.8" cy="1177.12" r="21.6" fill="#87419d" fill-rule="evenodd" fill-opacity="1" stroke="#000000" stroke-opacity="1" stroke-width="3.2"/>
<circle clip-path="url(#clip932)" cx="1108.8" cy="293.3" r="21.6" fill="#87419d" fill-rule="evenodd" fill-opacity="1" stroke="#000000" stroke-opacity="1" stroke-width="3.2"/>
<circle clip-path="url(#clip932)" cx="1120.91" cy="1239.8" r="21.6" fill="#87419d" fill-rule="evenodd" fill-opacity="1" stroke="#000000" stroke-opacity="1" stroke-width="3.2"/>
<circle clip-path="url(#clip932)" cx="1120.91" cy="230.62" r="21.6" fill="#87419d" fill-rule="evenodd" fill-opacity="1" stroke="#000000" stroke-opacity="1" stroke-width="3.2"/>
<circle clip-path="url(#clip932)" cx="1209.66" cy="1227.18" r="21.6" fill="#87419d" fill-rule="evenodd" fill-opacity="1" stroke="#000000" stroke-opacity="1" stroke-width="3.2"/>
<circle clip-path="url(#clip932)" cx="1209.66" cy="243.244" r="21.6" fill="#87419d" fill-rule="evenodd" fill-opacity="1" stroke="#000000" stroke-opacity="1" stroke-width="3.2"/>
<circle clip-path="url(#clip932)" cx="1245.56" cy="1283.51" r="21.6" fill="#87419d" fill-rule="evenodd" fill-opacity="1" stroke="#000000" stroke-opacity="1" stroke-width="3.2"/>
<circle clip-path="url(#clip932)" cx="1245.56" cy="186.916" r="21.6" fill="#87419d" fill-rule="evenodd" fill-opacity="1" stroke="#000000" stroke-opacity="1" stroke-width="3.2"/>
<circle clip-path="url(#clip932)" cx="1313.22" cy="1271.78" r="21.6" fill="#87419d" fill-rule="evenodd" fill-opacity="1" stroke="#000000" stroke-opacity="1" stroke-width="3.2"/>
<circle clip-path="url(#clip932)" cx="1313.22" cy="198.646" r="21.6" fill="#87419d" fill-rule="evenodd" fill-opacity="1" stroke="#000000" stroke-opacity="1" stroke-width="3.2"/>
<circle clip-path="url(#clip932)" cx="1366.42" cy="1321.3" r="21.6" fill="#87419d" fill-rule="evenodd" fill-opacity="1" stroke="#000000" stroke-opacity="1" stroke-width="3.2"/>
<circle clip-path="url(#clip932)" cx="1366.42" cy="149.126" r="21.6" fill="#87419d" fill-rule="evenodd" fill-opacity="1" stroke="#000000" stroke-opacity="1" stroke-width="3.2"/>
<circle clip-path="url(#clip932)" cx="1415.07" cy="1310.41" r="21.6" fill="#87419d" fill-rule="evenodd" fill-opacity="1" stroke="#000000" stroke-opacity="1" stroke-width="3.2"/>
<circle clip-path="url(#clip932)" cx="1415.07" cy="160.014" r="21.6" fill="#87419d" fill-rule="evenodd" fill-opacity="1" stroke="#000000" stroke-opacity="1" stroke-width="3.2"/>
<circle clip-path="url(#clip932)" cx="1477.98" cy="1352.77" r="21.6" fill="#87419d" fill-rule="evenodd" fill-opacity="1" stroke="#000000" stroke-opacity="1" stroke-width="3.2"/>
<circle clip-path="url(#clip932)" cx="1477.98" cy="117.65" r="21.6" fill="#87419d" fill-rule="evenodd" fill-opacity="1" stroke="#000000" stroke-opacity="1" stroke-width="3.2"/>
<circle clip-path="url(#clip932)" cx="1481.98" cy="1409.07" r="21.6" fill="#87419d" fill-rule="evenodd" fill-opacity="1" stroke="#000000" stroke-opacity="1" stroke-width="3.2"/>
<circle clip-path="url(#clip932)" cx="1481.98" cy="61.3588" r="21.6" fill="#87419d" fill-rule="evenodd" fill-opacity="1" stroke="#000000" stroke-opacity="1" stroke-width="3.2"/>
<circle clip-path="url(#clip932)" cx="1484.25" cy="1400.42" r="21.6" fill="#87419d" fill-rule="evenodd" fill-opacity="1" stroke="#000000" stroke-opacity="1" stroke-width="3.2"/>
<circle clip-path="url(#clip932)" cx="1484.25" cy="70.0044" r="21.6" fill="#87419d" fill-rule="evenodd" fill-opacity="1" stroke="#000000" stroke-opacity="1" stroke-width="3.2"/>
<circle clip-path="url(#clip932)" cx="1510.05" cy="1342.64" r="21.6" fill="#87419d" fill-rule="evenodd" fill-opacity="1" stroke="#000000" stroke-opacity="1" stroke-width="3.2"/>
<circle clip-path="url(#clip932)" cx="1510.05" cy="127.785" r="21.6" fill="#87419d" fill-rule="evenodd" fill-opacity="1" stroke="#000000" stroke-opacity="1" stroke-width="3.2"/>
<circle clip-path="url(#clip932)" cx="1573.97" cy="1377.61" r="21.6" fill="#87419d" fill-rule="evenodd" fill-opacity="1" stroke="#000000" stroke-opacity="1" stroke-width="3.2"/>
<circle clip-path="url(#clip932)" cx="1573.97" cy="92.8185" r="21.6" fill="#87419d" fill-rule="evenodd" fill-opacity="1" stroke="#000000" stroke-opacity="1" stroke-width="3.2"/>
<circle clip-path="url(#clip932)" cx="1592.42" cy="1368.1" r="21.6" fill="#87419d" fill-rule="evenodd" fill-opacity="1" stroke="#000000" stroke-opacity="1" stroke-width="3.2"/>
<circle clip-path="url(#clip932)" cx="1592.42" cy="102.326" r="21.6" fill="#87419d" fill-rule="evenodd" fill-opacity="1" stroke="#000000" stroke-opacity="1" stroke-width="3.2"/>
<circle clip-path="url(#clip932)" cx="1641.33" cy="735.212" r="21.6" fill="#87419d" fill-rule="evenodd" fill-opacity="1" stroke="#000000" stroke-opacity="1" stroke-width="3.2"/>
<circle clip-path="url(#clip932)" cx="1648.11" cy="1395.53" r="21.6" fill="#87419d" fill-rule="evenodd" fill-opacity="1" stroke="#000000" stroke-opacity="1" stroke-width="3.2"/>
<circle clip-path="url(#clip932)" cx="1648.11" cy="74.8938" r="21.6" fill="#87419d" fill-rule="evenodd" fill-opacity="1" stroke="#000000" stroke-opacity="1" stroke-width="3.2"/>
<circle clip-path="url(#clip932)" cx="1656.44" cy="1386.49" r="21.6" fill="#87419d" fill-rule="evenodd" fill-opacity="1" stroke="#000000" stroke-opacity="1" stroke-width="3.2"/>
<circle clip-path="url(#clip932)" cx="1656.44" cy="83.9305" r="21.6" fill="#87419d" fill-rule="evenodd" fill-opacity="1" stroke="#000000" stroke-opacity="1" stroke-width="3.2"/>
<circle clip-path="url(#clip932)" cx="1695.03" cy="1406.36" r="21.6" fill="#87419d" fill-rule="evenodd" fill-opacity="1" stroke="#000000" stroke-opacity="1" stroke-width="3.2"/>
<circle clip-path="url(#clip932)" cx="1695.03" cy="64.0634" r="21.6" fill="#87419d" fill-rule="evenodd" fill-opacity="1" stroke="#000000" stroke-opacity="1" stroke-width="3.2"/>
<circle clip-path="url(#clip932)" cx="1697.13" cy="1397.62" r="21.6" fill="#87419d" fill-rule="evenodd" fill-opacity="1" stroke="#000000" stroke-opacity="1" stroke-width="3.2"/>
<circle clip-path="url(#clip932)" cx="1697.13" cy="72.8078" r="21.6" fill="#87419d" fill-rule="evenodd" fill-opacity="1" stroke="#000000" stroke-opacity="1" stroke-width="3.2"/>
<circle clip-path="url(#clip932)" cx="1847.92" cy="735.212" r="21.6" fill="#87419d" fill-rule="evenodd" fill-opacity="1" stroke="#000000" stroke-opacity="1" stroke-width="3.2"/>
<circle clip-path="url(#clip932)" cx="1848.41" cy="735.212" r="21.6" fill="#87419d" fill-rule="evenodd" fill-opacity="1" stroke="#000000" stroke-opacity="1" stroke-width="3.2"/>
<circle clip-path="url(#clip932)" cx="2040.19" cy="735.212" r="21.6" fill="#87419d" fill-rule="evenodd" fill-opacity="1" stroke="#000000" stroke-opacity="1" stroke-width="3.2"/>
<circle clip-path="url(#clip932)" cx="2048.05" cy="735.47" r="21.6" fill="#87419d" fill-rule="evenodd" fill-opacity="1" stroke="#000000" stroke-opacity="1" stroke-width="3.2"/>
<circle clip-path="url(#clip932)" cx="2048.05" cy="734.954" r="21.6" fill="#87419d" fill-rule="evenodd" fill-opacity="1" stroke="#000000" stroke-opacity="1" stroke-width="3.2"/>
<circle clip-path="url(#clip932)" cx="2076.23" cy="735.212" r="21.6" fill="#87419d" fill-rule="evenodd" fill-opacity="1" stroke="#000000" stroke-opacity="1" stroke-width="3.2"/>
<circle clip-path="url(#clip932)" cx="2125.23" cy="735.294" r="21.6" fill="#87419d" fill-rule="evenodd" fill-opacity="1" stroke="#000000" stroke-opacity="1" stroke-width="3.2"/>
<circle clip-path="url(#clip932)" cx="2125.23" cy="735.13" r="21.6" fill="#87419d" fill-rule="evenodd" fill-opacity="1" stroke="#000000" stroke-opacity="1" stroke-width="3.2"/>
<circle clip-path="url(#clip932)" cx="2219.99" cy="735.212" r="21.6" fill="#87419d" fill-rule="evenodd" fill-opacity="1" stroke="#000000" stroke-opacity="1" stroke-width="3.2"/>
<circle clip-path="url(#clip932)" cx="2240" cy="735.212" r="21.6" fill="#87419d" fill-rule="evenodd" fill-opacity="1" stroke="#000000" stroke-opacity="1" stroke-width="3.2"/>
<circle clip-path="url(#clip932)" cx="2275.61" cy="735.231" r="21.6" fill="#87419d" fill-rule="evenodd" fill-opacity="1" stroke="#000000" stroke-opacity="1" stroke-width="3.2"/>
<circle clip-path="url(#clip932)" cx="2275.61" cy="735.193" r="21.6" fill="#87419d" fill-rule="evenodd" fill-opacity="1" stroke="#000000" stroke-opacity="1" stroke-width="3.2"/>
<circle clip-path="url(#clip932)" cx="2276.79" cy="735.212" r="21.6" fill="#87419d" fill-rule="evenodd" fill-opacity="1" stroke="#000000" stroke-opacity="1" stroke-width="3.2"/>
<circle clip-path="url(#clip932)" cx="419.904" cy="780.255" r="21.6" fill="#4d004a" fill-rule="evenodd" fill-opacity="1" stroke="#000000" stroke-opacity="1" stroke-width="3.2"/>
<circle clip-path="url(#clip932)" cx="419.904" cy="690.169" r="21.6" fill="#4d004a" fill-rule="evenodd" fill-opacity="1" stroke="#000000" stroke-opacity="1" stroke-width="3.2"/>
<circle clip-path="url(#clip932)" cx="472.744" cy="950.994" r="21.6" fill="#4d004a" fill-rule="evenodd" fill-opacity="1" stroke="#000000" stroke-opacity="1" stroke-width="3.2"/>
<circle clip-path="url(#clip932)" cx="472.744" cy="519.43" r="21.6" fill="#4d004a" fill-rule="evenodd" fill-opacity="1" stroke="#000000" stroke-opacity="1" stroke-width="3.2"/>
<circle clip-path="url(#clip932)" cx="579.904" cy="1000.09" r="21.6" fill="#4d004a" fill-rule="evenodd" fill-opacity="1" stroke="#000000" stroke-opacity="1" stroke-width="3.2"/>
<circle clip-path="url(#clip932)" cx="579.904" cy="470.33" r="21.6" fill="#4d004a" fill-rule="evenodd" fill-opacity="1" stroke="#000000" stroke-opacity="1" stroke-width="3.2"/>
<circle clip-path="url(#clip932)" cx="667.224" cy="1047.6" r="21.6" fill="#4d004a" fill-rule="evenodd" fill-opacity="1" stroke="#000000" stroke-opacity="1" stroke-width="3.2"/>
<circle clip-path="url(#clip932)" cx="667.224" cy="422.823" r="21.6" fill="#4d004a" fill-rule="evenodd" fill-opacity="1" stroke="#000000" stroke-opacity="1" stroke-width="3.2"/>
<circle clip-path="url(#clip932)" cx="725.349" cy="832.147" r="21.6" fill="#4d004a" fill-rule="evenodd" fill-opacity="1" stroke="#000000" stroke-opacity="1" stroke-width="3.2"/>
<circle clip-path="url(#clip932)" cx="725.349" cy="638.277" r="21.6" fill="#4d004a" fill-rule="evenodd" fill-opacity="1" stroke="#000000" stroke-opacity="1" stroke-width="3.2"/>
<circle clip-path="url(#clip932)" cx="748.182" cy="1093.21" r="21.6" fill="#4d004a" fill-rule="evenodd" fill-opacity="1" stroke="#000000" stroke-opacity="1" stroke-width="3.2"/>
<circle clip-path="url(#clip932)" cx="748.182" cy="377.21" r="21.6" fill="#4d004a" fill-rule="evenodd" fill-opacity="1" stroke="#000000" stroke-opacity="1" stroke-width="3.2"/>
<circle clip-path="url(#clip932)" cx="799.477" cy="883.705" r="21.6" fill="#4d004a" fill-rule="evenodd" fill-opacity="1" stroke="#000000" stroke-opacity="1" stroke-width="3.2"/>
<circle clip-path="url(#clip932)" cx="799.477" cy="586.719" r="21.6" fill="#4d004a" fill-rule="evenodd" fill-opacity="1" stroke="#000000" stroke-opacity="1" stroke-width="3.2"/>
<circle clip-path="url(#clip932)" cx="808.414" cy="1405.33" r="21.6" fill="#4d004a" fill-rule="evenodd" fill-opacity="1" stroke="#000000" stroke-opacity="1" stroke-width="3.2"/>
<circle clip-path="url(#clip932)" cx="808.414" cy="65.096" r="21.6" fill="#4d004a" fill-rule="evenodd" fill-opacity="1" stroke="#000000" stroke-opacity="1" stroke-width="3.2"/>
<circle clip-path="url(#clip932)" cx="821.235" cy="1396.69" r="21.6" fill="#4d004a" fill-rule="evenodd" fill-opacity="1" stroke="#000000" stroke-opacity="1" stroke-width="3.2"/>
<circle clip-path="url(#clip932)" cx="821.235" cy="73.7291" r="21.6" fill="#4d004a" fill-rule="evenodd" fill-opacity="1" stroke="#000000" stroke-opacity="1" stroke-width="3.2"/>
<circle clip-path="url(#clip932)" cx="828.615" cy="1136.65" r="21.6" fill="#4d004a" fill-rule="evenodd" fill-opacity="1" stroke="#000000" stroke-opacity="1" stroke-width="3.2"/>
<circle clip-path="url(#clip932)" cx="828.615" cy="333.774" r="21.6" fill="#4d004a" fill-rule="evenodd" fill-opacity="1" stroke="#000000" stroke-opacity="1" stroke-width="3.2"/>
<circle clip-path="url(#clip932)" cx="842.295" cy="934.427" r="21.6" fill="#4d004a" fill-rule="evenodd" fill-opacity="1" stroke="#000000" stroke-opacity="1" stroke-width="3.2"/>
<circle clip-path="url(#clip932)" cx="842.295" cy="535.997" r="21.6" fill="#4d004a" fill-rule="evenodd" fill-opacity="1" stroke="#000000" stroke-opacity="1" stroke-width="3.2"/>
<circle clip-path="url(#clip932)" cx="882.246" cy="983.952" r="21.6" fill="#4d004a" fill-rule="evenodd" fill-opacity="1" stroke="#000000" stroke-opacity="1" stroke-width="3.2"/>
<circle clip-path="url(#clip932)" cx="882.246" cy="486.472" r="21.6" fill="#4d004a" fill-rule="evenodd" fill-opacity="1" stroke="#000000" stroke-opacity="1" stroke-width="3.2"/>
<circle clip-path="url(#clip932)" cx="911.35" cy="1177.64" r="21.6" fill="#4d004a" fill-rule="evenodd" fill-opacity="1" stroke="#000000" stroke-opacity="1" stroke-width="3.2"/>
<circle clip-path="url(#clip932)" cx="911.35" cy="292.781" r="21.6" fill="#4d004a" fill-rule="evenodd" fill-opacity="1" stroke="#000000" stroke-opacity="1" stroke-width="3.2"/>
<circle clip-path="url(#clip932)" cx="926.18" cy="1031.95" r="21.6" fill="#4d004a" fill-rule="evenodd" fill-opacity="1" stroke="#000000" stroke-opacity="1" stroke-width="3.2"/>
<circle clip-path="url(#clip932)" cx="926.18" cy="438.472" r="21.6" fill="#4d004a" fill-rule="evenodd" fill-opacity="1" stroke="#000000" stroke-opacity="1" stroke-width="3.2"/>
<circle clip-path="url(#clip932)" cx="975.479" cy="1078.12" r="21.6" fill="#4d004a" fill-rule="evenodd" fill-opacity="1" stroke="#000000" stroke-opacity="1" stroke-width="3.2"/>
<circle clip-path="url(#clip932)" cx="975.479" cy="392.303" r="21.6" fill="#4d004a" fill-rule="evenodd" fill-opacity="1" stroke="#000000" stroke-opacity="1" stroke-width="3.2"/>
<circle clip-path="url(#clip932)" cx="997.725" cy="1215.94" r="21.6" fill="#4d004a" fill-rule="evenodd" fill-opacity="1" stroke="#000000" stroke-opacity="1" stroke-width="3.2"/>
<circle clip-path="url(#clip932)" cx="997.725" cy="254.481" r="21.6" fill="#4d004a" fill-rule="evenodd" fill-opacity="1" stroke="#000000" stroke-opacity="1" stroke-width="3.2"/>
<circle clip-path="url(#clip932)" cx="1030.14" cy="1122.17" r="21.6" fill="#4d004a" fill-rule="evenodd" fill-opacity="1" stroke="#000000" stroke-opacity="1" stroke-width="3.2"/>
<circle clip-path="url(#clip932)" cx="1030.14" cy="348.259" r="21.6" fill="#4d004a" fill-rule="evenodd" fill-opacity="1" stroke="#000000" stroke-opacity="1" stroke-width="3.2"/>
<circle clip-path="url(#clip932)" cx="1088.06" cy="1251.32" r="21.6" fill="#4d004a" fill-rule="evenodd" fill-opacity="1" stroke="#000000" stroke-opacity="1" stroke-width="3.2"/>
<circle clip-path="url(#clip932)" cx="1088.06" cy="219.104" r="21.6" fill="#4d004a" fill-rule="evenodd" fill-opacity="1" stroke="#000000" stroke-opacity="1" stroke-width="3.2"/>
<circle clip-path="url(#clip932)" cx="1089.84" cy="1163.81" r="21.6" fill="#4d004a" fill-rule="evenodd" fill-opacity="1" stroke="#000000" stroke-opacity="1" stroke-width="3.2"/>
<circle clip-path="url(#clip932)" cx="1089.84" cy="306.619" r="21.6" fill="#4d004a" fill-rule="evenodd" fill-opacity="1" stroke="#000000" stroke-opacity="1" stroke-width="3.2"/>
<circle clip-path="url(#clip932)" cx="1154.16" cy="1202.78" r="21.6" fill="#4d004a" fill-rule="evenodd" fill-opacity="1" stroke="#000000" stroke-opacity="1" stroke-width="3.2"/>
<circle clip-path="url(#clip932)" cx="1154.16" cy="267.646" r="21.6" fill="#4d004a" fill-rule="evenodd" fill-opacity="1" stroke="#000000" stroke-opacity="1" stroke-width="3.2"/>
<circle clip-path="url(#clip932)" cx="1181.73" cy="1283.56" r="21.6" fill="#4d004a" fill-rule="evenodd" fill-opacity="1" stroke="#000000" stroke-opacity="1" stroke-width="3.2"/>
<circle clip-path="url(#clip932)" cx="1181.73" cy="186.864" r="21.6" fill="#4d004a" fill-rule="evenodd" fill-opacity="1" stroke="#000000" stroke-opacity="1" stroke-width="3.2"/>
<circle clip-path="url(#clip932)" cx="1222.58" cy="1238.84" r="21.6" fill="#4d004a" fill-rule="evenodd" fill-opacity="1" stroke="#000000" stroke-opacity="1" stroke-width="3.2"/>
<circle clip-path="url(#clip932)" cx="1222.58" cy="231.587" r="21.6" fill="#4d004a" fill-rule="evenodd" fill-opacity="1" stroke="#000000" stroke-opacity="1" stroke-width="3.2"/>
<circle clip-path="url(#clip932)" cx="1277.15" cy="1312.47" r="21.6" fill="#4d004a" fill-rule="evenodd" fill-opacity="1" stroke="#000000" stroke-opacity="1" stroke-width="3.2"/>
<circle clip-path="url(#clip932)" cx="1277.15" cy="157.952" r="21.6" fill="#4d004a" fill-rule="evenodd" fill-opacity="1" stroke="#000000" stroke-opacity="1" stroke-width="3.2"/>
<circle clip-path="url(#clip932)" cx="1294.26" cy="1271.75" r="21.6" fill="#4d004a" fill-rule="evenodd" fill-opacity="1" stroke="#000000" stroke-opacity="1" stroke-width="3.2"/>
<circle clip-path="url(#clip932)" cx="1294.26" cy="198.673" r="21.6" fill="#4d004a" fill-rule="evenodd" fill-opacity="1" stroke="#000000" stroke-opacity="1" stroke-width="3.2"/>
<circle clip-path="url(#clip932)" cx="1367.88" cy="1301.31" r="21.6" fill="#4d004a" fill-rule="evenodd" fill-opacity="1" stroke="#000000" stroke-opacity="1" stroke-width="3.2"/>
<circle clip-path="url(#clip932)" cx="1367.88" cy="169.112" r="21.6" fill="#4d004a" fill-rule="evenodd" fill-opacity="1" stroke="#000000" stroke-opacity="1" stroke-width="3.2"/>
<circle clip-path="url(#clip932)" cx="1371.75" cy="1337.88" r="21.6" fill="#4d004a" fill-rule="evenodd" fill-opacity="1" stroke="#000000" stroke-opacity="1" stroke-width="3.2"/>
<circle clip-path="url(#clip932)" cx="1371.75" cy="132.541" r="21.6" fill="#4d004a" fill-rule="evenodd" fill-opacity="1" stroke="#000000" stroke-opacity="1" stroke-width="3.2"/>
<circle clip-path="url(#clip932)" cx="1441.46" cy="1327.33" r="21.6" fill="#4d004a" fill-rule="evenodd" fill-opacity="1" stroke="#000000" stroke-opacity="1" stroke-width="3.2"/>
<circle clip-path="url(#clip932)" cx="1441.46" cy="143.095" r="21.6" fill="#4d004a" fill-rule="evenodd" fill-opacity="1" stroke="#000000" stroke-opacity="1" stroke-width="3.2"/>
<circle clip-path="url(#clip932)" cx="1462.08" cy="1359.64" r="21.6" fill="#4d004a" fill-rule="evenodd" fill-opacity="1" stroke="#000000" stroke-opacity="1" stroke-width="3.2"/>
<circle clip-path="url(#clip932)" cx="1462.08" cy="110.781" r="21.6" fill="#4d004a" fill-rule="evenodd" fill-opacity="1" stroke="#000000" stroke-opacity="1" stroke-width="3.2"/>
<circle clip-path="url(#clip932)" cx="1512.32" cy="1349.63" r="21.6" fill="#4d004a" fill-rule="evenodd" fill-opacity="1" stroke="#000000" stroke-opacity="1" stroke-width="3.2"/>
<circle clip-path="url(#clip932)" cx="1512.32" cy="120.789" r="21.6" fill="#4d004a" fill-rule="evenodd" fill-opacity="1" stroke="#000000" stroke-opacity="1" stroke-width="3.2"/>
<circle clip-path="url(#clip932)" cx="1544.12" cy="1377.62" r="21.6" fill="#4d004a" fill-rule="evenodd" fill-opacity="1" stroke="#000000" stroke-opacity="1" stroke-width="3.2"/>
<circle clip-path="url(#clip932)" cx="1544.12" cy="92.8008" r="21.6" fill="#4d004a" fill-rule="evenodd" fill-opacity="1" stroke="#000000" stroke-opacity="1" stroke-width="3.2"/>
<circle clip-path="url(#clip932)" cx="1577.22" cy="1368.09" r="21.6" fill="#4d004a" fill-rule="evenodd" fill-opacity="1" stroke="#000000" stroke-opacity="1" stroke-width="3.2"/>
<circle clip-path="url(#clip932)" cx="1577.22" cy="102.338" r="21.6" fill="#4d004a" fill-rule="evenodd" fill-opacity="1" stroke="#000000" stroke-opacity="1" stroke-width="3.2"/>
<circle clip-path="url(#clip932)" cx="1610.89" cy="1409.47" r="21.6" fill="#4d004a" fill-rule="evenodd" fill-opacity="1" stroke="#000000" stroke-opacity="1" stroke-width="3.2"/>
<circle clip-path="url(#clip932)" cx="1610.89" cy="60.9584" r="21.6" fill="#4d004a" fill-rule="evenodd" fill-opacity="1" stroke="#000000" stroke-opacity="1" stroke-width="3.2"/>
<circle clip-path="url(#clip932)" cx="1612.29" cy="1400.82" r="21.6" fill="#4d004a" fill-rule="evenodd" fill-opacity="1" stroke="#000000" stroke-opacity="1" stroke-width="3.2"/>
<circle clip-path="url(#clip932)" cx="1612.29" cy="69.6023" r="21.6" fill="#4d004a" fill-rule="evenodd" fill-opacity="1" stroke="#000000" stroke-opacity="1" stroke-width="3.2"/>
<circle clip-path="url(#clip932)" cx="1613.61" cy="1391.72" r="21.6" fill="#4d004a" fill-rule="evenodd" fill-opacity="1" stroke="#000000" stroke-opacity="1" stroke-width="3.2"/>
<circle clip-path="url(#clip932)" cx="1613.61" cy="78.7056" r="21.6" fill="#4d004a" fill-rule="evenodd" fill-opacity="1" stroke="#000000" stroke-opacity="1" stroke-width="3.2"/>
<circle clip-path="url(#clip932)" cx="1632.64" cy="1382.56" r="21.6" fill="#4d004a" fill-rule="evenodd" fill-opacity="1" stroke="#000000" stroke-opacity="1" stroke-width="3.2"/>
<circle clip-path="url(#clip932)" cx="1632.64" cy="87.8617" r="21.6" fill="#4d004a" fill-rule="evenodd" fill-opacity="1" stroke="#000000" stroke-opacity="1" stroke-width="3.2"/>
<circle clip-path="url(#clip932)" cx="1652.71" cy="735.212" r="21.6" fill="#4d004a" fill-rule="evenodd" fill-opacity="1" stroke="#000000" stroke-opacity="1" stroke-width="3.2"/>
<circle clip-path="url(#clip932)" cx="1666.58" cy="1401.85" r="21.6" fill="#4d004a" fill-rule="evenodd" fill-opacity="1" stroke="#000000" stroke-opacity="1" stroke-width="3.2"/>
<circle clip-path="url(#clip932)" cx="1666.58" cy="68.5782" r="21.6" fill="#4d004a" fill-rule="evenodd" fill-opacity="1" stroke="#000000" stroke-opacity="1" stroke-width="3.2"/>
<circle clip-path="url(#clip932)" cx="1675.16" cy="1392.97" r="21.6" fill="#4d004a" fill-rule="evenodd" fill-opacity="1" stroke="#000000" stroke-opacity="1" stroke-width="3.2"/>
<circle clip-path="url(#clip932)" cx="1675.16" cy="77.4534" r="21.6" fill="#4d004a" fill-rule="evenodd" fill-opacity="1" stroke="#000000" stroke-opacity="1" stroke-width="3.2"/>
<circle clip-path="url(#clip932)" cx="1699.78" cy="1407.95" r="21.6" fill="#4d004a" fill-rule="evenodd" fill-opacity="1" stroke="#000000" stroke-opacity="1" stroke-width="3.2"/>
<circle clip-path="url(#clip932)" cx="1699.78" cy="62.478" r="21.6" fill="#4d004a" fill-rule="evenodd" fill-opacity="1" stroke="#000000" stroke-opacity="1" stroke-width="3.2"/>
<circle clip-path="url(#clip932)" cx="1701.94" cy="1399.24" r="21.6" fill="#4d004a" fill-rule="evenodd" fill-opacity="1" stroke="#000000" stroke-opacity="1" stroke-width="3.2"/>
<circle clip-path="url(#clip932)" cx="1701.94" cy="71.1812" r="21.6" fill="#4d004a" fill-rule="evenodd" fill-opacity="1" stroke="#000000" stroke-opacity="1" stroke-width="3.2"/>
<circle clip-path="url(#clip932)" cx="1847.31" cy="735.212" r="21.6" fill="#4d004a" fill-rule="evenodd" fill-opacity="1" stroke="#000000" stroke-opacity="1" stroke-width="3.2"/>
<circle clip-path="url(#clip932)" cx="1848.16" cy="735.212" r="21.6" fill="#4d004a" fill-rule="evenodd" fill-opacity="1" stroke="#000000" stroke-opacity="1" stroke-width="3.2"/>
<circle clip-path="url(#clip932)" cx="2054.44" cy="735.463" r="21.6" fill="#4d004a" fill-rule="evenodd" fill-opacity="1" stroke="#000000" stroke-opacity="1" stroke-width="3.2"/>
<circle clip-path="url(#clip932)" cx="2054.44" cy="734.961" r="21.6" fill="#4d004a" fill-rule="evenodd" fill-opacity="1" stroke="#000000" stroke-opacity="1" stroke-width="3.2"/>
<circle clip-path="url(#clip932)" cx="2064.53" cy="735.232" r="21.6" fill="#4d004a" fill-rule="evenodd" fill-opacity="1" stroke="#000000" stroke-opacity="1" stroke-width="3.2"/>
<circle clip-path="url(#clip932)" cx="2064.53" cy="735.192" r="21.6" fill="#4d004a" fill-rule="evenodd" fill-opacity="1" stroke="#000000" stroke-opacity="1" stroke-width="3.2"/>
<circle clip-path="url(#clip932)" cx="2123.48" cy="735.294" r="21.6" fill="#4d004a" fill-rule="evenodd" fill-opacity="1" stroke="#000000" stroke-opacity="1" stroke-width="3.2"/>
<circle clip-path="url(#clip932)" cx="2123.48" cy="735.13" r="21.6" fill="#4d004a" fill-rule="evenodd" fill-opacity="1" stroke="#000000" stroke-opacity="1" stroke-width="3.2"/>
<circle clip-path="url(#clip932)" cx="2225.49" cy="735.212" r="21.6" fill="#4d004a" fill-rule="evenodd" fill-opacity="1" stroke="#000000" stroke-opacity="1" stroke-width="3.2"/>
<circle clip-path="url(#clip932)" cx="2241.25" cy="735.212" r="21.6" fill="#4d004a" fill-rule="evenodd" fill-opacity="1" stroke="#000000" stroke-opacity="1" stroke-width="3.2"/>
<circle clip-path="url(#clip932)" cx="2276.79" cy="735.212" r="21.6" fill="#4d004a" fill-rule="evenodd" fill-opacity="1" stroke="#000000" stroke-opacity="1" stroke-width="3.2"/>
<circle clip-path="url(#clip932)" cx="2281.34" cy="735.231" r="21.6" fill="#4d004a" fill-rule="evenodd" fill-opacity="1" stroke="#000000" stroke-opacity="1" stroke-width="3.2"/>
<circle clip-path="url(#clip932)" cx="2281.34" cy="735.193" r="21.6" fill="#4d004a" fill-rule="evenodd" fill-opacity="1" stroke="#000000" stroke-opacity="1" stroke-width="3.2"/>
<path clip-path="url(#clip930)" d="M2028.72 352.309 L2286.92 352.309 L2286.92 93.1086 L2028.72 93.1086  Z" fill="#ffffff" fill-rule="evenodd" fill-opacity="1"/>
<polyline clip-path="url(#clip930)" style="stroke:#000000; stroke-linecap:round; stroke-linejoin:round; stroke-width:4; stroke-opacity:1; fill:none" points="2028.72,352.309 2286.92,352.309 2286.92,93.1086 2028.72,93.1086 2028.72,352.309 "/>
<circle clip-path="url(#clip930)" cx="2116.5" cy="144.949" r="21.2677" fill="#bed2e6" fill-rule="evenodd" fill-opacity="1" stroke="#000000" stroke-opacity="1" stroke-width="3.15077"/>
<path clip-path="url(#clip930)" d="M2204.28 132.865 L2204.28 131.366 Q2210.04 131.366 2213.02 128.297 Q2213.84 128.297 2213.98 128.485 Q2214.12 128.672 2214.12 129.539 L2214.12 156.451 Q2214.12 157.88 2214.82 158.325 Q2215.52 158.77 2218.59 158.77 L2220.11 158.77 L2220.11 160.245 Q2218.43 160.105 2212.34 160.105 Q2206.25 160.105 2204.58 160.245 L2204.58 158.77 L2206.11 158.77 Q2209.13 158.77 2209.85 158.348 Q2210.58 157.903 2210.58 156.451 L2210.58 131.6 Q2208.07 132.865 2204.28 132.865 Z" fill="#000000" fill-rule="nonzero" fill-opacity="1" /><path clip-path="url(#clip930)" d="M2223.88 159.473 Q2223.15 158.7 2223.15 157.692 Q2223.15 156.685 2223.88 155.959 Q2224.61 155.21 2225.71 155.21 Q2226.76 155.21 2227.46 155.912 Q2228.19 156.592 2228.19 157.716 Q2228.19 158.817 2227.42 159.543 Q2226.67 160.245 2225.71 160.245 Q2224.61 160.245 2223.88 159.473 Z" fill="#000000" fill-rule="nonzero" fill-opacity="1" /><path clip-path="url(#clip930)" d="M2236.35 144.904 Q2236.35 137.854 2238.13 134.012 Q2240.61 128.297 2246.47 128.297 Q2247.71 128.297 2249 128.649 Q2250.31 128.977 2251.95 130.265 Q2253.61 131.553 2254.62 133.661 Q2256.54 137.737 2256.54 144.904 Q2256.54 151.907 2254.76 155.725 Q2252.16 161.3 2246.42 161.3 Q2244.27 161.3 2242.07 160.199 Q2239.89 159.098 2238.51 156.451 Q2236.35 152.493 2236.35 144.904 M2240.33 144.318 Q2240.33 151.556 2240.85 154.437 Q2241.43 157.552 2243.03 158.91 Q2244.64 160.245 2246.42 160.245 Q2248.34 160.245 2249.94 158.817 Q2251.55 157.365 2252.04 154.249 Q2252.58 151.181 2252.56 144.318 Q2252.56 137.643 2252.09 134.973 Q2251.46 131.857 2249.77 130.616 Q2248.11 129.351 2246.42 129.351 Q2245.79 129.351 2245.11 129.539 Q2244.46 129.726 2243.5 130.265 Q2242.53 130.803 2241.79 132.139 Q2241.06 133.474 2240.71 135.488 Q2240.33 138.088 2240.33 144.318 Z" fill="#000000" fill-rule="nonzero" fill-opacity="1" /><circle clip-path="url(#clip930)" cx="2116.5" cy="196.789" r="21.2677" fill="#8b95c5" fill-rule="evenodd" fill-opacity="1" stroke="#000000" stroke-opacity="1" stroke-width="3.15077"/>
<path clip-path="url(#clip930)" d="M2204.28 212.085 Q2204.28 211.219 2204.35 210.961 Q2204.44 210.704 2204.82 210.305 L2214.02 200.046 Q2219.06 194.378 2219.06 189.436 Q2219.06 186.227 2217.37 183.932 Q2215.71 181.636 2212.64 181.636 Q2210.53 181.636 2208.75 182.925 Q2206.97 184.213 2206.15 186.508 Q2206.29 186.461 2206.79 186.461 Q2207.98 186.461 2208.64 187.211 Q2209.32 187.96 2209.32 188.968 Q2209.32 190.256 2208.47 190.888 Q2207.65 191.497 2206.83 191.497 Q2206.5 191.497 2206.06 191.427 Q2205.64 191.357 2204.96 190.701 Q2204.28 190.022 2204.28 188.827 Q2204.28 185.478 2206.81 182.807 Q2209.36 180.137 2213.25 180.137 Q2217.65 180.137 2220.53 182.761 Q2223.44 185.36 2223.44 189.436 Q2223.44 190.865 2222.99 192.176 Q2222.57 193.465 2221.99 194.472 Q2221.42 195.479 2219.88 197.095 Q2218.33 198.711 2217.09 199.859 Q2215.85 201.007 2213.06 203.443 L2207.98 208.385 L2216.62 208.385 Q2220.84 208.385 2221.17 208.01 Q2221.64 207.331 2222.22 203.747 L2223.44 203.747 L2222.08 212.085 L2204.28 212.085 Z" fill="#000000" fill-rule="nonzero" fill-opacity="1" /><path clip-path="url(#clip930)" d="M2228.76 211.313 Q2228.03 210.54 2228.03 209.532 Q2228.03 208.525 2228.76 207.799 Q2229.48 207.05 2230.58 207.05 Q2231.64 207.05 2232.34 207.752 Q2233.07 208.432 2233.07 209.556 Q2233.07 210.657 2232.29 211.383 Q2231.54 212.085 2230.58 212.085 Q2229.48 212.085 2228.76 211.313 Z" fill="#000000" fill-rule="nonzero" fill-opacity="1" /><path clip-path="url(#clip930)" d="M2241.23 196.744 Q2241.23 189.694 2243.01 185.852 Q2245.49 180.137 2251.34 180.137 Q2252.59 180.137 2253.87 180.489 Q2255.19 180.817 2256.83 182.105 Q2258.49 183.393 2259.5 185.501 Q2261.42 189.577 2261.42 196.744 Q2261.42 203.747 2259.64 207.565 Q2257.04 213.14 2251.3 213.14 Q2249.14 213.14 2246.94 212.039 Q2244.76 210.938 2243.38 208.291 Q2241.23 204.333 2241.23 196.744 M2245.21 196.158 Q2245.21 203.396 2245.72 206.277 Q2246.31 209.392 2247.9 210.75 Q2249.52 212.085 2251.3 212.085 Q2253.22 212.085 2254.81 210.657 Q2256.43 209.205 2256.92 206.089 Q2257.46 203.021 2257.43 196.158 Q2257.43 189.483 2256.97 186.813 Q2256.33 183.697 2254.65 182.456 Q2252.98 181.191 2251.3 181.191 Q2250.67 181.191 2249.99 181.379 Q2249.33 181.566 2248.37 182.105 Q2247.41 182.643 2246.66 183.979 Q2245.93 185.314 2245.58 187.328 Q2245.21 189.928 2245.21 196.158 Z" fill="#000000" fill-rule="nonzero" fill-opacity="1" /><circle clip-path="url(#clip930)" cx="2116.5" cy="248.629" r="21.2677" fill="#87419d" fill-rule="evenodd" fill-opacity="1" stroke="#000000" stroke-opacity="1" stroke-width="3.15077"/>
<path clip-path="url(#clip930)" d="M2204.28 257.461 Q2204.28 256.032 2205.1 255.353 Q2205.92 254.674 2206.97 254.674 Q2208.07 254.674 2208.85 255.4 Q2209.64 256.102 2209.64 257.344 Q2209.64 258.679 2208.71 259.428 Q2207.79 260.178 2206.48 259.991 Q2207.63 261.911 2209.74 262.778 Q2211.87 263.644 2213.84 263.644 Q2215.9 263.644 2217.56 261.864 Q2219.25 260.084 2219.25 255.728 Q2219.25 252.027 2217.79 249.895 Q2216.37 247.764 2213.53 247.764 L2211.42 247.764 Q2210.7 247.764 2210.49 247.694 Q2210.28 247.623 2210.28 247.225 Q2210.28 246.757 2211 246.663 Q2211.73 246.663 2212.88 246.523 Q2215.66 246.429 2217.14 244.016 Q2218.47 241.768 2218.47 238.559 Q2218.47 235.631 2217.07 234.413 Q2215.69 233.172 2213.88 233.172 Q2212.2 233.172 2210.35 233.874 Q2208.5 234.577 2207.49 236.146 Q2210.46 236.146 2210.46 238.559 Q2210.46 239.613 2209.78 240.316 Q2209.13 240.995 2208.03 240.995 Q2206.97 240.995 2206.27 240.339 Q2205.57 239.66 2205.57 238.512 Q2205.57 235.772 2208 233.874 Q2210.46 231.977 2214.07 231.977 Q2217.63 231.977 2220.25 233.851 Q2222.9 235.725 2222.9 238.606 Q2222.9 241.44 2221.03 243.759 Q2219.15 246.078 2216.18 247.038 Q2219.83 247.764 2222.01 250.247 Q2224.19 252.706 2224.19 255.728 Q2224.19 259.475 2221.24 262.239 Q2218.29 264.98 2213.98 264.98 Q2209.99 264.98 2207.14 262.825 Q2204.28 260.67 2204.28 257.461 Z" fill="#000000" fill-rule="nonzero" fill-opacity="1" /><path clip-path="url(#clip930)" d="M2228.76 263.153 Q2228.03 262.38 2228.03 261.372 Q2228.03 260.365 2228.76 259.639 Q2229.48 258.89 2230.58 258.89 Q2231.64 258.89 2232.34 259.592 Q2233.07 260.272 2233.07 261.396 Q2233.07 262.497 2232.29 263.223 Q2231.54 263.925 2230.58 263.925 Q2229.48 263.925 2228.76 263.153 Z" fill="#000000" fill-rule="nonzero" fill-opacity="1" /><path clip-path="url(#clip930)" d="M2241.23 248.584 Q2241.23 241.534 2243.01 237.692 Q2245.49 231.977 2251.34 231.977 Q2252.59 231.977 2253.87 232.329 Q2255.19 232.657 2256.83 233.945 Q2258.49 235.233 2259.5 237.341 Q2261.42 241.417 2261.42 248.584 Q2261.42 255.587 2259.64 259.405 Q2257.04 264.98 2251.3 264.98 Q2249.14 264.98 2246.94 263.879 Q2244.76 262.778 2243.38 260.131 Q2241.23 256.173 2241.23 248.584 M2245.21 247.998 Q2245.21 255.236 2245.72 258.117 Q2246.31 261.232 2247.9 262.59 Q2249.52 263.925 2251.3 263.925 Q2253.22 263.925 2254.81 262.497 Q2256.43 261.045 2256.92 257.929 Q2257.46 254.861 2257.43 247.998 Q2257.43 241.323 2256.97 238.653 Q2256.33 235.537 2254.65 234.296 Q2252.98 233.031 2251.3 233.031 Q2250.67 233.031 2249.99 233.219 Q2249.33 233.406 2248.37 233.945 Q2247.41 234.483 2246.66 235.819 Q2245.93 237.154 2245.58 239.168 Q2245.21 241.768 2245.21 247.998 Z" fill="#000000" fill-rule="nonzero" fill-opacity="1" /><circle clip-path="url(#clip930)" cx="2116.5" cy="300.469" r="21.2677" fill="#4d004a" fill-rule="evenodd" fill-opacity="1" stroke="#000000" stroke-opacity="1" stroke-width="3.15077"/>
<path clip-path="url(#clip930)" d="M2204.28 308.114 L2204.28 306.639 L2219.01 284.13 Q2219.39 283.544 2219.97 283.568 Q2220.51 283.568 2220.63 283.778 Q2220.75 283.989 2220.75 284.809 L2220.75 306.639 L2225.55 306.639 L2225.55 308.114 L2220.75 308.114 L2220.75 312.284 Q2220.75 313.665 2221.31 314.11 Q2221.89 314.556 2224.38 314.556 L2225.38 314.556 L2225.38 316.031 Q2223.42 315.891 2218.87 315.891 Q2214.35 315.891 2212.38 316.031 L2212.38 314.556 L2213.39 314.556 Q2215.87 314.556 2216.46 314.134 Q2217.04 313.689 2217.04 312.284 L2217.04 308.114 L2204.28 308.114 M2205.64 306.639 L2217.33 306.639 L2217.33 288.744 L2205.64 306.639 Z" fill="#000000" fill-rule="nonzero" fill-opacity="1" /><path clip-path="url(#clip930)" d="M2228.76 315.258 Q2228.03 314.485 2228.03 313.478 Q2228.03 312.471 2228.76 311.745 Q2229.48 310.995 2230.58 310.995 Q2231.64 310.995 2232.34 311.698 Q2233.07 312.377 2233.07 313.501 Q2233.07 314.602 2232.29 315.328 Q2231.54 316.031 2230.58 316.031 Q2229.48 316.031 2228.76 315.258 Z" fill="#000000" fill-rule="nonzero" fill-opacity="1" /><path clip-path="url(#clip930)" d="M2241.23 300.689 Q2241.23 293.639 2243.01 289.798 Q2245.49 284.083 2251.34 284.083 Q2252.59 284.083 2253.87 284.434 Q2255.19 284.762 2256.83 286.05 Q2258.49 287.339 2259.5 289.447 Q2261.42 293.522 2261.42 300.689 Q2261.42 307.693 2259.64 311.511 Q2257.04 317.085 2251.3 317.085 Q2249.14 317.085 2246.94 315.984 Q2244.76 314.883 2243.38 312.237 Q2241.23 308.278 2241.23 300.689 M2245.21 300.104 Q2245.21 307.341 2245.72 310.222 Q2246.31 313.338 2247.9 314.696 Q2249.52 316.031 2251.3 316.031 Q2253.22 316.031 2254.81 314.602 Q2256.43 313.15 2256.92 310.035 Q2257.46 306.967 2257.43 300.104 Q2257.43 293.428 2256.97 290.758 Q2256.33 287.643 2254.65 286.402 Q2252.98 285.137 2251.3 285.137 Q2250.67 285.137 2249.99 285.324 Q2249.33 285.512 2248.37 286.05 Q2247.41 286.589 2246.66 287.924 Q2245.93 289.259 2245.58 291.274 Q2245.21 293.873 2245.21 300.104 Z" fill="#000000" fill-rule="nonzero" fill-opacity="1" /></svg>
