<?xml version="1.0" encoding="utf-8"?>
<svg xmlns="http://www.w3.org/2000/svg" xmlns:xlink="http://www.w3.org/1999/xlink" width="1000" height="800" viewBox="0 0 4000 3200">
<defs>
  <clipPath id="clip900">
    <rect x="0" y="0" width="4000" height="3200"/>
  </clipPath>
</defs>
<path clip-path="url(#clip900)" d="M0 3200 L4000 3200 L4000 0 L0 0  Z" fill="#ffffff" fill-rule="evenodd" fill-opacity="1"/>
<defs>
  <clipPath id="clip901">
    <rect x="800" y="0" width="2801" height="2801"/>
  </clipPath>
</defs>
<path clip-path="url(#clip900)" d="M763.569 2876.72 L3952.76 2876.72 L3952.76 47.2441 L763.569 47.2441  Z" fill="#ffffff" fill-rule="evenodd" fill-opacity="1"/>
<defs>
  <clipPath id="clip902">
    <rect x="763" y="47" width="3190" height="2830"/>
  </clipPath>
</defs>
<polyline clip-path="url(#clip902)" style="stroke:#000000; stroke-linecap:round; stroke-linejoin:round; stroke-width:2; stroke-opacity:0.1; fill:none" points="1100.45,2876.72 1100.45,47.2441 "/>
<polyline clip-path="url(#clip902)" style="stroke:#000000; stroke-linecap:round; stroke-linejoin:round; stroke-width:2; stroke-opacity:0.1; fill:none" points="1661.93,2876.72 1661.93,47.2441 "/>
<polyline clip-path="url(#clip902)" style="stroke:#000000; stroke-linecap:round; stroke-linejoin:round; stroke-width:2; stroke-opacity:0.1; fill:none" points="2223.41,2876.72 2223.41,47.2441 "/>
<polyline clip-path="url(#clip902)" style="stroke:#000000; stroke-linecap:round; stroke-linejoin:round; stroke-width:2; stroke-opacity:0.1; fill:none" points="2784.88,2876.72 2784.88,47.2441 "/>
<polyline clip-path="url(#clip902)" style="stroke:#000000; stroke-linecap:round; stroke-linejoin:round; stroke-width:2; stroke-opacity:0.1; fill:none" points="3346.36,2876.72 3346.36,47.2441 "/>
<polyline clip-path="url(#clip902)" style="stroke:#000000; stroke-linecap:round; stroke-linejoin:round; stroke-width:2; stroke-opacity:0.1; fill:none" points="3907.84,2876.72 3907.84,47.2441 "/>
<polyline clip-path="url(#clip900)" style="stroke:#000000; stroke-linecap:round; stroke-linejoin:round; stroke-width:4; stroke-opacity:1; fill:none" points="763.569,2876.72 3952.76,2876.72 "/>
<polyline clip-path="url(#clip900)" style="stroke:#000000; stroke-linecap:round; stroke-linejoin:round; stroke-width:4; stroke-opacity:1; fill:none" points="763.569,47.2441 3952.76,47.2441 "/>
<polyline clip-path="url(#clip900)" style="stroke:#000000; stroke-linecap:round; stroke-linejoin:round; stroke-width:4; stroke-opacity:1; fill:none" points="1100.45,2876.72 1100.45,2857.82 "/>
<polyline clip-path="url(#clip900)" style="stroke:#000000; stroke-linecap:round; stroke-linejoin:round; stroke-width:4; stroke-opacity:1; fill:none" points="1661.93,2876.72 1661.93,2857.82 "/>
<polyline clip-path="url(#clip900)" style="stroke:#000000; stroke-linecap:round; stroke-linejoin:round; stroke-width:4; stroke-opacity:1; fill:none" points="2223.41,2876.72 2223.41,2857.82 "/>
<polyline clip-path="url(#clip900)" style="stroke:#000000; stroke-linecap:round; stroke-linejoin:round; stroke-width:4; stroke-opacity:1; fill:none" points="2784.88,2876.72 2784.88,2857.82 "/>
<polyline clip-path="url(#clip900)" style="stroke:#000000; stroke-linecap:round; stroke-linejoin:round; stroke-width:4; stroke-opacity:1; fill:none" points="3346.36,2876.72 3346.36,2857.82 "/>
<polyline clip-path="url(#clip900)" style="stroke:#000000; stroke-linecap:round; stroke-linejoin:round; stroke-width:4; stroke-opacity:1; fill:none" points="3907.84,2876.72 3907.84,2857.82 "/>
<path clip-path="url(#clip900)" d="M979.414 2961.46 L1038.77 2961.46 L1038.77 2969.33 L979.414 2969.33 L979.414 2961.46 Z" fill="#000000" fill-rule="nonzero" fill-opacity="1" /><path clip-path="url(#clip900)" d="M1060.57 2987.25 L1075.85 2987.25 L1075.85 2934.51 L1059.23 2937.85 L1059.23 2929.33 L1075.76 2926 L1085.11 2926 L1085.11 2987.25 L1100.39 2987.25 L1100.39 2995.12 L1060.57 2995.12 L1060.57 2987.25 Z" fill="#000000" fill-rule="nonzero" fill-opacity="1" /><path clip-path="url(#clip900)" d="M1127.33 2987.25 L1159.97 2987.25 L1159.97 2995.12 L1116.08 2995.12 L1116.08 2987.25 Q1121.4 2981.74 1130.57 2972.48 Q1139.78 2963.17 1142.14 2960.49 Q1146.64 2955.44 1148.39 2951.97 Q1150.2 2948.45 1150.2 2945.07 Q1150.2 2939.56 1146.31 2936.09 Q1142.47 2932.62 1136.26 2932.62 Q1131.87 2932.62 1126.96 2934.14 Q1122.1 2935.67 1116.54 2938.77 L1116.54 2929.33 Q1122.19 2927.06 1127.1 2925.9 Q1132.01 2924.75 1136.08 2924.75 Q1146.82 2924.75 1153.21 2930.12 Q1159.6 2935.49 1159.6 2944.47 Q1159.6 2948.73 1157.98 2952.57 Q1156.4 2956.37 1152.19 2961.55 Q1151.03 2962.89 1144.83 2969.33 Q1138.63 2975.72 1127.33 2987.25 Z" fill="#000000" fill-rule="nonzero" fill-opacity="1" /><path clip-path="url(#clip900)" d="M1179.69 2926 L1216.4 2926 L1216.4 2933.87 L1188.26 2933.87 L1188.26 2950.81 Q1190.29 2950.12 1192.33 2949.79 Q1194.37 2949.42 1196.4 2949.42 Q1207.98 2949.42 1214.74 2955.76 Q1221.5 2962.11 1221.5 2972.94 Q1221.5 2984.1 1214.55 2990.3 Q1207.61 2996.46 1194.97 2996.46 Q1190.62 2996.46 1186.08 2995.72 Q1181.59 2994.98 1176.77 2993.5 L1176.77 2984.1 Q1180.94 2986.37 1185.38 2987.48 Q1189.83 2988.59 1194.78 2988.59 Q1202.79 2988.59 1207.47 2984.38 Q1212.14 2980.16 1212.14 2972.94 Q1212.14 2965.72 1207.47 2961.5 Q1202.79 2957.29 1194.78 2957.29 Q1191.03 2957.29 1187.28 2958.13 Q1183.58 2958.96 1179.69 2960.72 L1179.69 2926 Z" fill="#000000" fill-rule="nonzero" fill-opacity="1" /><path clip-path="url(#clip900)" d="M1539.9 2961.46 L1599.25 2961.46 L1599.25 2969.33 L1539.9 2969.33 L1539.9 2961.46 Z" fill="#000000" fill-rule="nonzero" fill-opacity="1" /><path clip-path="url(#clip900)" d="M1621.05 2987.25 L1636.33 2987.25 L1636.33 2934.51 L1619.71 2937.85 L1619.71 2929.33 L1636.24 2926 L1645.59 2926 L1645.59 2987.25 L1660.87 2987.25 L1660.87 2995.12 L1621.05 2995.12 L1621.05 2987.25 Z" fill="#000000" fill-rule="nonzero" fill-opacity="1" /><path clip-path="url(#clip900)" d="M1699.76 2932.15 Q1692.53 2932.15 1688.88 2939.28 Q1685.26 2946.37 1685.26 2960.63 Q1685.26 2974.84 1688.88 2981.97 Q1692.53 2989.05 1699.76 2989.05 Q1707.02 2989.05 1710.63 2981.97 Q1714.29 2974.84 1714.29 2960.63 Q1714.29 2946.37 1710.63 2939.28 Q1707.02 2932.15 1699.76 2932.15 M1699.76 2924.75 Q1711.38 2924.75 1717.49 2933.96 Q1723.64 2943.13 1723.64 2960.63 Q1723.64 2978.08 1717.49 2987.29 Q1711.38 2996.46 1699.76 2996.46 Q1688.13 2996.46 1681.98 2987.29 Q1675.87 2978.08 1675.87 2960.63 Q1675.87 2943.13 1681.98 2933.96 Q1688.13 2924.75 1699.76 2924.75 Z" fill="#000000" fill-rule="nonzero" fill-opacity="1" /><path clip-path="url(#clip900)" d="M1760.08 2932.15 Q1752.86 2932.15 1749.2 2939.28 Q1745.59 2946.37 1745.59 2960.63 Q1745.59 2974.84 1749.2 2981.97 Q1752.86 2989.05 1760.08 2989.05 Q1767.35 2989.05 1770.96 2981.97 Q1774.62 2974.84 1774.62 2960.63 Q1774.62 2946.37 1770.96 2939.28 Q1767.35 2932.15 1760.08 2932.15 M1760.08 2924.75 Q1771.7 2924.75 1777.81 2933.96 Q1783.97 2943.13 1783.97 2960.63 Q1783.97 2978.08 1777.81 2987.29 Q1771.7 2996.46 1760.08 2996.46 Q1748.46 2996.46 1742.3 2987.29 Q1736.19 2978.08 1736.19 2960.63 Q1736.19 2943.13 1742.3 2933.96 Q1748.46 2924.75 1760.08 2924.75 Z" fill="#000000" fill-rule="nonzero" fill-opacity="1" /><path clip-path="url(#clip900)" d="M2132.53 2961.46 L2191.88 2961.46 L2191.88 2969.33 L2132.53 2969.33 L2132.53 2961.46 Z" fill="#000000" fill-rule="nonzero" fill-opacity="1" /><path clip-path="url(#clip900)" d="M2209.7 2926 L2254.15 2926 L2254.15 2929.98 L2229.06 2995.12 L2219.29 2995.12 L2242.9 2933.87 L2209.7 2933.87 L2209.7 2926 Z" fill="#000000" fill-rule="nonzero" fill-opacity="1" /><path clip-path="url(#clip900)" d="M2272.48 2926 L2309.19 2926 L2309.19 2933.87 L2281.05 2933.87 L2281.05 2950.81 Q2283.08 2950.12 2285.12 2949.79 Q2287.16 2949.42 2289.19 2949.42 Q2300.77 2949.42 2307.53 2955.76 Q2314.29 2962.11 2314.29 2972.94 Q2314.29 2984.1 2307.34 2990.3 Q2300.4 2996.46 2287.76 2996.46 Q2283.41 2996.46 2278.87 2995.72 Q2274.38 2994.98 2269.57 2993.5 L2269.57 2984.1 Q2273.73 2986.37 2278.18 2987.48 Q2282.62 2988.59 2287.57 2988.59 Q2295.58 2988.59 2300.26 2984.38 Q2304.94 2980.16 2304.94 2972.94 Q2304.94 2965.72 2300.26 2961.5 Q2295.58 2957.29 2287.57 2957.29 Q2283.82 2957.29 2280.07 2958.13 Q2276.37 2958.96 2272.48 2960.72 L2272.48 2926 Z" fill="#000000" fill-rule="nonzero" fill-opacity="1" /><path clip-path="url(#clip900)" d="M2693.01 2961.46 L2752.36 2961.46 L2752.36 2969.33 L2693.01 2969.33 L2693.01 2961.46 Z" fill="#000000" fill-rule="nonzero" fill-opacity="1" /><path clip-path="url(#clip900)" d="M2772.64 2926 L2809.35 2926 L2809.35 2933.87 L2781.2 2933.87 L2781.2 2950.81 Q2783.24 2950.12 2785.28 2949.79 Q2787.32 2949.42 2789.35 2949.42 Q2800.93 2949.42 2807.69 2955.76 Q2814.44 2962.11 2814.44 2972.94 Q2814.44 2984.1 2807.5 2990.3 Q2800.56 2996.46 2787.92 2996.46 Q2783.57 2996.46 2779.03 2995.72 Q2774.54 2994.98 2769.72 2993.5 L2769.72 2984.1 Q2773.89 2986.37 2778.33 2987.48 Q2782.78 2988.59 2787.73 2988.59 Q2795.74 2988.59 2800.42 2984.38 Q2805.09 2980.16 2805.09 2972.94 Q2805.09 2965.72 2800.42 2961.5 Q2795.74 2957.29 2787.73 2957.29 Q2783.98 2957.29 2780.23 2958.13 Q2776.53 2958.96 2772.64 2960.72 L2772.64 2926 Z" fill="#000000" fill-rule="nonzero" fill-opacity="1" /><path clip-path="url(#clip900)" d="M2852.87 2932.15 Q2845.65 2932.15 2841.99 2939.28 Q2838.38 2946.37 2838.38 2960.63 Q2838.38 2974.84 2841.99 2981.97 Q2845.65 2989.05 2852.87 2989.05 Q2860.14 2989.05 2863.75 2981.97 Q2867.41 2974.84 2867.41 2960.63 Q2867.41 2946.37 2863.75 2939.28 Q2860.14 2932.15 2852.87 2932.15 M2852.87 2924.75 Q2864.49 2924.75 2870.6 2933.96 Q2876.76 2943.13 2876.76 2960.63 Q2876.76 2978.08 2870.6 2987.29 Q2864.49 2996.46 2852.87 2996.46 Q2841.25 2996.46 2835.09 2987.29 Q2828.98 2978.08 2828.98 2960.63 Q2828.98 2943.13 2835.09 2933.96 Q2841.25 2924.75 2852.87 2924.75 Z" fill="#000000" fill-rule="nonzero" fill-opacity="1" /><path clip-path="url(#clip900)" d="M3255.48 2961.46 L3314.83 2961.46 L3314.83 2969.33 L3255.48 2969.33 L3255.48 2961.46 Z" fill="#000000" fill-rule="nonzero" fill-opacity="1" /><path clip-path="url(#clip900)" d="M3343.07 2987.25 L3375.71 2987.25 L3375.71 2995.12 L3331.82 2995.12 L3331.82 2987.25 Q3337.15 2981.74 3346.31 2972.48 Q3355.53 2963.17 3357.89 2960.49 Q3362.38 2955.44 3364.14 2951.97 Q3365.94 2948.45 3365.94 2945.07 Q3365.94 2939.56 3362.06 2936.09 Q3358.21 2932.62 3352.01 2932.62 Q3347.61 2932.62 3342.7 2934.14 Q3337.84 2935.67 3332.29 2938.77 L3332.29 2929.33 Q3337.94 2927.06 3342.84 2925.9 Q3347.75 2924.75 3351.82 2924.75 Q3362.56 2924.75 3368.95 2930.12 Q3375.34 2935.49 3375.34 2944.47 Q3375.34 2948.73 3373.72 2952.57 Q3372.15 2956.37 3367.94 2961.55 Q3366.78 2962.89 3360.57 2969.33 Q3354.37 2975.72 3343.07 2987.25 Z" fill="#000000" fill-rule="nonzero" fill-opacity="1" /><path clip-path="url(#clip900)" d="M3395.44 2926 L3432.15 2926 L3432.15 2933.87 L3404 2933.87 L3404 2950.81 Q3406.04 2950.12 3408.07 2949.79 Q3410.11 2949.42 3412.15 2949.42 Q3423.72 2949.42 3430.48 2955.76 Q3437.24 2962.11 3437.24 2972.94 Q3437.24 2984.1 3430.3 2990.3 Q3423.35 2996.46 3410.71 2996.46 Q3406.36 2996.46 3401.82 2995.72 Q3397.33 2994.98 3392.52 2993.5 L3392.52 2984.1 Q3396.68 2986.37 3401.13 2987.48 Q3405.57 2988.59 3410.53 2988.59 Q3418.54 2988.59 3423.21 2984.38 Q3427.89 2980.16 3427.89 2972.94 Q3427.89 2965.72 3423.21 2961.5 Q3418.54 2957.29 3410.53 2957.29 Q3406.78 2957.29 3403.03 2958.13 Q3399.32 2958.96 3395.44 2960.72 L3395.44 2926 Z" fill="#000000" fill-rule="nonzero" fill-opacity="1" /><path clip-path="url(#clip900)" d="M3907.84 2932.15 Q3900.62 2932.15 3896.96 2939.28 Q3893.35 2946.37 3893.35 2960.63 Q3893.35 2974.84 3896.96 2981.97 Q3900.62 2989.05 3907.84 2989.05 Q3915.11 2989.05 3918.72 2981.97 Q3922.37 2974.84 3922.37 2960.63 Q3922.37 2946.37 3918.72 2939.28 Q3915.11 2932.15 3907.84 2932.15 M3907.84 2924.75 Q3919.46 2924.75 3925.57 2933.96 Q3931.73 2943.13 3931.73 2960.63 Q3931.73 2978.08 3925.57 2987.29 Q3919.46 2996.46 3907.84 2996.46 Q3896.22 2996.46 3890.06 2987.29 Q3883.95 2978.08 3883.95 2960.63 Q3883.95 2943.13 3890.06 2933.96 Q3896.22 2924.75 3907.84 2924.75 Z" fill="#000000" fill-rule="nonzero" fill-opacity="1" /><path clip-path="url(#clip900)" d="M2166.03 3142.32 L2166.03 3137.71 L2169.62 3137.71 Q2177.75 3137.71 2179.58 3136.39 Q2181.48 3135 2181.48 3130.61 L2181.48 3051.63 Q2181.48 3047.31 2179.58 3045.99 Q2177.67 3044.6 2169.62 3044.6 L2166.03 3044.6 L2166.03 3039.92 L2213.1 3039.92 Q2229.42 3039.92 2240.77 3047.97 Q2252.19 3055.95 2252.19 3066.93 Q2252.19 3075.34 2244.79 3081.93 Q2237.4 3088.52 2225.98 3091.37 Q2240.84 3096.5 2244.28 3108.72 L2246.18 3120.73 Q2246.77 3125.04 2247.14 3127.24 Q2247.57 3129.44 2248.23 3132.44 Q2248.89 3135.44 2249.55 3136.9 Q2250.28 3138.29 2251.31 3139.83 Q2252.33 3141.29 2253.65 3141.81 Q2255.04 3142.32 2256.87 3142.32 Q2260.31 3142.32 2263.24 3139.24 Q2266.17 3136.17 2266.75 3129 Q2267.04 3126.58 2268.58 3126.58 Q2270.48 3126.58 2270.48 3129 Q2270.48 3131.12 2269.9 3133.61 Q2269.31 3136.02 2267.85 3138.88 Q2266.46 3141.73 2263.38 3143.64 Q2260.31 3145.61 2256.28 3145.61 Q2244.57 3145.61 2237.4 3139.32 Q2234.4 3136.61 2233.01 3133.1 Q2231.69 3129.58 2231.47 3126.8 Q2231.25 3124.02 2231.25 3117.87 Q2231.25 3109.16 2230.3 3105.35 Q2229.42 3101.55 2225.54 3097.82 Q2220.27 3092.69 2211.56 3092.69 L2194.36 3092.69 L2194.36 3130.61 Q2194.36 3134.93 2196.19 3136.32 Q2198.09 3137.71 2206.22 3137.71 L2209.81 3137.71 L2209.81 3142.32 Q2204.39 3141.88 2187.92 3141.88 Q2171.45 3141.88 2166.03 3142.32 M2194.36 3089.4 L2210.98 3089.4 Q2218.96 3089.4 2224.3 3087.5 Q2229.71 3085.52 2232.28 3082.01 Q2234.84 3078.49 2235.79 3074.98 Q2236.74 3071.39 2236.74 3066.93 Q2236.74 3061.66 2235.57 3057.7 Q2234.4 3053.75 2231.84 3051.41 Q2229.28 3049.07 2226.71 3047.6 Q2224.15 3046.07 2220.2 3045.48 Q2216.25 3044.9 2213.54 3044.75 Q2210.83 3044.6 2206.51 3044.6 Q2199.19 3044.6 2197.66 3044.9 Q2195.97 3045.04 2195.31 3045.85 Q2194.65 3046.65 2194.51 3047.6 Q2194.36 3048.48 2194.36 3050.6 L2194.36 3089.4 Z" fill="#000000" fill-rule="nonzero" fill-opacity="1" /><path clip-path="url(#clip900)" d="M2275.81 3109.31 Q2275.81 3095.18 2284.88 3085.15 Q2293.96 3075.13 2306.99 3075.13 Q2320.16 3075.13 2326.97 3083.69 Q2333.85 3092.25 2333.85 3104.55 Q2333.85 3106.82 2333.26 3107.26 Q2332.68 3107.7 2330.12 3107.7 L2288.25 3107.7 Q2288.25 3122.99 2292.79 3130.17 Q2299.08 3140.2 2309.69 3140.2 Q2311.16 3140.2 2312.92 3139.9 Q2314.67 3139.61 2318.26 3138.37 Q2321.85 3137.05 2324.99 3133.61 Q2328.14 3130.17 2329.97 3124.75 Q2330.41 3122.63 2331.87 3122.7 Q2333.85 3122.7 2333.85 3124.46 Q2333.85 3125.78 2332.39 3128.78 Q2330.99 3131.7 2328.29 3135.22 Q2325.58 3138.73 2320.31 3141.37 Q2315.11 3144 2308.82 3144 Q2295.64 3144 2285.69 3134.05 Q2275.81 3124.02 2275.81 3109.31 M2288.39 3104.55 L2323.97 3104.55 Q2323.97 3101.4 2323.38 3097.89 Q2322.87 3094.38 2321.26 3089.54 Q2319.72 3084.64 2316.06 3081.57 Q2312.4 3078.49 2306.99 3078.49 Q2304.57 3078.49 2301.94 3079.52 Q2299.37 3080.54 2296.23 3083.03 Q2293.08 3085.52 2290.88 3091.15 Q2288.69 3096.79 2288.39 3104.55 Z" fill="#000000" fill-rule="nonzero" fill-opacity="1" /><path clip-path="url(#clip900)" d="M2381.31 3179.79 L2381.31 3029.89 L2403.93 3029.89 L2403.93 3033.33 L2391.34 3033.33 L2391.34 3176.35 L2403.93 3176.35 L2403.93 3179.79 L2381.31 3179.79 Z" fill="#000000" fill-rule="nonzero" fill-opacity="1" /><path clip-path="url(#clip900)" d="M2496.71 3142.46 Q2496.71 3143.86 2495.1 3144 L2491.8 3144 Q2488.43 3144 2486.97 3143.49 Q2485.51 3142.98 2483.82 3140.63 Q2482.8 3139.17 2480.24 3132.36 Q2477.75 3125.48 2474.09 3115.09 Q2470.5 3104.7 2468.09 3098.55 L2432 3141.15 Q2429.51 3144.29 2427.02 3144.29 Q2425.19 3144.29 2423.88 3143.05 Q2422.56 3141.81 2422.56 3139.9 Q2422.56 3138.51 2423.07 3137.71 Q2423.66 3136.9 2425.19 3135.29 L2466.62 3094.23 L2452.06 3053.46 Q2449.28 3045.92 2447.66 3044.02 Q2446.13 3042.11 2442.32 3041.46 Q2440.93 3041.09 2440.93 3039.92 Q2440.93 3038.31 2443.64 3038.31 Q2458.13 3038.31 2461.94 3048.92 L2492.53 3134.19 Q2494.22 3139.1 2495.97 3141.15 Q2496.71 3142.1 2496.71 3142.46 Z" fill="#000000" fill-rule="nonzero" fill-opacity="1" /><path clip-path="url(#clip900)" d="M2509.04 3176.35 L2521.63 3176.35 L2521.63 3033.33 L2509.04 3033.33 L2509.04 3029.89 L2531.66 3029.89 L2531.66 3179.79 L2509.04 3179.79 L2509.04 3176.35 Z" fill="#000000" fill-rule="nonzero" fill-opacity="1" /><polyline clip-path="url(#clip902)" style="stroke:#000000; stroke-linecap:round; stroke-linejoin:round; stroke-width:2; stroke-opacity:0.1; fill:none" points="763.569,2602.9 3952.76,2602.9 "/>
<polyline clip-path="url(#clip902)" style="stroke:#000000; stroke-linecap:round; stroke-linejoin:round; stroke-width:2; stroke-opacity:0.1; fill:none" points="763.569,2032.44 3952.76,2032.44 "/>
<polyline clip-path="url(#clip902)" style="stroke:#000000; stroke-linecap:round; stroke-linejoin:round; stroke-width:2; stroke-opacity:0.1; fill:none" points="763.569,1461.98 3952.76,1461.98 "/>
<polyline clip-path="url(#clip902)" style="stroke:#000000; stroke-linecap:round; stroke-linejoin:round; stroke-width:2; stroke-opacity:0.1; fill:none" points="763.569,891.522 3952.76,891.522 "/>
<polyline clip-path="url(#clip902)" style="stroke:#000000; stroke-linecap:round; stroke-linejoin:round; stroke-width:2; stroke-opacity:0.1; fill:none" points="763.569,321.064 3952.76,321.064 "/>
<polyline clip-path="url(#clip900)" style="stroke:#000000; stroke-linecap:round; stroke-linejoin:round; stroke-width:4; stroke-opacity:1; fill:none" points="763.569,2876.72 763.569,47.2441 "/>
<polyline clip-path="url(#clip900)" style="stroke:#000000; stroke-linecap:round; stroke-linejoin:round; stroke-width:4; stroke-opacity:1; fill:none" points="3952.76,2876.72 3952.76,47.2441 "/>
<polyline clip-path="url(#clip900)" style="stroke:#000000; stroke-linecap:round; stroke-linejoin:round; stroke-width:4; stroke-opacity:1; fill:none" points="763.569,2602.9 782.467,2602.9 "/>
<polyline clip-path="url(#clip900)" style="stroke:#000000; stroke-linecap:round; stroke-linejoin:round; stroke-width:4; stroke-opacity:1; fill:none" points="763.569,2032.44 782.467,2032.44 "/>
<polyline clip-path="url(#clip900)" style="stroke:#000000; stroke-linecap:round; stroke-linejoin:round; stroke-width:4; stroke-opacity:1; fill:none" points="763.569,1461.98 782.467,1461.98 "/>
<polyline clip-path="url(#clip900)" style="stroke:#000000; stroke-linecap:round; stroke-linejoin:round; stroke-width:4; stroke-opacity:1; fill:none" points="763.569,891.522 782.467,891.522 "/>
<polyline clip-path="url(#clip900)" style="stroke:#000000; stroke-linecap:round; stroke-linejoin:round; stroke-width:4; stroke-opacity:1; fill:none" points="763.569,321.064 782.467,321.064 "/>
<path clip-path="url(#clip900)" d="M188.34 2616.69 L247.692 2616.69 L247.692 2624.56 L188.34 2624.56 L188.34 2616.69 Z" fill="#000000" fill-rule="nonzero" fill-opacity="1" /><path clip-path="url(#clip900)" d="M267.969 2581.23 L304.682 2581.23 L304.682 2589.1 L276.534 2589.1 L276.534 2606.05 Q278.571 2605.35 280.608 2605.03 Q282.645 2604.66 284.682 2604.66 Q296.256 2604.66 303.015 2611 Q309.775 2617.34 309.775 2628.18 Q309.775 2639.33 302.83 2645.54 Q295.886 2651.69 283.247 2651.69 Q278.895 2651.69 274.358 2650.95 Q269.867 2650.21 265.053 2648.73 L265.053 2639.33 Q269.219 2641.6 273.664 2642.71 Q278.108 2643.82 283.062 2643.82 Q291.071 2643.82 295.747 2639.61 Q300.423 2635.4 300.423 2628.18 Q300.423 2620.95 295.747 2616.74 Q291.071 2612.53 283.062 2612.53 Q279.312 2612.53 275.562 2613.36 Q271.858 2614.19 267.969 2615.95 L267.969 2581.23 Z" fill="#000000" fill-rule="nonzero" fill-opacity="1" /><path clip-path="url(#clip900)" d="M328.201 2638.59 L337.969 2638.59 L337.969 2650.35 L328.201 2650.35 L328.201 2638.59 Z" fill="#000000" fill-rule="nonzero" fill-opacity="1" /><path clip-path="url(#clip900)" d="M378.339 2587.39 Q371.117 2587.39 367.46 2594.52 Q363.848 2601.6 363.848 2615.86 Q363.848 2630.07 367.46 2637.2 Q371.117 2644.29 378.339 2644.29 Q385.608 2644.29 389.219 2637.2 Q392.876 2630.07 392.876 2615.86 Q392.876 2601.6 389.219 2594.52 Q385.608 2587.39 378.339 2587.39 M378.339 2579.98 Q389.959 2579.98 396.071 2589.19 Q402.228 2598.36 402.228 2615.86 Q402.228 2633.31 396.071 2642.53 Q389.959 2651.69 378.339 2651.69 Q366.719 2651.69 360.561 2642.53 Q354.45 2633.31 354.45 2615.86 Q354.45 2598.36 360.561 2589.19 Q366.719 2579.98 378.339 2579.98 Z" fill="#000000" fill-rule="nonzero" fill-opacity="1" /><path clip-path="url(#clip900)" d="M438.663 2587.39 Q431.441 2587.39 427.783 2594.52 Q424.172 2601.6 424.172 2615.86 Q424.172 2630.07 427.783 2637.2 Q431.441 2644.29 438.663 2644.29 Q445.931 2644.29 449.542 2637.2 Q453.2 2630.07 453.2 2615.86 Q453.2 2601.6 449.542 2594.52 Q445.931 2587.39 438.663 2587.39 M438.663 2579.98 Q450.283 2579.98 456.394 2589.19 Q462.552 2598.36 462.552 2615.86 Q462.552 2633.31 456.394 2642.53 Q450.283 2651.69 438.663 2651.69 Q427.043 2651.69 420.885 2642.53 Q414.774 2633.31 414.774 2615.86 Q414.774 2598.36 420.885 2589.19 Q427.043 2579.98 438.663 2579.98 Z" fill="#000000" fill-rule="nonzero" fill-opacity="1" /><path clip-path="url(#clip900)" d="M535.329 2599.43 L514.172 2620.68 L535.329 2641.83 L529.82 2647.43 L508.57 2626.18 L487.32 2647.43 L481.857 2641.83 L502.968 2620.68 L481.857 2599.43 L487.32 2593.82 L508.57 2615.07 L529.82 2593.82 L535.329 2599.43 Z" fill="#000000" fill-rule="nonzero" fill-opacity="1" /><path clip-path="url(#clip900)" d="M560.051 2642.48 L575.329 2642.48 L575.329 2589.75 L558.709 2593.08 L558.709 2584.56 L575.236 2581.23 L584.588 2581.23 L584.588 2642.48 L599.866 2642.48 L599.866 2650.35 L560.051 2650.35 L560.051 2642.48 Z" fill="#000000" fill-rule="nonzero" fill-opacity="1" /><path clip-path="url(#clip900)" d="M638.754 2587.39 Q631.532 2587.39 627.875 2594.52 Q624.264 2601.6 624.264 2615.86 Q624.264 2630.07 627.875 2637.2 Q631.532 2644.29 638.754 2644.29 Q646.023 2644.29 649.634 2637.2 Q653.291 2630.07 653.291 2615.86 Q653.291 2601.6 649.634 2594.52 Q646.023 2587.39 638.754 2587.39 M638.754 2579.98 Q650.375 2579.98 656.486 2589.19 Q662.643 2598.36 662.643 2615.86 Q662.643 2633.31 656.486 2642.53 Q650.375 2651.69 638.754 2651.69 Q627.134 2651.69 620.977 2642.53 Q614.866 2633.31 614.866 2615.86 Q614.866 2598.36 620.977 2589.19 Q627.134 2579.98 638.754 2579.98 Z" fill="#000000" fill-rule="nonzero" fill-opacity="1" /><path clip-path="url(#clip900)" d="M687.996 2545.99 L668.812 2575.97 L687.996 2575.97 L687.996 2545.99 M686.002 2539.37 L695.557 2539.37 L695.557 2575.97 L703.569 2575.97 L703.569 2582.29 L695.557 2582.29 L695.557 2595.53 L687.996 2595.53 L687.996 2582.29 L662.643 2582.29 L662.643 2574.95 L686.002 2539.37 Z" fill="#000000" fill-rule="nonzero" fill-opacity="1" /><path clip-path="url(#clip900)" d="M188.34 2046.24 L247.692 2046.24 L247.692 2054.11 L188.34 2054.11 L188.34 2046.24 Z" fill="#000000" fill-rule="nonzero" fill-opacity="1" /><path clip-path="url(#clip900)" d="M275.932 2072.02 L308.571 2072.02 L308.571 2079.89 L264.682 2079.89 L264.682 2072.02 Q270.006 2066.51 279.173 2057.25 Q288.386 2047.95 290.747 2045.26 Q295.238 2040.22 296.997 2036.75 Q298.803 2033.23 298.803 2029.85 Q298.803 2024.34 294.914 2020.87 Q291.071 2017.39 284.867 2017.39 Q280.469 2017.39 275.562 2018.92 Q270.701 2020.45 265.145 2023.55 L265.145 2014.11 Q270.793 2011.84 275.701 2010.68 Q280.608 2009.52 284.682 2009.52 Q295.423 2009.52 301.812 2014.89 Q308.201 2020.26 308.201 2029.25 Q308.201 2033.5 306.58 2037.35 Q305.006 2041.14 300.793 2046.33 Q299.636 2047.67 293.432 2054.11 Q287.229 2060.5 275.932 2072.02 Z" fill="#000000" fill-rule="nonzero" fill-opacity="1" /><path clip-path="url(#clip900)" d="M328.201 2068.13 L337.969 2068.13 L337.969 2079.89 L328.201 2079.89 L328.201 2068.13 Z" fill="#000000" fill-rule="nonzero" fill-opacity="1" /><path clip-path="url(#clip900)" d="M358.432 2010.77 L395.145 2010.77 L395.145 2018.64 L366.997 2018.64 L366.997 2035.59 Q369.034 2034.89 371.071 2034.57 Q373.108 2034.2 375.145 2034.2 Q386.719 2034.2 393.478 2040.54 Q400.237 2046.88 400.237 2057.72 Q400.237 2068.87 393.293 2075.08 Q386.348 2081.24 373.71 2081.24 Q369.358 2081.24 364.821 2080.5 Q360.33 2079.75 355.515 2078.27 L355.515 2068.87 Q359.682 2071.14 364.126 2072.25 Q368.571 2073.37 373.524 2073.37 Q381.534 2073.37 386.209 2069.15 Q390.885 2064.94 390.885 2057.72 Q390.885 2050.5 386.209 2046.28 Q381.534 2042.07 373.524 2042.07 Q369.774 2042.07 366.024 2042.9 Q362.321 2043.74 358.432 2045.5 L358.432 2010.77 Z" fill="#000000" fill-rule="nonzero" fill-opacity="1" /><path clip-path="url(#clip900)" d="M438.663 2016.93 Q431.441 2016.93 427.783 2024.06 Q424.172 2031.14 424.172 2045.4 Q424.172 2059.62 427.783 2066.75 Q431.441 2073.83 438.663 2073.83 Q445.931 2073.83 449.542 2066.75 Q453.2 2059.62 453.2 2045.4 Q453.2 2031.14 449.542 2024.06 Q445.931 2016.93 438.663 2016.93 M438.663 2009.52 Q450.283 2009.52 456.394 2018.74 Q462.552 2027.9 462.552 2045.4 Q462.552 2062.86 456.394 2072.07 Q450.283 2081.24 438.663 2081.24 Q427.043 2081.24 420.885 2072.07 Q414.774 2062.86 414.774 2045.4 Q414.774 2027.9 420.885 2018.74 Q427.043 2009.52 438.663 2009.52 Z" fill="#000000" fill-rule="nonzero" fill-opacity="1" /><path clip-path="url(#clip900)" d="M535.329 2028.97 L514.172 2050.22 L535.329 2071.37 L529.82 2076.98 L508.57 2055.73 L487.32 2076.98 L481.857 2071.37 L502.968 2050.22 L481.857 2028.97 L487.32 2023.37 L508.57 2044.62 L529.82 2023.37 L535.329 2028.97 Z" fill="#000000" fill-rule="nonzero" fill-opacity="1" /><path clip-path="url(#clip900)" d="M560.051 2072.02 L575.329 2072.02 L575.329 2019.29 L558.709 2022.62 L558.709 2014.11 L575.236 2010.77 L584.588 2010.77 L584.588 2072.02 L599.866 2072.02 L599.866 2079.89 L560.051 2079.89 L560.051 2072.02 Z" fill="#000000" fill-rule="nonzero" fill-opacity="1" /><path clip-path="url(#clip900)" d="M638.754 2016.93 Q631.532 2016.93 627.875 2024.06 Q624.264 2031.14 624.264 2045.4 Q624.264 2059.62 627.875 2066.75 Q631.532 2073.83 638.754 2073.83 Q646.023 2073.83 649.634 2066.75 Q653.291 2059.62 653.291 2045.4 Q653.291 2031.14 649.634 2024.06 Q646.023 2016.93 638.754 2016.93 M638.754 2009.52 Q650.375 2009.52 656.486 2018.74 Q662.643 2027.9 662.643 2045.4 Q662.643 2062.86 656.486 2072.07 Q650.375 2081.24 638.754 2081.24 Q627.134 2081.24 620.977 2072.07 Q614.866 2062.86 614.866 2045.4 Q614.866 2027.9 620.977 2018.74 Q627.134 2009.52 638.754 2009.52 Z" fill="#000000" fill-rule="nonzero" fill-opacity="1" /><path clip-path="url(#clip900)" d="M687.996 1975.53 L668.812 2005.51 L687.996 2005.51 L687.996 1975.53 M686.002 1968.91 L695.557 1968.91 L695.557 2005.51 L703.569 2005.51 L703.569 2011.83 L695.557 2011.83 L695.557 2025.07 L687.996 2025.07 L687.996 2011.83 L662.643 2011.83 L662.643 2004.5 L686.002 1968.91 Z" fill="#000000" fill-rule="nonzero" fill-opacity="1" /><path clip-path="url(#clip900)" d="M679.68 1433.58 Q672.458 1433.58 668.801 1440.71 Q665.189 1447.79 665.189 1462.05 Q665.189 1476.26 668.801 1483.39 Q672.458 1490.48 679.68 1490.48 Q686.949 1490.48 690.56 1483.39 Q694.217 1476.26 694.217 1462.05 Q694.217 1447.79 690.56 1440.71 Q686.949 1433.58 679.68 1433.58 M679.68 1426.17 Q691.3 1426.17 697.412 1435.38 Q703.569 1444.55 703.569 1462.05 Q703.569 1479.5 697.412 1488.72 Q691.3 1497.88 679.68 1497.88 Q668.06 1497.88 661.902 1488.72 Q655.791 1479.5 655.791 1462.05 Q655.791 1444.55 661.902 1435.38 Q668.06 1426.17 679.68 1426.17 Z" fill="#000000" fill-rule="nonzero" fill-opacity="1" /><path clip-path="url(#clip900)" d="M275.932 931.107 L308.571 931.107 L308.571 938.977 L264.682 938.977 L264.682 931.107 Q270.006 925.598 279.173 916.338 Q288.386 907.033 290.747 904.348 Q295.238 899.301 296.997 895.829 Q298.803 892.311 298.803 888.931 Q298.803 883.422 294.914 879.95 Q291.071 876.477 284.867 876.477 Q280.469 876.477 275.562 878.005 Q270.701 879.533 265.145 882.635 L265.145 873.19 Q270.793 870.922 275.701 869.765 Q280.608 868.607 284.682 868.607 Q295.423 868.607 301.812 873.978 Q308.201 879.348 308.201 888.329 Q308.201 892.589 306.58 896.431 Q305.006 900.227 300.793 905.413 Q299.636 906.755 293.432 913.19 Q287.229 919.579 275.932 931.107 Z" fill="#000000" fill-rule="nonzero" fill-opacity="1" /><path clip-path="url(#clip900)" d="M328.201 927.218 L337.969 927.218 L337.969 938.977 L328.201 938.977 L328.201 927.218 Z" fill="#000000" fill-rule="nonzero" fill-opacity="1" /><path clip-path="url(#clip900)" d="M358.432 869.857 L395.145 869.857 L395.145 877.727 L366.997 877.727 L366.997 894.672 Q369.034 893.977 371.071 893.653 Q373.108 893.283 375.145 893.283 Q386.719 893.283 393.478 899.626 Q400.237 905.968 400.237 916.801 Q400.237 927.959 393.293 934.162 Q386.348 940.32 373.71 940.32 Q369.358 940.32 364.821 939.579 Q360.33 938.838 355.515 937.357 L355.515 927.959 Q359.682 930.227 364.126 931.338 Q368.571 932.449 373.524 932.449 Q381.534 932.449 386.209 928.236 Q390.885 924.024 390.885 916.801 Q390.885 909.579 386.209 905.366 Q381.534 901.153 373.524 901.153 Q369.774 901.153 366.024 901.987 Q362.321 902.82 358.432 904.579 L358.432 869.857 Z" fill="#000000" fill-rule="nonzero" fill-opacity="1" /><path clip-path="url(#clip900)" d="M438.663 876.015 Q431.441 876.015 427.783 883.144 Q424.172 890.227 424.172 904.487 Q424.172 918.699 427.783 925.829 Q431.441 932.912 438.663 932.912 Q445.931 932.912 449.542 925.829 Q453.2 918.699 453.2 904.487 Q453.2 890.227 449.542 883.144 Q445.931 876.015 438.663 876.015 M438.663 868.607 Q450.283 868.607 456.394 877.82 Q462.552 886.987 462.552 904.487 Q462.552 921.94 456.394 931.153 Q450.283 940.32 438.663 940.32 Q427.043 940.32 420.885 931.153 Q414.774 921.94 414.774 904.487 Q414.774 886.987 420.885 877.82 Q427.043 868.607 438.663 868.607 Z" fill="#000000" fill-rule="nonzero" fill-opacity="1" /><path clip-path="url(#clip900)" d="M535.329 888.052 L514.172 909.301 L535.329 930.459 L529.82 936.061 L508.57 914.811 L487.32 936.061 L481.857 930.459 L502.968 909.301 L481.857 888.052 L487.32 882.45 L508.57 903.7 L529.82 882.45 L535.329 888.052 Z" fill="#000000" fill-rule="nonzero" fill-opacity="1" /><path clip-path="url(#clip900)" d="M560.051 931.107 L575.329 931.107 L575.329 878.376 L558.709 881.709 L558.709 873.19 L575.236 869.857 L584.588 869.857 L584.588 931.107 L599.866 931.107 L599.866 938.977 L560.051 938.977 L560.051 931.107 Z" fill="#000000" fill-rule="nonzero" fill-opacity="1" /><path clip-path="url(#clip900)" d="M638.754 876.015 Q631.532 876.015 627.875 883.144 Q624.264 890.227 624.264 904.487 Q624.264 918.699 627.875 925.829 Q631.532 932.912 638.754 932.912 Q646.023 932.912 649.634 925.829 Q653.291 918.699 653.291 904.487 Q653.291 890.227 649.634 883.144 Q646.023 876.015 638.754 876.015 M638.754 868.607 Q650.375 868.607 656.486 877.82 Q662.643 886.987 662.643 904.487 Q662.643 921.94 656.486 931.153 Q650.375 940.32 638.754 940.32 Q627.134 940.32 620.977 931.153 Q614.866 921.94 614.866 904.487 Q614.866 886.987 620.977 877.82 Q627.134 868.607 638.754 868.607 Z" fill="#000000" fill-rule="nonzero" fill-opacity="1" /><path clip-path="url(#clip900)" d="M687.996 834.617 L668.812 864.596 L687.996 864.596 L687.996 834.617 M686.002 827.996 L695.557 827.996 L695.557 864.596 L703.569 864.596 L703.569 870.916 L695.557 870.916 L695.557 884.156 L687.996 884.156 L687.996 870.916 L662.643 870.916 L662.643 863.581 L686.002 827.996 Z" fill="#000000" fill-rule="nonzero" fill-opacity="1" /><path clip-path="url(#clip900)" d="M267.969 299.399 L304.682 299.399 L304.682 307.269 L276.534 307.269 L276.534 324.214 Q278.571 323.519 280.608 323.195 Q282.645 322.825 284.682 322.825 Q296.256 322.825 303.015 329.168 Q309.775 335.51 309.775 346.343 Q309.775 357.501 302.83 363.704 Q295.886 369.862 283.247 369.862 Q278.895 369.862 274.358 369.121 Q269.867 368.38 265.053 366.899 L265.053 357.501 Q269.219 359.769 273.664 360.88 Q278.108 361.991 283.062 361.991 Q291.071 361.991 295.747 357.778 Q300.423 353.566 300.423 346.343 Q300.423 339.121 295.747 334.908 Q291.071 330.695 283.062 330.695 Q279.312 330.695 275.562 331.529 Q271.858 332.362 267.969 334.121 L267.969 299.399 Z" fill="#000000" fill-rule="nonzero" fill-opacity="1" /><path clip-path="url(#clip900)" d="M328.201 356.76 L337.969 356.76 L337.969 368.519 L328.201 368.519 L328.201 356.76 Z" fill="#000000" fill-rule="nonzero" fill-opacity="1" /><path clip-path="url(#clip900)" d="M378.339 305.557 Q371.117 305.557 367.46 312.686 Q363.848 319.769 363.848 334.029 Q363.848 348.241 367.46 355.371 Q371.117 362.454 378.339 362.454 Q385.608 362.454 389.219 355.371 Q392.876 348.241 392.876 334.029 Q392.876 319.769 389.219 312.686 Q385.608 305.557 378.339 305.557 M378.339 298.149 Q389.959 298.149 396.071 307.362 Q402.228 316.529 402.228 334.029 Q402.228 351.482 396.071 360.695 Q389.959 369.862 378.339 369.862 Q366.719 369.862 360.561 360.695 Q354.45 351.482 354.45 334.029 Q354.45 316.529 360.561 307.362 Q366.719 298.149 378.339 298.149 Z" fill="#000000" fill-rule="nonzero" fill-opacity="1" /><path clip-path="url(#clip900)" d="M438.663 305.557 Q431.441 305.557 427.783 312.686 Q424.172 319.769 424.172 334.029 Q424.172 348.241 427.783 355.371 Q431.441 362.454 438.663 362.454 Q445.931 362.454 449.542 355.371 Q453.2 348.241 453.2 334.029 Q453.2 319.769 449.542 312.686 Q445.931 305.557 438.663 305.557 M438.663 298.149 Q450.283 298.149 456.394 307.362 Q462.552 316.529 462.552 334.029 Q462.552 351.482 456.394 360.695 Q450.283 369.862 438.663 369.862 Q427.043 369.862 420.885 360.695 Q414.774 351.482 414.774 334.029 Q414.774 316.529 420.885 307.362 Q427.043 298.149 438.663 298.149 Z" fill="#000000" fill-rule="nonzero" fill-opacity="1" /><path clip-path="url(#clip900)" d="M535.329 317.593 L514.172 338.843 L535.329 360.001 L529.82 365.602 L508.57 344.353 L487.32 365.602 L481.857 360.001 L502.968 338.843 L481.857 317.593 L487.32 311.992 L508.57 333.242 L529.82 311.992 L535.329 317.593 Z" fill="#000000" fill-rule="nonzero" fill-opacity="1" /><path clip-path="url(#clip900)" d="M560.051 360.649 L575.329 360.649 L575.329 307.918 L558.709 311.251 L558.709 302.732 L575.236 299.399 L584.588 299.399 L584.588 360.649 L599.866 360.649 L599.866 368.519 L560.051 368.519 L560.051 360.649 Z" fill="#000000" fill-rule="nonzero" fill-opacity="1" /><path clip-path="url(#clip900)" d="M638.754 305.557 Q631.532 305.557 627.875 312.686 Q624.264 319.769 624.264 334.029 Q624.264 348.241 627.875 355.371 Q631.532 362.454 638.754 362.454 Q646.023 362.454 649.634 355.371 Q653.291 348.241 653.291 334.029 Q653.291 319.769 649.634 312.686 Q646.023 305.557 638.754 305.557 M638.754 298.149 Q650.375 298.149 656.486 307.362 Q662.643 316.529 662.643 334.029 Q662.643 351.482 656.486 360.695 Q650.375 369.862 638.754 369.862 Q627.134 369.862 620.977 360.695 Q614.866 351.482 614.866 334.029 Q614.866 316.529 620.977 307.362 Q627.134 298.149 638.754 298.149 Z" fill="#000000" fill-rule="nonzero" fill-opacity="1" /><path clip-path="url(#clip900)" d="M687.996 264.159 L668.812 294.138 L687.996 294.138 L687.996 264.159 M686.002 257.538 L695.557 257.538 L695.557 294.138 L703.569 294.138 L703.569 300.458 L695.557 300.458 L695.557 313.698 L687.996 313.698 L687.996 300.458 L662.643 300.458 L662.643 293.123 L686.002 257.538 Z" fill="#000000" fill-rule="nonzero" fill-opacity="1" /><path clip-path="url(#clip900)" d="M100.663 1660.86 L96.0513 1660.86 L96.0513 1656.91 Q96.0513 1648.49 94.7337 1646.59 Q93.343 1644.61 88.9513 1644.61 L9.97378 1644.61 Q5.65526 1644.61 4.33775 1646.59 Q2.94704 1648.56 2.94704 1656.91 L2.94704 1660.86 L-1.73745 1660.86 Q-1.29828 1655.59 -1.29828 1637.88 Q-1.29828 1620.31 -1.73745 1615.11 L2.94704 1615.11 L2.94704 1618.99 Q2.94704 1627.41 4.33775 1629.39 Q5.65526 1631.29 9.97378 1631.29 L88.9513 1631.29 Q93.2698 1631.29 94.6606 1629.39 Q96.0513 1627.41 96.0513 1618.99 L96.0513 1615.11 L100.663 1615.11 Q100.223 1620.38 100.223 1638.02 Q100.223 1655.59 100.663 1660.86 Z" fill="#000000" fill-rule="nonzero" fill-opacity="1" /><path clip-path="url(#clip900)" d="M100.663 1595.29 L96.0513 1595.29 Q96.0513 1587.31 95.0997 1585.48 Q94.075 1583.65 89.2441 1583.65 L49.06 1583.65 Q43.4971 1583.65 42.1064 1585.63 Q40.7157 1587.53 40.7157 1595.29 L36.0312 1595.29 L34.421 1574.21 L50.1579 1574.21 Q34.421 1567.18 34.421 1552.03 Q34.421 1534.46 49.06 1532.05 Q43.3508 1529.49 38.8859 1524.14 Q34.421 1518.73 34.421 1510.31 Q34.421 1499.04 39.9838 1494.57 Q43.7167 1491.28 47.8889 1490.62 Q52.061 1489.96 62.8939 1489.96 L91.5132 1489.96 Q94.6606 1489.81 95.3925 1487.4 Q96.0513 1484.98 96.0513 1478.25 L100.663 1478.25 Q100.223 1493.55 100.223 1495.01 Q100.223 1496.18 100.663 1511.99 L96.0513 1511.99 Q96.0513 1504.01 95.0997 1502.18 Q94.075 1500.28 89.2441 1500.28 L54.33 1500.28 Q46.7177 1500.28 42.2528 1502.62 Q37.7147 1504.97 37.7147 1511.41 Q37.7147 1519.17 44.2291 1525.39 Q50.7435 1531.61 61.7227 1531.61 L89.2441 1531.61 Q94.075 1531.61 95.0997 1529.78 Q96.0513 1527.88 96.0513 1519.9 L100.663 1519.9 Q100.223 1535.2 100.223 1536.73 Q100.223 1537.9 100.663 1553.64 L96.0513 1553.64 Q96.0513 1545.66 95.0997 1543.83 Q94.075 1541.93 89.2441 1541.93 L54.33 1541.93 Q46.7177 1541.93 42.2528 1544.27 Q37.7147 1546.61 37.7147 1553.05 Q37.7147 1560.81 44.2291 1567.03 Q50.7435 1573.26 61.7227 1573.26 L89.2441 1573.26 Q94.075 1573.26 95.0997 1571.43 Q96.0513 1569.52 96.0513 1561.62 L100.663 1561.62 Q100.223 1576.92 100.223 1578.38 Q100.223 1579.55 100.663 1595.29 Z" fill="#000000" fill-rule="nonzero" fill-opacity="1" /><path clip-path="url(#clip900)" d="M138.138 1432.08 L-11.7652 1432.08 L-11.7652 1409.46 L-8.32501 1409.46 L-8.32501 1422.05 L134.698 1422.05 L134.698 1409.46 L138.138 1409.46 L138.138 1432.08 Z" fill="#000000" fill-rule="nonzero" fill-opacity="1" /><path clip-path="url(#clip900)" d="M100.809 1316.68 Q102.2 1316.68 102.346 1318.29 L102.346 1321.59 Q102.346 1324.96 101.834 1326.42 Q101.321 1327.88 98.9791 1329.57 Q97.5152 1330.59 90.708 1333.15 Q83.8277 1335.64 73.434 1339.3 Q63.0403 1342.89 56.8919 1345.3 L99.4914 1381.39 Q102.639 1383.88 102.639 1386.37 Q102.639 1388.2 101.395 1389.51 Q100.15 1390.83 98.2471 1390.83 Q96.8564 1390.83 96.0513 1390.32 Q95.2461 1389.73 93.6358 1388.2 L52.5733 1346.77 L11.8037 1361.33 Q4.26455 1364.11 2.36148 1365.72 Q0.458407 1367.26 -0.200349 1371.07 Q-0.566324 1372.46 -1.73745 1372.46 Q-3.34774 1372.46 -3.34774 1369.75 Q-3.34774 1355.26 7.26556 1351.45 L92.5379 1320.86 Q97.442 1319.17 99.4914 1317.42 Q100.443 1316.68 100.809 1316.68 Z" fill="#000000" fill-rule="nonzero" fill-opacity="1" /><path clip-path="url(#clip900)" d="M134.698 1304.35 L134.698 1291.76 L-8.32501 1291.76 L-8.32501 1304.35 L-11.7652 1304.35 L-11.7652 1281.73 L138.138 1281.73 L138.138 1304.35 L134.698 1304.35 Z" fill="#000000" fill-rule="nonzero" fill-opacity="1" /><circle clip-path="url(#clip902)" cx="1290.56" cy="2742.95" r="32.4" fill="#c271d2" fill-rule="evenodd" fill-opacity="1" stroke="#000000" stroke-opacity="1" stroke-width="6.4"/>
<circle clip-path="url(#clip902)" cx="1290.56" cy="181.008" r="32.4" fill="#c271d2" fill-rule="evenodd" fill-opacity="1" stroke="#000000" stroke-opacity="1" stroke-width="6.4"/>
<circle clip-path="url(#clip902)" cx="1296.54" cy="2724.09" r="32.4" fill="#c271d2" fill-rule="evenodd" fill-opacity="1" stroke="#000000" stroke-opacity="1" stroke-width="6.4"/>
<circle clip-path="url(#clip902)" cx="1296.54" cy="199.874" r="32.4" fill="#c271d2" fill-rule="evenodd" fill-opacity="1" stroke="#000000" stroke-opacity="1" stroke-width="6.4"/>
<circle clip-path="url(#clip902)" cx="1420.41" cy="2554.91" r="32.4" fill="#c271d2" fill-rule="evenodd" fill-opacity="1" stroke="#000000" stroke-opacity="1" stroke-width="6.4"/>
<circle clip-path="url(#clip902)" cx="1420.41" cy="369.052" r="32.4" fill="#c271d2" fill-rule="evenodd" fill-opacity="1" stroke="#000000" stroke-opacity="1" stroke-width="6.4"/>
<circle clip-path="url(#clip902)" cx="1446.34" cy="2531.71" r="32.4" fill="#c271d2" fill-rule="evenodd" fill-opacity="1" stroke="#000000" stroke-opacity="1" stroke-width="6.4"/>
<circle clip-path="url(#clip902)" cx="1446.34" cy="392.254" r="32.4" fill="#c271d2" fill-rule="evenodd" fill-opacity="1" stroke="#000000" stroke-opacity="1" stroke-width="6.4"/>
<circle clip-path="url(#clip902)" cx="1787.88" cy="2261.47" r="32.4" fill="#c271d2" fill-rule="evenodd" fill-opacity="1" stroke="#000000" stroke-opacity="1" stroke-width="6.4"/>
<circle clip-path="url(#clip902)" cx="1787.88" cy="662.487" r="32.4" fill="#c271d2" fill-rule="evenodd" fill-opacity="1" stroke="#000000" stroke-opacity="1" stroke-width="6.4"/>
<circle clip-path="url(#clip902)" cx="1850.11" cy="2232.94" r="32.4" fill="#c271d2" fill-rule="evenodd" fill-opacity="1" stroke="#000000" stroke-opacity="1" stroke-width="6.4"/>
<circle clip-path="url(#clip902)" cx="1850.11" cy="691.018" r="32.4" fill="#c271d2" fill-rule="evenodd" fill-opacity="1" stroke="#000000" stroke-opacity="1" stroke-width="6.4"/>
<circle clip-path="url(#clip902)" cx="2010.44" cy="1470.58" r="32.4" fill="#c271d2" fill-rule="evenodd" fill-opacity="1" stroke="#000000" stroke-opacity="1" stroke-width="6.4"/>
<circle clip-path="url(#clip902)" cx="2010.44" cy="1453.38" r="32.4" fill="#c271d2" fill-rule="evenodd" fill-opacity="1" stroke="#000000" stroke-opacity="1" stroke-width="6.4"/>
<circle clip-path="url(#clip902)" cx="2010.44" cy="1470.58" r="32.4" fill="#c271d2" fill-rule="evenodd" fill-opacity="1" stroke="#000000" stroke-opacity="1" stroke-width="6.4"/>
<circle clip-path="url(#clip902)" cx="2010.44" cy="1453.38" r="32.4" fill="#c271d2" fill-rule="evenodd" fill-opacity="1" stroke="#000000" stroke-opacity="1" stroke-width="6.4"/>
<circle clip-path="url(#clip902)" cx="2010.44" cy="1470.58" r="32.4" fill="#c271d2" fill-rule="evenodd" fill-opacity="1" stroke="#000000" stroke-opacity="1" stroke-width="6.4"/>
<circle clip-path="url(#clip902)" cx="2010.44" cy="1453.38" r="32.4" fill="#c271d2" fill-rule="evenodd" fill-opacity="1" stroke="#000000" stroke-opacity="1" stroke-width="6.4"/>
<circle clip-path="url(#clip902)" cx="2010.44" cy="1470.58" r="32.4" fill="#c271d2" fill-rule="evenodd" fill-opacity="1" stroke="#000000" stroke-opacity="1" stroke-width="6.4"/>
<circle clip-path="url(#clip902)" cx="2010.44" cy="1453.38" r="32.4" fill="#c271d2" fill-rule="evenodd" fill-opacity="1" stroke="#000000" stroke-opacity="1" stroke-width="6.4"/>
<circle clip-path="url(#clip902)" cx="2010.44" cy="1470.58" r="32.4" fill="#c271d2" fill-rule="evenodd" fill-opacity="1" stroke="#000000" stroke-opacity="1" stroke-width="6.4"/>
<circle clip-path="url(#clip902)" cx="2010.44" cy="1453.38" r="32.4" fill="#c271d2" fill-rule="evenodd" fill-opacity="1" stroke="#000000" stroke-opacity="1" stroke-width="6.4"/>
<circle clip-path="url(#clip902)" cx="2010.44" cy="1470.58" r="32.4" fill="#c271d2" fill-rule="evenodd" fill-opacity="1" stroke="#000000" stroke-opacity="1" stroke-width="6.4"/>
<circle clip-path="url(#clip902)" cx="2010.44" cy="1453.38" r="32.4" fill="#c271d2" fill-rule="evenodd" fill-opacity="1" stroke="#000000" stroke-opacity="1" stroke-width="6.4"/>
<circle clip-path="url(#clip902)" cx="2010.44" cy="1470.58" r="32.4" fill="#c271d2" fill-rule="evenodd" fill-opacity="1" stroke="#000000" stroke-opacity="1" stroke-width="6.4"/>
<circle clip-path="url(#clip902)" cx="2010.44" cy="1453.38" r="32.4" fill="#c271d2" fill-rule="evenodd" fill-opacity="1" stroke="#000000" stroke-opacity="1" stroke-width="6.4"/>
<circle clip-path="url(#clip902)" cx="2010.44" cy="1470.58" r="32.4" fill="#c271d2" fill-rule="evenodd" fill-opacity="1" stroke="#000000" stroke-opacity="1" stroke-width="6.4"/>
<circle clip-path="url(#clip902)" cx="2010.44" cy="1453.38" r="32.4" fill="#c271d2" fill-rule="evenodd" fill-opacity="1" stroke="#000000" stroke-opacity="1" stroke-width="6.4"/>
<circle clip-path="url(#clip902)" cx="2010.44" cy="1470.58" r="32.4" fill="#c271d2" fill-rule="evenodd" fill-opacity="1" stroke="#000000" stroke-opacity="1" stroke-width="6.4"/>
<circle clip-path="url(#clip902)" cx="2010.44" cy="1453.38" r="32.4" fill="#c271d2" fill-rule="evenodd" fill-opacity="1" stroke="#000000" stroke-opacity="1" stroke-width="6.4"/>
<circle clip-path="url(#clip902)" cx="2010.44" cy="1470.58" r="32.4" fill="#c271d2" fill-rule="evenodd" fill-opacity="1" stroke="#000000" stroke-opacity="1" stroke-width="6.4"/>
<circle clip-path="url(#clip902)" cx="2010.44" cy="1453.38" r="32.4" fill="#c271d2" fill-rule="evenodd" fill-opacity="1" stroke="#000000" stroke-opacity="1" stroke-width="6.4"/>
<circle clip-path="url(#clip902)" cx="2418.46" cy="1891.01" r="32.4" fill="#c271d2" fill-rule="evenodd" fill-opacity="1" stroke="#000000" stroke-opacity="1" stroke-width="6.4"/>
<circle clip-path="url(#clip902)" cx="2418.46" cy="1032.95" r="32.4" fill="#c271d2" fill-rule="evenodd" fill-opacity="1" stroke="#000000" stroke-opacity="1" stroke-width="6.4"/>
<circle clip-path="url(#clip902)" cx="2529.15" cy="1858.21" r="32.4" fill="#c271d2" fill-rule="evenodd" fill-opacity="1" stroke="#000000" stroke-opacity="1" stroke-width="6.4"/>
<circle clip-path="url(#clip902)" cx="2529.15" cy="1065.75" r="32.4" fill="#c271d2" fill-rule="evenodd" fill-opacity="1" stroke="#000000" stroke-opacity="1" stroke-width="6.4"/>
<circle clip-path="url(#clip902)" cx="2775.48" cy="1461.98" r="32.4" fill="#c271d2" fill-rule="evenodd" fill-opacity="1" stroke="#000000" stroke-opacity="1" stroke-width="6.4"/>
<circle clip-path="url(#clip902)" cx="2777.2" cy="1461.98" r="32.4" fill="#c271d2" fill-rule="evenodd" fill-opacity="1" stroke="#000000" stroke-opacity="1" stroke-width="6.4"/>
<circle clip-path="url(#clip902)" cx="2933.84" cy="1468.66" r="32.4" fill="#c271d2" fill-rule="evenodd" fill-opacity="1" stroke="#000000" stroke-opacity="1" stroke-width="6.4"/>
<circle clip-path="url(#clip902)" cx="2933.84" cy="1455.3" r="32.4" fill="#c271d2" fill-rule="evenodd" fill-opacity="1" stroke="#000000" stroke-opacity="1" stroke-width="6.4"/>
<circle clip-path="url(#clip902)" cx="3515.13" cy="1461.98" r="32.4" fill="#c271d2" fill-rule="evenodd" fill-opacity="1" stroke="#000000" stroke-opacity="1" stroke-width="6.4"/>
<circle clip-path="url(#clip902)" cx="3654.09" cy="1461.98" r="32.4" fill="#c271d2" fill-rule="evenodd" fill-opacity="1" stroke="#000000" stroke-opacity="1" stroke-width="6.4"/>
<circle clip-path="url(#clip902)" cx="3656.78" cy="1461.98" r="32.4" fill="#c271d2" fill-rule="evenodd" fill-opacity="1" stroke="#000000" stroke-opacity="1" stroke-width="6.4"/>
<circle clip-path="url(#clip902)" cx="3710.01" cy="1461.98" r="32.4" fill="#c271d2" fill-rule="evenodd" fill-opacity="1" stroke="#000000" stroke-opacity="1" stroke-width="6.4"/>
<circle clip-path="url(#clip902)" cx="3750.92" cy="1462.54" r="32.4" fill="#c271d2" fill-rule="evenodd" fill-opacity="1" stroke="#000000" stroke-opacity="1" stroke-width="6.4"/>
<circle clip-path="url(#clip902)" cx="3750.92" cy="1461.42" r="32.4" fill="#c271d2" fill-rule="evenodd" fill-opacity="1" stroke="#000000" stroke-opacity="1" stroke-width="6.4"/>
<circle clip-path="url(#clip902)" cx="3819.62" cy="1462.14" r="32.4" fill="#c271d2" fill-rule="evenodd" fill-opacity="1" stroke="#000000" stroke-opacity="1" stroke-width="6.4"/>
<circle clip-path="url(#clip902)" cx="3819.62" cy="1461.82" r="32.4" fill="#c271d2" fill-rule="evenodd" fill-opacity="1" stroke="#000000" stroke-opacity="1" stroke-width="6.4"/>
<circle clip-path="url(#clip902)" cx="3855.39" cy="1462" r="32.4" fill="#c271d2" fill-rule="evenodd" fill-opacity="1" stroke="#000000" stroke-opacity="1" stroke-width="6.4"/>
<circle clip-path="url(#clip902)" cx="3855.39" cy="1461.96" r="32.4" fill="#c271d2" fill-rule="evenodd" fill-opacity="1" stroke="#000000" stroke-opacity="1" stroke-width="6.4"/>
<circle clip-path="url(#clip902)" cx="3885.2" cy="1461.98" r="32.4" fill="#c271d2" fill-rule="evenodd" fill-opacity="1" stroke="#000000" stroke-opacity="1" stroke-width="6.4"/>
<circle clip-path="url(#clip902)" cx="3900.45" cy="1462.01" r="32.4" fill="#c271d2" fill-rule="evenodd" fill-opacity="1" stroke="#000000" stroke-opacity="1" stroke-width="6.4"/>
<circle clip-path="url(#clip902)" cx="3900.45" cy="1461.95" r="32.4" fill="#c271d2" fill-rule="evenodd" fill-opacity="1" stroke="#000000" stroke-opacity="1" stroke-width="6.4"/>
<circle clip-path="url(#clip902)" cx="1291.03" cy="2742.95" r="21.6" fill="#ffe1ff" fill-rule="evenodd" fill-opacity="1" stroke="#000000" stroke-opacity="1" stroke-width="3.84"/>
<circle clip-path="url(#clip902)" cx="1291.03" cy="181.008" r="21.6" fill="#ffe1ff" fill-rule="evenodd" fill-opacity="1" stroke="#000000" stroke-opacity="1" stroke-width="3.84"/>
<circle clip-path="url(#clip902)" cx="1296.54" cy="2724.09" r="21.6" fill="#ffe1ff" fill-rule="evenodd" fill-opacity="1" stroke="#000000" stroke-opacity="1" stroke-width="3.84"/>
<circle clip-path="url(#clip902)" cx="1296.54" cy="199.874" r="21.6" fill="#ffe1ff" fill-rule="evenodd" fill-opacity="1" stroke="#000000" stroke-opacity="1" stroke-width="3.84"/>
<circle clip-path="url(#clip902)" cx="1421.96" cy="2554.91" r="21.6" fill="#ffe1ff" fill-rule="evenodd" fill-opacity="1" stroke="#000000" stroke-opacity="1" stroke-width="3.84"/>
<circle clip-path="url(#clip902)" cx="1421.96" cy="369.052" r="21.6" fill="#ffe1ff" fill-rule="evenodd" fill-opacity="1" stroke="#000000" stroke-opacity="1" stroke-width="3.84"/>
<circle clip-path="url(#clip902)" cx="1446.42" cy="2531.71" r="21.6" fill="#ffe1ff" fill-rule="evenodd" fill-opacity="1" stroke="#000000" stroke-opacity="1" stroke-width="3.84"/>
<circle clip-path="url(#clip902)" cx="1446.42" cy="392.254" r="21.6" fill="#ffe1ff" fill-rule="evenodd" fill-opacity="1" stroke="#000000" stroke-opacity="1" stroke-width="3.84"/>
<circle clip-path="url(#clip902)" cx="1791.09" cy="2261.47" r="21.6" fill="#ffe1ff" fill-rule="evenodd" fill-opacity="1" stroke="#000000" stroke-opacity="1" stroke-width="3.84"/>
<circle clip-path="url(#clip902)" cx="1791.09" cy="662.486" r="21.6" fill="#ffe1ff" fill-rule="evenodd" fill-opacity="1" stroke="#000000" stroke-opacity="1" stroke-width="3.84"/>
<circle clip-path="url(#clip902)" cx="1851.31" cy="2232.94" r="21.6" fill="#ffe1ff" fill-rule="evenodd" fill-opacity="1" stroke="#000000" stroke-opacity="1" stroke-width="3.84"/>
<circle clip-path="url(#clip902)" cx="1851.31" cy="691.018" r="21.6" fill="#ffe1ff" fill-rule="evenodd" fill-opacity="1" stroke="#000000" stroke-opacity="1" stroke-width="3.84"/>
<circle clip-path="url(#clip902)" cx="2010.44" cy="1470.58" r="21.6" fill="#ffe1ff" fill-rule="evenodd" fill-opacity="1" stroke="#000000" stroke-opacity="1" stroke-width="3.84"/>
<circle clip-path="url(#clip902)" cx="2010.44" cy="1453.38" r="21.6" fill="#ffe1ff" fill-rule="evenodd" fill-opacity="1" stroke="#000000" stroke-opacity="1" stroke-width="3.84"/>
<circle clip-path="url(#clip902)" cx="2010.44" cy="1470.58" r="21.6" fill="#ffe1ff" fill-rule="evenodd" fill-opacity="1" stroke="#000000" stroke-opacity="1" stroke-width="3.84"/>
<circle clip-path="url(#clip902)" cx="2010.44" cy="1453.38" r="21.6" fill="#ffe1ff" fill-rule="evenodd" fill-opacity="1" stroke="#000000" stroke-opacity="1" stroke-width="3.84"/>
<circle clip-path="url(#clip902)" cx="2010.44" cy="1470.58" r="21.6" fill="#ffe1ff" fill-rule="evenodd" fill-opacity="1" stroke="#000000" stroke-opacity="1" stroke-width="3.84"/>
<circle clip-path="url(#clip902)" cx="2010.44" cy="1453.38" r="21.6" fill="#ffe1ff" fill-rule="evenodd" fill-opacity="1" stroke="#000000" stroke-opacity="1" stroke-width="3.84"/>
<circle clip-path="url(#clip902)" cx="2010.44" cy="1470.58" r="21.6" fill="#ffe1ff" fill-rule="evenodd" fill-opacity="1" stroke="#000000" stroke-opacity="1" stroke-width="3.84"/>
<circle clip-path="url(#clip902)" cx="2010.44" cy="1453.38" r="21.6" fill="#ffe1ff" fill-rule="evenodd" fill-opacity="1" stroke="#000000" stroke-opacity="1" stroke-width="3.84"/>
<circle clip-path="url(#clip902)" cx="2010.44" cy="1470.58" r="21.6" fill="#ffe1ff" fill-rule="evenodd" fill-opacity="1" stroke="#000000" stroke-opacity="1" stroke-width="3.84"/>
<circle clip-path="url(#clip902)" cx="2010.44" cy="1453.38" r="21.6" fill="#ffe1ff" fill-rule="evenodd" fill-opacity="1" stroke="#000000" stroke-opacity="1" stroke-width="3.84"/>
<circle clip-path="url(#clip902)" cx="2010.44" cy="1470.58" r="21.6" fill="#ffe1ff" fill-rule="evenodd" fill-opacity="1" stroke="#000000" stroke-opacity="1" stroke-width="3.84"/>
<circle clip-path="url(#clip902)" cx="2010.44" cy="1453.38" r="21.6" fill="#ffe1ff" fill-rule="evenodd" fill-opacity="1" stroke="#000000" stroke-opacity="1" stroke-width="3.84"/>
<circle clip-path="url(#clip902)" cx="2010.44" cy="1470.58" r="21.6" fill="#ffe1ff" fill-rule="evenodd" fill-opacity="1" stroke="#000000" stroke-opacity="1" stroke-width="3.84"/>
<circle clip-path="url(#clip902)" cx="2010.44" cy="1453.38" r="21.6" fill="#ffe1ff" fill-rule="evenodd" fill-opacity="1" stroke="#000000" stroke-opacity="1" stroke-width="3.84"/>
<circle clip-path="url(#clip902)" cx="2010.44" cy="1470.58" r="21.6" fill="#ffe1ff" fill-rule="evenodd" fill-opacity="1" stroke="#000000" stroke-opacity="1" stroke-width="3.84"/>
<circle clip-path="url(#clip902)" cx="2010.44" cy="1453.38" r="21.6" fill="#ffe1ff" fill-rule="evenodd" fill-opacity="1" stroke="#000000" stroke-opacity="1" stroke-width="3.84"/>
<circle clip-path="url(#clip902)" cx="2010.44" cy="1470.58" r="21.6" fill="#ffe1ff" fill-rule="evenodd" fill-opacity="1" stroke="#000000" stroke-opacity="1" stroke-width="3.84"/>
<circle clip-path="url(#clip902)" cx="2010.44" cy="1453.38" r="21.6" fill="#ffe1ff" fill-rule="evenodd" fill-opacity="1" stroke="#000000" stroke-opacity="1" stroke-width="3.84"/>
<circle clip-path="url(#clip902)" cx="2010.44" cy="1470.58" r="21.6" fill="#ffe1ff" fill-rule="evenodd" fill-opacity="1" stroke="#000000" stroke-opacity="1" stroke-width="3.84"/>
<circle clip-path="url(#clip902)" cx="2010.44" cy="1453.38" r="21.6" fill="#ffe1ff" fill-rule="evenodd" fill-opacity="1" stroke="#000000" stroke-opacity="1" stroke-width="3.84"/>
<circle clip-path="url(#clip902)" cx="2429.24" cy="1891.01" r="21.6" fill="#ffe1ff" fill-rule="evenodd" fill-opacity="1" stroke="#000000" stroke-opacity="1" stroke-width="3.84"/>
<circle clip-path="url(#clip902)" cx="2429.24" cy="1032.95" r="21.6" fill="#ffe1ff" fill-rule="evenodd" fill-opacity="1" stroke="#000000" stroke-opacity="1" stroke-width="3.84"/>
<circle clip-path="url(#clip902)" cx="2538.69" cy="1858.21" r="21.6" fill="#ffe1ff" fill-rule="evenodd" fill-opacity="1" stroke="#000000" stroke-opacity="1" stroke-width="3.84"/>
<circle clip-path="url(#clip902)" cx="2538.69" cy="1065.75" r="21.6" fill="#ffe1ff" fill-rule="evenodd" fill-opacity="1" stroke="#000000" stroke-opacity="1" stroke-width="3.84"/>
<circle clip-path="url(#clip902)" cx="2775.87" cy="1461.98" r="21.6" fill="#ffe1ff" fill-rule="evenodd" fill-opacity="1" stroke="#000000" stroke-opacity="1" stroke-width="3.84"/>
<circle clip-path="url(#clip902)" cx="2778.65" cy="1461.98" r="21.6" fill="#ffe1ff" fill-rule="evenodd" fill-opacity="1" stroke="#000000" stroke-opacity="1" stroke-width="3.84"/>
<circle clip-path="url(#clip902)" cx="2927.7" cy="1468.87" r="21.6" fill="#ffe1ff" fill-rule="evenodd" fill-opacity="1" stroke="#000000" stroke-opacity="1" stroke-width="3.84"/>
<circle clip-path="url(#clip902)" cx="2927.7" cy="1455.09" r="21.6" fill="#ffe1ff" fill-rule="evenodd" fill-opacity="1" stroke="#000000" stroke-opacity="1" stroke-width="3.84"/>
<circle clip-path="url(#clip902)" cx="3582.73" cy="1462.02" r="21.6" fill="#ffe1ff" fill-rule="evenodd" fill-opacity="1" stroke="#000000" stroke-opacity="1" stroke-width="3.84"/>
<circle clip-path="url(#clip902)" cx="3582.73" cy="1461.94" r="21.6" fill="#ffe1ff" fill-rule="evenodd" fill-opacity="1" stroke="#000000" stroke-opacity="1" stroke-width="3.84"/>
<circle clip-path="url(#clip902)" cx="3639.67" cy="1462.02" r="21.6" fill="#ffe1ff" fill-rule="evenodd" fill-opacity="1" stroke="#000000" stroke-opacity="1" stroke-width="3.84"/>
<circle clip-path="url(#clip902)" cx="3639.67" cy="1461.94" r="21.6" fill="#ffe1ff" fill-rule="evenodd" fill-opacity="1" stroke="#000000" stroke-opacity="1" stroke-width="3.84"/>
<circle clip-path="url(#clip902)" cx="3654.13" cy="1461.98" r="21.6" fill="#ffe1ff" fill-rule="evenodd" fill-opacity="1" stroke="#000000" stroke-opacity="1" stroke-width="3.84"/>
<circle clip-path="url(#clip902)" cx="3702.63" cy="1462.14" r="21.6" fill="#ffe1ff" fill-rule="evenodd" fill-opacity="1" stroke="#000000" stroke-opacity="1" stroke-width="3.84"/>
<circle clip-path="url(#clip902)" cx="3702.63" cy="1461.82" r="21.6" fill="#ffe1ff" fill-rule="evenodd" fill-opacity="1" stroke="#000000" stroke-opacity="1" stroke-width="3.84"/>
<circle clip-path="url(#clip902)" cx="3812.59" cy="1462.48" r="21.6" fill="#ffe1ff" fill-rule="evenodd" fill-opacity="1" stroke="#000000" stroke-opacity="1" stroke-width="3.84"/>
<circle clip-path="url(#clip902)" cx="3812.59" cy="1461.48" r="21.6" fill="#ffe1ff" fill-rule="evenodd" fill-opacity="1" stroke="#000000" stroke-opacity="1" stroke-width="3.84"/>
<circle clip-path="url(#clip902)" cx="3879.42" cy="1461.98" r="21.6" fill="#ffe1ff" fill-rule="evenodd" fill-opacity="1" stroke="#000000" stroke-opacity="1" stroke-width="3.84"/>
<circle clip-path="url(#clip902)" cx="3882.45" cy="1461.98" r="21.6" fill="#ffe1ff" fill-rule="evenodd" fill-opacity="1" stroke="#000000" stroke-opacity="1" stroke-width="3.84"/>
<circle clip-path="url(#clip902)" cx="3913.45" cy="1462.01" r="21.6" fill="#ffe1ff" fill-rule="evenodd" fill-opacity="1" stroke="#000000" stroke-opacity="1" stroke-width="3.84"/>
<circle clip-path="url(#clip902)" cx="3913.45" cy="1461.95" r="21.6" fill="#ffe1ff" fill-rule="evenodd" fill-opacity="1" stroke="#000000" stroke-opacity="1" stroke-width="3.84"/>
<polyline clip-path="url(#clip902)" style="stroke:#ffa500; stroke-linecap:round; stroke-linejoin:round; stroke-width:8; stroke-opacity:1; fill:none" stroke-dasharray="4, 8" points="3862.92,1393.87 3627.92,1037.56 "/>
<polyline clip-path="url(#clip902)" style="stroke:#ffa500; stroke-linecap:round; stroke-linejoin:round; stroke-width:8; stroke-opacity:1; fill:none" stroke-dasharray="4, 8" points="3862.92,1576.07 3862.92,1347.89 3952.76,1347.89 3952.76,1576.07 3862.92,1576.07 "/>
<path clip-path="url(#clip900)" d="M3229.47 2782.4 L3846.45 2782.4 L3846.45 2367.68 L3229.47 2367.68  Z" fill="#ffffff" fill-rule="evenodd" fill-opacity="1"/>
<polyline clip-path="url(#clip900)" style="stroke:#000000; stroke-linecap:round; stroke-linejoin:round; stroke-width:4; stroke-opacity:1; fill:none" points="3229.47,2782.4 3846.45,2782.4 3846.45,2367.68 3229.47,2367.68 3229.47,2782.4 "/>
<path clip-path="url(#clip900)" d="M3446.48 2477.36 Q3446.48 2477.55 3446.22 2478.29 L3441.01 2492.52 Q3440.72 2493.36 3440.43 2493.52 Q3440.14 2493.65 3438.95 2493.65 L3408.41 2493.65 Q3407.67 2493.65 3407.38 2493.62 Q3407.09 2493.59 3406.87 2493.43 Q3406.64 2493.27 3406.64 2492.91 Q3406.64 2492.27 3406.87 2491.98 Q3407.13 2491.69 3407.42 2491.66 Q3407.71 2491.62 3408.41 2491.62 Q3410.03 2491.62 3410.99 2491.53 Q3411.96 2491.43 3412.57 2491.3 Q3413.21 2491.14 3413.54 2490.69 Q3413.89 2490.24 3414.05 2489.85 Q3414.21 2489.43 3414.44 2488.5 L3423.26 2453.07 Q3423.52 2452.01 3423.52 2451.85 Q3423.52 2451.24 3423.13 2451.08 Q3422.78 2450.88 3421.75 2450.79 L3419.24 2450.66 Q3418.46 2450.66 3418.14 2450.62 Q3417.85 2450.59 3417.63 2450.43 Q3417.4 2450.27 3417.4 2449.92 Q3417.4 2449.3 3417.63 2449.01 Q3417.88 2448.69 3418.08 2448.66 Q3418.3 2448.6 3418.66 2448.6 L3427.42 2448.79 L3437.17 2448.6 Q3438.24 2448.6 3438.24 2449.4 Q3438.24 2450.3 3437.79 2450.5 Q3437.34 2450.66 3435.73 2450.66 Q3432.63 2450.66 3431.22 2450.98 Q3429.83 2451.3 3429.45 2451.85 Q3429.09 2452.36 3428.74 2453.75 L3419.82 2489.37 Q3419.49 2490.56 3419.49 2490.88 Q3419.49 2491.24 3419.65 2491.37 Q3419.85 2491.46 3420.36 2491.53 Q3420.94 2491.62 3421.81 2491.62 L3428 2491.62 Q3429.86 2491.62 3431.51 2491.33 Q3433.15 2491.04 3434.41 2490.62 Q3435.69 2490.21 3436.85 2489.43 Q3438.01 2488.66 3438.82 2487.98 Q3439.65 2487.28 3440.46 2486.18 Q3441.3 2485.05 3441.78 2484.28 Q3442.3 2483.47 3442.88 2482.19 Q3443.45 2480.87 3443.74 2480.13 Q3444.07 2479.35 3444.55 2478.03 Q3444.84 2477.36 3444.94 2477.16 Q3445.03 2476.97 3445.19 2476.81 Q3445.39 2476.65 3445.68 2476.65 Q3446.06 2476.65 3446.26 2476.87 Q3446.48 2477.1 3446.48 2477.36 Z" fill="#000000" fill-rule="nonzero" fill-opacity="1" /><path clip-path="url(#clip900)" d="M3466.62 2452.43 Q3466.62 2453.85 3465.46 2454.91 Q3464.34 2455.94 3463.11 2455.94 Q3461.99 2455.94 3461.28 2455.26 Q3460.6 2454.55 3460.6 2453.56 Q3460.6 2452.24 3461.73 2451.14 Q3462.86 2450.05 3464.18 2450.05 Q3465.27 2450.05 3465.95 2450.72 Q3466.62 2451.4 3466.62 2452.43 M3467.2 2484.22 Q3467.2 2484.47 3466.91 2485.5 Q3466.62 2486.5 3465.91 2488.05 Q3465.24 2489.56 3464.3 2490.98 Q3463.37 2492.4 3461.82 2493.39 Q3460.31 2494.39 3458.57 2494.39 Q3456.22 2494.39 3454.67 2492.85 Q3453.16 2491.3 3453.16 2488.98 Q3453.16 2487.73 3454.67 2483.7 Q3459.05 2471.98 3459.22 2471.49 Q3459.96 2469.66 3459.96 2468.05 Q3459.96 2467.31 3459.8 2466.86 Q3459.63 2466.37 3459.31 2466.21 Q3458.99 2466.02 3458.8 2465.99 Q3458.64 2465.95 3458.31 2465.95 Q3456.41 2465.95 3454.64 2467.89 Q3452.87 2469.82 3451.65 2474.14 Q3451.39 2474.94 3451.23 2475.13 Q3451.07 2475.33 3450.58 2475.33 Q3449.78 2475.29 3449.78 2474.65 Q3449.78 2474.46 3450 2473.72 Q3450.23 2472.94 3450.65 2471.78 Q3451.07 2470.59 3451.81 2469.37 Q3452.55 2468.11 3453.45 2467.02 Q3454.38 2465.92 3455.71 2465.21 Q3457.03 2464.51 3458.51 2464.51 Q3460.92 2464.51 3462.4 2466.08 Q3463.92 2467.63 3463.92 2469.92 Q3463.92 2471.17 3463.05 2473.39 Q3461.99 2476.29 3461.6 2477.23 L3459.02 2484.15 Q3458.09 2486.66 3457.8 2487.44 Q3457.54 2488.18 3457.32 2489.08 Q3457.12 2489.95 3457.12 2490.75 Q3457.12 2491.88 3457.48 2492.4 Q3457.86 2492.91 3458.7 2492.91 Q3461.02 2492.91 3462.73 2490.62 Q3464.43 2488.31 3465.43 2484.76 Q3465.46 2484.67 3465.5 2484.51 Q3465.75 2483.7 3466.01 2483.6 Q3466.14 2483.57 3466.4 2483.57 Q3467.2 2483.57 3467.2 2484.22 Z" fill="#000000" fill-rule="nonzero" fill-opacity="1" /><path clip-path="url(#clip900)" d="M3508.57 2484.22 Q3508.57 2484.47 3508.28 2485.47 Q3507.99 2486.47 3507.28 2488.02 Q3506.61 2489.56 3505.67 2490.98 Q3504.74 2492.36 3503.19 2493.39 Q3501.68 2494.39 3499.94 2494.39 Q3497.62 2494.39 3496.08 2492.85 Q3494.53 2491.3 3494.53 2488.98 Q3494.53 2487.69 3495.21 2485.92 Q3499.49 2474.49 3499.49 2470.56 Q3499.49 2465.95 3495.91 2465.95 Q3494.14 2465.95 3492.47 2466.63 Q3490.83 2467.28 3489.7 2468.18 Q3488.57 2469.08 3487.54 2470.33 Q3486.54 2471.56 3486.03 2472.4 Q3485.54 2473.2 3485.16 2474.01 L3484.32 2477.29 Q3484.13 2478.19 3483.19 2481.7 L3481.74 2487.66 Q3480.71 2492.11 3480.49 2492.52 Q3480.17 2493.43 3479.46 2493.91 Q3478.75 2494.39 3478.04 2494.39 Q3477.23 2494.39 3476.69 2493.91 Q3476.14 2493.43 3476.14 2492.59 Q3476.14 2492.46 3476.24 2491.98 Q3476.33 2491.49 3476.49 2490.82 Q3476.65 2490.14 3476.72 2489.75 L3480.55 2474.52 Q3481.26 2471.75 3481.42 2470.88 Q3481.61 2469.98 3481.61 2468.98 Q3481.61 2465.95 3479.55 2465.95 Q3477.88 2465.95 3476.78 2467.95 Q3475.69 2469.95 3474.75 2473.81 Q3474.46 2474.88 3474.27 2475.1 Q3474.11 2475.33 3473.63 2475.33 Q3472.82 2475.29 3472.82 2474.65 Q3472.82 2474.49 3473.08 2473.43 Q3473.34 2472.36 3473.82 2470.85 Q3474.34 2469.3 3474.82 2468.27 Q3475.24 2467.5 3475.46 2467.15 Q3475.72 2466.76 3476.33 2466.02 Q3476.98 2465.25 3477.81 2464.89 Q3478.68 2464.51 3479.75 2464.51 Q3482.13 2464.51 3483.87 2466.05 Q3485.61 2467.57 3485.83 2470.24 Q3490.12 2464.51 3496.11 2464.51 Q3499.65 2464.51 3501.68 2466.37 Q3503.71 2468.24 3503.71 2471.56 Q3503.71 2472.33 3503.55 2473.33 Q3503.42 2474.3 3503.1 2475.52 Q3502.81 2476.74 3502.55 2477.68 Q3502.29 2478.61 3501.78 2480.13 Q3501.26 2481.61 3501.03 2482.25 Q3500.81 2482.9 3500.26 2484.41 Q3499.75 2485.89 3499.68 2486.05 Q3498.49 2489.05 3498.49 2490.75 Q3498.49 2491.88 3498.84 2492.4 Q3499.23 2492.91 3500.07 2492.91 Q3502.32 2492.91 3504 2490.69 Q3505.7 2488.43 3506.8 2484.76 Q3507.06 2483.96 3507.19 2483.76 Q3507.35 2483.57 3507.8 2483.57 Q3508.57 2483.57 3508.57 2484.22 Z" fill="#000000" fill-rule="nonzero" fill-opacity="1" /><path clip-path="url(#clip900)" d="M3538.92 2486.02 Q3539.18 2486.31 3539.18 2486.6 Q3539.18 2486.89 3538.53 2487.73 Q3537.92 2488.56 3536.6 2489.69 Q3535.28 2490.82 3533.57 2491.88 Q3531.87 2492.94 3529.36 2493.65 Q3526.84 2494.39 3524.2 2494.39 Q3519.47 2494.39 3516.63 2491.01 Q3513.83 2487.63 3513.83 2482.44 Q3513.83 2479.13 3514.93 2476.2 Q3516.02 2473.23 3517.79 2471.14 Q3519.6 2469.05 3521.85 2467.53 Q3524.14 2465.99 3526.52 2465.25 Q3528.9 2464.51 3531.13 2464.51 Q3534.38 2464.51 3536.28 2466.15 Q3538.18 2467.79 3538.18 2470.11 Q3538.18 2470.66 3538.02 2471.33 Q3537.89 2472.01 3537.44 2473.07 Q3537.02 2474.14 3535.93 2475.2 Q3534.83 2476.23 3533.22 2476.9 Q3529.65 2478.42 3523.14 2478.42 L3519.63 2478.42 Q3518.6 2482.57 3518.6 2485.28 Q3518.6 2486.34 3518.79 2487.44 Q3518.99 2488.5 3519.5 2489.85 Q3520.05 2491.2 3521.27 2492.07 Q3522.53 2492.91 3524.33 2492.91 Q3524.91 2492.91 3525.52 2492.88 Q3526.17 2492.85 3527.78 2492.49 Q3529.42 2492.14 3530.87 2491.53 Q3532.32 2490.91 3534.15 2489.59 Q3536.02 2488.24 3537.5 2486.41 Q3538.02 2485.73 3538.37 2485.73 Q3538.66 2485.73 3538.92 2486.02 M3535.99 2470.11 Q3535.99 2468.34 3534.67 2467.15 Q3533.38 2465.95 3531.13 2465.95 Q3530.42 2465.95 3529.55 2466.12 Q3528.68 2466.28 3527.23 2466.95 Q3525.81 2467.63 3524.56 2468.76 Q3523.3 2469.85 3522.04 2472.01 Q3520.79 2474.14 3520.05 2476.97 L3522.75 2476.97 Q3523.69 2476.97 3524.36 2476.97 Q3525.04 2476.94 3526.52 2476.81 Q3528.04 2476.68 3529.13 2476.45 Q3530.23 2476.2 3531.61 2475.68 Q3532.99 2475.17 3533.86 2474.49 Q3534.77 2473.78 3535.38 2472.65 Q3535.99 2471.53 3535.99 2470.11 Z" fill="#000000" fill-rule="nonzero" fill-opacity="1" /><path clip-path="url(#clip900)" d="M3585.97 2470.17 Q3585.97 2471.98 3585.07 2472.94 Q3584.17 2473.88 3582.94 2473.88 Q3581.94 2473.88 3581.4 2473.3 Q3580.88 2472.72 3580.88 2471.95 Q3580.88 2470.82 3581.78 2469.92 Q3582.72 2469.01 3584.07 2468.98 Q3583.62 2467.79 3582.43 2467.08 Q3581.24 2466.34 3580.17 2466.15 Q3579.14 2465.95 3578.11 2465.95 Q3576.08 2465.95 3574.54 2466.6 Q3572.99 2467.24 3572.22 2468.24 Q3571.44 2469.21 3571.09 2470.14 Q3570.74 2471.08 3570.74 2471.88 Q3570.74 2472.59 3570.9 2473.17 Q3571.09 2473.72 3571.54 2474.14 Q3571.99 2474.52 3572.31 2474.78 Q3572.67 2475.04 3573.44 2475.26 Q3574.21 2475.49 3574.54 2475.58 Q3574.86 2475.65 3575.76 2475.84 Q3577.63 2476.23 3578.47 2476.45 Q3579.3 2476.65 3580.4 2477.19 Q3581.53 2477.74 3582.36 2478.61 Q3584.39 2480.64 3584.39 2483.44 Q3584.39 2484.47 3584.04 2485.73 Q3583.72 2486.99 3582.78 2488.56 Q3581.85 2490.14 3580.43 2491.4 Q3579.01 2492.65 3576.57 2493.52 Q3574.15 2494.39 3571.12 2494.39 Q3566.9 2494.39 3564.3 2492.62 Q3561.69 2490.82 3561.69 2487.98 Q3561.69 2485.92 3562.81 2484.8 Q3563.94 2483.64 3565.39 2483.64 Q3566.49 2483.64 3567.16 2484.25 Q3567.84 2484.83 3567.84 2485.92 Q3567.84 2487.4 3566.65 2488.53 Q3565.45 2489.66 3563.68 2489.43 Q3565.2 2492.91 3571.19 2492.91 Q3573.44 2492.91 3575.18 2492.33 Q3576.95 2491.72 3577.92 2490.88 Q3578.92 2490.01 3579.56 2488.95 Q3580.2 2487.89 3580.4 2487.08 Q3580.62 2486.28 3580.62 2485.66 Q3580.62 2484.6 3580.2 2483.8 Q3579.79 2482.99 3579.21 2482.54 Q3578.66 2482.06 3577.6 2481.67 Q3576.57 2481.25 3575.82 2481.09 Q3575.08 2480.93 3573.76 2480.67 Q3573.15 2480.54 3572.77 2480.48 Q3572.38 2480.38 3571.57 2480.13 Q3570.8 2479.84 3570.25 2479.55 Q3569.74 2479.26 3569.06 2478.74 Q3568.39 2478.23 3567.97 2477.61 Q3567.55 2477 3567.26 2476.1 Q3566.97 2475.2 3566.97 2474.14 Q3566.97 2473.17 3567.26 2472.01 Q3567.58 2470.85 3568.39 2469.5 Q3569.22 2468.14 3570.41 2467.05 Q3571.61 2465.95 3573.6 2465.25 Q3575.63 2464.51 3578.11 2464.51 Q3581.72 2464.51 3583.84 2466.18 Q3585.97 2467.82 3585.97 2470.17 Z" fill="#000000" fill-rule="nonzero" fill-opacity="1" /><path clip-path="url(#clip900)" d="M3617.45 2486.02 Q3617.71 2486.31 3617.71 2486.6 Q3617.71 2486.89 3617.06 2487.73 Q3616.45 2488.56 3615.13 2489.69 Q3613.81 2490.82 3612.1 2491.88 Q3610.39 2492.94 3607.88 2493.65 Q3605.37 2494.39 3602.73 2494.39 Q3597.8 2494.39 3594.9 2491.14 Q3592.04 2487.89 3592.04 2483.22 Q3592.04 2478.68 3594.58 2474.33 Q3597.13 2469.95 3601.25 2467.24 Q3605.37 2464.51 3609.72 2464.51 Q3613.16 2464.51 3615.32 2466.12 Q3617.48 2467.73 3617.48 2470.17 Q3617.48 2472.07 3616.39 2473.23 Q3615.29 2474.39 3613.81 2474.39 Q3612.78 2474.39 3612.07 2473.81 Q3611.36 2473.2 3611.36 2472.07 Q3611.36 2470.62 3612.55 2469.5 Q3613 2469.05 3613.52 2468.85 Q3614.07 2468.63 3614.39 2468.63 Q3614.71 2468.6 3615.45 2468.6 Q3614.77 2467.34 3613.16 2466.66 Q3611.59 2465.95 3609.78 2465.95 Q3607.11 2465.95 3604.57 2467.82 Q3602.02 2469.66 3600.48 2472.56 Q3598.93 2475.39 3597.93 2479.42 Q3596.93 2483.41 3596.93 2485.73 Q3596.93 2488.92 3598.41 2490.91 Q3599.9 2492.91 3602.86 2492.91 Q3603.44 2492.91 3604.05 2492.88 Q3604.69 2492.85 3606.3 2492.49 Q3607.95 2492.14 3609.4 2491.53 Q3610.85 2490.91 3612.68 2489.59 Q3614.55 2488.24 3616.03 2486.41 Q3616.55 2485.73 3616.9 2485.73 Q3617.19 2485.73 3617.45 2486.02 Z" fill="#000000" fill-rule="nonzero" fill-opacity="1" /><path clip-path="url(#clip900)" d="M3649.97 2484.22 Q3649.1 2488.37 3647.98 2490.75 Q3646.17 2494.39 3643.11 2494.39 Q3640.8 2494.39 3639.15 2492.98 Q3637.51 2491.56 3637.12 2489.43 Q3632.9 2494.39 3628.52 2494.39 Q3624.66 2494.39 3622.21 2491.46 Q3619.76 2488.5 3619.76 2483.83 Q3619.76 2479.13 3622.08 2474.62 Q3624.43 2470.11 3628.14 2467.31 Q3631.84 2464.51 3635.64 2464.51 Q3639.67 2464.51 3641.73 2468.72 Q3641.89 2467.57 3642.63 2466.7 Q3643.37 2465.83 3644.5 2465.83 Q3645.37 2465.83 3645.88 2466.31 Q3646.4 2466.76 3646.4 2467.6 Q3646.4 2468.02 3645.95 2469.85 L3643.57 2479.06 L3642.12 2485.02 Q3641.57 2487.21 3641.41 2488.02 Q3641.28 2488.82 3641.28 2489.88 Q3641.28 2492.91 3643.24 2492.91 Q3644.21 2492.91 3644.98 2492.3 Q3645.76 2491.69 3646.37 2490.4 Q3646.98 2489.11 3647.37 2487.92 Q3647.75 2486.7 3648.27 2484.76 Q3648.43 2483.99 3648.56 2483.8 Q3648.72 2483.57 3649.17 2483.57 Q3649.97 2483.57 3649.97 2484.22 M3640.92 2471.75 Q3640.92 2471.46 3640.7 2470.66 Q3640.47 2469.85 3639.96 2468.72 Q3639.44 2467.6 3638.32 2466.79 Q3637.22 2465.95 3635.74 2465.95 Q3633.74 2465.95 3631.65 2467.66 Q3629.59 2469.37 3628.07 2472.27 Q3626.91 2474.59 3625.66 2479.45 Q3624.43 2484.31 3624.43 2486.73 Q3624.43 2488.21 3624.76 2489.53 Q3625.11 2490.82 3626.11 2491.88 Q3627.11 2492.91 3628.65 2492.91 Q3632.42 2492.91 3636.13 2488.24 Q3636.83 2487.44 3637 2487.11 Q3637.19 2486.76 3637.45 2485.79 L3640.73 2472.88 Q3640.92 2471.91 3640.92 2471.75 Z" fill="#000000" fill-rule="nonzero" fill-opacity="1" /><path clip-path="url(#clip900)" d="M3668.14 2448.6 L3658.64 2486.73 Q3658.26 2488.24 3658.26 2489.88 Q3658.26 2492.91 3660.25 2492.91 Q3661.19 2492.91 3661.96 2492.3 Q3662.73 2491.66 3663.31 2490.4 Q3663.93 2489.11 3664.31 2487.89 Q3664.73 2486.66 3665.25 2484.76 Q3665.41 2484.02 3665.57 2483.8 Q3665.73 2483.57 3666.18 2483.57 Q3666.99 2483.57 3666.99 2484.22 Q3666.18 2488.18 3664.99 2490.69 Q3663.25 2494.39 3660.03 2494.39 Q3657.61 2494.39 3655.81 2492.72 Q3654.04 2491.01 3654.04 2488.31 Q3654.04 2487.28 3654.36 2486.05 L3662.67 2453.07 L3662.9 2451.78 Q3662.9 2451.43 3662.77 2451.24 Q3662.64 2451.04 3661.86 2450.85 Q3661.12 2450.66 3659.64 2450.66 Q3659.03 2450.66 3658.74 2450.62 Q3658.48 2450.59 3658.23 2450.43 Q3658 2450.27 3658 2449.92 Q3658 2449.34 3658.23 2449.01 Q3658.48 2448.69 3658.68 2448.63 Q3658.87 2448.56 3659.26 2448.53 Q3659.8 2448.5 3661.64 2448.34 Q3663.48 2448.14 3665.05 2448.02 Q3666.63 2447.89 3667.31 2447.89 Q3667.69 2447.89 3667.89 2448.08 Q3668.11 2448.24 3668.14 2448.43 L3668.14 2448.6 Z" fill="#000000" fill-rule="nonzero" fill-opacity="1" /><path clip-path="url(#clip900)" d="M3699.37 2486.02 Q3699.63 2486.31 3699.63 2486.6 Q3699.63 2486.89 3698.99 2487.73 Q3698.37 2488.56 3697.05 2489.69 Q3695.73 2490.82 3694.03 2491.88 Q3692.32 2492.94 3689.81 2493.65 Q3687.3 2494.39 3684.65 2494.39 Q3679.92 2494.39 3677.09 2491.01 Q3674.28 2487.63 3674.28 2482.44 Q3674.28 2479.13 3675.38 2476.2 Q3676.47 2473.23 3678.25 2471.14 Q3680.05 2469.05 3682.3 2467.53 Q3684.59 2465.99 3686.97 2465.25 Q3689.36 2464.51 3691.58 2464.51 Q3694.83 2464.51 3696.73 2466.15 Q3698.63 2467.79 3698.63 2470.11 Q3698.63 2470.66 3698.47 2471.33 Q3698.34 2472.01 3697.89 2473.07 Q3697.47 2474.14 3696.38 2475.2 Q3695.28 2476.23 3693.67 2476.9 Q3690.1 2478.42 3683.59 2478.42 L3680.08 2478.42 Q3679.05 2482.57 3679.05 2485.28 Q3679.05 2486.34 3679.24 2487.44 Q3679.44 2488.5 3679.95 2489.85 Q3680.5 2491.2 3681.72 2492.07 Q3682.98 2492.91 3684.78 2492.91 Q3685.36 2492.91 3685.97 2492.88 Q3686.62 2492.85 3688.23 2492.49 Q3689.87 2492.14 3691.32 2491.53 Q3692.77 2490.91 3694.61 2489.59 Q3696.47 2488.24 3697.96 2486.41 Q3698.47 2485.73 3698.83 2485.73 Q3699.11 2485.73 3699.37 2486.02 M3696.44 2470.11 Q3696.44 2468.34 3695.12 2467.15 Q3693.83 2465.95 3691.58 2465.95 Q3690.87 2465.95 3690 2466.12 Q3689.13 2466.28 3687.68 2466.95 Q3686.26 2467.63 3685.01 2468.76 Q3683.75 2469.85 3682.5 2472.01 Q3681.24 2474.14 3680.5 2476.97 L3683.21 2476.97 Q3684.14 2476.97 3684.82 2476.97 Q3685.49 2476.94 3686.97 2476.81 Q3688.49 2476.68 3689.58 2476.45 Q3690.68 2476.2 3692.06 2475.68 Q3693.45 2475.17 3694.32 2474.49 Q3695.22 2473.78 3695.83 2472.65 Q3696.44 2471.53 3696.44 2470.11 Z" fill="#000000" fill-rule="nonzero" fill-opacity="1" /><circle clip-path="url(#clip900)" cx="3371.21" cy="2575.04" r="43.6547" fill="#c271d2" fill-rule="evenodd" fill-opacity="1" stroke="#000000" stroke-opacity="1" stroke-width="8.62316"/>
<path clip-path="url(#clip900)" d="M3512.95 2550.88 L3512.95 2547.88 Q3524.47 2547.88 3530.42 2541.74 Q3532.06 2541.74 3532.34 2542.12 Q3532.62 2542.49 3532.62 2544.23 L3532.62 2598.05 Q3532.62 2600.91 3534.03 2601.8 Q3535.44 2602.69 3541.57 2602.69 L3544.62 2602.69 L3544.62 2605.64 Q3541.24 2605.36 3529.06 2605.36 Q3516.88 2605.36 3513.56 2605.64 L3513.56 2602.69 L3516.6 2602.69 Q3522.65 2602.69 3524.1 2601.84 Q3525.55 2600.95 3525.55 2598.05 L3525.55 2548.35 Q3520.54 2550.88 3512.95 2550.88 Z" fill="#000000" fill-rule="nonzero" fill-opacity="1" /><path clip-path="url(#clip900)" d="M3552.12 2604.09 Q3550.67 2602.55 3550.67 2600.53 Q3550.67 2598.52 3552.12 2597.07 Q3553.58 2595.57 3555.78 2595.57 Q3557.89 2595.57 3559.29 2596.97 Q3560.74 2598.33 3560.74 2600.58 Q3560.74 2602.78 3559.2 2604.23 Q3557.7 2605.64 3555.78 2605.64 Q3553.58 2605.64 3552.12 2604.09 Z" fill="#000000" fill-rule="nonzero" fill-opacity="1" /><path clip-path="url(#clip900)" d="M3577.07 2574.96 Q3577.07 2560.86 3580.63 2553.17 Q3585.6 2541.74 3597.31 2541.74 Q3599.79 2541.74 3602.37 2542.45 Q3604.99 2543.1 3608.27 2545.68 Q3611.6 2548.25 3613.61 2552.47 Q3617.45 2560.62 3617.45 2574.96 Q3617.45 2588.96 3613.89 2596.6 Q3608.69 2607.75 3597.22 2607.75 Q3592.91 2607.75 3588.5 2605.55 Q3584.15 2603.34 3581.38 2598.05 Q3577.07 2590.13 3577.07 2574.96 M3585.04 2573.78 Q3585.04 2588.26 3586.07 2594.02 Q3587.24 2600.25 3590.42 2602.97 Q3593.66 2605.64 3597.22 2605.64 Q3601.06 2605.64 3604.24 2602.78 Q3607.47 2599.88 3608.46 2593.65 Q3609.54 2587.51 3609.49 2573.78 Q3609.49 2560.43 3608.55 2555.09 Q3607.29 2548.86 3603.91 2546.38 Q3600.59 2543.85 3597.22 2543.85 Q3595.95 2543.85 3594.59 2544.23 Q3593.28 2544.6 3591.36 2545.68 Q3589.44 2546.76 3587.94 2549.43 Q3586.49 2552.1 3585.79 2556.12 Q3585.04 2561.32 3585.04 2573.78 Z" fill="#000000" fill-rule="nonzero" fill-opacity="1" /><circle clip-path="url(#clip900)" cx="3371.21" cy="2678.72" r="43.8857" fill="#ffe1ff" fill-rule="evenodd" fill-opacity="1" stroke="#000000" stroke-opacity="1" stroke-width="7.8019"/>
<path clip-path="url(#clip900)" d="M3512.95 2696.39 Q3512.95 2693.53 3514.59 2692.17 Q3516.23 2690.82 3518.34 2690.82 Q3520.54 2690.82 3522.08 2692.27 Q3523.68 2693.67 3523.68 2696.16 Q3523.68 2698.83 3521.8 2700.32 Q3519.98 2701.82 3517.35 2701.45 Q3519.65 2705.29 3523.86 2707.02 Q3528.13 2708.76 3532.06 2708.76 Q3536.18 2708.76 3539.51 2705.2 Q3542.88 2701.64 3542.88 2692.92 Q3542.88 2685.52 3539.98 2681.26 Q3537.12 2677 3531.45 2677 L3527.24 2677 Q3525.79 2677 3525.36 2676.86 Q3524.94 2676.72 3524.94 2675.92 Q3524.94 2674.98 3526.39 2674.79 Q3527.85 2674.79 3530.14 2674.51 Q3535.72 2674.33 3538.67 2669.5 Q3541.34 2665 3541.34 2658.59 Q3541.34 2652.73 3538.53 2650.29 Q3535.76 2647.81 3532.16 2647.81 Q3528.78 2647.81 3525.08 2649.22 Q3521.38 2650.62 3519.37 2653.76 Q3525.32 2653.76 3525.32 2658.59 Q3525.32 2660.69 3523.96 2662.1 Q3522.65 2663.46 3520.45 2663.46 Q3518.34 2663.46 3516.93 2662.15 Q3515.53 2660.79 3515.53 2658.49 Q3515.53 2653.01 3520.4 2649.22 Q3525.32 2645.42 3532.53 2645.42 Q3539.65 2645.42 3544.9 2649.17 Q3550.19 2652.92 3550.19 2658.68 Q3550.19 2664.35 3546.44 2668.99 Q3542.7 2673.62 3536.75 2675.54 Q3544.05 2677 3548.41 2681.96 Q3552.77 2686.88 3552.77 2692.92 Q3552.77 2700.42 3546.87 2705.95 Q3540.96 2711.43 3532.34 2711.43 Q3524.38 2711.43 3518.66 2707.12 Q3512.95 2702.81 3512.95 2696.39 Z" fill="#000000" fill-rule="nonzero" fill-opacity="1" /><path clip-path="url(#clip900)" d="M3561.92 2707.77 Q3560.46 2706.23 3560.46 2704.21 Q3560.46 2702.2 3561.92 2700.75 Q3563.37 2699.25 3565.57 2699.25 Q3567.68 2699.25 3569.08 2700.65 Q3570.53 2702.01 3570.53 2704.26 Q3570.53 2706.46 3568.99 2707.91 Q3567.49 2709.32 3565.57 2709.32 Q3563.37 2709.32 3561.92 2707.77 Z" fill="#000000" fill-rule="nonzero" fill-opacity="1" /><path clip-path="url(#clip900)" d="M3586.86 2678.64 Q3586.86 2664.54 3590.42 2656.85 Q3595.39 2645.42 3607.1 2645.42 Q3609.58 2645.42 3612.16 2646.13 Q3614.78 2646.78 3618.06 2649.36 Q3621.39 2651.93 3623.4 2656.15 Q3627.24 2664.3 3627.24 2678.64 Q3627.24 2692.64 3623.68 2700.28 Q3618.48 2711.43 3607.01 2711.43 Q3602.7 2711.43 3598.29 2709.23 Q3593.94 2707.02 3591.17 2701.73 Q3586.86 2693.81 3586.86 2678.64 M3594.83 2677.46 Q3594.83 2691.94 3595.86 2697.7 Q3597.03 2703.93 3600.21 2706.65 Q3603.45 2709.32 3607.01 2709.32 Q3610.85 2709.32 3614.03 2706.46 Q3617.27 2703.56 3618.25 2697.33 Q3619.33 2691.19 3619.28 2677.46 Q3619.28 2664.11 3618.34 2658.77 Q3617.08 2652.54 3613.71 2650.06 Q3610.38 2647.53 3607.01 2647.53 Q3605.74 2647.53 3604.38 2647.91 Q3603.07 2648.28 3601.15 2649.36 Q3599.23 2650.44 3597.73 2653.11 Q3596.28 2655.78 3595.58 2659.8 Q3594.83 2665 3594.83 2677.46 Z" fill="#000000" fill-rule="nonzero" fill-opacity="1" /><path clip-path="url(#clip900)" d="M2996 1037.56 L3793.3 1037.56 L3793.3 330.191 L2996 330.191  Z" fill="#ffffff" fill-rule="evenodd" fill-opacity="1"/>
<defs>
  <clipPath id="clip903">
    <rect x="2995" y="330" width="798" height="708"/>
  </clipPath>
</defs>
<polyline clip-path="url(#clip900)" style="stroke:#000000; stroke-linecap:round; stroke-linejoin:round; stroke-width:4; stroke-opacity:1; fill:none" points="2996,1037.56 3793.3,1037.56 "/>
<polyline clip-path="url(#clip900)" style="stroke:#000000; stroke-linecap:round; stroke-linejoin:round; stroke-width:4; stroke-opacity:1; fill:none" points="2996,330.191 3793.3,330.191 "/>
<polyline clip-path="url(#clip900)" style="stroke:#000000; stroke-linecap:round; stroke-linejoin:round; stroke-width:4; stroke-opacity:1; fill:none" points="2996,1037.56 2996,330.191 "/>
<polyline clip-path="url(#clip900)" style="stroke:#000000; stroke-linecap:round; stroke-linejoin:round; stroke-width:4; stroke-opacity:1; fill:none" points="3793.3,1037.56 3793.3,330.191 "/>
<circle clip-path="url(#clip903)" cx="3193.73" cy="683.875" r="32.4" fill="#c271d2" fill-rule="evenodd" fill-opacity="1" stroke="#000000" stroke-opacity="1" stroke-width="6.4"/>
<circle clip-path="url(#clip903)" cx="3329.11" cy="683.981" r="32.4" fill="#c271d2" fill-rule="evenodd" fill-opacity="1" stroke="#000000" stroke-opacity="1" stroke-width="6.4"/>
<circle clip-path="url(#clip903)" cx="3329.11" cy="683.77" r="32.4" fill="#c271d2" fill-rule="evenodd" fill-opacity="1" stroke="#000000" stroke-opacity="1" stroke-width="6.4"/>
<circle clip-path="url(#clip903)" cx="3142.43" cy="683.875" r="21.6" fill="#ffe1ff" fill-rule="evenodd" fill-opacity="1" stroke="#000000" stroke-opacity="1" stroke-width="3.84"/>
<circle clip-path="url(#clip903)" cx="3169.33" cy="683.875" r="21.6" fill="#ffe1ff" fill-rule="evenodd" fill-opacity="1" stroke="#000000" stroke-opacity="1" stroke-width="3.84"/>
<circle clip-path="url(#clip903)" cx="3444.41" cy="683.965" r="21.6" fill="#ffe1ff" fill-rule="evenodd" fill-opacity="1" stroke="#000000" stroke-opacity="1" stroke-width="3.84"/>
<circle clip-path="url(#clip903)" cx="3444.41" cy="683.785" r="21.6" fill="#ffe1ff" fill-rule="evenodd" fill-opacity="1" stroke="#000000" stroke-opacity="1" stroke-width="3.84"/>
</svg>
