<?xml version="1.0" encoding="utf-8"?>
<svg xmlns="http://www.w3.org/2000/svg" xmlns:xlink="http://www.w3.org/1999/xlink" width="600" height="400" viewBox="0 0 2400 1600">
<defs>
  <clipPath id="clip300">
    <rect x="0" y="0" width="2400" height="1600"/>
  </clipPath>
</defs>
<path clip-path="url(#clip300)" d="M0 1600 L2400 1600 L2400 0 L0 0  Z" fill="#ffffff" fill-rule="evenodd" fill-opacity="1"/>
<defs>
  <clipPath id="clip301">
    <rect x="480" y="0" width="1681" height="1600"/>
  </clipPath>
</defs>
<path clip-path="url(#clip300)" d="M407.875 1423.18 L2352.76 1423.18 L2352.76 123.472 L407.875 123.472  Z" fill="#ffffff" fill-rule="evenodd" fill-opacity="1"/>
<defs>
  <clipPath id="clip302">
    <rect x="407" y="123" width="1946" height="1301"/>
  </clipPath>
</defs>
<polyline clip-path="url(#clip302)" style="stroke:#000000; stroke-linecap:round; stroke-linejoin:round; stroke-width:2; stroke-opacity:0.1; fill:none" points="407.875,1423.18 407.875,123.472 "/>
<polyline clip-path="url(#clip302)" style="stroke:#000000; stroke-linecap:round; stroke-linejoin:round; stroke-width:2; stroke-opacity:0.1; fill:none" points="1015.65,1423.18 1015.65,123.472 "/>
<polyline clip-path="url(#clip302)" style="stroke:#000000; stroke-linecap:round; stroke-linejoin:round; stroke-width:2; stroke-opacity:0.1; fill:none" points="1623.43,1423.18 1623.43,123.472 "/>
<polyline clip-path="url(#clip302)" style="stroke:#000000; stroke-linecap:round; stroke-linejoin:round; stroke-width:2; stroke-opacity:0.1; fill:none" points="2231.2,1423.18 2231.2,123.472 "/>
<polyline clip-path="url(#clip300)" style="stroke:#000000; stroke-linecap:round; stroke-linejoin:round; stroke-width:4; stroke-opacity:1; fill:none" points="407.875,1423.18 2352.76,1423.18 "/>
<polyline clip-path="url(#clip300)" style="stroke:#000000; stroke-linecap:round; stroke-linejoin:round; stroke-width:4; stroke-opacity:1; fill:none" points="407.875,1423.18 407.875,1404.28 "/>
<polyline clip-path="url(#clip300)" style="stroke:#000000; stroke-linecap:round; stroke-linejoin:round; stroke-width:4; stroke-opacity:1; fill:none" points="1015.65,1423.18 1015.65,1404.28 "/>
<polyline clip-path="url(#clip300)" style="stroke:#000000; stroke-linecap:round; stroke-linejoin:round; stroke-width:4; stroke-opacity:1; fill:none" points="1623.43,1423.18 1623.43,1404.28 "/>
<polyline clip-path="url(#clip300)" style="stroke:#000000; stroke-linecap:round; stroke-linejoin:round; stroke-width:4; stroke-opacity:1; fill:none" points="2231.2,1423.18 2231.2,1404.28 "/>
<path clip-path="url(#clip300)" d="M361.937 1468.75 L391.613 1468.75 L391.613 1472.69 L361.937 1472.69 L361.937 1468.75 Z" fill="#000000" fill-rule="nonzero" fill-opacity="1" /><path clip-path="url(#clip300)" d="M415.872 1466.95 Q419.229 1467.66 421.104 1469.93 Q423.002 1472.2 423.002 1475.53 Q423.002 1480.65 419.483 1483.45 Q415.965 1486.25 409.483 1486.25 Q407.307 1486.25 404.993 1485.81 Q402.701 1485.39 400.247 1484.54 L400.247 1480.02 Q402.192 1481.16 404.506 1481.74 Q406.821 1482.32 409.344 1482.32 Q413.743 1482.32 416.034 1480.58 Q418.349 1478.84 418.349 1475.53 Q418.349 1472.48 416.196 1470.77 Q414.067 1469.03 410.247 1469.03 L406.219 1469.03 L406.219 1465.19 L410.432 1465.19 Q413.881 1465.19 415.71 1463.82 Q417.539 1462.43 417.539 1459.84 Q417.539 1457.18 415.641 1455.77 Q413.766 1454.33 410.247 1454.33 Q408.326 1454.33 406.127 1454.75 Q403.928 1455.16 401.289 1456.04 L401.289 1451.88 Q403.951 1451.14 406.266 1450.77 Q408.604 1450.39 410.664 1450.39 Q415.988 1450.39 419.09 1452.83 Q422.192 1455.23 422.192 1459.35 Q422.192 1462.22 420.548 1464.21 Q418.905 1466.18 415.872 1466.95 Z" fill="#000000" fill-rule="nonzero" fill-opacity="1" /><path clip-path="url(#clip300)" d="M441.867 1454.1 Q438.256 1454.1 436.428 1457.66 Q434.622 1461.2 434.622 1468.33 Q434.622 1475.44 436.428 1479.01 Q438.256 1482.55 441.867 1482.55 Q445.502 1482.55 447.307 1479.01 Q449.136 1475.44 449.136 1468.33 Q449.136 1461.2 447.307 1457.66 Q445.502 1454.1 441.867 1454.1 M441.867 1450.39 Q447.678 1450.39 450.733 1455 Q453.812 1459.58 453.812 1468.33 Q453.812 1477.06 450.733 1481.67 Q447.678 1486.25 441.867 1486.25 Q436.057 1486.25 432.979 1481.67 Q429.923 1477.06 429.923 1468.33 Q429.923 1459.58 432.979 1455 Q436.057 1450.39 441.867 1450.39 Z" fill="#000000" fill-rule="nonzero" fill-opacity="1" /><path clip-path="url(#clip300)" d="M969.713 1468.75 L999.388 1468.75 L999.388 1472.69 L969.713 1472.69 L969.713 1468.75 Z" fill="#000000" fill-rule="nonzero" fill-opacity="1" /><path clip-path="url(#clip300)" d="M1013.51 1481.64 L1029.83 1481.64 L1029.83 1485.58 L1007.88 1485.58 L1007.88 1481.64 Q1010.55 1478.89 1015.13 1474.26 Q1019.74 1469.61 1020.92 1468.27 Q1023.16 1465.74 1024.04 1464.01 Q1024.94 1462.25 1024.94 1460.56 Q1024.94 1457.8 1023 1456.07 Q1021.08 1454.33 1017.98 1454.33 Q1015.78 1454.33 1013.32 1455.09 Q1010.89 1455.86 1008.12 1457.41 L1008.12 1452.69 Q1010.94 1451.55 1013.39 1450.97 Q1015.85 1450.39 1017.88 1450.39 Q1023.25 1450.39 1026.45 1453.08 Q1029.64 1455.77 1029.64 1460.26 Q1029.64 1462.39 1028.83 1464.31 Q1028.05 1466.2 1025.94 1468.8 Q1025.36 1469.47 1022.26 1472.69 Q1019.16 1475.88 1013.51 1481.64 Z" fill="#000000" fill-rule="nonzero" fill-opacity="1" /><path clip-path="url(#clip300)" d="M1049.64 1454.1 Q1046.03 1454.1 1044.2 1457.66 Q1042.4 1461.2 1042.4 1468.33 Q1042.4 1475.44 1044.2 1479.01 Q1046.03 1482.55 1049.64 1482.55 Q1053.28 1482.55 1055.08 1479.01 Q1056.91 1475.44 1056.91 1468.33 Q1056.91 1461.2 1055.08 1457.66 Q1053.28 1454.1 1049.64 1454.1 M1049.64 1450.39 Q1055.45 1450.39 1058.51 1455 Q1061.59 1459.58 1061.59 1468.33 Q1061.59 1477.06 1058.51 1481.67 Q1055.45 1486.25 1049.64 1486.25 Q1043.83 1486.25 1040.75 1481.67 Q1037.7 1477.06 1037.7 1468.33 Q1037.7 1459.58 1040.75 1455 Q1043.83 1450.39 1049.64 1450.39 Z" fill="#000000" fill-rule="nonzero" fill-opacity="1" /><path clip-path="url(#clip300)" d="M1577.49 1468.75 L1607.16 1468.75 L1607.16 1472.69 L1577.49 1472.69 L1577.49 1468.75 Z" fill="#000000" fill-rule="nonzero" fill-opacity="1" /><path clip-path="url(#clip300)" d="M1618.07 1481.64 L1625.71 1481.64 L1625.71 1455.28 L1617.4 1456.95 L1617.4 1452.69 L1625.66 1451.02 L1630.34 1451.02 L1630.34 1481.64 L1637.97 1481.64 L1637.97 1485.58 L1618.07 1485.58 L1618.07 1481.64 Z" fill="#000000" fill-rule="nonzero" fill-opacity="1" /><path clip-path="url(#clip300)" d="M1657.42 1454.1 Q1653.81 1454.1 1651.98 1457.66 Q1650.17 1461.2 1650.17 1468.33 Q1650.17 1475.44 1651.98 1479.01 Q1653.81 1482.55 1657.42 1482.55 Q1661.05 1482.55 1662.86 1479.01 Q1664.69 1475.44 1664.69 1468.33 Q1664.69 1461.2 1662.86 1457.66 Q1661.05 1454.1 1657.42 1454.1 M1657.42 1450.39 Q1663.23 1450.39 1666.28 1455 Q1669.36 1459.58 1669.36 1468.33 Q1669.36 1477.06 1666.28 1481.67 Q1663.23 1486.25 1657.42 1486.25 Q1651.61 1486.25 1648.53 1481.67 Q1645.47 1477.06 1645.47 1468.33 Q1645.47 1459.58 1648.53 1455 Q1651.61 1450.39 1657.42 1450.39 Z" fill="#000000" fill-rule="nonzero" fill-opacity="1" /><path clip-path="url(#clip300)" d="M2231.2 1454.1 Q2227.59 1454.1 2225.76 1457.66 Q2223.96 1461.2 2223.96 1468.33 Q2223.96 1475.44 2225.76 1479.01 Q2227.59 1482.55 2231.2 1482.55 Q2234.84 1482.55 2236.64 1479.01 Q2238.47 1475.44 2238.47 1468.33 Q2238.47 1461.2 2236.64 1457.66 Q2234.84 1454.1 2231.2 1454.1 M2231.2 1450.39 Q2237.01 1450.39 2240.07 1455 Q2243.15 1459.58 2243.15 1468.33 Q2243.15 1477.06 2240.07 1481.67 Q2237.01 1486.25 2231.2 1486.25 Q2225.39 1486.25 2222.31 1481.67 Q2219.26 1477.06 2219.26 1468.33 Q2219.26 1459.58 2222.31 1455 Q2225.39 1450.39 2231.2 1450.39 Z" fill="#000000" fill-rule="nonzero" fill-opacity="1" /><path clip-path="url(#clip300)" d="M1316.58 1561.48 L1316.58 1559.45 L1318.16 1559.45 Q1321.73 1559.45 1322.54 1558.87 Q1323.38 1558.26 1323.38 1556.32 L1323.38 1521.57 Q1323.38 1519.67 1322.54 1519.09 Q1321.7 1518.48 1318.16 1518.48 L1316.58 1518.48 L1316.58 1516.42 L1337.29 1516.42 Q1344.47 1516.42 1349.46 1519.96 Q1354.49 1523.47 1354.49 1528.31 Q1354.49 1532.01 1351.23 1534.91 Q1347.98 1537.81 1342.96 1539.06 Q1349.49 1541.32 1351.01 1546.69 L1351.85 1551.98 Q1352.1 1553.88 1352.26 1554.84 Q1352.46 1555.81 1352.75 1557.13 Q1353.04 1558.45 1353.33 1559.09 Q1353.65 1559.71 1354.1 1560.38 Q1354.55 1561.03 1355.13 1561.25 Q1355.74 1561.48 1356.55 1561.48 Q1358.06 1561.48 1359.35 1560.12 Q1360.64 1558.77 1360.9 1555.62 Q1361.02 1554.55 1361.7 1554.55 Q1362.54 1554.55 1362.54 1555.62 Q1362.54 1556.55 1362.28 1557.64 Q1362.02 1558.71 1361.38 1559.96 Q1360.77 1561.22 1359.41 1562.06 Q1358.06 1562.93 1356.29 1562.93 Q1351.14 1562.93 1347.98 1560.16 Q1346.66 1558.97 1346.05 1557.42 Q1345.47 1555.87 1345.37 1554.65 Q1345.28 1553.43 1345.28 1550.72 Q1345.28 1546.89 1344.86 1545.21 Q1344.47 1543.54 1342.76 1541.9 Q1340.44 1539.64 1336.61 1539.64 L1329.04 1539.64 L1329.04 1556.32 Q1329.04 1558.22 1329.85 1558.84 Q1330.69 1559.45 1334.26 1559.45 L1335.84 1559.45 L1335.84 1561.48 Q1333.46 1561.28 1326.21 1561.28 Q1318.96 1561.28 1316.58 1561.48 M1329.04 1538.19 L1336.35 1538.19 Q1339.86 1538.19 1342.22 1537.35 Q1344.6 1536.49 1345.73 1534.94 Q1346.85 1533.39 1347.27 1531.85 Q1347.69 1530.27 1347.69 1528.31 Q1347.69 1525.99 1347.18 1524.25 Q1346.66 1522.51 1345.53 1521.48 Q1344.41 1520.45 1343.28 1519.8 Q1342.15 1519.13 1340.41 1518.87 Q1338.67 1518.61 1337.48 1518.55 Q1336.29 1518.48 1334.39 1518.48 Q1331.17 1518.48 1330.49 1518.61 Q1329.75 1518.68 1329.46 1519.03 Q1329.17 1519.38 1329.11 1519.8 Q1329.04 1520.19 1329.04 1521.12 L1329.04 1538.19 Z" fill="#000000" fill-rule="nonzero" fill-opacity="1" /><path clip-path="url(#clip300)" d="M1364.83 1546.95 Q1364.83 1540.74 1368.83 1536.32 Q1372.82 1531.91 1378.55 1531.91 Q1384.35 1531.91 1387.34 1535.68 Q1390.37 1539.45 1390.37 1544.86 Q1390.37 1545.86 1390.11 1546.05 Q1389.86 1546.24 1388.73 1546.24 L1370.31 1546.24 Q1370.31 1552.97 1372.3 1556.13 Q1375.07 1560.54 1379.74 1560.54 Q1380.39 1560.54 1381.16 1560.41 Q1381.93 1560.29 1383.51 1559.74 Q1385.09 1559.16 1386.47 1557.64 Q1387.86 1556.13 1388.66 1553.75 Q1388.86 1552.81 1389.5 1552.85 Q1390.37 1552.85 1390.37 1553.62 Q1390.37 1554.2 1389.73 1555.52 Q1389.12 1556.81 1387.92 1558.35 Q1386.73 1559.9 1384.41 1561.06 Q1382.13 1562.22 1379.36 1562.22 Q1373.56 1562.22 1369.18 1557.84 Q1364.83 1553.43 1364.83 1546.95 M1370.37 1544.86 L1386.02 1544.86 Q1386.02 1543.47 1385.77 1541.93 Q1385.54 1540.38 1384.83 1538.26 Q1384.16 1536.1 1382.55 1534.75 Q1380.94 1533.39 1378.55 1533.39 Q1377.49 1533.39 1376.33 1533.84 Q1375.2 1534.3 1373.82 1535.39 Q1372.43 1536.49 1371.47 1538.97 Q1370.5 1541.45 1370.37 1544.86 Z" fill="#000000" fill-rule="nonzero" fill-opacity="1" /><path clip-path="url(#clip300)" d="M1393.56 1555.2 Q1393.56 1549.59 1400.17 1546.63 Q1404.13 1544.73 1412.31 1544.25 L1412.31 1541.83 Q1412.31 1537.74 1410.15 1535.58 Q1408.02 1533.39 1405.32 1533.39 Q1400.49 1533.39 1398.17 1536.42 Q1400.13 1536.49 1400.84 1537.48 Q1401.55 1538.45 1401.55 1539.45 Q1401.55 1540.77 1400.71 1541.64 Q1399.91 1542.48 1398.52 1542.48 Q1397.2 1542.48 1396.33 1541.67 Q1395.46 1540.83 1395.46 1539.38 Q1395.46 1536.16 1398.36 1534.04 Q1401.29 1531.91 1405.45 1531.91 Q1410.86 1531.91 1414.47 1535.55 Q1415.59 1536.68 1416.14 1538.13 Q1416.72 1539.58 1416.78 1540.54 Q1416.85 1541.48 1416.85 1543.35 L1416.85 1556.52 Q1416.85 1556.9 1416.98 1557.55 Q1417.11 1558.19 1417.69 1559.03 Q1418.3 1559.83 1419.3 1559.83 Q1421.68 1559.83 1421.65 1555.62 L1421.65 1551.91 L1423.32 1551.91 L1423.32 1555.62 Q1423.32 1559.13 1421.45 1560.51 Q1419.62 1561.86 1417.91 1561.86 Q1415.72 1561.86 1414.34 1560.25 Q1412.95 1558.64 1412.76 1556.45 Q1411.76 1558.97 1409.47 1560.61 Q1407.22 1562.22 1404.13 1562.22 Q1401.74 1562.22 1399.49 1561.61 Q1397.27 1561.03 1395.4 1559.38 Q1393.56 1557.71 1393.56 1555.2 M1398.65 1555.13 Q1398.65 1557.58 1400.39 1559.16 Q1402.13 1560.74 1404.58 1560.74 Q1407.35 1560.74 1409.83 1558.61 Q1412.31 1556.45 1412.31 1552.23 L1412.31 1545.63 Q1405 1545.89 1401.81 1548.82 Q1398.65 1551.72 1398.65 1555.13 Z" fill="#000000" fill-rule="nonzero" fill-opacity="1" /><path clip-path="url(#clip300)" d="M1425.96 1561.48 L1425.96 1559.45 Q1429.47 1559.45 1430.28 1559.03 Q1431.08 1558.58 1431.08 1556.45 L1431.08 1522.15 Q1431.08 1519.71 1430.22 1519.09 Q1429.38 1518.48 1425.96 1518.48 L1425.96 1516.42 L1435.43 1515.71 L1435.43 1556.45 Q1435.43 1558.58 1436.27 1559.03 Q1437.11 1559.45 1440.59 1559.45 L1440.59 1561.48 Q1439.78 1561.48 1438.11 1561.41 Q1436.43 1561.35 1435.21 1561.32 Q1433.98 1561.28 1433.27 1561.28 Q1432.5 1561.28 1425.96 1561.48 Z" fill="#000000" fill-rule="nonzero" fill-opacity="1" /><polyline clip-path="url(#clip302)" style="stroke:#000000; stroke-linecap:round; stroke-linejoin:round; stroke-width:2; stroke-opacity:0.1; fill:none" points="407.875,1237.51 2352.76,1237.51 "/>
<polyline clip-path="url(#clip302)" style="stroke:#000000; stroke-linecap:round; stroke-linejoin:round; stroke-width:2; stroke-opacity:0.1; fill:none" points="407.875,1005.42 2352.76,1005.42 "/>
<polyline clip-path="url(#clip302)" style="stroke:#000000; stroke-linecap:round; stroke-linejoin:round; stroke-width:2; stroke-opacity:0.1; fill:none" points="407.875,773.326 2352.76,773.326 "/>
<polyline clip-path="url(#clip302)" style="stroke:#000000; stroke-linecap:round; stroke-linejoin:round; stroke-width:2; stroke-opacity:0.1; fill:none" points="407.875,541.235 2352.76,541.235 "/>
<polyline clip-path="url(#clip302)" style="stroke:#000000; stroke-linecap:round; stroke-linejoin:round; stroke-width:2; stroke-opacity:0.1; fill:none" points="407.875,309.145 2352.76,309.145 "/>
<polyline clip-path="url(#clip300)" style="stroke:#000000; stroke-linecap:round; stroke-linejoin:round; stroke-width:4; stroke-opacity:1; fill:none" points="407.875,1423.18 407.875,123.472 "/>
<polyline clip-path="url(#clip300)" style="stroke:#000000; stroke-linecap:round; stroke-linejoin:round; stroke-width:4; stroke-opacity:1; fill:none" points="407.875,1237.51 426.772,1237.51 "/>
<polyline clip-path="url(#clip300)" style="stroke:#000000; stroke-linecap:round; stroke-linejoin:round; stroke-width:4; stroke-opacity:1; fill:none" points="407.875,1005.42 426.772,1005.42 "/>
<polyline clip-path="url(#clip300)" style="stroke:#000000; stroke-linecap:round; stroke-linejoin:round; stroke-width:4; stroke-opacity:1; fill:none" points="407.875,773.326 426.772,773.326 "/>
<polyline clip-path="url(#clip300)" style="stroke:#000000; stroke-linecap:round; stroke-linejoin:round; stroke-width:4; stroke-opacity:1; fill:none" points="407.875,541.235 426.772,541.235 "/>
<polyline clip-path="url(#clip300)" style="stroke:#000000; stroke-linecap:round; stroke-linejoin:round; stroke-width:4; stroke-opacity:1; fill:none" points="407.875,309.145 426.772,309.145 "/>
<path clip-path="url(#clip300)" d="M114.26 1244.41 L143.936 1244.41 L143.936 1248.34 L114.26 1248.34 L114.26 1244.41 Z" fill="#000000" fill-rule="nonzero" fill-opacity="1" /><path clip-path="url(#clip300)" d="M154.075 1226.67 L172.431 1226.67 L172.431 1230.61 L158.357 1230.61 L158.357 1239.08 Q159.376 1238.74 160.394 1238.57 Q161.413 1238.39 162.431 1238.39 Q168.218 1238.39 171.598 1241.56 Q174.977 1244.73 174.977 1250.15 Q174.977 1255.73 171.505 1258.83 Q168.033 1261.91 161.714 1261.91 Q159.538 1261.91 157.269 1261.54 Q155.024 1261.17 152.616 1260.42 L152.616 1255.73 Q154.7 1256.86 156.922 1257.42 Q159.144 1257.97 161.621 1257.97 Q165.626 1257.97 167.964 1255.86 Q170.302 1253.76 170.302 1250.15 Q170.302 1246.54 167.964 1244.43 Q165.626 1242.32 161.621 1242.32 Q159.746 1242.32 157.871 1242.74 Q156.019 1243.16 154.075 1244.04 L154.075 1226.67 Z" fill="#000000" fill-rule="nonzero" fill-opacity="1" /><path clip-path="url(#clip300)" d="M184.19 1255.36 L189.075 1255.36 L189.075 1261.23 L184.19 1261.23 L184.19 1255.36 Z" fill="#000000" fill-rule="nonzero" fill-opacity="1" /><path clip-path="url(#clip300)" d="M209.26 1229.75 Q205.649 1229.75 203.82 1233.32 Q202.014 1236.86 202.014 1243.99 Q202.014 1251.1 203.82 1254.66 Q205.649 1258.2 209.26 1258.2 Q212.894 1258.2 214.699 1254.66 Q216.528 1251.1 216.528 1243.99 Q216.528 1236.86 214.699 1233.32 Q212.894 1229.75 209.26 1229.75 M209.26 1226.05 Q215.07 1226.05 218.125 1230.66 Q221.204 1235.24 221.204 1243.99 Q221.204 1252.72 218.125 1257.32 Q215.07 1261.91 209.26 1261.91 Q203.449 1261.91 200.371 1257.32 Q197.315 1252.72 197.315 1243.99 Q197.315 1235.24 200.371 1230.66 Q203.449 1226.05 209.26 1226.05 Z" fill="#000000" fill-rule="nonzero" fill-opacity="1" /><path clip-path="url(#clip300)" d="M239.422 1229.75 Q235.81 1229.75 233.982 1233.32 Q232.176 1236.86 232.176 1243.99 Q232.176 1251.1 233.982 1254.66 Q235.81 1258.2 239.422 1258.2 Q243.056 1258.2 244.861 1254.66 Q246.69 1251.1 246.69 1243.99 Q246.69 1236.86 244.861 1233.32 Q243.056 1229.75 239.422 1229.75 M239.422 1226.05 Q245.232 1226.05 248.287 1230.66 Q251.366 1235.24 251.366 1243.99 Q251.366 1252.72 248.287 1257.32 Q245.232 1261.91 239.422 1261.91 Q233.611 1261.91 230.533 1257.32 Q227.477 1252.72 227.477 1243.99 Q227.477 1235.24 230.533 1230.66 Q233.611 1226.05 239.422 1226.05 Z" fill="#000000" fill-rule="nonzero" fill-opacity="1" /><path clip-path="url(#clip300)" d="M287.755 1235.77 L277.176 1246.4 L287.755 1256.98 L285 1259.78 L274.375 1249.15 L263.75 1259.78 L261.019 1256.98 L271.574 1246.4 L261.019 1235.77 L263.75 1232.97 L274.375 1243.6 L285 1232.97 L287.755 1235.77 Z" fill="#000000" fill-rule="nonzero" fill-opacity="1" /><path clip-path="url(#clip300)" d="M300.116 1257.3 L307.754 1257.3 L307.754 1230.93 L299.444 1232.6 L299.444 1228.34 L307.708 1226.67 L312.384 1226.67 L312.384 1257.3 L320.023 1257.3 L320.023 1261.23 L300.116 1261.23 L300.116 1257.3 Z" fill="#000000" fill-rule="nonzero" fill-opacity="1" /><path clip-path="url(#clip300)" d="M339.467 1229.75 Q335.856 1229.75 334.027 1233.32 Q332.222 1236.86 332.222 1243.99 Q332.222 1251.1 334.027 1254.66 Q335.856 1258.2 339.467 1258.2 Q343.102 1258.2 344.907 1254.66 Q346.736 1251.1 346.736 1243.99 Q346.736 1236.86 344.907 1233.32 Q343.102 1229.75 339.467 1229.75 M339.467 1226.05 Q345.277 1226.05 348.333 1230.66 Q351.412 1235.24 351.412 1243.99 Q351.412 1252.72 348.333 1257.32 Q345.277 1261.91 339.467 1261.91 Q333.657 1261.91 330.578 1257.32 Q327.523 1252.72 327.523 1243.99 Q327.523 1235.24 330.578 1230.66 Q333.657 1226.05 339.467 1226.05 Z" fill="#000000" fill-rule="nonzero" fill-opacity="1" /><path clip-path="url(#clip300)" d="M364.088 1209.05 L354.496 1224.04 L364.088 1224.04 L364.088 1209.05 M363.091 1205.74 L367.868 1205.74 L367.868 1224.04 L371.875 1224.04 L371.875 1227.2 L367.868 1227.2 L367.868 1233.82 L364.088 1233.82 L364.088 1227.2 L351.412 1227.2 L351.412 1223.54 L363.091 1205.74 Z" fill="#000000" fill-rule="nonzero" fill-opacity="1" /><path clip-path="url(#clip300)" d="M114.26 1012.32 L143.936 1012.32 L143.936 1016.25 L114.26 1016.25 L114.26 1012.32 Z" fill="#000000" fill-rule="nonzero" fill-opacity="1" /><path clip-path="url(#clip300)" d="M158.056 1025.21 L174.376 1025.21 L174.376 1029.14 L152.431 1029.14 L152.431 1025.21 Q155.093 1022.45 159.677 1017.82 Q164.283 1013.17 165.464 1011.83 Q167.709 1009.31 168.589 1007.57 Q169.491 1005.81 169.491 1004.12 Q169.491 1001.37 167.547 999.631 Q165.626 997.894 162.524 997.894 Q160.325 997.894 157.871 998.658 Q155.44 999.422 152.663 1000.97 L152.663 996.251 Q155.487 995.117 157.94 994.538 Q160.394 993.959 162.431 993.959 Q167.802 993.959 170.996 996.644 Q174.19 999.33 174.19 1003.82 Q174.19 1005.95 173.38 1007.87 Q172.593 1009.77 170.487 1012.36 Q169.908 1013.03 166.806 1016.25 Q163.704 1019.45 158.056 1025.21 Z" fill="#000000" fill-rule="nonzero" fill-opacity="1" /><path clip-path="url(#clip300)" d="M184.19 1023.26 L189.075 1023.26 L189.075 1029.14 L184.19 1029.14 L184.19 1023.26 Z" fill="#000000" fill-rule="nonzero" fill-opacity="1" /><path clip-path="url(#clip300)" d="M199.306 994.584 L217.662 994.584 L217.662 998.519 L203.588 998.519 L203.588 1006.99 Q204.607 1006.64 205.625 1006.48 Q206.644 1006.3 207.662 1006.3 Q213.449 1006.3 216.829 1009.47 Q220.209 1012.64 220.209 1018.06 Q220.209 1023.64 216.736 1026.74 Q213.264 1029.82 206.945 1029.82 Q204.769 1029.82 202.5 1029.45 Q200.255 1029.07 197.848 1028.33 L197.848 1023.64 Q199.931 1024.77 202.153 1025.32 Q204.375 1025.88 206.852 1025.88 Q210.857 1025.88 213.195 1023.77 Q215.533 1021.67 215.533 1018.06 Q215.533 1014.45 213.195 1012.34 Q210.857 1010.23 206.852 1010.23 Q204.977 1010.23 203.102 1010.65 Q201.25 1011.07 199.306 1011.95 L199.306 994.584 Z" fill="#000000" fill-rule="nonzero" fill-opacity="1" /><path clip-path="url(#clip300)" d="M239.422 997.663 Q235.81 997.663 233.982 1001.23 Q232.176 1004.77 232.176 1011.9 Q232.176 1019.01 233.982 1022.57 Q235.81 1026.11 239.422 1026.11 Q243.056 1026.11 244.861 1022.57 Q246.69 1019.01 246.69 1011.9 Q246.69 1004.77 244.861 1001.23 Q243.056 997.663 239.422 997.663 M239.422 993.959 Q245.232 993.959 248.287 998.566 Q251.366 1003.15 251.366 1011.9 Q251.366 1020.63 248.287 1025.23 Q245.232 1029.82 239.422 1029.82 Q233.611 1029.82 230.533 1025.23 Q227.477 1020.63 227.477 1011.9 Q227.477 1003.15 230.533 998.566 Q233.611 993.959 239.422 993.959 Z" fill="#000000" fill-rule="nonzero" fill-opacity="1" /><path clip-path="url(#clip300)" d="M287.755 1003.68 L277.176 1014.31 L287.755 1024.89 L285 1027.69 L274.375 1017.06 L263.75 1027.69 L261.019 1024.89 L271.574 1014.31 L261.019 1003.68 L263.75 1000.88 L274.375 1011.51 L285 1000.88 L287.755 1003.68 Z" fill="#000000" fill-rule="nonzero" fill-opacity="1" /><path clip-path="url(#clip300)" d="M300.116 1025.21 L307.754 1025.21 L307.754 998.843 L299.444 1000.51 L299.444 996.251 L307.708 994.584 L312.384 994.584 L312.384 1025.21 L320.023 1025.21 L320.023 1029.14 L300.116 1029.14 L300.116 1025.21 Z" fill="#000000" fill-rule="nonzero" fill-opacity="1" /><path clip-path="url(#clip300)" d="M339.467 997.663 Q335.856 997.663 334.027 1001.23 Q332.222 1004.77 332.222 1011.9 Q332.222 1019.01 334.027 1022.57 Q335.856 1026.11 339.467 1026.11 Q343.102 1026.11 344.907 1022.57 Q346.736 1019.01 346.736 1011.9 Q346.736 1004.77 344.907 1001.23 Q343.102 997.663 339.467 997.663 M339.467 993.959 Q345.277 993.959 348.333 998.566 Q351.412 1003.15 351.412 1011.9 Q351.412 1020.63 348.333 1025.23 Q345.277 1029.82 339.467 1029.82 Q333.657 1029.82 330.578 1025.23 Q327.523 1020.63 327.523 1011.9 Q327.523 1003.15 330.578 998.566 Q333.657 993.959 339.467 993.959 Z" fill="#000000" fill-rule="nonzero" fill-opacity="1" /><path clip-path="url(#clip300)" d="M364.088 976.964 L354.496 991.954 L364.088 991.954 L364.088 976.964 M363.091 973.654 L367.868 973.654 L367.868 991.954 L371.875 991.954 L371.875 995.114 L367.868 995.114 L367.868 1001.73 L364.088 1001.73 L364.088 995.114 L351.412 995.114 L351.412 991.446 L363.091 973.654 Z" fill="#000000" fill-rule="nonzero" fill-opacity="1" /><path clip-path="url(#clip300)" d="M359.93 759.125 Q356.319 759.125 354.49 762.689 Q352.685 766.231 352.685 773.361 Q352.685 780.467 354.49 784.032 Q356.319 787.574 359.93 787.574 Q363.564 787.574 365.37 784.032 Q367.199 780.467 367.199 773.361 Q367.199 766.231 365.37 762.689 Q363.564 759.125 359.93 759.125 M359.93 755.421 Q365.74 755.421 368.796 760.027 Q371.875 764.611 371.875 773.361 Q371.875 782.088 368.796 786.694 Q365.74 791.277 359.93 791.277 Q354.12 791.277 351.041 786.694 Q347.986 782.088 347.986 773.361 Q347.986 764.611 351.041 760.027 Q354.12 755.421 359.93 755.421 Z" fill="#000000" fill-rule="nonzero" fill-opacity="1" /><path clip-path="url(#clip300)" d="M158.056 561.028 L174.376 561.028 L174.376 564.963 L152.431 564.963 L152.431 561.028 Q155.093 558.273 159.677 553.644 Q164.283 548.991 165.464 547.648 Q167.709 545.125 168.589 543.389 Q169.491 541.63 169.491 539.94 Q169.491 537.185 167.547 535.449 Q165.626 533.713 162.524 533.713 Q160.325 533.713 157.871 534.477 Q155.44 535.241 152.663 536.792 L152.663 532.07 Q155.487 530.935 157.94 530.357 Q160.394 529.778 162.431 529.778 Q167.802 529.778 170.996 532.463 Q174.19 535.148 174.19 539.639 Q174.19 541.769 173.38 543.69 Q172.593 545.588 170.487 548.181 Q169.908 548.852 166.806 552.069 Q163.704 555.264 158.056 561.028 Z" fill="#000000" fill-rule="nonzero" fill-opacity="1" /><path clip-path="url(#clip300)" d="M184.19 559.083 L189.075 559.083 L189.075 564.963 L184.19 564.963 L184.19 559.083 Z" fill="#000000" fill-rule="nonzero" fill-opacity="1" /><path clip-path="url(#clip300)" d="M199.306 530.403 L217.662 530.403 L217.662 534.338 L203.588 534.338 L203.588 542.81 Q204.607 542.463 205.625 542.301 Q206.644 542.116 207.662 542.116 Q213.449 542.116 216.829 545.287 Q220.209 548.458 220.209 553.875 Q220.209 559.454 216.736 562.556 Q213.264 565.634 206.945 565.634 Q204.769 565.634 202.5 565.264 Q200.255 564.893 197.848 564.153 L197.848 559.454 Q199.931 560.588 202.153 561.143 Q204.375 561.699 206.852 561.699 Q210.857 561.699 213.195 559.593 Q215.533 557.486 215.533 553.875 Q215.533 550.264 213.195 548.157 Q210.857 546.051 206.852 546.051 Q204.977 546.051 203.102 546.468 Q201.25 546.884 199.306 547.764 L199.306 530.403 Z" fill="#000000" fill-rule="nonzero" fill-opacity="1" /><path clip-path="url(#clip300)" d="M239.422 533.482 Q235.81 533.482 233.982 537.046 Q232.176 540.588 232.176 547.718 Q232.176 554.824 233.982 558.389 Q235.81 561.931 239.422 561.931 Q243.056 561.931 244.861 558.389 Q246.69 554.824 246.69 547.718 Q246.69 540.588 244.861 537.046 Q243.056 533.482 239.422 533.482 M239.422 529.778 Q245.232 529.778 248.287 534.384 Q251.366 538.968 251.366 547.718 Q251.366 556.444 248.287 561.051 Q245.232 565.634 239.422 565.634 Q233.611 565.634 230.533 561.051 Q227.477 556.444 227.477 547.718 Q227.477 538.968 230.533 534.384 Q233.611 529.778 239.422 529.778 Z" fill="#000000" fill-rule="nonzero" fill-opacity="1" /><path clip-path="url(#clip300)" d="M287.755 539.5 L277.176 550.125 L287.755 560.704 L285 563.505 L274.375 552.88 L263.75 563.505 L261.019 560.704 L271.574 550.125 L261.019 539.5 L263.75 536.699 L274.375 547.324 L285 536.699 L287.755 539.5 Z" fill="#000000" fill-rule="nonzero" fill-opacity="1" /><path clip-path="url(#clip300)" d="M300.116 561.028 L307.754 561.028 L307.754 534.662 L299.444 536.329 L299.444 532.07 L307.708 530.403 L312.384 530.403 L312.384 561.028 L320.023 561.028 L320.023 564.963 L300.116 564.963 L300.116 561.028 Z" fill="#000000" fill-rule="nonzero" fill-opacity="1" /><path clip-path="url(#clip300)" d="M339.467 533.482 Q335.856 533.482 334.027 537.046 Q332.222 540.588 332.222 547.718 Q332.222 554.824 334.027 558.389 Q335.856 561.931 339.467 561.931 Q343.102 561.931 344.907 558.389 Q346.736 554.824 346.736 547.718 Q346.736 540.588 344.907 537.046 Q343.102 533.482 339.467 533.482 M339.467 529.778 Q345.277 529.778 348.333 534.384 Q351.412 538.968 351.412 547.718 Q351.412 556.444 348.333 561.051 Q345.277 565.634 339.467 565.634 Q333.657 565.634 330.578 561.051 Q327.523 556.444 327.523 547.718 Q327.523 538.968 330.578 534.384 Q333.657 529.778 339.467 529.778 Z" fill="#000000" fill-rule="nonzero" fill-opacity="1" /><path clip-path="url(#clip300)" d="M364.088 512.783 L354.496 527.772 L364.088 527.772 L364.088 512.783 M363.091 509.473 L367.868 509.473 L367.868 527.772 L371.875 527.772 L371.875 530.932 L367.868 530.932 L367.868 537.553 L364.088 537.553 L364.088 530.932 L351.412 530.932 L351.412 527.265 L363.091 509.473 Z" fill="#000000" fill-rule="nonzero" fill-opacity="1" /><path clip-path="url(#clip300)" d="M154.075 298.312 L172.431 298.312 L172.431 302.247 L158.357 302.247 L158.357 310.72 Q159.376 310.372 160.394 310.21 Q161.413 310.025 162.431 310.025 Q168.218 310.025 171.598 313.196 Q174.977 316.368 174.977 321.784 Q174.977 327.363 171.505 330.465 Q168.033 333.544 161.714 333.544 Q159.538 333.544 157.269 333.173 Q155.024 332.803 152.616 332.062 L152.616 327.363 Q154.7 328.497 156.922 329.053 Q159.144 329.608 161.621 329.608 Q165.626 329.608 167.964 327.502 Q170.302 325.395 170.302 321.784 Q170.302 318.173 167.964 316.067 Q165.626 313.96 161.621 313.96 Q159.746 313.96 157.871 314.377 Q156.019 314.794 154.075 315.673 L154.075 298.312 Z" fill="#000000" fill-rule="nonzero" fill-opacity="1" /><path clip-path="url(#clip300)" d="M184.19 326.993 L189.075 326.993 L189.075 332.872 L184.19 332.872 L184.19 326.993 Z" fill="#000000" fill-rule="nonzero" fill-opacity="1" /><path clip-path="url(#clip300)" d="M209.26 301.391 Q205.649 301.391 203.82 304.956 Q202.014 308.497 202.014 315.627 Q202.014 322.733 203.82 326.298 Q205.649 329.84 209.26 329.84 Q212.894 329.84 214.699 326.298 Q216.528 322.733 216.528 315.627 Q216.528 308.497 214.699 304.956 Q212.894 301.391 209.26 301.391 M209.26 297.687 Q215.07 297.687 218.125 302.294 Q221.204 306.877 221.204 315.627 Q221.204 324.354 218.125 328.96 Q215.07 333.544 209.26 333.544 Q203.449 333.544 200.371 328.96 Q197.315 324.354 197.315 315.627 Q197.315 306.877 200.371 302.294 Q203.449 297.687 209.26 297.687 Z" fill="#000000" fill-rule="nonzero" fill-opacity="1" /><path clip-path="url(#clip300)" d="M239.422 301.391 Q235.81 301.391 233.982 304.956 Q232.176 308.497 232.176 315.627 Q232.176 322.733 233.982 326.298 Q235.81 329.84 239.422 329.84 Q243.056 329.84 244.861 326.298 Q246.69 322.733 246.69 315.627 Q246.69 308.497 244.861 304.956 Q243.056 301.391 239.422 301.391 M239.422 297.687 Q245.232 297.687 248.287 302.294 Q251.366 306.877 251.366 315.627 Q251.366 324.354 248.287 328.96 Q245.232 333.544 239.422 333.544 Q233.611 333.544 230.533 328.96 Q227.477 324.354 227.477 315.627 Q227.477 306.877 230.533 302.294 Q233.611 297.687 239.422 297.687 Z" fill="#000000" fill-rule="nonzero" fill-opacity="1" /><path clip-path="url(#clip300)" d="M287.755 307.409 L277.176 318.034 L287.755 328.613 L285 331.414 L274.375 320.789 L263.75 331.414 L261.019 328.613 L271.574 318.034 L261.019 307.409 L263.75 304.609 L274.375 315.233 L285 304.609 L287.755 307.409 Z" fill="#000000" fill-rule="nonzero" fill-opacity="1" /><path clip-path="url(#clip300)" d="M300.116 328.937 L307.754 328.937 L307.754 302.571 L299.444 304.238 L299.444 299.979 L307.708 298.312 L312.384 298.312 L312.384 328.937 L320.023 328.937 L320.023 332.872 L300.116 332.872 L300.116 328.937 Z" fill="#000000" fill-rule="nonzero" fill-opacity="1" /><path clip-path="url(#clip300)" d="M339.467 301.391 Q335.856 301.391 334.027 304.956 Q332.222 308.497 332.222 315.627 Q332.222 322.733 334.027 326.298 Q335.856 329.84 339.467 329.84 Q343.102 329.84 344.907 326.298 Q346.736 322.733 346.736 315.627 Q346.736 308.497 344.907 304.956 Q343.102 301.391 339.467 301.391 M339.467 297.687 Q345.277 297.687 348.333 302.294 Q351.412 306.877 351.412 315.627 Q351.412 324.354 348.333 328.96 Q345.277 333.544 339.467 333.544 Q333.657 333.544 330.578 328.96 Q327.523 324.354 327.523 315.627 Q327.523 306.877 330.578 302.294 Q333.657 297.687 339.467 297.687 Z" fill="#000000" fill-rule="nonzero" fill-opacity="1" /><path clip-path="url(#clip300)" d="M364.088 280.692 L354.496 295.682 L364.088 295.682 L364.088 280.692 M363.091 277.382 L367.868 277.382 L367.868 295.682 L371.875 295.682 L371.875 298.842 L367.868 298.842 L367.868 305.462 L364.088 305.462 L364.088 298.842 L351.412 298.842 L351.412 295.174 L363.091 277.382 Z" fill="#000000" fill-rule="nonzero" fill-opacity="1" /><path clip-path="url(#clip300)" d="M65.3263 846.686 L63.2973 846.686 L63.2973 844.947 Q63.2973 841.243 62.7176 840.406 Q62.1057 839.536 60.1733 839.536 L25.4232 839.536 Q23.5231 839.536 22.9434 840.406 Q22.3315 841.275 22.3315 844.947 L22.3315 846.686 L20.2703 846.686 Q20.4635 844.367 20.4635 836.573 Q20.4635 828.844 20.2703 826.557 L22.3315 826.557 L22.3315 828.264 Q22.3315 831.968 22.9434 832.837 Q23.5231 833.675 25.4232 833.675 L60.1733 833.675 Q62.0735 833.675 62.6854 832.837 Q63.2973 831.968 63.2973 828.264 L63.2973 826.557 L65.3263 826.557 Q65.133 828.876 65.133 836.638 Q65.133 844.367 65.3263 846.686 Z" fill="#000000" fill-rule="nonzero" fill-opacity="1" /><path clip-path="url(#clip300)" d="M65.3263 817.833 L63.2973 817.833 Q63.2973 814.323 62.8786 813.517 Q62.4278 812.712 60.3022 812.712 L42.6212 812.712 Q40.1735 812.712 39.5616 813.582 Q38.9497 814.419 38.9497 817.833 L36.8885 817.833 L36.18 808.558 L43.1042 808.558 Q36.18 805.466 36.18 798.799 Q36.18 791.07 42.6212 790.007 Q40.1091 788.88 38.1445 786.529 Q36.18 784.146 36.18 780.442 Q36.18 775.482 38.6276 773.518 Q40.2701 772.068 42.1059 771.779 Q43.9416 771.489 48.7081 771.489 L61.3005 771.489 Q62.6854 771.424 63.0075 770.362 Q63.2973 769.299 63.2973 766.336 L65.3263 766.336 Q65.133 773.067 65.133 773.711 Q65.133 774.226 65.3263 781.183 L63.2973 781.183 Q63.2973 777.672 62.8786 776.867 Q62.4278 776.03 60.3022 776.03 L44.94 776.03 Q41.5906 776.03 39.626 777.06 Q37.6292 778.091 37.6292 780.925 Q37.6292 784.339 40.4956 787.076 Q43.3619 789.814 48.1928 789.814 L60.3022 789.814 Q62.4278 789.814 62.8786 789.009 Q63.2973 788.171 63.2973 784.661 L65.3263 784.661 Q65.133 791.392 65.133 792.068 Q65.133 792.584 65.3263 799.508 L63.2973 799.508 Q63.2973 795.997 62.8786 795.192 Q62.4278 794.355 60.3022 794.355 L44.94 794.355 Q41.5906 794.355 39.626 795.386 Q37.6292 796.416 37.6292 799.25 Q37.6292 802.664 40.4956 805.402 Q43.3619 808.139 48.1928 808.139 L60.3022 808.139 Q62.4278 808.139 62.8786 807.334 Q63.2973 806.497 63.2973 803.018 L65.3263 803.018 Q65.133 809.749 65.133 810.393 Q65.133 810.909 65.3263 817.833 Z" fill="#000000" fill-rule="nonzero" fill-opacity="1" /><path clip-path="url(#clip300)" d="M59.0461 762.654 Q53.4423 762.654 50.4794 756.052 Q48.5792 752.091 48.0961 743.91 L45.6807 743.91 Q41.5906 743.91 39.4328 746.068 Q37.2428 748.194 37.2428 750.899 Q37.2428 755.73 40.2701 758.049 Q40.3345 756.084 41.3329 755.376 Q42.2991 754.667 43.2975 754.667 Q44.6179 754.667 45.4875 755.504 Q46.3248 756.31 46.3248 757.694 Q46.3248 759.015 45.5197 759.884 Q44.6823 760.754 43.2331 760.754 Q40.0125 760.754 37.8869 757.855 Q35.7613 754.925 35.7613 750.77 Q35.7613 745.36 39.4006 741.752 Q40.5278 740.625 41.977 740.078 Q43.4263 739.498 44.3925 739.434 Q45.3264 739.369 47.1944 739.369 L60.3666 739.369 Q60.7531 739.369 61.3972 739.24 Q62.0413 739.112 62.8786 738.532 Q63.6838 737.92 63.6838 736.922 Q63.6838 734.538 59.4648 734.571 L55.7611 734.571 L55.7611 732.896 L59.4648 732.896 Q62.9753 732.896 64.3601 734.764 Q65.7128 736.6 65.7128 738.306 Q65.7128 740.496 64.1025 741.881 Q62.4922 743.266 60.3022 743.459 Q62.8142 744.458 64.4567 746.744 Q66.067 748.999 66.067 752.091 Q66.067 754.474 65.4551 756.728 Q64.8754 758.95 63.2329 760.818 Q61.5582 762.654 59.0461 762.654 M58.9817 757.566 Q61.4294 757.566 63.0075 755.826 Q64.5855 754.087 64.5855 751.64 Q64.5855 748.87 62.46 746.39 Q60.3022 743.91 56.0832 743.91 L49.481 743.91 Q49.7386 751.221 52.6694 754.409 Q55.5679 757.566 58.9817 757.566 Z" fill="#000000" fill-rule="nonzero" fill-opacity="1" /><path clip-path="url(#clip300)" d="M70.5436 732.63 Q68.418 732.63 66.5823 731.02 Q64.7466 729.377 63.9414 726.543 Q62.1057 729.442 58.08 729.442 Q54.9882 729.442 52.605 727.413 Q50.0285 730.504 45.8095 730.504 Q41.9126 730.504 39.0463 727.413 Q36.18 724.321 36.18 719.812 Q36.18 715.851 38.5632 712.823 Q35.4714 709.667 35.4392 705.835 Q35.4392 704.128 36.502 703.323 Q37.5648 702.485 38.692 702.485 Q39.6904 702.485 40.1735 703.129 Q40.6566 703.741 40.6566 704.385 Q40.6566 705.191 40.1413 705.77 Q39.5938 706.318 38.7564 706.318 Q37.3716 706.318 36.9529 705.255 Q36.8885 705.448 36.8885 705.899 Q36.8885 709.12 39.465 711.857 Q41.977 709.152 45.8739 709.152 Q49.7709 709.152 52.6372 712.244 Q55.5035 715.335 55.5035 719.812 Q55.5035 723.516 53.4423 726.35 Q54.7628 727.477 56.5663 727.477 Q58.2088 727.477 59.497 726.479 Q60.7853 725.48 60.9785 723.967 Q61.0429 723.516 61.0429 719.039 Q61.0429 716.398 61.1073 714.949 Q61.1717 713.5 61.6226 711.439 Q62.0413 709.345 62.8786 707.703 Q65.2619 703.419 70.4148 703.387 Q74.1829 703.387 76.5339 707.735 Q78.9172 712.05 78.9172 718.041 Q78.9172 724.095 76.5017 728.379 Q74.1185 732.63 70.5436 732.63 M70.5436 729.184 Q73.2489 729.184 75.3101 725.996 Q77.4035 722.807 77.4035 717.976 Q77.4035 713.242 75.3423 710.054 Q73.3133 706.833 70.5436 706.833 Q68.5791 706.833 67.323 707.96 Q66.067 709.088 65.5517 711.406 Q65.0686 713.693 64.972 715.303 Q64.8754 716.914 64.8754 719.877 L64.8754 723.773 Q65.0042 726.028 66.6467 727.606 Q68.2892 729.184 70.5436 729.184 M45.8739 725.577 Q53.9898 725.577 53.9898 719.812 Q53.9898 716.914 51.3489 715.142 Q49.5776 714.079 45.8095 714.079 Q37.6937 714.079 37.6937 719.812 Q37.6937 722.711 40.3345 724.514 Q42.1059 725.577 45.8739 725.577 Z" fill="#000000" fill-rule="nonzero" fill-opacity="1" /><path clip-path="url(#clip300)" d="M1124.09 54.4805 Q1124.09 54.7264 1123.76 55.6692 L1117.12 73.7864 Q1116.75 74.8522 1116.38 75.0571 Q1116.02 75.2211 1114.5 75.2211 L1075.64 75.2211 Q1074.7 75.2211 1074.33 75.1801 Q1073.96 75.1391 1073.67 74.9341 Q1073.39 74.7292 1073.39 74.2783 Q1073.39 73.4585 1073.67 73.0896 Q1074 72.7207 1074.37 72.6797 Q1074.74 72.6387 1075.64 72.6387 Q1077.69 72.6387 1078.92 72.5158 Q1080.15 72.3928 1080.93 72.2288 Q1081.75 72.0239 1082.16 71.45 Q1082.61 70.8762 1082.81 70.3843 Q1083.02 69.8515 1083.31 68.6628 L1094.54 23.5746 Q1094.87 22.2219 1094.87 22.017 Q1094.87 21.2382 1094.37 21.0332 Q1093.92 20.7873 1092.61 20.6643 L1089.41 20.5004 Q1088.43 20.5004 1088.02 20.4594 Q1087.65 20.4184 1087.36 20.2135 Q1087.08 20.0085 1087.08 19.5576 Q1087.08 18.7788 1087.36 18.4099 Q1087.69 18 1087.94 17.959 Q1088.23 17.8771 1088.68 17.8771 L1099.83 18.123 L1112.24 17.8771 Q1113.6 17.8771 1113.6 18.9018 Q1113.6 20.0495 1113.02 20.2954 Q1112.45 20.5004 1110.4 20.5004 Q1106.47 20.5004 1104.66 20.9103 Q1102.9 21.3202 1102.41 22.017 Q1101.96 22.6728 1101.51 24.4353 L1090.15 69.7695 Q1089.74 71.2861 1089.74 71.696 Q1089.74 72.1469 1089.95 72.3108 Q1090.19 72.4338 1090.85 72.5158 Q1091.59 72.6387 1092.69 72.6387 L1100.56 72.6387 Q1102.94 72.6387 1105.03 72.2698 Q1107.12 71.9009 1108.72 71.3681 Q1110.36 70.8352 1111.83 69.8515 Q1113.31 68.8677 1114.34 68.0069 Q1115.4 67.1052 1116.43 65.7115 Q1117.49 64.2769 1118.11 63.2932 Q1118.76 62.2685 1119.5 60.6289 Q1120.24 58.9483 1120.61 58.0056 Q1121.02 57.0218 1121.63 55.3413 Q1122 54.4805 1122.12 54.2346 Q1122.25 53.9886 1122.45 53.7837 Q1122.7 53.5787 1123.07 53.5787 Q1123.56 53.5787 1123.8 53.8656 Q1124.09 54.1526 1124.09 54.4805 Z" fill="#000000" fill-rule="nonzero" fill-opacity="1" /><path clip-path="url(#clip300)" d="M1149.74 22.7548 Q1149.74 24.5583 1148.26 25.911 Q1146.83 27.2226 1145.27 27.2226 Q1143.83 27.2226 1142.93 26.3618 Q1142.07 25.4601 1142.07 24.1894 Q1142.07 22.5089 1143.5 21.1152 Q1144.94 19.7216 1146.62 19.7216 Q1148.01 19.7216 1148.87 20.5824 Q1149.74 21.4431 1149.74 22.7548 M1150.47 63.2112 Q1150.47 63.5391 1150.1 64.8508 Q1149.74 66.1214 1148.83 68.0889 Q1147.97 70.0154 1146.78 71.819 Q1145.6 73.6225 1143.63 74.8931 Q1141.7 76.1638 1139.49 76.1638 Q1136.5 76.1638 1134.53 74.1963 Q1132.6 72.2288 1132.6 69.2776 Q1132.6 67.679 1134.53 62.5554 Q1140.1 47.6353 1140.31 47.0204 Q1141.25 44.6841 1141.25 42.6346 Q1141.25 41.6918 1141.05 41.118 Q1140.84 40.5031 1140.43 40.2982 Q1140.02 40.0523 1139.77 40.0113 Q1139.57 39.9703 1139.16 39.9703 Q1136.74 39.9703 1134.49 42.4296 Q1132.23 44.889 1130.68 50.3816 Q1130.35 51.4063 1130.14 51.6522 Q1129.94 51.8982 1129.32 51.8982 Q1128.3 51.8572 1128.3 51.0374 Q1128.3 50.7915 1128.58 49.8487 Q1128.87 48.865 1129.4 47.3893 Q1129.94 45.8727 1130.88 44.3151 Q1131.82 42.7166 1132.97 41.3229 Q1134.16 39.9293 1135.84 39.0275 Q1137.52 38.1258 1139.41 38.1258 Q1142.48 38.1258 1144.37 40.1342 Q1146.29 42.1017 1146.29 45.012 Q1146.29 46.6105 1145.19 49.4388 Q1143.83 53.1278 1143.34 54.3165 L1140.06 63.1292 Q1138.87 66.3264 1138.5 67.3101 Q1138.18 68.2529 1137.89 69.4006 Q1137.64 70.5073 1137.64 71.532 Q1137.64 72.9667 1138.09 73.6225 Q1138.59 74.2783 1139.65 74.2783 Q1142.6 74.2783 1144.78 71.3681 Q1146.95 68.4168 1148.22 63.908 Q1148.26 63.7851 1148.3 63.5801 Q1148.63 62.5554 1148.96 62.4324 Q1149.12 62.3914 1149.45 62.3914 Q1150.47 62.3914 1150.47 63.2112 Z" fill="#000000" fill-rule="nonzero" fill-opacity="1" /><path clip-path="url(#clip300)" d="M1203.13 63.2112 Q1203.13 63.5391 1202.76 64.8098 Q1202.39 66.0805 1201.49 68.0479 Q1200.63 70.0154 1199.44 71.819 Q1198.25 73.5815 1196.28 74.8931 Q1194.36 76.1638 1192.14 76.1638 Q1189.19 76.1638 1187.22 74.1963 Q1185.26 72.2288 1185.26 69.2776 Q1185.26 67.638 1186.12 65.3836 Q1191.57 50.8324 1191.57 45.8318 Q1191.57 39.9703 1187.02 39.9703 Q1184.77 39.9703 1182.63 40.8311 Q1180.54 41.6508 1179.11 42.7985 Q1177.67 43.9462 1176.36 45.5448 Q1175.09 47.1024 1174.44 48.1681 Q1173.82 49.1929 1173.33 50.2176 L1172.26 54.3985 Q1172.02 55.5462 1170.83 60.014 L1168.98 67.5971 Q1167.67 73.2536 1167.39 73.7864 Q1166.98 74.9341 1166.07 75.549 Q1165.17 76.1638 1164.27 76.1638 Q1163.25 76.1638 1162.55 75.549 Q1161.85 74.9341 1161.85 73.8684 Q1161.85 73.7045 1161.98 73.0896 Q1162.1 72.4748 1162.3 71.614 Q1162.51 70.7532 1162.59 70.2614 L1167.47 50.8734 Q1168.37 47.3484 1168.57 46.2416 Q1168.82 45.0939 1168.82 43.8233 Q1168.82 39.9703 1166.2 39.9703 Q1164.07 39.9703 1162.67 42.5116 Q1161.28 45.053 1160.09 49.9717 Q1159.72 51.3243 1159.48 51.6112 Q1159.27 51.8982 1158.66 51.8982 Q1157.63 51.8572 1157.63 51.0374 Q1157.63 50.8324 1157.96 49.4798 Q1158.29 48.1271 1158.9 46.2007 Q1159.56 44.2332 1160.17 42.9215 Q1160.7 41.9378 1160.99 41.4869 Q1161.32 40.995 1162.1 40.0523 Q1162.92 39.0685 1163.98 38.6176 Q1165.09 38.1258 1166.44 38.1258 Q1169.48 38.1258 1171.69 40.0933 Q1173.9 42.0197 1174.19 45.4219 Q1179.64 38.1258 1187.27 38.1258 Q1191.77 38.1258 1194.36 40.5031 Q1196.94 42.8805 1196.94 47.1024 Q1196.94 48.0862 1196.73 49.3568 Q1196.57 50.5865 1196.16 52.1441 Q1195.79 53.7017 1195.46 54.8904 Q1195.14 56.0791 1194.48 58.0056 Q1193.82 59.8911 1193.54 60.7109 Q1193.25 61.5306 1192.55 63.4571 Q1191.9 65.3426 1191.82 65.5476 Q1190.3 69.3596 1190.3 71.532 Q1190.3 72.9667 1190.75 73.6225 Q1191.24 74.2783 1192.31 74.2783 Q1195.18 74.2783 1197.31 71.45 Q1199.48 68.5808 1200.87 63.908 Q1201.2 62.8833 1201.37 62.6374 Q1201.57 62.3914 1202.14 62.3914 Q1203.13 62.3914 1203.13 63.2112 Z" fill="#000000" fill-rule="nonzero" fill-opacity="1" /><path clip-path="url(#clip300)" d="M1241.77 65.5066 Q1242.09 65.8755 1242.09 66.2444 Q1242.09 66.6133 1241.27 67.679 Q1240.49 68.7448 1238.81 70.1794 Q1237.13 71.614 1234.96 72.9667 Q1232.79 74.3193 1229.59 75.2211 Q1226.39 76.1638 1223.03 76.1638 Q1217.01 76.1638 1213.4 71.8599 Q1209.83 67.5561 1209.83 60.9568 Q1209.83 56.7349 1211.23 53.0049 Q1212.62 49.2339 1214.88 46.5696 Q1217.17 43.9053 1220.04 41.9788 Q1222.95 40.0113 1225.98 39.0685 Q1229.02 38.1258 1231.85 38.1258 Q1235.99 38.1258 1238.4 40.2162 Q1240.82 42.3067 1240.82 45.2579 Q1240.82 45.9547 1240.62 46.8155 Q1240.45 47.6763 1239.88 49.0289 Q1239.35 50.3816 1237.95 51.7342 Q1236.56 53.0459 1234.51 53.9066 Q1229.96 55.8331 1221.68 55.8331 L1217.21 55.8331 Q1215.9 61.1208 1215.9 64.5639 Q1215.9 65.9165 1216.15 67.3101 Q1216.39 68.6628 1217.05 70.3843 Q1217.75 72.1059 1219.3 73.2126 Q1220.9 74.2783 1223.2 74.2783 Q1223.93 74.2783 1224.71 74.2373 Q1225.53 74.1963 1227.58 73.7454 Q1229.67 73.2946 1231.52 72.5158 Q1233.36 71.737 1235.7 70.0564 Q1238.08 68.3349 1239.96 65.9985 Q1240.62 65.1377 1241.07 65.1377 Q1241.44 65.1377 1241.77 65.5066 M1238.04 45.2579 Q1238.04 43.0035 1236.35 41.4869 Q1234.72 39.9703 1231.85 39.9703 Q1230.94 39.9703 1229.84 40.1752 Q1228.73 40.3802 1226.89 41.241 Q1225.08 42.1017 1223.48 43.5364 Q1221.89 44.93 1220.29 47.6763 Q1218.69 50.3816 1217.75 53.9886 L1221.19 53.9886 Q1222.38 53.9886 1223.24 53.9886 Q1224.1 53.9476 1225.98 53.7837 Q1227.91 53.6197 1229.3 53.3328 Q1230.7 53.0049 1232.46 52.349 Q1234.22 51.6932 1235.33 50.8324 Q1236.48 49.9307 1237.26 48.4961 Q1238.04 47.0614 1238.04 45.2579 Z" fill="#000000" fill-rule="nonzero" fill-opacity="1" /><path clip-path="url(#clip300)" d="M1301.65 45.3399 Q1301.65 47.6353 1300.5 48.865 Q1299.35 50.0536 1297.8 50.0536 Q1296.53 50.0536 1295.83 49.3158 Q1295.17 48.578 1295.17 47.5943 Q1295.17 46.1597 1296.32 45.012 Q1297.51 43.8643 1299.23 43.8233 Q1298.66 42.3067 1297.14 41.4049 Q1295.62 40.4622 1294.27 40.2162 Q1292.96 39.9703 1291.65 39.9703 Q1289.07 39.9703 1287.1 40.7901 Q1285.13 41.6099 1284.15 42.8805 Q1283.16 44.1102 1282.71 45.2989 Q1282.26 46.4876 1282.26 47.5123 Q1282.26 48.4141 1282.47 49.1519 Q1282.71 49.8487 1283.29 50.3816 Q1283.86 50.8734 1284.27 51.2013 Q1284.72 51.5293 1285.71 51.8162 Q1286.69 52.1031 1287.1 52.2261 Q1287.51 52.3081 1288.66 52.554 Q1291.03 53.0459 1292.1 53.3328 Q1293.17 53.5787 1294.56 54.2755 Q1295.99 54.9724 1297.06 56.0791 Q1299.64 58.6614 1299.64 62.2275 Q1299.64 63.5391 1299.19 65.1377 Q1298.78 66.7363 1297.59 68.7448 Q1296.4 70.7532 1294.6 72.3518 Q1292.8 73.9504 1289.68 75.0571 Q1286.61 76.1638 1282.75 76.1638 Q1277.38 76.1638 1274.06 73.9094 Q1270.74 71.614 1270.74 68.0069 Q1270.74 65.3836 1272.18 63.949 Q1273.61 62.4734 1275.46 62.4734 Q1276.85 62.4734 1277.71 63.2522 Q1278.57 63.99 1278.57 65.3836 Q1278.57 67.2691 1277.06 68.7038 Q1275.54 70.1384 1273.29 69.8515 Q1275.21 74.2783 1282.84 74.2783 Q1285.71 74.2783 1287.92 73.5405 Q1290.17 72.7617 1291.4 71.696 Q1292.67 70.5893 1293.49 69.2366 Q1294.31 67.884 1294.56 66.8592 Q1294.85 65.8345 1294.85 65.0557 Q1294.85 63.7031 1294.31 62.6783 Q1293.78 61.6536 1293.04 61.0798 Q1292.35 60.4649 1290.99 59.9731 Q1289.68 59.4402 1288.74 59.2352 Q1287.8 59.0303 1286.12 58.7024 Q1285.34 58.5384 1284.84 58.4564 Q1284.35 58.3335 1283.33 58.0056 Q1282.34 57.6367 1281.65 57.2678 Q1280.99 56.8989 1280.13 56.243 Q1279.27 55.5872 1278.74 54.8084 Q1278.2 54.0296 1277.84 52.8819 Q1277.47 51.7342 1277.47 50.3816 Q1277.47 49.1519 1277.84 47.6763 Q1278.25 46.2007 1279.27 44.4791 Q1280.34 42.7576 1281.85 41.3639 Q1283.37 39.9703 1285.91 39.0685 Q1288.49 38.1258 1291.65 38.1258 Q1296.24 38.1258 1298.94 40.2572 Q1301.65 42.3477 1301.65 45.3399 Z" fill="#000000" fill-rule="nonzero" fill-opacity="1" /><path clip-path="url(#clip300)" d="M1341.72 65.5066 Q1342.05 65.8755 1342.05 66.2444 Q1342.05 66.6133 1341.23 67.679 Q1340.45 68.7448 1338.77 70.1794 Q1337.09 71.614 1334.92 72.9667 Q1332.74 74.3193 1329.55 75.2211 Q1326.35 76.1638 1322.99 76.1638 Q1316.72 76.1638 1313.03 72.0239 Q1309.38 67.884 1309.38 61.9405 Q1309.38 56.161 1312.62 50.6275 Q1315.86 45.053 1321.1 41.6099 Q1326.35 38.1258 1331.88 38.1258 Q1336.27 38.1258 1339.02 40.1752 Q1341.76 42.2247 1341.76 45.3399 Q1341.76 47.7582 1340.37 49.2339 Q1338.97 50.7095 1337.09 50.7095 Q1335.78 50.7095 1334.88 49.9717 Q1333.97 49.1929 1333.97 47.7582 Q1333.97 45.9137 1335.49 44.4791 Q1336.06 43.9053 1336.72 43.6593 Q1337.42 43.3724 1337.83 43.3724 Q1338.24 43.3314 1339.18 43.3314 Q1338.32 41.7328 1336.27 40.872 Q1334.26 39.9703 1331.97 39.9703 Q1328.56 39.9703 1325.33 42.3477 Q1322.09 44.6841 1320.12 48.3731 Q1318.15 51.9801 1316.88 57.1038 Q1315.61 62.1865 1315.61 65.1377 Q1315.61 69.1956 1317.5 71.737 Q1319.38 74.2783 1323.15 74.2783 Q1323.89 74.2783 1324.67 74.2373 Q1325.49 74.1963 1327.54 73.7454 Q1329.63 73.2946 1331.47 72.5158 Q1333.32 71.737 1335.65 70.0564 Q1338.03 68.3349 1339.92 65.9985 Q1340.57 65.1377 1341.02 65.1377 Q1341.39 65.1377 1341.72 65.5066 Z" fill="#000000" fill-rule="nonzero" fill-opacity="1" /><path clip-path="url(#clip300)" d="M1383.12 63.2112 Q1382.02 68.4988 1380.58 71.532 Q1378.29 76.1638 1374.39 76.1638 Q1371.44 76.1638 1369.35 74.3603 Q1367.26 72.5568 1366.77 69.8515 Q1361.4 76.1638 1355.83 76.1638 Q1350.91 76.1638 1347.79 72.4338 Q1344.68 68.6628 1344.68 62.7193 Q1344.68 56.7349 1347.63 50.9964 Q1350.62 45.2579 1355.33 41.6918 Q1360.05 38.1258 1364.88 38.1258 Q1370.01 38.1258 1372.63 43.4954 Q1372.84 42.0197 1373.78 40.913 Q1374.72 39.8063 1376.16 39.8063 Q1377.26 39.8063 1377.92 40.4212 Q1378.57 40.995 1378.57 42.0607 Q1378.57 42.5936 1378 44.93 L1374.97 56.6529 L1373.12 64.2359 Q1372.43 67.0232 1372.22 68.0479 Q1372.06 69.0727 1372.06 70.4253 Q1372.06 74.2783 1374.56 74.2783 Q1375.79 74.2783 1376.77 73.4995 Q1377.75 72.7207 1378.53 71.0811 Q1379.31 69.4416 1379.8 67.925 Q1380.3 66.3674 1380.95 63.908 Q1381.16 62.9243 1381.32 62.6783 Q1381.53 62.3914 1382.1 62.3914 Q1383.12 62.3914 1383.12 63.2112 M1371.61 47.3484 Q1371.61 46.9794 1371.32 45.9547 Q1371.03 44.93 1370.38 43.4954 Q1369.72 42.0607 1368.29 41.036 Q1366.89 39.9703 1365.01 39.9703 Q1362.47 39.9703 1359.8 42.1427 Q1357.18 44.3151 1355.25 48.0042 Q1353.78 50.9554 1352.18 57.1448 Q1350.62 63.3342 1350.62 66.4084 Q1350.62 68.2939 1351.03 69.9744 Q1351.48 71.614 1352.75 72.9667 Q1354.02 74.2783 1355.99 74.2783 Q1360.79 74.2783 1365.5 68.3349 Q1366.4 67.3101 1366.61 66.9002 Q1366.85 66.4494 1367.18 65.2197 L1371.36 48.783 Q1371.61 47.5533 1371.61 47.3484 Z" fill="#000000" fill-rule="nonzero" fill-opacity="1" /><path clip-path="url(#clip300)" d="M1406.26 17.8771 L1394.17 66.4084 Q1393.68 68.3349 1393.68 70.4253 Q1393.68 74.2783 1396.22 74.2783 Q1397.41 74.2783 1398.39 73.4995 Q1399.37 72.6797 1400.11 71.0811 Q1400.89 69.4416 1401.38 67.884 Q1401.91 66.3264 1402.57 63.908 Q1402.78 62.9653 1402.98 62.6783 Q1403.19 62.3914 1403.76 62.3914 Q1404.78 62.3914 1404.78 63.2112 Q1403.76 68.2529 1402.24 71.45 Q1400.03 76.1638 1395.93 76.1638 Q1392.86 76.1638 1390.56 74.0324 Q1388.31 71.8599 1388.31 68.4168 Q1388.31 67.1052 1388.72 65.5476 L1399.29 23.5746 L1399.58 21.935 Q1399.58 21.4841 1399.41 21.2382 Q1399.25 20.9922 1398.27 20.7463 Q1397.32 20.5004 1395.44 20.5004 Q1394.66 20.5004 1394.29 20.4594 Q1393.96 20.4184 1393.63 20.2135 Q1393.35 20.0085 1393.35 19.5576 Q1393.35 18.8198 1393.63 18.4099 Q1393.96 18 1394.21 17.9181 Q1394.45 17.8361 1394.95 17.7951 Q1395.64 17.7541 1397.98 17.5491 Q1400.32 17.3032 1402.32 17.1393 Q1404.33 16.9753 1405.19 16.9753 Q1405.69 16.9753 1405.93 17.2212 Q1406.22 17.4262 1406.26 17.6721 L1406.26 17.8771 Z" fill="#000000" fill-rule="nonzero" fill-opacity="1" /><path clip-path="url(#clip300)" d="M1446.01 65.5066 Q1446.34 65.8755 1446.34 66.2444 Q1446.34 66.6133 1445.52 67.679 Q1444.74 68.7448 1443.06 70.1794 Q1441.38 71.614 1439.2 72.9667 Q1437.03 74.3193 1433.83 75.2211 Q1430.64 76.1638 1427.28 76.1638 Q1421.25 76.1638 1417.64 71.8599 Q1414.08 67.5561 1414.08 60.9568 Q1414.08 56.7349 1415.47 53.0049 Q1416.86 49.2339 1419.12 46.5696 Q1421.41 43.9053 1424.28 41.9788 Q1427.19 40.0113 1430.23 39.0685 Q1433.26 38.1258 1436.09 38.1258 Q1440.23 38.1258 1442.65 40.2162 Q1445.07 42.3067 1445.07 45.2579 Q1445.07 45.9547 1444.86 46.8155 Q1444.7 47.6763 1444.12 49.0289 Q1443.59 50.3816 1442.2 51.7342 Q1440.8 53.0459 1438.75 53.9066 Q1434.2 55.8331 1425.92 55.8331 L1421.46 55.8331 Q1420.14 61.1208 1420.14 64.5639 Q1420.14 65.9165 1420.39 67.3101 Q1420.64 68.6628 1421.29 70.3843 Q1421.99 72.1059 1423.55 73.2126 Q1425.14 74.2783 1427.44 74.2783 Q1428.18 74.2783 1428.96 74.2373 Q1429.78 74.1963 1431.83 73.7454 Q1433.92 73.2946 1435.76 72.5158 Q1437.61 71.737 1439.94 70.0564 Q1442.32 68.3349 1444.2 65.9985 Q1444.86 65.1377 1445.31 65.1377 Q1445.68 65.1377 1446.01 65.5066 M1442.28 45.2579 Q1442.28 43.0035 1440.6 41.4869 Q1438.96 39.9703 1436.09 39.9703 Q1435.19 39.9703 1434.08 40.1752 Q1432.97 40.3802 1431.13 41.241 Q1429.33 42.1017 1427.73 43.5364 Q1426.13 44.93 1424.53 47.6763 Q1422.93 50.3816 1421.99 53.9886 L1425.43 53.9886 Q1426.62 53.9886 1427.48 53.9886 Q1428.34 53.9476 1430.23 53.7837 Q1432.15 53.6197 1433.55 53.3328 Q1434.94 53.0049 1436.7 52.349 Q1438.47 51.6932 1439.57 50.8324 Q1440.72 49.9307 1441.5 48.4961 Q1442.28 47.0614 1442.28 45.2579 Z" fill="#000000" fill-rule="nonzero" fill-opacity="1" /><path clip-path="url(#clip300)" d="M1505.89 45.3399 Q1505.89 47.6353 1504.75 48.865 Q1503.6 50.0536 1502.04 50.0536 Q1500.77 50.0536 1500.07 49.3158 Q1499.42 48.578 1499.42 47.5943 Q1499.42 46.1597 1500.56 45.012 Q1501.75 43.8643 1503.47 43.8233 Q1502.9 42.3067 1501.38 41.4049 Q1499.87 40.4622 1498.52 40.2162 Q1497.2 39.9703 1495.89 39.9703 Q1493.31 39.9703 1491.34 40.7901 Q1489.37 41.6099 1488.39 42.8805 Q1487.41 44.1102 1486.96 45.2989 Q1486.51 46.4876 1486.51 47.5123 Q1486.51 48.4141 1486.71 49.1519 Q1486.96 49.8487 1487.53 50.3816 Q1488.1 50.8734 1488.51 51.2013 Q1488.96 51.5293 1489.95 51.8162 Q1490.93 52.1031 1491.34 52.2261 Q1491.75 52.3081 1492.9 52.554 Q1495.28 53.0459 1496.34 53.3328 Q1497.41 53.5787 1498.8 54.2755 Q1500.24 54.9724 1501.3 56.0791 Q1503.88 58.6614 1503.88 62.2275 Q1503.88 63.5391 1503.43 65.1377 Q1503.02 66.7363 1501.84 68.7448 Q1500.65 70.7532 1498.84 72.3518 Q1497.04 73.9504 1493.92 75.0571 Q1490.85 76.1638 1487 76.1638 Q1481.63 76.1638 1478.31 73.9094 Q1474.99 71.614 1474.99 68.0069 Q1474.99 65.3836 1476.42 63.949 Q1477.86 62.4734 1479.7 62.4734 Q1481.09 62.4734 1481.96 63.2522 Q1482.82 63.99 1482.82 65.3836 Q1482.82 67.2691 1481.3 68.7038 Q1479.78 70.1384 1477.53 69.8515 Q1479.46 74.2783 1487.08 74.2783 Q1489.95 74.2783 1492.16 73.5405 Q1494.42 72.7617 1495.65 71.696 Q1496.92 70.5893 1497.74 69.2366 Q1498.56 67.884 1498.8 66.8592 Q1499.09 65.8345 1499.09 65.0557 Q1499.09 63.7031 1498.56 62.6783 Q1498.02 61.6536 1497.29 61.0798 Q1496.59 60.4649 1495.24 59.9731 Q1493.92 59.4402 1492.98 59.2352 Q1492.04 59.0303 1490.36 58.7024 Q1489.58 58.5384 1489.09 58.4564 Q1488.6 58.3335 1487.57 58.0056 Q1486.59 57.6367 1485.89 57.2678 Q1485.23 56.8989 1484.37 56.243 Q1483.51 55.5872 1482.98 54.8084 Q1482.45 54.0296 1482.08 52.8819 Q1481.71 51.7342 1481.71 50.3816 Q1481.71 49.1519 1482.08 47.6763 Q1482.49 46.2007 1483.51 44.4791 Q1484.58 42.7576 1486.1 41.3639 Q1487.61 39.9703 1490.15 39.0685 Q1492.74 38.1258 1495.89 38.1258 Q1500.48 38.1258 1503.19 40.2572 Q1505.89 42.3477 1505.89 45.3399 Z" fill="#000000" fill-rule="nonzero" fill-opacity="1" /><path clip-path="url(#clip300)" d="M1567.53 43.9872 Q1567.53 47.1434 1565.8 54.1116 Q1564.08 61.0798 1561.99 65.8345 Q1557.52 76.1638 1549.82 76.1638 Q1548.87 76.1638 1547.93 76.0818 Q1547.03 75.9999 1545.68 75.631 Q1544.33 75.2621 1543.22 74.6882 Q1542.11 74.0734 1541 72.9257 Q1539.94 71.778 1539.32 70.2614 Q1535.92 76.1638 1530.59 76.1638 Q1525.43 76.1638 1522.03 73.5405 Q1518.67 70.9172 1518.67 65.5476 Q1518.67 63.1292 1519.65 59.5632 Q1520.63 55.9971 1523.38 48.619 Q1524.9 44.807 1524.9 42.7166 Q1524.9 41.7738 1524.69 41.159 Q1524.49 40.5441 1524.08 40.3392 Q1523.71 40.0933 1523.46 40.0523 Q1523.22 39.9703 1522.81 39.9703 Q1520.35 39.9703 1518.13 42.4706 Q1515.92 44.93 1514.32 50.3816 Q1513.99 51.4063 1513.79 51.6522 Q1513.58 51.8982 1512.97 51.8982 Q1511.94 51.8572 1511.94 51.0374 Q1511.94 50.7095 1512.31 49.4388 Q1512.68 48.1271 1513.54 46.2007 Q1514.44 44.2332 1515.67 42.4706 Q1516.9 40.6671 1518.83 39.3964 Q1520.8 38.1258 1523.05 38.1258 Q1526.08 38.1258 1528.01 40.1342 Q1529.94 42.1427 1529.94 45.012 Q1529.94 45.8318 1529.73 46.7335 Q1529.53 47.5943 1529.32 48.1681 Q1529.16 48.701 1528.5 50.3816 Q1525.8 57.4727 1524.94 60.8748 Q1524.12 64.2769 1524.12 66.6543 Q1524.12 67.4331 1524.16 68.0479 Q1524.2 68.6628 1524.53 69.9334 Q1524.9 71.2041 1525.55 72.0649 Q1526.21 72.8847 1527.56 73.5815 Q1528.95 74.2783 1530.84 74.2783 Q1535.55 74.2783 1538.59 67.2282 Q1538.5 66.8183 1538.5 65.7525 Q1538.5 63.3752 1539.24 60.178 Q1539.45 59.4402 1540.64 54.7264 Q1541.82 49.9717 1542.85 45.8318 Q1543.92 41.6508 1544.04 41.4049 Q1544.45 40.2572 1545.35 39.6424 Q1546.25 39.0275 1547.15 39.0275 Q1548.18 39.0275 1548.87 39.6424 Q1549.57 40.2572 1549.57 41.3229 Q1549.57 41.5279 1549.33 42.4706 Q1549.12 43.3724 1548.79 44.725 Q1548.47 46.0777 1548.3 46.7745 L1544.78 60.8748 Q1543.87 64.154 1543.87 66.9822 Q1543.87 70.5483 1545.47 72.4338 Q1547.07 74.2783 1550.06 74.2783 Q1555.68 74.2783 1559.29 66.9002 Q1560.93 63.7031 1562.4 58.7024 Q1563.92 53.7017 1563.92 51.5293 Q1563.92 47.4303 1560.88 44.3971 Q1560.23 43.8233 1559.94 43.3724 Q1559.66 42.8805 1559.66 42.1427 Q1559.66 40.7491 1560.97 39.4374 Q1562.28 38.1258 1563.84 38.1258 Q1565.23 38.1258 1566.38 39.5194 Q1567.53 40.872 1567.53 43.9872 Z" fill="#000000" fill-rule="nonzero" fill-opacity="1" /><path clip-path="url(#clip300)" d="M1606.62 65.5066 Q1606.95 65.8755 1606.95 66.2444 Q1606.95 66.6133 1606.13 67.679 Q1605.35 68.7448 1603.67 70.1794 Q1601.99 71.614 1599.82 72.9667 Q1597.65 74.3193 1594.45 75.2211 Q1591.25 76.1638 1587.89 76.1638 Q1581.87 76.1638 1578.26 71.8599 Q1574.69 67.5561 1574.69 60.9568 Q1574.69 56.7349 1576.09 53.0049 Q1577.48 49.2339 1579.73 46.5696 Q1582.03 43.9053 1584.9 41.9788 Q1587.81 40.0113 1590.84 39.0685 Q1593.88 38.1258 1596.7 38.1258 Q1600.84 38.1258 1603.26 40.2162 Q1605.68 42.3067 1605.68 45.2579 Q1605.68 45.9547 1605.48 46.8155 Q1605.31 47.6763 1604.74 49.0289 Q1604.2 50.3816 1602.81 51.7342 Q1601.42 53.0459 1599.37 53.9066 Q1594.82 55.8331 1586.54 55.8331 L1582.07 55.8331 Q1580.76 61.1208 1580.76 64.5639 Q1580.76 65.9165 1581 67.3101 Q1581.25 68.6628 1581.91 70.3843 Q1582.6 72.1059 1584.16 73.2126 Q1585.76 74.2783 1588.05 74.2783 Q1588.79 74.2783 1589.57 74.2373 Q1590.39 74.1963 1592.44 73.7454 Q1594.53 73.2946 1596.38 72.5158 Q1598.22 71.737 1600.56 70.0564 Q1602.93 68.3349 1604.82 65.9985 Q1605.48 65.1377 1605.93 65.1377 Q1606.3 65.1377 1606.62 65.5066 M1602.89 45.2579 Q1602.89 43.0035 1601.21 41.4869 Q1599.57 39.9703 1596.7 39.9703 Q1595.8 39.9703 1594.7 40.1752 Q1593.59 40.3802 1591.74 41.241 Q1589.94 42.1017 1588.34 43.5364 Q1586.74 44.93 1585.14 47.6763 Q1583.55 50.3816 1582.6 53.9886 L1586.05 53.9886 Q1587.24 53.9886 1588.1 53.9886 Q1588.96 53.9476 1590.84 53.7837 Q1592.77 53.6197 1594.16 53.3328 Q1595.56 53.0049 1597.32 52.349 Q1599.08 51.6932 1600.19 50.8324 Q1601.34 49.9307 1602.11 48.4961 Q1602.89 47.0614 1602.89 45.2579 Z" fill="#000000" fill-rule="nonzero" fill-opacity="1" /><path clip-path="url(#clip300)" d="M1645.35 65.5066 Q1645.68 65.8755 1645.68 66.2444 Q1645.68 66.6133 1644.86 67.679 Q1644.08 68.7448 1642.4 70.1794 Q1640.72 71.614 1638.55 72.9667 Q1636.37 74.3193 1633.18 75.2211 Q1629.98 76.1638 1626.62 76.1638 Q1620.59 76.1638 1616.99 71.8599 Q1613.42 67.5561 1613.42 60.9568 Q1613.42 56.7349 1614.81 53.0049 Q1616.21 49.2339 1618.46 46.5696 Q1620.76 43.9053 1623.63 41.9788 Q1626.54 40.0113 1629.57 39.0685 Q1632.6 38.1258 1635.43 38.1258 Q1639.57 38.1258 1641.99 40.2162 Q1644.41 42.3067 1644.41 45.2579 Q1644.41 45.9547 1644.2 46.8155 Q1644.04 47.6763 1643.47 49.0289 Q1642.93 50.3816 1641.54 51.7342 Q1640.15 53.0459 1638.1 53.9066 Q1633.55 55.8331 1625.27 55.8331 L1620.8 55.8331 Q1619.49 61.1208 1619.49 64.5639 Q1619.49 65.9165 1619.73 67.3101 Q1619.98 68.6628 1620.64 70.3843 Q1621.33 72.1059 1622.89 73.2126 Q1624.49 74.2783 1626.78 74.2783 Q1627.52 74.2783 1628.3 74.2373 Q1629.12 74.1963 1631.17 73.7454 Q1633.26 73.2946 1635.1 72.5158 Q1636.95 71.737 1639.29 70.0564 Q1641.66 68.3349 1643.55 65.9985 Q1644.2 65.1377 1644.65 65.1377 Q1645.02 65.1377 1645.35 65.5066 M1641.62 45.2579 Q1641.62 43.0035 1639.94 41.4869 Q1638.3 39.9703 1635.43 39.9703 Q1634.53 39.9703 1633.42 40.1752 Q1632.32 40.3802 1630.47 41.241 Q1628.67 42.1017 1627.07 43.5364 Q1625.47 44.93 1623.87 47.6763 Q1622.27 50.3816 1621.33 53.9886 L1624.77 53.9886 Q1625.96 53.9886 1626.82 53.9886 Q1627.69 53.9476 1629.57 53.7837 Q1631.5 53.6197 1632.89 53.3328 Q1634.28 53.0049 1636.05 52.349 Q1637.81 51.6932 1638.92 50.8324 Q1640.06 49.9307 1640.84 48.4961 Q1641.62 47.0614 1641.62 45.2579 Z" fill="#000000" fill-rule="nonzero" fill-opacity="1" /><path clip-path="url(#clip300)" d="M1689.29 51.5293 Q1689.29 57.5137 1686.25 63.2932 Q1683.26 69.0727 1678.55 72.6387 Q1673.84 76.1638 1669.04 76.1638 Q1666.17 76.1638 1664.24 74.6062 Q1662.36 73.0076 1661.33 70.7532 Q1660.55 73.5405 1658.87 80.2218 Q1657.19 86.903 1657.19 87.5588 Q1657.19 87.9277 1657.28 88.0917 Q1657.36 88.2557 1657.73 88.4606 Q1658.1 88.7065 1659 88.7885 Q1659.9 88.9115 1661.42 88.9115 Q1662.19 88.9115 1662.48 88.9115 Q1662.81 88.9525 1663.1 89.1574 Q1663.42 89.3624 1663.42 89.8132 Q1663.42 91.4938 1661.91 91.4938 Q1660.55 91.4938 1657.77 91.3708 Q1654.98 91.2479 1653.59 91.2479 Q1652.4 91.2479 1650.02 91.3708 Q1647.64 91.4938 1646.54 91.4938 Q1645.43 91.4938 1645.43 90.5101 Q1645.43 89.9362 1645.59 89.5673 Q1645.72 89.2394 1646.04 89.0754 Q1646.37 88.9525 1646.66 88.9115 Q1646.91 88.9115 1647.4 88.9115 Q1649.28 88.9115 1650.1 88.5836 Q1650.92 88.2966 1651.21 87.6818 Q1651.54 87.108 1651.91 85.4684 L1661.33 48.0862 Q1661.91 45.5858 1661.91 43.8233 Q1661.91 41.6099 1661.21 40.7901 Q1660.51 39.9703 1659.28 39.9703 Q1657.15 39.9703 1655.76 42.5116 Q1654.37 45.053 1653.18 49.9717 Q1652.81 51.3243 1652.56 51.6112 Q1652.36 51.8982 1651.74 51.8982 Q1650.72 51.8572 1650.72 51.0374 Q1650.72 50.8324 1651.05 49.5208 Q1651.37 48.1681 1651.99 46.2007 Q1652.64 44.1922 1653.34 42.9215 Q1653.75 42.0607 1654.12 41.4869 Q1654.49 40.913 1655.23 40.0113 Q1656 39.1095 1657.11 38.6176 Q1658.22 38.1258 1659.57 38.1258 Q1662.19 38.1258 1664.37 39.6834 Q1666.54 41.241 1667.11 44.3971 Q1669.45 41.6508 1672.32 39.8883 Q1675.19 38.1258 1678.1 38.1258 Q1682.93 38.1258 1686.09 41.8968 Q1689.29 45.6268 1689.29 51.5293 M1683.22 47.8402 Q1683.22 44.1102 1681.79 42.0607 Q1680.39 39.9703 1677.85 39.9703 Q1674.7 39.9703 1671.05 43.1674 Q1667.44 46.2007 1666.7 49.0289 L1662.56 65.4656 L1662.32 66.8183 Q1662.32 67.0642 1662.44 67.802 Q1662.6 68.4988 1663.05 69.6465 Q1663.55 70.7942 1664.2 71.819 Q1664.9 72.8027 1666.13 73.5405 Q1667.4 74.2783 1668.96 74.2783 Q1671.46 74.2783 1674.16 72.0649 Q1676.91 69.8515 1678.96 65.6706 Q1680.23 62.9653 1681.71 57.1448 Q1683.22 51.2833 1683.22 47.8402 Z" fill="#000000" fill-rule="nonzero" fill-opacity="1" /><circle clip-path="url(#clip302)" cx="687.485" cy="1217.2" r="36" fill="#f7fbf5" fill-rule="evenodd" fill-opacity="1" stroke="#000000" stroke-opacity="1" stroke-width="3.2"/>
<circle clip-path="url(#clip302)" cx="687.485" cy="329.451" r="36" fill="#f7fbf5" fill-rule="evenodd" fill-opacity="1" stroke="#000000" stroke-opacity="1" stroke-width="3.2"/>
<circle clip-path="url(#clip302)" cx="700.306" cy="1207.77" r="36" fill="#f7fbf5" fill-rule="evenodd" fill-opacity="1" stroke="#000000" stroke-opacity="1" stroke-width="3.2"/>
<circle clip-path="url(#clip302)" cx="700.306" cy="338.877" r="36" fill="#f7fbf5" fill-rule="evenodd" fill-opacity="1" stroke="#000000" stroke-opacity="1" stroke-width="3.2"/>
<circle clip-path="url(#clip302)" cx="1149.6" cy="1293.43" r="36" fill="#f7fbf5" fill-rule="evenodd" fill-opacity="1" stroke="#000000" stroke-opacity="1" stroke-width="3.2"/>
<circle clip-path="url(#clip302)" cx="1149.6" cy="253.226" r="36" fill="#f7fbf5" fill-rule="evenodd" fill-opacity="1" stroke="#000000" stroke-opacity="1" stroke-width="3.2"/>
<circle clip-path="url(#clip302)" cx="1151.36" cy="1285.75" r="36" fill="#f7fbf5" fill-rule="evenodd" fill-opacity="1" stroke="#000000" stroke-opacity="1" stroke-width="3.2"/>
<circle clip-path="url(#clip302)" cx="1151.36" cy="260.897" r="36" fill="#f7fbf5" fill-rule="evenodd" fill-opacity="1" stroke="#000000" stroke-opacity="1" stroke-width="3.2"/>
<circle clip-path="url(#clip302)" cx="1168.47" cy="773.326" r="36" fill="#f7fbf5" fill-rule="evenodd" fill-opacity="1" stroke="#000000" stroke-opacity="1" stroke-width="3.2"/>
<circle clip-path="url(#clip302)" cx="1544.52" cy="773.326" r="36" fill="#f7fbf5" fill-rule="evenodd" fill-opacity="1" stroke="#000000" stroke-opacity="1" stroke-width="3.2"/>
<circle clip-path="url(#clip302)" cx="1551.8" cy="773.326" r="36" fill="#f7fbf5" fill-rule="evenodd" fill-opacity="1" stroke="#000000" stroke-opacity="1" stroke-width="3.2"/>
<circle clip-path="url(#clip302)" cx="1695.85" cy="773.326" r="36" fill="#f7fbf5" fill-rule="evenodd" fill-opacity="1" stroke="#000000" stroke-opacity="1" stroke-width="3.2"/>
<circle clip-path="url(#clip302)" cx="1806.57" cy="773.553" r="36" fill="#f7fbf5" fill-rule="evenodd" fill-opacity="1" stroke="#000000" stroke-opacity="1" stroke-width="3.2"/>
<circle clip-path="url(#clip302)" cx="1806.57" cy="773.099" r="36" fill="#f7fbf5" fill-rule="evenodd" fill-opacity="1" stroke="#000000" stroke-opacity="1" stroke-width="3.2"/>
<circle clip-path="url(#clip302)" cx="1992.46" cy="773.393" r="36" fill="#f7fbf5" fill-rule="evenodd" fill-opacity="1" stroke="#000000" stroke-opacity="1" stroke-width="3.2"/>
<circle clip-path="url(#clip302)" cx="1992.46" cy="773.259" r="36" fill="#f7fbf5" fill-rule="evenodd" fill-opacity="1" stroke="#000000" stroke-opacity="1" stroke-width="3.2"/>
<circle clip-path="url(#clip302)" cx="2089.26" cy="773.334" r="36" fill="#f7fbf5" fill-rule="evenodd" fill-opacity="1" stroke="#000000" stroke-opacity="1" stroke-width="3.2"/>
<circle clip-path="url(#clip302)" cx="2089.26" cy="773.317" r="36" fill="#f7fbf5" fill-rule="evenodd" fill-opacity="1" stroke="#000000" stroke-opacity="1" stroke-width="3.2"/>
<circle clip-path="url(#clip302)" cx="2169.94" cy="773.326" r="36" fill="#f7fbf5" fill-rule="evenodd" fill-opacity="1" stroke="#000000" stroke-opacity="1" stroke-width="3.2"/>
<circle clip-path="url(#clip302)" cx="2211.22" cy="773.34" r="36" fill="#f7fbf5" fill-rule="evenodd" fill-opacity="1" stroke="#000000" stroke-opacity="1" stroke-width="3.2"/>
<circle clip-path="url(#clip302)" cx="2211.22" cy="773.312" r="36" fill="#f7fbf5" fill-rule="evenodd" fill-opacity="1" stroke="#000000" stroke-opacity="1" stroke-width="3.2"/>
<circle clip-path="url(#clip302)" cx="2231.2" cy="773.326" r="36" fill="#f7fbf5" fill-rule="evenodd" fill-opacity="1" stroke="#000000" stroke-opacity="1" stroke-width="3.2"/>
<circle clip-path="url(#clip302)" cx="437.709" cy="1151.92" r="28.8" fill="#c6e9c0" fill-rule="evenodd" fill-opacity="1" stroke="#000000" stroke-opacity="1" stroke-width="3.2"/>
<circle clip-path="url(#clip302)" cx="437.709" cy="394.732" r="28.8" fill="#c6e9c0" fill-rule="evenodd" fill-opacity="1" stroke="#000000" stroke-opacity="1" stroke-width="3.2"/>
<circle clip-path="url(#clip302)" cx="647.721" cy="1217.22" r="28.8" fill="#c6e9c0" fill-rule="evenodd" fill-opacity="1" stroke="#000000" stroke-opacity="1" stroke-width="3.2"/>
<circle clip-path="url(#clip302)" cx="647.721" cy="329.427" r="28.8" fill="#c6e9c0" fill-rule="evenodd" fill-opacity="1" stroke="#000000" stroke-opacity="1" stroke-width="3.2"/>
<circle clip-path="url(#clip302)" cx="700.967" cy="1207.77" r="28.8" fill="#c6e9c0" fill-rule="evenodd" fill-opacity="1" stroke="#000000" stroke-opacity="1" stroke-width="3.2"/>
<circle clip-path="url(#clip302)" cx="700.967" cy="338.88" r="28.8" fill="#c6e9c0" fill-rule="evenodd" fill-opacity="1" stroke="#000000" stroke-opacity="1" stroke-width="3.2"/>
<circle clip-path="url(#clip302)" cx="917.17" cy="1261.23" r="28.8" fill="#c6e9c0" fill-rule="evenodd" fill-opacity="1" stroke="#000000" stroke-opacity="1" stroke-width="3.2"/>
<circle clip-path="url(#clip302)" cx="917.17" cy="285.42" r="28.8" fill="#c6e9c0" fill-rule="evenodd" fill-opacity="1" stroke="#000000" stroke-opacity="1" stroke-width="3.2"/>
<circle clip-path="url(#clip302)" cx="946.7" cy="1252.76" r="28.8" fill="#c6e9c0" fill-rule="evenodd" fill-opacity="1" stroke="#000000" stroke-opacity="1" stroke-width="3.2"/>
<circle clip-path="url(#clip302)" cx="946.7" cy="293.887" r="28.8" fill="#c6e9c0" fill-rule="evenodd" fill-opacity="1" stroke="#000000" stroke-opacity="1" stroke-width="3.2"/>
<circle clip-path="url(#clip302)" cx="1134.75" cy="1293.43" r="28.8" fill="#c6e9c0" fill-rule="evenodd" fill-opacity="1" stroke="#000000" stroke-opacity="1" stroke-width="3.2"/>
<circle clip-path="url(#clip302)" cx="1134.75" cy="253.219" r="28.8" fill="#c6e9c0" fill-rule="evenodd" fill-opacity="1" stroke="#000000" stroke-opacity="1" stroke-width="3.2"/>
<circle clip-path="url(#clip302)" cx="1147.75" cy="1285.75" r="28.8" fill="#c6e9c0" fill-rule="evenodd" fill-opacity="1" stroke="#000000" stroke-opacity="1" stroke-width="3.2"/>
<circle clip-path="url(#clip302)" cx="1147.75" cy="260.9" r="28.8" fill="#c6e9c0" fill-rule="evenodd" fill-opacity="1" stroke="#000000" stroke-opacity="1" stroke-width="3.2"/>
<circle clip-path="url(#clip302)" cx="1194.17" cy="773.326" r="28.8" fill="#c6e9c0" fill-rule="evenodd" fill-opacity="1" stroke="#000000" stroke-opacity="1" stroke-width="3.2"/>
<circle clip-path="url(#clip302)" cx="1276.64" cy="1313.06" r="28.8" fill="#c6e9c0" fill-rule="evenodd" fill-opacity="1" stroke="#000000" stroke-opacity="1" stroke-width="3.2"/>
<circle clip-path="url(#clip302)" cx="1276.64" cy="233.588" r="28.8" fill="#c6e9c0" fill-rule="evenodd" fill-opacity="1" stroke="#000000" stroke-opacity="1" stroke-width="3.2"/>
<circle clip-path="url(#clip302)" cx="1279.87" cy="1305.89" r="28.8" fill="#c6e9c0" fill-rule="evenodd" fill-opacity="1" stroke="#000000" stroke-opacity="1" stroke-width="3.2"/>
<circle clip-path="url(#clip302)" cx="1279.87" cy="240.763" r="28.8" fill="#c6e9c0" fill-rule="evenodd" fill-opacity="1" stroke="#000000" stroke-opacity="1" stroke-width="3.2"/>
<circle clip-path="url(#clip302)" cx="1544.8" cy="773.326" r="28.8" fill="#c6e9c0" fill-rule="evenodd" fill-opacity="1" stroke="#000000" stroke-opacity="1" stroke-width="3.2"/>
<circle clip-path="url(#clip302)" cx="1548" cy="773.326" r="28.8" fill="#c6e9c0" fill-rule="evenodd" fill-opacity="1" stroke="#000000" stroke-opacity="1" stroke-width="3.2"/>
<circle clip-path="url(#clip302)" cx="1751.33" cy="773.326" r="28.8" fill="#c6e9c0" fill-rule="evenodd" fill-opacity="1" stroke="#000000" stroke-opacity="1" stroke-width="3.2"/>
<circle clip-path="url(#clip302)" cx="1844.79" cy="773.542" r="28.8" fill="#c6e9c0" fill-rule="evenodd" fill-opacity="1" stroke="#000000" stroke-opacity="1" stroke-width="3.2"/>
<circle clip-path="url(#clip302)" cx="1844.79" cy="773.11" r="28.8" fill="#c6e9c0" fill-rule="evenodd" fill-opacity="1" stroke="#000000" stroke-opacity="1" stroke-width="3.2"/>
<circle clip-path="url(#clip302)" cx="1990.77" cy="773.393" r="28.8" fill="#c6e9c0" fill-rule="evenodd" fill-opacity="1" stroke="#000000" stroke-opacity="1" stroke-width="3.2"/>
<circle clip-path="url(#clip302)" cx="1990.77" cy="773.259" r="28.8" fill="#c6e9c0" fill-rule="evenodd" fill-opacity="1" stroke="#000000" stroke-opacity="1" stroke-width="3.2"/>
<circle clip-path="url(#clip302)" cx="2008.48" cy="773.326" r="28.8" fill="#c6e9c0" fill-rule="evenodd" fill-opacity="1" stroke="#000000" stroke-opacity="1" stroke-width="3.2"/>
<circle clip-path="url(#clip302)" cx="2121.19" cy="773.326" r="28.8" fill="#c6e9c0" fill-rule="evenodd" fill-opacity="1" stroke="#000000" stroke-opacity="1" stroke-width="3.2"/>
<circle clip-path="url(#clip302)" cx="2170.88" cy="773.326" r="28.8" fill="#c6e9c0" fill-rule="evenodd" fill-opacity="1" stroke="#000000" stroke-opacity="1" stroke-width="3.2"/>
<circle clip-path="url(#clip302)" cx="2220.24" cy="773.341" r="28.8" fill="#c6e9c0" fill-rule="evenodd" fill-opacity="1" stroke="#000000" stroke-opacity="1" stroke-width="3.2"/>
<circle clip-path="url(#clip302)" cx="2220.24" cy="773.311" r="28.8" fill="#c6e9c0" fill-rule="evenodd" fill-opacity="1" stroke="#000000" stroke-opacity="1" stroke-width="3.2"/>
<circle clip-path="url(#clip302)" cx="2231.2" cy="773.326" r="28.8" fill="#c6e9c0" fill-rule="evenodd" fill-opacity="1" stroke="#000000" stroke-opacity="1" stroke-width="3.2"/>
<circle clip-path="url(#clip302)" cx="523.596" cy="1171.65" r="21.6" fill="#74c476" fill-rule="evenodd" fill-opacity="1" stroke="#000000" stroke-opacity="1" stroke-width="3.2"/>
<circle clip-path="url(#clip302)" cx="523.596" cy="375.001" r="21.6" fill="#74c476" fill-rule="evenodd" fill-opacity="1" stroke="#000000" stroke-opacity="1" stroke-width="3.2"/>
<circle clip-path="url(#clip302)" cx="581.032" cy="1217.26" r="21.6" fill="#74c476" fill-rule="evenodd" fill-opacity="1" stroke="#000000" stroke-opacity="1" stroke-width="3.2"/>
<circle clip-path="url(#clip302)" cx="581.032" cy="329.395" r="21.6" fill="#74c476" fill-rule="evenodd" fill-opacity="1" stroke="#000000" stroke-opacity="1" stroke-width="3.2"/>
<circle clip-path="url(#clip302)" cx="689.306" cy="1207.76" r="21.6" fill="#74c476" fill-rule="evenodd" fill-opacity="1" stroke="#000000" stroke-opacity="1" stroke-width="3.2"/>
<circle clip-path="url(#clip302)" cx="689.306" cy="338.892" r="21.6" fill="#74c476" fill-rule="evenodd" fill-opacity="1" stroke="#000000" stroke-opacity="1" stroke-width="3.2"/>
<circle clip-path="url(#clip302)" cx="774.436" cy="1247.85" r="21.6" fill="#74c476" fill-rule="evenodd" fill-opacity="1" stroke="#000000" stroke-opacity="1" stroke-width="3.2"/>
<circle clip-path="url(#clip302)" cx="774.436" cy="298.798" r="21.6" fill="#74c476" fill-rule="evenodd" fill-opacity="1" stroke="#000000" stroke-opacity="1" stroke-width="3.2"/>
<circle clip-path="url(#clip302)" cx="852.293" cy="1239.04" r="21.6" fill="#74c476" fill-rule="evenodd" fill-opacity="1" stroke="#000000" stroke-opacity="1" stroke-width="3.2"/>
<circle clip-path="url(#clip302)" cx="852.293" cy="307.613" r="21.6" fill="#74c476" fill-rule="evenodd" fill-opacity="1" stroke="#000000" stroke-opacity="1" stroke-width="3.2"/>
<circle clip-path="url(#clip302)" cx="952.955" cy="1273.34" r="21.6" fill="#74c476" fill-rule="evenodd" fill-opacity="1" stroke="#000000" stroke-opacity="1" stroke-width="3.2"/>
<circle clip-path="url(#clip302)" cx="952.955" cy="273.313" r="21.6" fill="#74c476" fill-rule="evenodd" fill-opacity="1" stroke="#000000" stroke-opacity="1" stroke-width="3.2"/>
<circle clip-path="url(#clip302)" cx="959.361" cy="1318.92" r="21.6" fill="#74c476" fill-rule="evenodd" fill-opacity="1" stroke="#000000" stroke-opacity="1" stroke-width="3.2"/>
<circle clip-path="url(#clip302)" cx="959.361" cy="227.736" r="21.6" fill="#74c476" fill-rule="evenodd" fill-opacity="1" stroke="#000000" stroke-opacity="1" stroke-width="3.2"/>
<circle clip-path="url(#clip302)" cx="962.987" cy="1311.92" r="21.6" fill="#74c476" fill-rule="evenodd" fill-opacity="1" stroke="#000000" stroke-opacity="1" stroke-width="3.2"/>
<circle clip-path="url(#clip302)" cx="962.987" cy="234.736" r="21.6" fill="#74c476" fill-rule="evenodd" fill-opacity="1" stroke="#000000" stroke-opacity="1" stroke-width="3.2"/>
<circle clip-path="url(#clip302)" cx="1004.28" cy="1265.13" r="21.6" fill="#74c476" fill-rule="evenodd" fill-opacity="1" stroke="#000000" stroke-opacity="1" stroke-width="3.2"/>
<circle clip-path="url(#clip302)" cx="1004.28" cy="281.519" r="21.6" fill="#74c476" fill-rule="evenodd" fill-opacity="1" stroke="#000000" stroke-opacity="1" stroke-width="3.2"/>
<circle clip-path="url(#clip302)" cx="1106.55" cy="1293.44" r="21.6" fill="#74c476" fill-rule="evenodd" fill-opacity="1" stroke="#000000" stroke-opacity="1" stroke-width="3.2"/>
<circle clip-path="url(#clip302)" cx="1106.55" cy="253.208" r="21.6" fill="#74c476" fill-rule="evenodd" fill-opacity="1" stroke="#000000" stroke-opacity="1" stroke-width="3.2"/>
<circle clip-path="url(#clip302)" cx="1136.08" cy="1285.75" r="21.6" fill="#74c476" fill-rule="evenodd" fill-opacity="1" stroke="#000000" stroke-opacity="1" stroke-width="3.2"/>
<circle clip-path="url(#clip302)" cx="1136.08" cy="260.906" r="21.6" fill="#74c476" fill-rule="evenodd" fill-opacity="1" stroke="#000000" stroke-opacity="1" stroke-width="3.2"/>
<circle clip-path="url(#clip302)" cx="1214.34" cy="773.326" r="21.6" fill="#74c476" fill-rule="evenodd" fill-opacity="1" stroke="#000000" stroke-opacity="1" stroke-width="3.2"/>
<circle clip-path="url(#clip302)" cx="1225.19" cy="1307.96" r="21.6" fill="#74c476" fill-rule="evenodd" fill-opacity="1" stroke="#000000" stroke-opacity="1" stroke-width="3.2"/>
<circle clip-path="url(#clip302)" cx="1225.19" cy="238.695" r="21.6" fill="#74c476" fill-rule="evenodd" fill-opacity="1" stroke="#000000" stroke-opacity="1" stroke-width="3.2"/>
<circle clip-path="url(#clip302)" cx="1238.52" cy="1300.64" r="21.6" fill="#74c476" fill-rule="evenodd" fill-opacity="1" stroke="#000000" stroke-opacity="1" stroke-width="3.2"/>
<circle clip-path="url(#clip302)" cx="1238.52" cy="246.012" r="21.6" fill="#74c476" fill-rule="evenodd" fill-opacity="1" stroke="#000000" stroke-opacity="1" stroke-width="3.2"/>
<circle clip-path="url(#clip302)" cx="1300.27" cy="1316.73" r="21.6" fill="#74c476" fill-rule="evenodd" fill-opacity="1" stroke="#000000" stroke-opacity="1" stroke-width="3.2"/>
<circle clip-path="url(#clip302)" cx="1300.27" cy="229.926" r="21.6" fill="#74c476" fill-rule="evenodd" fill-opacity="1" stroke="#000000" stroke-opacity="1" stroke-width="3.2"/>
<circle clip-path="url(#clip302)" cx="1303.63" cy="1309.65" r="21.6" fill="#74c476" fill-rule="evenodd" fill-opacity="1" stroke="#000000" stroke-opacity="1" stroke-width="3.2"/>
<circle clip-path="url(#clip302)" cx="1303.63" cy="237.006" r="21.6" fill="#74c476" fill-rule="evenodd" fill-opacity="1" stroke="#000000" stroke-opacity="1" stroke-width="3.2"/>
<circle clip-path="url(#clip302)" cx="1544.92" cy="773.326" r="21.6" fill="#74c476" fill-rule="evenodd" fill-opacity="1" stroke="#000000" stroke-opacity="1" stroke-width="3.2"/>
<circle clip-path="url(#clip302)" cx="1545.71" cy="773.326" r="21.6" fill="#74c476" fill-rule="evenodd" fill-opacity="1" stroke="#000000" stroke-opacity="1" stroke-width="3.2"/>
<circle clip-path="url(#clip302)" cx="1852.59" cy="773.326" r="21.6" fill="#74c476" fill-rule="evenodd" fill-opacity="1" stroke="#000000" stroke-opacity="1" stroke-width="3.2"/>
<circle clip-path="url(#clip302)" cx="1865.17" cy="773.535" r="21.6" fill="#74c476" fill-rule="evenodd" fill-opacity="1" stroke="#000000" stroke-opacity="1" stroke-width="3.2"/>
<circle clip-path="url(#clip302)" cx="1865.17" cy="773.117" r="21.6" fill="#74c476" fill-rule="evenodd" fill-opacity="1" stroke="#000000" stroke-opacity="1" stroke-width="3.2"/>
<circle clip-path="url(#clip302)" cx="1910.27" cy="773.326" r="21.6" fill="#74c476" fill-rule="evenodd" fill-opacity="1" stroke="#000000" stroke-opacity="1" stroke-width="3.2"/>
<circle clip-path="url(#clip302)" cx="1988.68" cy="773.393" r="21.6" fill="#74c476" fill-rule="evenodd" fill-opacity="1" stroke="#000000" stroke-opacity="1" stroke-width="3.2"/>
<circle clip-path="url(#clip302)" cx="1988.68" cy="773.259" r="21.6" fill="#74c476" fill-rule="evenodd" fill-opacity="1" stroke="#000000" stroke-opacity="1" stroke-width="3.2"/>
<circle clip-path="url(#clip302)" cx="2140.31" cy="773.326" r="21.6" fill="#74c476" fill-rule="evenodd" fill-opacity="1" stroke="#000000" stroke-opacity="1" stroke-width="3.2"/>
<circle clip-path="url(#clip302)" cx="2172.33" cy="773.326" r="21.6" fill="#74c476" fill-rule="evenodd" fill-opacity="1" stroke="#000000" stroke-opacity="1" stroke-width="3.2"/>
<circle clip-path="url(#clip302)" cx="2229.31" cy="773.341" r="21.6" fill="#74c476" fill-rule="evenodd" fill-opacity="1" stroke="#000000" stroke-opacity="1" stroke-width="3.2"/>
<circle clip-path="url(#clip302)" cx="2229.31" cy="773.311" r="21.6" fill="#74c476" fill-rule="evenodd" fill-opacity="1" stroke="#000000" stroke-opacity="1" stroke-width="3.2"/>
<circle clip-path="url(#clip302)" cx="2231.2" cy="773.326" r="21.6" fill="#74c476" fill-rule="evenodd" fill-opacity="1" stroke="#000000" stroke-opacity="1" stroke-width="3.2"/>
<circle clip-path="url(#clip302)" cx="434.786" cy="1151.89" r="14.4" fill="#228a45" fill-rule="evenodd" fill-opacity="1" stroke="#000000" stroke-opacity="1" stroke-width="3.2"/>
<circle clip-path="url(#clip302)" cx="434.786" cy="394.758" r="14.4" fill="#228a45" fill-rule="evenodd" fill-opacity="1" stroke="#000000" stroke-opacity="1" stroke-width="3.2"/>
<circle clip-path="url(#clip302)" cx="478.898" cy="1217.3" r="14.4" fill="#228a45" fill-rule="evenodd" fill-opacity="1" stroke="#000000" stroke-opacity="1" stroke-width="3.2"/>
<circle clip-path="url(#clip302)" cx="478.898" cy="329.352" r="14.4" fill="#228a45" fill-rule="evenodd" fill-opacity="1" stroke="#000000" stroke-opacity="1" stroke-width="3.2"/>
<circle clip-path="url(#clip302)" cx="544.266" cy="1181.09" r="14.4" fill="#228a45" fill-rule="evenodd" fill-opacity="1" stroke="#000000" stroke-opacity="1" stroke-width="3.2"/>
<circle clip-path="url(#clip302)" cx="544.266" cy="365.563" r="14.4" fill="#228a45" fill-rule="evenodd" fill-opacity="1" stroke="#000000" stroke-opacity="1" stroke-width="3.2"/>
<circle clip-path="url(#clip302)" cx="631.588" cy="1240.71" r="14.4" fill="#228a45" fill-rule="evenodd" fill-opacity="1" stroke="#000000" stroke-opacity="1" stroke-width="3.2"/>
<circle clip-path="url(#clip302)" cx="631.588" cy="305.944" r="14.4" fill="#228a45" fill-rule="evenodd" fill-opacity="1" stroke="#000000" stroke-opacity="1" stroke-width="3.2"/>
<circle clip-path="url(#clip302)" cx="658.97" cy="1207.74" r="14.4" fill="#228a45" fill-rule="evenodd" fill-opacity="1" stroke="#000000" stroke-opacity="1" stroke-width="3.2"/>
<circle clip-path="url(#clip302)" cx="658.97" cy="338.914" r="14.4" fill="#228a45" fill-rule="evenodd" fill-opacity="1" stroke="#000000" stroke-opacity="1" stroke-width="3.2"/>
<circle clip-path="url(#clip302)" cx="776.773" cy="1231.67" r="14.4" fill="#228a45" fill-rule="evenodd" fill-opacity="1" stroke="#000000" stroke-opacity="1" stroke-width="3.2"/>
<circle clip-path="url(#clip302)" cx="776.773" cy="314.98" r="14.4" fill="#228a45" fill-rule="evenodd" fill-opacity="1" stroke="#000000" stroke-opacity="1" stroke-width="3.2"/>
<circle clip-path="url(#clip302)" cx="782.96" cy="1261.28" r="14.4" fill="#228a45" fill-rule="evenodd" fill-opacity="1" stroke="#000000" stroke-opacity="1" stroke-width="3.2"/>
<circle clip-path="url(#clip302)" cx="782.96" cy="285.37" r="14.4" fill="#228a45" fill-rule="evenodd" fill-opacity="1" stroke="#000000" stroke-opacity="1" stroke-width="3.2"/>
<circle clip-path="url(#clip302)" cx="894.508" cy="1252.74" r="14.4" fill="#228a45" fill-rule="evenodd" fill-opacity="1" stroke="#000000" stroke-opacity="1" stroke-width="3.2"/>
<circle clip-path="url(#clip302)" cx="894.508" cy="293.915" r="14.4" fill="#228a45" fill-rule="evenodd" fill-opacity="1" stroke="#000000" stroke-opacity="1" stroke-width="3.2"/>
<circle clip-path="url(#clip302)" cx="927.513" cy="1278.9" r="14.4" fill="#228a45" fill-rule="evenodd" fill-opacity="1" stroke="#000000" stroke-opacity="1" stroke-width="3.2"/>
<circle clip-path="url(#clip302)" cx="927.513" cy="267.752" r="14.4" fill="#228a45" fill-rule="evenodd" fill-opacity="1" stroke="#000000" stroke-opacity="1" stroke-width="3.2"/>
<circle clip-path="url(#clip302)" cx="1007.9" cy="1270.8" r="14.4" fill="#228a45" fill-rule="evenodd" fill-opacity="1" stroke="#000000" stroke-opacity="1" stroke-width="3.2"/>
<circle clip-path="url(#clip302)" cx="1007.9" cy="275.855" r="14.4" fill="#228a45" fill-rule="evenodd" fill-opacity="1" stroke="#000000" stroke-opacity="1" stroke-width="3.2"/>
<circle clip-path="url(#clip302)" cx="1058.79" cy="1293.46" r="14.4" fill="#228a45" fill-rule="evenodd" fill-opacity="1" stroke="#000000" stroke-opacity="1" stroke-width="3.2"/>
<circle clip-path="url(#clip302)" cx="1058.79" cy="253.194" r="14.4" fill="#228a45" fill-rule="evenodd" fill-opacity="1" stroke="#000000" stroke-opacity="1" stroke-width="3.2"/>
<circle clip-path="url(#clip302)" cx="1111.75" cy="1285.74" r="14.4" fill="#228a45" fill-rule="evenodd" fill-opacity="1" stroke="#000000" stroke-opacity="1" stroke-width="3.2"/>
<circle clip-path="url(#clip302)" cx="1111.75" cy="260.916" r="14.4" fill="#228a45" fill-rule="evenodd" fill-opacity="1" stroke="#000000" stroke-opacity="1" stroke-width="3.2"/>
<circle clip-path="url(#clip302)" cx="1165.63" cy="1319.24" r="14.4" fill="#228a45" fill-rule="evenodd" fill-opacity="1" stroke="#000000" stroke-opacity="1" stroke-width="3.2"/>
<circle clip-path="url(#clip302)" cx="1165.63" cy="227.412" r="14.4" fill="#228a45" fill-rule="evenodd" fill-opacity="1" stroke="#000000" stroke-opacity="1" stroke-width="3.2"/>
<circle clip-path="url(#clip302)" cx="1167.87" cy="1312.24" r="14.4" fill="#228a45" fill-rule="evenodd" fill-opacity="1" stroke="#000000" stroke-opacity="1" stroke-width="3.2"/>
<circle clip-path="url(#clip302)" cx="1167.87" cy="234.411" r="14.4" fill="#228a45" fill-rule="evenodd" fill-opacity="1" stroke="#000000" stroke-opacity="1" stroke-width="3.2"/>
<circle clip-path="url(#clip302)" cx="1169.98" cy="1304.87" r="14.4" fill="#228a45" fill-rule="evenodd" fill-opacity="1" stroke="#000000" stroke-opacity="1" stroke-width="3.2"/>
<circle clip-path="url(#clip302)" cx="1169.98" cy="241.781" r="14.4" fill="#228a45" fill-rule="evenodd" fill-opacity="1" stroke="#000000" stroke-opacity="1" stroke-width="3.2"/>
<circle clip-path="url(#clip302)" cx="1200.43" cy="1297.46" r="14.4" fill="#228a45" fill-rule="evenodd" fill-opacity="1" stroke="#000000" stroke-opacity="1" stroke-width="3.2"/>
<circle clip-path="url(#clip302)" cx="1200.43" cy="249.195" r="14.4" fill="#228a45" fill-rule="evenodd" fill-opacity="1" stroke="#000000" stroke-opacity="1" stroke-width="3.2"/>
<circle clip-path="url(#clip302)" cx="1232.55" cy="773.326" r="14.4" fill="#228a45" fill-rule="evenodd" fill-opacity="1" stroke="#000000" stroke-opacity="1" stroke-width="3.2"/>
<circle clip-path="url(#clip302)" cx="1254.75" cy="1313.07" r="14.4" fill="#228a45" fill-rule="evenodd" fill-opacity="1" stroke="#000000" stroke-opacity="1" stroke-width="3.2"/>
<circle clip-path="url(#clip302)" cx="1254.75" cy="233.582" r="14.4" fill="#228a45" fill-rule="evenodd" fill-opacity="1" stroke="#000000" stroke-opacity="1" stroke-width="3.2"/>
<circle clip-path="url(#clip302)" cx="1268.48" cy="1305.88" r="14.4" fill="#228a45" fill-rule="evenodd" fill-opacity="1" stroke="#000000" stroke-opacity="1" stroke-width="3.2"/>
<circle clip-path="url(#clip302)" cx="1268.48" cy="240.768" r="14.4" fill="#228a45" fill-rule="evenodd" fill-opacity="1" stroke="#000000" stroke-opacity="1" stroke-width="3.2"/>
<circle clip-path="url(#clip302)" cx="1307.87" cy="1318.01" r="14.4" fill="#228a45" fill-rule="evenodd" fill-opacity="1" stroke="#000000" stroke-opacity="1" stroke-width="3.2"/>
<circle clip-path="url(#clip302)" cx="1307.87" cy="228.643" r="14.4" fill="#228a45" fill-rule="evenodd" fill-opacity="1" stroke="#000000" stroke-opacity="1" stroke-width="3.2"/>
<circle clip-path="url(#clip302)" cx="1311.34" cy="1310.96" r="14.4" fill="#228a45" fill-rule="evenodd" fill-opacity="1" stroke="#000000" stroke-opacity="1" stroke-width="3.2"/>
<circle clip-path="url(#clip302)" cx="1311.34" cy="235.689" r="14.4" fill="#228a45" fill-rule="evenodd" fill-opacity="1" stroke="#000000" stroke-opacity="1" stroke-width="3.2"/>
<circle clip-path="url(#clip302)" cx="1543.94" cy="773.326" r="14.4" fill="#228a45" fill-rule="evenodd" fill-opacity="1" stroke="#000000" stroke-opacity="1" stroke-width="3.2"/>
<circle clip-path="url(#clip302)" cx="1545.31" cy="773.326" r="14.4" fill="#228a45" fill-rule="evenodd" fill-opacity="1" stroke="#000000" stroke-opacity="1" stroke-width="3.2"/>
<circle clip-path="url(#clip302)" cx="1875.4" cy="773.529" r="14.4" fill="#228a45" fill-rule="evenodd" fill-opacity="1" stroke="#000000" stroke-opacity="1" stroke-width="3.2"/>
<circle clip-path="url(#clip302)" cx="1875.4" cy="773.123" r="14.4" fill="#228a45" fill-rule="evenodd" fill-opacity="1" stroke="#000000" stroke-opacity="1" stroke-width="3.2"/>
<circle clip-path="url(#clip302)" cx="1891.55" cy="773.342" r="14.4" fill="#228a45" fill-rule="evenodd" fill-opacity="1" stroke="#000000" stroke-opacity="1" stroke-width="3.2"/>
<circle clip-path="url(#clip302)" cx="1891.55" cy="773.31" r="14.4" fill="#228a45" fill-rule="evenodd" fill-opacity="1" stroke="#000000" stroke-opacity="1" stroke-width="3.2"/>
<circle clip-path="url(#clip302)" cx="1985.88" cy="773.392" r="14.4" fill="#228a45" fill-rule="evenodd" fill-opacity="1" stroke="#000000" stroke-opacity="1" stroke-width="3.2"/>
<circle clip-path="url(#clip302)" cx="1985.88" cy="773.259" r="14.4" fill="#228a45" fill-rule="evenodd" fill-opacity="1" stroke="#000000" stroke-opacity="1" stroke-width="3.2"/>
<circle clip-path="url(#clip302)" cx="2149.11" cy="773.326" r="14.4" fill="#228a45" fill-rule="evenodd" fill-opacity="1" stroke="#000000" stroke-opacity="1" stroke-width="3.2"/>
<circle clip-path="url(#clip302)" cx="2174.33" cy="773.326" r="14.4" fill="#228a45" fill-rule="evenodd" fill-opacity="1" stroke="#000000" stroke-opacity="1" stroke-width="3.2"/>
<circle clip-path="url(#clip302)" cx="2231.2" cy="773.326" r="14.4" fill="#228a45" fill-rule="evenodd" fill-opacity="1" stroke="#000000" stroke-opacity="1" stroke-width="3.2"/>
<circle clip-path="url(#clip302)" cx="2238.48" cy="773.342" r="14.4" fill="#228a45" fill-rule="evenodd" fill-opacity="1" stroke="#000000" stroke-opacity="1" stroke-width="3.2"/>
<circle clip-path="url(#clip302)" cx="2238.48" cy="773.31" r="14.4" fill="#228a45" fill-rule="evenodd" fill-opacity="1" stroke="#000000" stroke-opacity="1" stroke-width="3.2"/>
<path clip-path="url(#clip300)" d="M2032.74 425.996 L2287.93 425.996 L2287.93 166.796 L2032.74 166.796  Z" fill="#ffffff" fill-rule="evenodd" fill-opacity="1"/>
<polyline clip-path="url(#clip300)" style="stroke:#000000; stroke-linecap:round; stroke-linejoin:round; stroke-width:4; stroke-opacity:1; fill:none" points="2032.74,425.996 2287.93,425.996 2287.93,166.796 2032.74,166.796 2032.74,425.996 "/>
<circle clip-path="url(#clip300)" cx="2119.18" cy="218.636" r="21.9429" fill="#f7fbf5" fill-rule="evenodd" fill-opacity="1" stroke="#000000" stroke-opacity="1" stroke-width="1.95048"/>
<path clip-path="url(#clip300)" d="M2205.62 206.552 L2205.62 205.053 Q2211.38 205.053 2214.36 201.984 Q2215.18 201.984 2215.32 202.172 Q2215.46 202.359 2215.46 203.226 L2215.46 230.138 Q2215.46 231.567 2216.16 232.012 Q2216.86 232.457 2219.93 232.457 L2221.45 232.457 L2221.45 233.933 Q2219.77 233.792 2213.68 233.792 Q2207.59 233.792 2205.92 233.933 L2205.92 232.457 L2207.45 232.457 Q2210.47 232.457 2211.19 232.035 Q2211.92 231.59 2211.92 230.138 L2211.92 205.287 Q2209.41 206.552 2205.62 206.552 Z" fill="#000000" fill-rule="nonzero" fill-opacity="1" /><path clip-path="url(#clip300)" d="M2225.22 233.16 Q2224.49 232.387 2224.49 231.38 Q2224.49 230.372 2225.22 229.646 Q2225.95 228.897 2227.05 228.897 Q2228.1 228.897 2228.8 229.599 Q2229.53 230.279 2229.53 231.403 Q2229.53 232.504 2228.76 233.23 Q2228.01 233.933 2227.05 233.933 Q2225.95 233.933 2225.22 233.16 Z" fill="#000000" fill-rule="nonzero" fill-opacity="1" /><path clip-path="url(#clip300)" d="M2237.69 218.591 Q2237.69 211.541 2239.47 207.699 Q2241.95 201.984 2247.81 201.984 Q2249.05 201.984 2250.34 202.336 Q2251.65 202.664 2253.29 203.952 Q2254.95 205.24 2255.96 207.348 Q2257.88 211.424 2257.88 218.591 Q2257.88 225.594 2256.1 229.412 Q2253.5 234.987 2247.76 234.987 Q2245.61 234.987 2243.41 233.886 Q2241.23 232.785 2239.85 230.138 Q2237.69 226.18 2237.69 218.591 M2241.67 218.005 Q2241.67 225.243 2242.19 228.124 Q2242.77 231.239 2244.37 232.598 Q2245.98 233.933 2247.76 233.933 Q2249.68 233.933 2251.28 232.504 Q2252.89 231.052 2253.38 227.936 Q2253.92 224.868 2253.9 218.005 Q2253.9 211.33 2253.43 208.66 Q2252.8 205.545 2251.11 204.303 Q2249.45 203.038 2247.76 203.038 Q2247.13 203.038 2246.45 203.226 Q2245.8 203.413 2244.84 203.952 Q2243.88 204.491 2243.13 205.826 Q2242.4 207.161 2242.05 209.175 Q2241.67 211.775 2241.67 218.005 Z" fill="#000000" fill-rule="nonzero" fill-opacity="1" /><circle clip-path="url(#clip300)" cx="2119.18" cy="270.476" r="21.6847" fill="#c6e9c0" fill-rule="evenodd" fill-opacity="1" stroke="#000000" stroke-opacity="1" stroke-width="2.40941"/>
<path clip-path="url(#clip300)" d="M2205.62 285.773 Q2205.62 284.906 2205.69 284.648 Q2205.78 284.391 2206.16 283.992 L2215.36 273.733 Q2220.4 268.065 2220.4 263.123 Q2220.4 259.914 2218.71 257.619 Q2217.05 255.323 2213.98 255.323 Q2211.87 255.323 2210.09 256.612 Q2208.31 257.9 2207.49 260.195 Q2207.63 260.148 2208.13 260.148 Q2209.32 260.148 2209.98 260.898 Q2210.66 261.647 2210.66 262.655 Q2210.66 263.943 2209.81 264.575 Q2208.99 265.184 2208.17 265.184 Q2207.84 265.184 2207.4 265.114 Q2206.98 265.044 2206.3 264.388 Q2205.62 263.709 2205.62 262.514 Q2205.62 259.165 2208.15 256.495 Q2210.7 253.824 2214.59 253.824 Q2218.99 253.824 2221.87 256.448 Q2224.78 259.048 2224.78 263.123 Q2224.78 264.552 2224.33 265.864 Q2223.91 267.152 2223.33 268.159 Q2222.76 269.166 2221.22 270.782 Q2219.67 272.398 2218.43 273.546 Q2217.19 274.694 2214.4 277.13 L2209.32 282.072 L2217.96 282.072 Q2222.18 282.072 2222.51 281.697 Q2222.98 281.018 2223.56 277.434 L2224.78 277.434 L2223.42 285.773 L2205.62 285.773 Z" fill="#000000" fill-rule="nonzero" fill-opacity="1" /><path clip-path="url(#clip300)" d="M2230.1 285 Q2229.37 284.227 2229.37 283.22 Q2229.37 282.212 2230.1 281.486 Q2230.82 280.737 2231.92 280.737 Q2232.98 280.737 2233.68 281.439 Q2234.41 282.119 2234.41 283.243 Q2234.41 284.344 2233.63 285.07 Q2232.88 285.773 2231.92 285.773 Q2230.82 285.773 2230.1 285 Z" fill="#000000" fill-rule="nonzero" fill-opacity="1" /><path clip-path="url(#clip300)" d="M2242.57 270.431 Q2242.57 263.381 2244.35 259.539 Q2246.83 253.824 2252.69 253.824 Q2253.93 253.824 2255.21 254.176 Q2256.53 254.504 2258.17 255.792 Q2259.83 257.08 2260.84 259.188 Q2262.76 263.264 2262.76 270.431 Q2262.76 277.434 2260.98 281.252 Q2258.38 286.827 2252.64 286.827 Q2250.48 286.827 2248.28 285.726 Q2246.1 284.625 2244.72 281.978 Q2242.57 278.02 2242.57 270.431 M2246.55 269.845 Q2246.55 277.083 2247.06 279.964 Q2247.65 283.079 2249.24 284.438 Q2250.86 285.773 2252.64 285.773 Q2254.56 285.773 2256.15 284.344 Q2257.77 282.892 2258.26 279.776 Q2258.8 276.708 2258.78 269.845 Q2258.78 263.17 2258.31 260.5 Q2257.67 257.385 2255.99 256.143 Q2254.32 254.878 2252.64 254.878 Q2252.01 254.878 2251.33 255.066 Q2250.67 255.253 2249.71 255.792 Q2248.75 256.331 2248 257.666 Q2247.27 259.001 2246.92 261.015 Q2246.55 263.615 2246.55 269.845 Z" fill="#000000" fill-rule="nonzero" fill-opacity="1" /><circle clip-path="url(#clip300)" cx="2119.18" cy="322.316" r="21.2677" fill="#74c476" fill-rule="evenodd" fill-opacity="1" stroke="#000000" stroke-opacity="1" stroke-width="3.15077"/>
<path clip-path="url(#clip300)" d="M2205.62 331.148 Q2205.62 329.719 2206.44 329.04 Q2207.26 328.361 2208.31 328.361 Q2209.41 328.361 2210.19 329.087 Q2210.98 329.789 2210.98 331.031 Q2210.98 332.366 2210.05 333.115 Q2209.13 333.865 2207.82 333.678 Q2208.97 335.598 2211.08 336.465 Q2213.21 337.332 2215.18 337.332 Q2217.24 337.332 2218.9 335.551 Q2220.59 333.771 2220.59 329.415 Q2220.59 325.714 2219.13 323.583 Q2217.71 321.451 2214.87 321.451 L2212.76 321.451 Q2212.04 321.451 2211.83 321.381 Q2211.62 321.311 2211.62 320.912 Q2211.62 320.444 2212.34 320.35 Q2213.07 320.35 2214.22 320.21 Q2217 320.116 2218.48 317.704 Q2219.81 315.455 2219.81 312.246 Q2219.81 309.318 2218.41 308.1 Q2217.03 306.859 2215.22 306.859 Q2213.54 306.859 2211.69 307.562 Q2209.84 308.264 2208.83 309.834 Q2211.8 309.834 2211.8 312.246 Q2211.8 313.3 2211.12 314.003 Q2210.47 314.682 2209.37 314.682 Q2208.31 314.682 2207.61 314.026 Q2206.91 313.347 2206.91 312.199 Q2206.91 309.459 2209.34 307.562 Q2211.8 305.664 2215.41 305.664 Q2218.97 305.664 2221.59 307.538 Q2224.24 309.412 2224.24 312.293 Q2224.24 315.127 2222.37 317.446 Q2220.49 319.765 2217.52 320.725 Q2221.17 321.451 2223.35 323.934 Q2225.53 326.393 2225.53 329.415 Q2225.53 333.162 2222.58 335.926 Q2219.63 338.667 2215.32 338.667 Q2211.33 338.667 2208.48 336.512 Q2205.62 334.357 2205.62 331.148 Z" fill="#000000" fill-rule="nonzero" fill-opacity="1" /><path clip-path="url(#clip300)" d="M2230.1 336.84 Q2229.37 336.067 2229.37 335.06 Q2229.37 334.052 2230.1 333.326 Q2230.82 332.577 2231.92 332.577 Q2232.98 332.577 2233.68 333.279 Q2234.41 333.959 2234.41 335.083 Q2234.41 336.184 2233.63 336.91 Q2232.88 337.613 2231.92 337.613 Q2230.82 337.613 2230.1 336.84 Z" fill="#000000" fill-rule="nonzero" fill-opacity="1" /><path clip-path="url(#clip300)" d="M2242.57 322.271 Q2242.57 315.221 2244.35 311.379 Q2246.83 305.664 2252.69 305.664 Q2253.93 305.664 2255.21 306.016 Q2256.53 306.344 2258.17 307.632 Q2259.83 308.92 2260.84 311.028 Q2262.76 315.104 2262.76 322.271 Q2262.76 329.274 2260.98 333.092 Q2258.38 338.667 2252.64 338.667 Q2250.48 338.667 2248.28 337.566 Q2246.1 336.465 2244.72 333.818 Q2242.57 329.86 2242.57 322.271 M2246.55 321.685 Q2246.55 328.923 2247.06 331.804 Q2247.65 334.919 2249.24 336.278 Q2250.86 337.613 2252.64 337.613 Q2254.56 337.613 2256.15 336.184 Q2257.77 334.732 2258.26 331.616 Q2258.8 328.548 2258.78 321.685 Q2258.78 315.01 2258.31 312.34 Q2257.67 309.225 2255.99 307.983 Q2254.32 306.718 2252.64 306.718 Q2252.01 306.718 2251.33 306.906 Q2250.67 307.093 2249.71 307.632 Q2248.75 308.171 2248 309.506 Q2247.27 310.841 2246.92 312.855 Q2246.55 315.455 2246.55 321.685 Z" fill="#000000" fill-rule="nonzero" fill-opacity="1" /><circle clip-path="url(#clip300)" cx="2119.18" cy="374.156" r="20.48" fill="#228a45" fill-rule="evenodd" fill-opacity="1" stroke="#000000" stroke-opacity="1" stroke-width="4.55111"/>
<path clip-path="url(#clip300)" d="M2205.62 381.801 L2205.62 380.326 L2220.35 357.817 Q2220.73 357.231 2221.31 357.255 Q2221.85 357.255 2221.97 357.466 Q2222.09 357.676 2222.09 358.496 L2222.09 380.326 L2226.89 380.326 L2226.89 381.801 L2222.09 381.801 L2222.09 385.971 Q2222.09 387.353 2222.65 387.798 Q2223.23 388.243 2225.72 388.243 L2226.72 388.243 L2226.72 389.718 Q2224.76 389.578 2220.21 389.578 Q2215.69 389.578 2213.72 389.718 L2213.72 388.243 L2214.73 388.243 Q2217.21 388.243 2217.8 387.821 Q2218.38 387.376 2218.38 385.971 L2218.38 381.801 L2205.62 381.801 M2206.98 380.326 L2218.67 380.326 L2218.67 362.431 L2206.98 380.326 Z" fill="#000000" fill-rule="nonzero" fill-opacity="1" /><path clip-path="url(#clip300)" d="M2230.1 388.945 Q2229.37 388.172 2229.37 387.165 Q2229.37 386.158 2230.1 385.432 Q2230.82 384.682 2231.92 384.682 Q2232.98 384.682 2233.68 385.385 Q2234.41 386.064 2234.41 387.189 Q2234.41 388.289 2233.63 389.016 Q2232.88 389.718 2231.92 389.718 Q2230.82 389.718 2230.1 388.945 Z" fill="#000000" fill-rule="nonzero" fill-opacity="1" /><path clip-path="url(#clip300)" d="M2242.57 374.377 Q2242.57 367.326 2244.35 363.485 Q2246.83 357.77 2252.69 357.77 Q2253.93 357.77 2255.21 358.121 Q2256.53 358.449 2258.17 359.737 Q2259.83 361.026 2260.84 363.134 Q2262.76 367.209 2262.76 374.377 Q2262.76 381.38 2260.98 385.198 Q2258.38 390.772 2252.64 390.772 Q2250.48 390.772 2248.28 389.671 Q2246.1 388.571 2244.72 385.924 Q2242.57 381.965 2242.57 374.377 M2246.55 373.791 Q2246.55 381.028 2247.06 383.909 Q2247.65 387.025 2249.24 388.383 Q2250.86 389.718 2252.64 389.718 Q2254.56 389.718 2256.15 388.289 Q2257.77 386.837 2258.26 383.722 Q2258.8 380.654 2258.78 373.791 Q2258.78 367.116 2258.31 364.445 Q2257.67 361.33 2255.99 360.089 Q2254.32 358.824 2252.64 358.824 Q2252.01 358.824 2251.33 359.011 Q2250.67 359.199 2249.71 359.737 Q2248.75 360.276 2248 361.611 Q2247.27 362.946 2246.92 364.961 Q2246.55 367.561 2246.55 373.791 Z" fill="#000000" fill-rule="nonzero" fill-opacity="1" /></svg>
