<?xml version="1.0" encoding="utf-8"?>
<svg xmlns="http://www.w3.org/2000/svg" xmlns:xlink="http://www.w3.org/1999/xlink" width="1000" height="800" viewBox="0 0 4000 3200">
<defs>
  <clipPath id="clip930">
    <rect x="0" y="0" width="4000" height="3200"/>
  </clipPath>
</defs>
<path clip-path="url(#clip930)" d="M0 3200 L4000 3200 L4000 0 L0 0  Z" fill="#ffffff" fill-rule="evenodd" fill-opacity="1"/>
<defs>
  <clipPath id="clip931">
    <rect x="800" y="0" width="2801" height="2801"/>
  </clipPath>
</defs>
<path clip-path="url(#clip930)" d="M690.595 2949.49 L3952.76 2949.49 L3952.76 47.2441 L690.595 47.2441  Z" fill="#ffffff" fill-rule="evenodd" fill-opacity="1"/>
<defs>
  <clipPath id="clip932">
    <rect x="690" y="47" width="3263" height="2903"/>
  </clipPath>
</defs>
<polyline clip-path="url(#clip932)" style="stroke:#000000; stroke-linecap:round; stroke-linejoin:round; stroke-width:2; stroke-opacity:0.1; fill:none" points="690.595,2949.49 690.595,47.2441 "/>
<polyline clip-path="url(#clip932)" style="stroke:#000000; stroke-linecap:round; stroke-linejoin:round; stroke-width:2; stroke-opacity:0.1; fill:none" points="1322.8,2949.49 1322.8,47.2441 "/>
<polyline clip-path="url(#clip932)" style="stroke:#000000; stroke-linecap:round; stroke-linejoin:round; stroke-width:2; stroke-opacity:0.1; fill:none" points="1955,2949.49 1955,47.2441 "/>
<polyline clip-path="url(#clip932)" style="stroke:#000000; stroke-linecap:round; stroke-linejoin:round; stroke-width:2; stroke-opacity:0.1; fill:none" points="2587.2,2949.49 2587.2,47.2441 "/>
<polyline clip-path="url(#clip932)" style="stroke:#000000; stroke-linecap:round; stroke-linejoin:round; stroke-width:2; stroke-opacity:0.1; fill:none" points="3219.4,2949.49 3219.4,47.2441 "/>
<polyline clip-path="url(#clip932)" style="stroke:#000000; stroke-linecap:round; stroke-linejoin:round; stroke-width:2; stroke-opacity:0.1; fill:none" points="3851.6,2949.49 3851.6,47.2441 "/>
<polyline clip-path="url(#clip930)" style="stroke:#000000; stroke-linecap:round; stroke-linejoin:round; stroke-width:4; stroke-opacity:1; fill:none" points="690.595,2949.49 3952.76,2949.49 "/>
<polyline clip-path="url(#clip930)" style="stroke:#000000; stroke-linecap:round; stroke-linejoin:round; stroke-width:4; stroke-opacity:1; fill:none" points="690.595,47.2441 3952.76,47.2441 "/>
<polyline clip-path="url(#clip930)" style="stroke:#000000; stroke-linecap:round; stroke-linejoin:round; stroke-width:4; stroke-opacity:1; fill:none" points="690.595,2949.49 690.595,2930.59 "/>
<polyline clip-path="url(#clip930)" style="stroke:#000000; stroke-linecap:round; stroke-linejoin:round; stroke-width:4; stroke-opacity:1; fill:none" points="1322.8,2949.49 1322.8,2930.59 "/>
<polyline clip-path="url(#clip930)" style="stroke:#000000; stroke-linecap:round; stroke-linejoin:round; stroke-width:4; stroke-opacity:1; fill:none" points="1955,2949.49 1955,2930.59 "/>
<polyline clip-path="url(#clip930)" style="stroke:#000000; stroke-linecap:round; stroke-linejoin:round; stroke-width:4; stroke-opacity:1; fill:none" points="2587.2,2949.49 2587.2,2930.59 "/>
<polyline clip-path="url(#clip930)" style="stroke:#000000; stroke-linecap:round; stroke-linejoin:round; stroke-width:4; stroke-opacity:1; fill:none" points="3219.4,2949.49 3219.4,2930.59 "/>
<polyline clip-path="url(#clip930)" style="stroke:#000000; stroke-linecap:round; stroke-linejoin:round; stroke-width:4; stroke-opacity:1; fill:none" points="3851.6,2949.49 3851.6,2930.59 "/>
<path clip-path="url(#clip930)" d="M607.652 3025.43 Q594.111 3025.43 587.253 3038.8 Q580.482 3052.08 580.482 3078.82 Q580.482 3105.47 587.253 3118.84 Q594.111 3132.12 607.652 3132.12 Q621.281 3132.12 628.052 3118.84 Q634.909 3105.47 634.909 3078.82 Q634.909 3052.08 628.052 3038.8 Q621.281 3025.43 607.652 3025.43 M607.652 3011.54 Q629.441 3011.54 640.899 3028.82 Q652.444 3046.01 652.444 3078.82 Q652.444 3111.54 640.899 3128.82 Q629.441 3146.01 607.652 3146.01 Q585.864 3146.01 574.319 3128.82 Q562.861 3111.54 562.861 3078.82 Q562.861 3046.01 574.319 3028.82 Q585.864 3011.54 607.652 3011.54 Z" fill="#000000" fill-rule="nonzero" fill-opacity="1" /><path clip-path="url(#clip930)" d="M683.26 3121.44 L701.576 3121.44 L701.576 3143.49 L683.26 3143.49 L683.26 3121.44 Z" fill="#000000" fill-rule="nonzero" fill-opacity="1" /><path clip-path="url(#clip930)" d="M739.943 3013.89 L808.78 3013.89 L808.78 3028.64 L756.002 3028.64 L756.002 3060.42 Q759.822 3059.11 763.641 3058.51 Q767.461 3057.81 771.28 3057.81 Q792.981 3057.81 805.655 3069.7 Q818.328 3081.6 818.328 3101.91 Q818.328 3122.83 805.308 3134.46 Q792.287 3146.01 768.589 3146.01 Q760.429 3146.01 751.923 3144.62 Q743.502 3143.23 734.475 3140.45 L734.475 3122.83 Q742.287 3127.08 750.62 3129.17 Q758.954 3131.25 768.242 3131.25 Q783.259 3131.25 792.026 3123.35 Q800.794 3115.45 800.794 3101.91 Q800.794 3088.37 792.026 3080.47 Q783.259 3072.57 768.242 3072.57 Q761.211 3072.57 754.179 3074.13 Q747.235 3075.69 739.943 3078.99 L739.943 3013.89 Z" fill="#000000" fill-rule="nonzero" fill-opacity="1" /><path clip-path="url(#clip930)" d="M1199.62 3128.73 L1228.27 3128.73 L1228.27 3029.86 L1197.1 3036.11 L1197.1 3020.14 L1228.09 3013.89 L1245.63 3013.89 L1245.63 3128.73 L1274.27 3128.73 L1274.27 3143.49 L1199.62 3143.49 L1199.62 3128.73 Z" fill="#000000" fill-rule="nonzero" fill-opacity="1" /><path clip-path="url(#clip930)" d="M1309.69 3121.44 L1328 3121.44 L1328 3143.49 L1309.69 3143.49 L1309.69 3121.44 Z" fill="#000000" fill-rule="nonzero" fill-opacity="1" /><path clip-path="url(#clip930)" d="M1403.7 3025.43 Q1390.16 3025.43 1383.3 3038.8 Q1376.53 3052.08 1376.53 3078.82 Q1376.53 3105.47 1383.3 3118.84 Q1390.16 3132.12 1403.7 3132.12 Q1417.33 3132.12 1424.1 3118.84 Q1430.96 3105.47 1430.96 3078.82 Q1430.96 3052.08 1424.1 3038.8 Q1417.33 3025.43 1403.7 3025.43 M1403.7 3011.54 Q1425.49 3011.54 1436.95 3028.82 Q1448.49 3046.01 1448.49 3078.82 Q1448.49 3111.54 1436.95 3128.82 Q1425.49 3146.01 1403.7 3146.01 Q1381.91 3146.01 1370.37 3128.82 Q1358.91 3111.54 1358.91 3078.82 Q1358.91 3046.01 1370.37 3028.82 Q1381.91 3011.54 1403.7 3011.54 Z" fill="#000000" fill-rule="nonzero" fill-opacity="1" /><path clip-path="url(#clip930)" d="M1833.69 3128.73 L1862.33 3128.73 L1862.33 3029.86 L1831.17 3036.11 L1831.17 3020.14 L1862.16 3013.89 L1879.69 3013.89 L1879.69 3128.73 L1908.34 3128.73 L1908.34 3143.49 L1833.69 3143.49 L1833.69 3128.73 Z" fill="#000000" fill-rule="nonzero" fill-opacity="1" /><path clip-path="url(#clip930)" d="M1943.76 3121.44 L1962.07 3121.44 L1962.07 3143.49 L1943.76 3143.49 L1943.76 3121.44 Z" fill="#000000" fill-rule="nonzero" fill-opacity="1" /><path clip-path="url(#clip930)" d="M2000.44 3013.89 L2069.28 3013.89 L2069.28 3028.64 L2016.5 3028.64 L2016.5 3060.42 Q2020.32 3059.11 2024.14 3058.51 Q2027.96 3057.81 2031.78 3057.81 Q2053.48 3057.81 2066.15 3069.7 Q2078.83 3081.6 2078.83 3101.91 Q2078.83 3122.83 2065.8 3134.46 Q2052.78 3146.01 2029.09 3146.01 Q2020.93 3146.01 2012.42 3144.62 Q2004 3143.23 1994.97 3140.45 L1994.97 3122.83 Q2002.78 3127.08 2011.12 3129.17 Q2019.45 3131.25 2028.74 3131.25 Q2043.76 3131.25 2052.52 3123.35 Q2061.29 3115.45 2061.29 3101.91 Q2061.29 3088.37 2052.52 3080.47 Q2043.76 3072.57 2028.74 3072.57 Q2021.71 3072.57 2014.68 3074.13 Q2007.73 3075.69 2000.44 3078.99 L2000.44 3013.89 Z" fill="#000000" fill-rule="nonzero" fill-opacity="1" /><path clip-path="url(#clip930)" d="M2479.34 3128.73 L2540.54 3128.73 L2540.54 3143.49 L2458.25 3143.49 L2458.25 3128.73 Q2468.23 3118.4 2485.42 3101.04 Q2502.7 3083.59 2507.12 3078.56 Q2515.54 3069.1 2518.84 3062.59 Q2522.23 3055.99 2522.23 3049.65 Q2522.23 3039.32 2514.93 3032.81 Q2507.73 3026.3 2496.1 3026.3 Q2487.85 3026.3 2478.65 3029.17 Q2469.54 3032.03 2459.12 3037.85 L2459.12 3020.14 Q2469.71 3015.88 2478.91 3013.71 Q2488.11 3011.54 2495.75 3011.54 Q2515.89 3011.54 2527.87 3021.61 Q2539.85 3031.68 2539.85 3048.52 Q2539.85 3056.51 2536.81 3063.71 Q2533.86 3070.83 2525.96 3080.55 Q2523.79 3083.07 2512.16 3095.14 Q2500.53 3107.12 2479.34 3128.73 Z" fill="#000000" fill-rule="nonzero" fill-opacity="1" /><path clip-path="url(#clip930)" d="M2577.35 3121.44 L2595.66 3121.44 L2595.66 3143.49 L2577.35 3143.49 L2577.35 3121.44 Z" fill="#000000" fill-rule="nonzero" fill-opacity="1" /><path clip-path="url(#clip930)" d="M2671.36 3025.43 Q2657.82 3025.43 2650.96 3038.8 Q2644.19 3052.08 2644.19 3078.82 Q2644.19 3105.47 2650.96 3118.84 Q2657.82 3132.12 2671.36 3132.12 Q2684.99 3132.12 2691.76 3118.84 Q2698.61 3105.47 2698.61 3078.82 Q2698.61 3052.08 2691.76 3038.8 Q2684.99 3025.43 2671.36 3025.43 M2671.36 3011.54 Q2693.15 3011.54 2704.6 3028.82 Q2716.15 3046.01 2716.15 3078.82 Q2716.15 3111.54 2704.6 3128.82 Q2693.15 3146.01 2671.36 3146.01 Q2649.57 3146.01 2638.02 3128.82 Q2626.57 3111.54 2626.57 3078.82 Q2626.57 3046.01 2638.02 3028.82 Q2649.57 3011.54 2671.36 3011.54 Z" fill="#000000" fill-rule="nonzero" fill-opacity="1" /><path clip-path="url(#clip930)" d="M3113.41 3128.73 L3174.61 3128.73 L3174.61 3143.49 L3092.32 3143.49 L3092.32 3128.73 Q3102.3 3118.4 3119.49 3101.04 Q3136.76 3083.59 3141.19 3078.56 Q3149.61 3069.1 3152.91 3062.59 Q3156.29 3055.99 3156.29 3049.65 Q3156.29 3039.32 3149 3032.81 Q3141.8 3026.3 3130.17 3026.3 Q3121.92 3026.3 3112.72 3029.17 Q3103.6 3032.03 3093.19 3037.85 L3093.19 3020.14 Q3103.78 3015.88 3112.98 3013.71 Q3122.18 3011.54 3129.82 3011.54 Q3149.96 3011.54 3161.94 3021.61 Q3173.92 3031.68 3173.92 3048.52 Q3173.92 3056.51 3170.88 3063.71 Q3167.93 3070.83 3160.03 3080.55 Q3157.86 3083.07 3146.23 3095.14 Q3134.59 3107.12 3113.41 3128.73 Z" fill="#000000" fill-rule="nonzero" fill-opacity="1" /><path clip-path="url(#clip930)" d="M3211.42 3121.44 L3229.73 3121.44 L3229.73 3143.49 L3211.42 3143.49 L3211.42 3121.44 Z" fill="#000000" fill-rule="nonzero" fill-opacity="1" /><path clip-path="url(#clip930)" d="M3268.1 3013.89 L3336.94 3013.89 L3336.94 3028.64 L3284.16 3028.64 L3284.16 3060.42 Q3287.98 3059.11 3291.8 3058.51 Q3295.62 3057.81 3299.44 3057.81 Q3321.14 3057.81 3333.81 3069.7 Q3346.48 3081.6 3346.48 3101.91 Q3346.48 3122.83 3333.46 3134.46 Q3320.44 3146.01 3296.75 3146.01 Q3288.59 3146.01 3280.08 3144.62 Q3271.66 3143.23 3262.63 3140.45 L3262.63 3122.83 Q3270.44 3127.08 3278.78 3129.17 Q3287.11 3131.25 3296.4 3131.25 Q3311.42 3131.25 3320.18 3123.35 Q3328.95 3115.45 3328.95 3101.91 Q3328.95 3088.37 3320.18 3080.47 Q3311.42 3072.57 3296.4 3072.57 Q3289.37 3072.57 3282.34 3074.13 Q3275.39 3075.69 3268.1 3078.99 L3268.1 3013.89 Z" fill="#000000" fill-rule="nonzero" fill-opacity="1" /><path clip-path="url(#clip930)" d="M3781.51 3073.61 Q3794.1 3076.3 3801.13 3084.81 Q3808.24 3093.31 3808.24 3105.81 Q3808.24 3125 3795.05 3135.5 Q3781.86 3146.01 3757.55 3146.01 Q3749.39 3146.01 3740.71 3144.36 Q3732.12 3142.79 3722.92 3139.58 L3722.92 3122.65 Q3730.21 3126.91 3738.89 3129.08 Q3747.57 3131.25 3757.03 3131.25 Q3773.52 3131.25 3782.12 3124.74 Q3790.8 3118.23 3790.8 3105.81 Q3790.8 3094.36 3782.72 3087.93 Q3774.74 3081.42 3760.41 3081.42 L3745.31 3081.42 L3745.31 3067.01 L3761.11 3067.01 Q3774.04 3067.01 3780.9 3061.89 Q3787.76 3056.68 3787.76 3046.96 Q3787.76 3036.98 3780.64 3031.68 Q3773.61 3026.3 3760.41 3026.3 Q3753.21 3026.3 3744.96 3027.86 Q3736.72 3029.43 3726.82 3032.72 L3726.82 3017.1 Q3736.8 3014.32 3745.48 3012.93 Q3754.25 3011.54 3761.98 3011.54 Q3781.94 3011.54 3793.57 3020.66 Q3805.21 3029.69 3805.21 3045.14 Q3805.21 3055.9 3799.04 3063.37 Q3792.88 3070.75 3781.51 3073.61 Z" fill="#000000" fill-rule="nonzero" fill-opacity="1" /><path clip-path="url(#clip930)" d="M3841.49 3121.44 L3859.81 3121.44 L3859.81 3143.49 L3841.49 3143.49 L3841.49 3121.44 Z" fill="#000000" fill-rule="nonzero" fill-opacity="1" /><path clip-path="url(#clip930)" d="M3935.5 3025.43 Q3921.96 3025.43 3915.1 3038.8 Q3908.33 3052.08 3908.33 3078.82 Q3908.33 3105.47 3915.1 3118.84 Q3921.96 3132.12 3935.5 3132.12 Q3949.13 3132.12 3955.9 3118.84 Q3962.76 3105.47 3962.76 3078.82 Q3962.76 3052.08 3955.9 3038.8 Q3949.13 3025.43 3935.5 3025.43 M3935.5 3011.54 Q3957.29 3011.54 3968.75 3028.82 Q3980.29 3046.01 3980.29 3078.82 Q3980.29 3111.54 3968.75 3128.82 Q3957.29 3146.01 3935.5 3146.01 Q3913.71 3146.01 3902.17 3128.82 Q3890.71 3111.54 3890.71 3078.82 Q3890.71 3046.01 3902.17 3028.82 Q3913.71 3011.54 3935.5 3011.54 Z" fill="#000000" fill-rule="nonzero" fill-opacity="1" /><polyline clip-path="url(#clip932)" style="stroke:#000000; stroke-linecap:round; stroke-linejoin:round; stroke-width:2; stroke-opacity:0.1; fill:none" points="690.595,2949.49 3952.76,2949.49 "/>
<polyline clip-path="url(#clip932)" style="stroke:#000000; stroke-linecap:round; stroke-linejoin:round; stroke-width:2; stroke-opacity:0.1; fill:none" points="690.595,2289.89 3952.76,2289.89 "/>
<polyline clip-path="url(#clip932)" style="stroke:#000000; stroke-linecap:round; stroke-linejoin:round; stroke-width:2; stroke-opacity:0.1; fill:none" points="690.595,1630.29 3952.76,1630.29 "/>
<polyline clip-path="url(#clip932)" style="stroke:#000000; stroke-linecap:round; stroke-linejoin:round; stroke-width:2; stroke-opacity:0.1; fill:none" points="690.595,970.685 3952.76,970.685 "/>
<polyline clip-path="url(#clip932)" style="stroke:#000000; stroke-linecap:round; stroke-linejoin:round; stroke-width:2; stroke-opacity:0.1; fill:none" points="690.595,311.084 3952.76,311.084 "/>
<polyline clip-path="url(#clip930)" style="stroke:#000000; stroke-linecap:round; stroke-linejoin:round; stroke-width:4; stroke-opacity:1; fill:none" points="690.595,2949.49 690.595,47.2441 "/>
<polyline clip-path="url(#clip930)" style="stroke:#000000; stroke-linecap:round; stroke-linejoin:round; stroke-width:4; stroke-opacity:1; fill:none" points="3952.76,2949.49 3952.76,47.2441 "/>
<polyline clip-path="url(#clip930)" style="stroke:#000000; stroke-linecap:round; stroke-linejoin:round; stroke-width:4; stroke-opacity:1; fill:none" points="690.595,2949.49 709.492,2949.49 "/>
<polyline clip-path="url(#clip930)" style="stroke:#000000; stroke-linecap:round; stroke-linejoin:round; stroke-width:4; stroke-opacity:1; fill:none" points="690.595,2289.89 709.492,2289.89 "/>
<polyline clip-path="url(#clip930)" style="stroke:#000000; stroke-linecap:round; stroke-linejoin:round; stroke-width:4; stroke-opacity:1; fill:none" points="690.595,1630.29 709.492,1630.29 "/>
<polyline clip-path="url(#clip930)" style="stroke:#000000; stroke-linecap:round; stroke-linejoin:round; stroke-width:4; stroke-opacity:1; fill:none" points="690.595,970.685 709.492,970.685 "/>
<polyline clip-path="url(#clip930)" style="stroke:#000000; stroke-linecap:round; stroke-linejoin:round; stroke-width:4; stroke-opacity:1; fill:none" points="690.595,311.084 709.492,311.084 "/>
<path clip-path="url(#clip930)" d="M416.186 2896.23 Q402.645 2896.23 395.787 2909.6 Q389.016 2922.88 389.016 2949.62 Q389.016 2976.27 395.787 2989.64 Q402.645 3002.92 416.186 3002.92 Q429.815 3002.92 436.585 2989.64 Q443.443 2976.27 443.443 2949.62 Q443.443 2922.88 436.585 2909.6 Q429.815 2896.23 416.186 2896.23 M416.186 2882.34 Q437.974 2882.34 449.433 2899.62 Q460.978 2916.81 460.978 2949.62 Q460.978 2982.34 449.433 2999.62 Q437.974 3016.81 416.186 3016.81 Q394.398 3016.81 382.853 2999.62 Q371.395 2982.34 371.395 2949.62 Q371.395 2916.81 382.853 2899.62 Q394.398 2882.34 416.186 2882.34 Z" fill="#000000" fill-rule="nonzero" fill-opacity="1" /><path clip-path="url(#clip930)" d="M491.793 2992.24 L510.109 2992.24 L510.109 3014.29 L491.793 3014.29 L491.793 2992.24 Z" fill="#000000" fill-rule="nonzero" fill-opacity="1" /><path clip-path="url(#clip930)" d="M585.803 2896.23 Q572.262 2896.23 565.404 2909.6 Q558.633 2922.88 558.633 2949.62 Q558.633 2976.27 565.404 2989.64 Q572.262 3002.92 585.803 3002.92 Q599.432 3002.92 606.203 2989.64 Q613.06 2976.27 613.06 2949.62 Q613.06 2922.88 606.203 2909.6 Q599.432 2896.23 585.803 2896.23 M585.803 2882.34 Q607.591 2882.34 619.05 2899.62 Q630.595 2916.81 630.595 2949.62 Q630.595 2982.34 619.05 2999.62 Q607.591 3016.81 585.803 3016.81 Q564.015 3016.81 552.47 2999.62 Q541.012 2982.34 541.012 2949.62 Q541.012 2916.81 552.47 2899.62 Q564.015 2882.34 585.803 2882.34 Z" fill="#000000" fill-rule="nonzero" fill-opacity="1" /><path clip-path="url(#clip930)" d="M397.523 2339.93 L458.721 2339.93 L458.721 2354.69 L376.429 2354.69 L376.429 2339.93 Q386.412 2329.6 403.599 2312.24 Q420.874 2294.79 425.301 2289.76 Q433.721 2280.3 437.019 2273.78 Q440.405 2267.19 440.405 2260.85 Q440.405 2250.52 433.113 2244.01 Q425.908 2237.5 414.276 2237.5 Q406.03 2237.5 396.829 2240.36 Q387.714 2243.23 377.297 2249.05 L377.297 2231.34 Q387.888 2227.08 397.089 2224.91 Q406.29 2222.74 413.929 2222.74 Q434.068 2222.74 446.047 2232.81 Q458.026 2242.88 458.026 2259.72 Q458.026 2267.71 454.988 2274.91 Q452.037 2282.03 444.137 2291.75 Q441.967 2294.27 430.335 2306.34 Q418.704 2318.32 397.523 2339.93 Z" fill="#000000" fill-rule="nonzero" fill-opacity="1" /><path clip-path="url(#clip930)" d="M495.526 2332.64 L513.842 2332.64 L513.842 2354.69 L495.526 2354.69 L495.526 2332.64 Z" fill="#000000" fill-rule="nonzero" fill-opacity="1" /><path clip-path="url(#clip930)" d="M552.21 2225.09 L621.046 2225.09 L621.046 2239.84 L568.269 2239.84 L568.269 2271.61 Q572.088 2270.31 575.908 2269.7 Q579.727 2269.01 583.546 2269.01 Q605.248 2269.01 617.921 2280.9 Q630.595 2292.79 630.595 2313.11 Q630.595 2334.03 617.574 2345.66 Q604.553 2357.2 580.855 2357.2 Q572.696 2357.2 564.189 2355.82 Q555.769 2354.43 546.741 2351.65 L546.741 2334.03 Q554.553 2338.28 562.887 2340.36 Q571.22 2342.45 580.508 2342.45 Q595.525 2342.45 604.293 2334.55 Q613.06 2326.65 613.06 2313.11 Q613.06 2299.57 604.293 2291.67 Q595.525 2283.77 580.508 2283.77 Q573.477 2283.77 566.446 2285.33 Q559.501 2286.89 552.21 2290.19 L552.21 2225.09 Z" fill="#000000" fill-rule="nonzero" fill-opacity="1" /><path clip-path="url(#clip930)" d="M378.86 1565.49 L447.696 1565.49 L447.696 1580.24 L394.919 1580.24 L394.919 1612.01 Q398.738 1610.71 402.558 1610.1 Q406.377 1609.41 410.197 1609.41 Q431.898 1609.41 444.571 1621.3 Q457.245 1633.19 457.245 1653.51 Q457.245 1674.43 444.224 1686.06 Q431.203 1697.6 407.506 1697.6 Q399.346 1697.6 390.839 1696.21 Q382.419 1694.83 373.391 1692.05 L373.391 1674.43 Q381.204 1678.68 389.537 1680.76 Q397.87 1682.85 407.158 1682.85 Q422.176 1682.85 430.943 1674.95 Q439.71 1667.05 439.71 1653.51 Q439.71 1639.96 430.943 1632.07 Q422.176 1624.17 407.158 1624.17 Q400.127 1624.17 393.096 1625.73 Q386.152 1627.29 378.86 1630.59 L378.86 1565.49 Z" fill="#000000" fill-rule="nonzero" fill-opacity="1" /><path clip-path="url(#clip930)" d="M491.793 1673.04 L510.109 1673.04 L510.109 1695.09 L491.793 1695.09 L491.793 1673.04 Z" fill="#000000" fill-rule="nonzero" fill-opacity="1" /><path clip-path="url(#clip930)" d="M585.803 1577.03 Q572.262 1577.03 565.404 1590.4 Q558.633 1603.68 558.633 1630.42 Q558.633 1657.07 565.404 1670.43 Q572.262 1683.71 585.803 1683.71 Q599.432 1683.71 606.203 1670.43 Q613.06 1657.07 613.06 1630.42 Q613.06 1603.68 606.203 1590.4 Q599.432 1577.03 585.803 1577.03 M585.803 1563.14 Q607.591 1563.14 619.05 1580.42 Q630.595 1597.6 630.595 1630.42 Q630.595 1663.14 619.05 1680.42 Q607.591 1697.6 585.803 1697.6 Q564.015 1697.6 552.47 1680.42 Q541.012 1663.14 541.012 1630.42 Q541.012 1597.6 552.47 1580.42 Q564.015 1563.14 585.803 1563.14 Z" fill="#000000" fill-rule="nonzero" fill-opacity="1" /><path clip-path="url(#clip930)" d="M377.992 905.885 L461.325 905.885 L461.325 913.351 L414.276 1035.49 L395.961 1035.49 L440.231 920.642 L377.992 920.642 L377.992 905.885 Z" fill="#000000" fill-rule="nonzero" fill-opacity="1" /><path clip-path="url(#clip930)" d="M495.526 1013.44 L513.842 1013.44 L513.842 1035.49 L495.526 1035.49 L495.526 1013.44 Z" fill="#000000" fill-rule="nonzero" fill-opacity="1" /><path clip-path="url(#clip930)" d="M552.21 905.885 L621.046 905.885 L621.046 920.642 L568.269 920.642 L568.269 952.413 Q572.088 951.111 575.908 950.503 Q579.727 949.809 583.546 949.809 Q605.248 949.809 617.921 961.701 Q630.595 973.593 630.595 993.906 Q630.595 1014.83 617.574 1026.46 Q604.553 1038 580.855 1038 Q572.696 1038 564.189 1036.61 Q555.769 1035.22 546.741 1032.45 L546.741 1014.83 Q554.553 1019.08 562.887 1021.16 Q571.22 1023.25 580.508 1023.25 Q595.525 1023.25 604.293 1015.35 Q613.06 1007.45 613.06 993.906 Q613.06 980.364 604.293 972.465 Q595.525 964.566 580.508 964.566 Q573.477 964.566 566.446 966.128 Q559.501 967.691 552.21 970.989 L552.21 905.885 Z" fill="#000000" fill-rule="nonzero" fill-opacity="1" /><path clip-path="url(#clip930)" d="M268.618 361.128 L297.263 361.128 L297.263 262.257 L266.1 268.507 L266.1 252.534 L297.09 246.284 L314.624 246.284 L314.624 361.128 L343.27 361.128 L343.27 375.884 L268.618 375.884 L268.618 361.128 Z" fill="#000000" fill-rule="nonzero" fill-opacity="1" /><path clip-path="url(#clip930)" d="M416.186 257.83 Q402.645 257.83 395.787 271.197 Q389.016 284.479 389.016 311.215 Q389.016 337.864 395.787 351.232 Q402.645 364.513 416.186 364.513 Q429.815 364.513 436.585 351.232 Q443.443 337.864 443.443 311.215 Q443.443 284.479 436.585 271.197 Q429.815 257.83 416.186 257.83 M416.186 243.941 Q437.974 243.941 449.433 261.215 Q460.978 278.402 460.978 311.215 Q460.978 343.94 449.433 361.214 Q437.974 378.402 416.186 378.402 Q394.398 378.402 382.853 361.214 Q371.395 343.94 371.395 311.215 Q371.395 278.402 382.853 261.215 Q394.398 243.941 416.186 243.941 Z" fill="#000000" fill-rule="nonzero" fill-opacity="1" /><path clip-path="url(#clip930)" d="M491.793 353.836 L510.109 353.836 L510.109 375.884 L491.793 375.884 L491.793 353.836 Z" fill="#000000" fill-rule="nonzero" fill-opacity="1" /><path clip-path="url(#clip930)" d="M585.803 257.83 Q572.262 257.83 565.404 271.197 Q558.633 284.479 558.633 311.215 Q558.633 337.864 565.404 351.232 Q572.262 364.513 585.803 364.513 Q599.432 364.513 606.203 351.232 Q613.06 337.864 613.06 311.215 Q613.06 284.479 606.203 271.197 Q599.432 257.83 585.803 257.83 M585.803 243.941 Q607.591 243.941 619.05 261.215 Q630.595 278.402 630.595 311.215 Q630.595 343.94 619.05 361.214 Q607.591 378.402 585.803 378.402 Q564.015 378.402 552.47 361.214 Q541.012 343.94 541.012 311.215 Q541.012 278.402 552.47 261.215 Q564.015 243.941 585.803 243.941 Z" fill="#000000" fill-rule="nonzero" fill-opacity="1" /><path clip-path="url(#clip930)" d="M183.501 2001.67 L176.123 2001.67 L176.123 1995.93 Q176.123 1982.93 174.015 1980 Q171.79 1976.95 164.763 1976.95 L38.3988 1976.95 Q31.4892 1976.95 29.3812 1980 Q27.1561 1983.04 27.1561 1995.93 L27.1561 2001.67 L19.6609 2001.67 Q20.3636 1993.23 20.3636 1965.24 Q20.3636 1933.62 19.6609 1924.96 L27.1561 1924.96 L27.1561 1932.92 Q27.1561 1943.93 28.5614 1948.96 Q29.9668 1954 31.9577 1954.82 Q33.8315 1955.64 38.6331 1955.64 L166.52 1955.64 Q172.727 1955.64 174.483 1953.88 Q176.123 1952.01 176.123 1943.93 L176.123 1924.25 Q176.123 1912.07 172.492 1903.29 Q168.862 1894.51 164.294 1889.82 Q159.727 1885.14 151.178 1882.09 Q142.512 1878.93 137.007 1877.99 Q131.503 1876.94 121.666 1876 L121.666 1870.03 L183.501 1876.71 L183.501 2001.67 Z" fill="#000000" fill-rule="nonzero" fill-opacity="1" /><path clip-path="url(#clip930)" d="M183.501 1858 L176.123 1858 Q176.123 1845.23 174.6 1842.3 Q172.961 1839.37 165.231 1839.37 L100.703 1839.37 Q91.802 1839.37 89.694 1842.42 Q87.586 1845.35 87.586 1857.06 L80.0908 1857.06 L77.5143 1823.56 L165.466 1823.56 Q172.609 1823.56 174.366 1820.99 Q176.123 1818.41 176.123 1806.7 L183.501 1806.7 Q182.798 1831.18 182.798 1831.64 Q182.798 1834.92 183.501 1858 M35.7053 1847.92 Q30.9037 1847.92 27.039 1844.29 Q23.0571 1840.55 23.0571 1835.28 Q23.0571 1830.01 26.6876 1826.26 Q30.201 1822.51 35.8224 1822.51 Q41.3266 1822.51 44.9571 1826.26 Q48.4705 1830.01 48.4705 1835.28 Q48.4705 1840.78 44.6058 1844.41 Q40.7411 1847.92 35.7053 1847.92 Z" fill="#000000" fill-rule="nonzero" fill-opacity="1" /><path clip-path="url(#clip930)" d="M183.501 1790.31 L176.123 1790.31 Q176.123 1777.54 174.6 1774.61 Q172.961 1771.69 165.231 1771.69 L100.937 1771.69 Q92.0362 1771.69 89.8111 1774.85 Q87.586 1777.89 87.586 1790.31 L80.0908 1790.31 L77.5143 1756.58 L102.693 1756.58 Q77.5143 1745.34 77.5143 1721.09 Q77.5143 1703.06 86.4149 1695.92 Q92.3876 1690.65 99.063 1689.59 Q105.738 1688.42 123.071 1688.42 L168.862 1688.42 Q173.898 1688.19 175.069 1684.32 Q176.123 1680.46 176.123 1669.68 L183.501 1669.68 Q182.798 1694.16 182.798 1696.62 Q182.798 1698.49 183.501 1723.67 L176.123 1723.67 Q176.123 1710.91 174.6 1707.98 Q172.961 1704.93 165.231 1704.93 L109.369 1704.93 Q97.1892 1704.93 90.0453 1708.68 Q82.7844 1712.43 82.7844 1722.73 Q82.7844 1735.15 93.2074 1745.1 Q103.63 1755.06 121.197 1755.06 L165.231 1755.06 Q172.961 1755.06 174.6 1752.13 Q176.123 1749.08 176.123 1736.44 L183.501 1736.44 Q182.798 1760.91 182.798 1763.25 Q182.798 1765.13 183.501 1790.31 Z" fill="#000000" fill-rule="nonzero" fill-opacity="1" /><path clip-path="url(#clip930)" d="M130.683 1651.82 Q108.081 1651.82 92.0362 1637.3 Q75.9919 1622.78 75.9919 1601.93 Q75.9919 1580.85 89.694 1569.96 Q103.396 1558.95 123.071 1558.95 Q126.701 1558.95 127.404 1559.89 Q128.107 1560.82 128.107 1564.92 L128.107 1631.91 Q152.583 1631.91 164.06 1624.65 Q180.105 1614.58 180.105 1597.6 Q180.105 1595.26 179.636 1592.44 Q179.168 1589.63 177.177 1583.9 Q175.069 1578.16 169.565 1573.12 Q164.06 1568.09 155.394 1565.16 Q151.998 1564.45 152.115 1562.11 Q152.115 1558.95 154.926 1558.95 Q157.034 1558.95 161.835 1561.29 Q166.52 1563.52 172.141 1567.85 Q177.762 1572.18 181.978 1580.62 Q186.194 1588.93 186.194 1599 Q186.194 1620.08 170.267 1636.01 Q154.223 1651.82 130.683 1651.82 M123.071 1631.68 L123.071 1574.76 Q118.035 1574.76 112.414 1575.7 Q106.792 1576.52 99.063 1579.09 Q91.2165 1581.55 86.2977 1587.41 Q81.379 1593.26 81.379 1601.93 Q81.379 1605.8 83.0186 1610.01 Q84.6582 1614.11 88.64 1619.15 Q92.6218 1624.18 101.639 1627.7 Q110.657 1631.21 123.071 1631.68 Z" fill="#000000" fill-rule="nonzero" fill-opacity="1" /><path clip-path="url(#clip930)" d="M180.339 1483.01 L148.719 1483.01 Q146.025 1483.01 145.088 1482.9 Q144.151 1482.78 143.449 1482.08 Q142.746 1481.37 142.746 1479.97 Q142.746 1478.33 143.449 1477.74 Q144.151 1477.04 146.845 1476.57 Q163.358 1472.94 172.141 1465.21 Q180.807 1457.37 180.807 1443.2 Q180.807 1429.73 174.835 1422.94 Q168.862 1416.14 159.024 1416.14 Q141.458 1416.14 137.007 1441.09 Q134.08 1455.49 132.206 1461.47 Q130.215 1467.44 125.882 1472.71 Q117.45 1483.01 105.504 1483.01 Q93.5587 1483.01 84.7753 1474 Q75.9919 1464.86 75.9919 1444.72 Q75.9919 1431.25 82.7844 1422.12 Q80.6764 1419.42 78.9197 1418.02 Q75.9919 1414.85 75.9919 1413.22 Q75.9919 1411.34 77.2801 1410.99 Q78.4512 1410.64 81.8475 1410.64 L105.973 1410.64 Q108.666 1410.64 109.603 1410.76 Q110.54 1410.87 111.243 1411.58 Q111.828 1412.28 111.828 1413.8 Q111.828 1416.49 109.603 1416.61 Q80.5592 1418.49 80.5592 1444.72 Q80.5592 1458.89 86.0635 1465.21 Q91.4507 1471.54 98.8287 1471.54 Q102.928 1471.54 106.09 1469.66 Q109.135 1467.67 111.008 1465.21 Q112.765 1462.64 114.522 1457.95 Q116.161 1453.27 116.747 1450.46 Q117.332 1447.53 118.504 1442.02 Q122.134 1422.82 129.981 1414.74 Q140.052 1404.67 152.817 1404.67 Q166.988 1404.67 176.591 1414.27 Q186.194 1423.87 186.194 1443.2 Q186.194 1458.77 175.771 1469.66 Q177.177 1471.07 178.465 1472.12 Q179.636 1473.18 180.105 1473.64 Q180.573 1474 180.924 1474.11 Q181.159 1474.23 181.393 1474.46 Q186.194 1479.27 186.194 1480.44 Q186.194 1482.31 184.906 1482.66 Q183.735 1483.01 180.339 1483.01 Z" fill="#000000" fill-rule="nonzero" fill-opacity="1" /><path clip-path="url(#clip930)" d="M170.384 1375.26 Q154.457 1390.48 131.737 1390.48 Q108.9 1390.48 92.5047 1375.49 Q75.9919 1360.5 75.9919 1338.49 Q75.9919 1323.85 83.0186 1312.84 Q89.9282 1301.83 101.757 1301.83 Q107.027 1301.83 110.072 1304.99 Q112.999 1308.04 112.999 1312.84 Q112.999 1317.87 109.954 1320.92 Q106.792 1323.85 101.991 1323.85 Q99.8828 1323.85 97.7747 1323.14 Q95.6667 1322.44 93.4416 1319.87 Q91.2165 1317.17 90.8651 1312.6 Q82.0817 1321.15 82.0817 1337.78 Q82.0817 1338.02 82.0817 1338.25 Q82.0817 1350.43 93.5587 1360.5 Q105.036 1370.58 131.269 1370.58 Q144.971 1370.58 155.043 1367.3 Q164.997 1363.9 170.15 1358.4 Q175.303 1352.89 177.762 1347.5 Q180.105 1342.12 180.105 1336.85 Q180.105 1313.31 154.926 1305.34 Q152.583 1304.64 152.583 1302.3 Q152.583 1299.14 154.926 1299.14 Q156.097 1299.14 159.142 1300.07 Q162.186 1301.01 166.988 1303.94 Q171.79 1306.87 176.006 1311.08 Q180.105 1315.18 183.15 1322.56 Q186.194 1329.82 186.194 1338.95 Q186.194 1360.04 170.384 1375.26 Z" fill="#000000" fill-rule="nonzero" fill-opacity="1" /><path clip-path="url(#clip930)" d="M160.664 1286.97 Q140.286 1286.97 129.512 1262.96 Q122.603 1248.55 120.846 1218.81 L112.062 1218.81 Q97.1892 1218.81 89.3427 1226.65 Q81.379 1234.38 81.379 1244.22 Q81.379 1261.79 92.3876 1270.22 Q92.6218 1263.08 96.2523 1260.5 Q99.7656 1257.92 103.396 1257.92 Q108.198 1257.92 111.36 1260.97 Q114.405 1263.9 114.405 1268.93 Q114.405 1273.73 111.477 1276.9 Q108.432 1280.06 103.162 1280.06 Q91.4507 1280.06 83.7213 1269.52 Q75.9919 1258.86 75.9919 1243.75 Q75.9919 1224.08 89.2255 1210.96 Q93.3245 1206.86 98.5945 1204.87 Q103.865 1202.76 107.378 1202.53 Q110.774 1202.3 117.567 1202.3 L165.466 1202.3 Q166.871 1202.3 169.213 1201.83 Q171.555 1201.36 174.6 1199.25 Q177.528 1197.03 177.528 1193.39 Q177.528 1184.73 162.186 1184.85 L148.719 1184.85 L148.719 1178.76 L162.186 1178.76 Q174.952 1178.76 179.988 1185.55 Q184.906 1192.22 184.906 1198.43 Q184.906 1206.39 179.051 1211.43 Q173.195 1216.47 165.231 1217.17 Q174.366 1220.8 180.339 1229.11 Q186.194 1237.31 186.194 1248.55 Q186.194 1257.22 183.969 1265.42 Q181.861 1273.5 175.889 1280.29 Q169.799 1286.97 160.664 1286.97 M160.43 1268.46 Q169.33 1268.46 175.069 1262.14 Q180.807 1255.82 180.807 1246.91 Q180.807 1236.84 173.078 1227.83 Q165.231 1218.81 149.89 1218.81 L125.882 1218.81 Q126.819 1245.39 137.476 1256.99 Q148.016 1268.46 160.43 1268.46 Z" fill="#000000" fill-rule="nonzero" fill-opacity="1" /><path clip-path="url(#clip930)" d="M183.501 1169.15 L176.123 1169.15 Q176.123 1156.39 174.6 1153.46 Q172.961 1150.53 165.231 1150.53 L40.5069 1150.53 Q31.6063 1150.53 29.3812 1153.69 Q27.1561 1156.74 27.1561 1169.15 L19.6609 1169.15 L17.0844 1134.72 L165.231 1134.72 Q172.961 1134.72 174.6 1131.68 Q176.123 1128.63 176.123 1115.98 L183.501 1115.98 Q183.501 1118.91 183.267 1125 Q183.032 1131.09 182.915 1135.54 Q182.798 1139.99 182.798 1142.57 Q182.798 1145.38 183.501 1169.15 Z" fill="#000000" fill-rule="nonzero" fill-opacity="1" /><path clip-path="url(#clip930)" d="M130.683 1100.5 Q108.081 1100.5 92.0362 1085.98 Q75.9919 1071.46 75.9919 1050.61 Q75.9919 1029.53 89.694 1018.64 Q103.396 1007.63 123.071 1007.63 Q126.701 1007.63 127.404 1008.57 Q128.107 1009.51 128.107 1013.61 L128.107 1080.59 Q152.583 1080.59 164.06 1073.33 Q180.105 1063.26 180.105 1046.28 Q180.105 1043.94 179.636 1041.13 Q179.168 1038.32 177.177 1032.58 Q175.069 1026.84 169.565 1021.8 Q164.06 1016.77 155.394 1013.84 Q151.998 1013.14 152.115 1010.8 Q152.115 1007.63 154.926 1007.63 Q157.034 1007.63 161.835 1009.98 Q166.52 1012.2 172.141 1016.53 Q177.762 1020.87 181.978 1029.3 Q186.194 1037.61 186.194 1047.69 Q186.194 1068.77 170.267 1084.69 Q154.223 1100.5 130.683 1100.5 M123.071 1080.36 L123.071 1023.44 Q118.035 1023.44 112.414 1024.38 Q106.792 1025.2 99.063 1027.78 Q91.2165 1030.24 86.2977 1036.09 Q81.379 1041.95 81.379 1050.61 Q81.379 1054.48 83.0186 1058.69 Q84.6582 1062.79 88.64 1067.83 Q92.6218 1072.87 101.639 1076.38 Q110.657 1079.89 123.071 1080.36 Z" fill="#000000" fill-rule="nonzero" fill-opacity="1" /><polyline clip-path="url(#clip932)" style="stroke:#009af9; stroke-linecap:round; stroke-linejoin:round; stroke-width:24; stroke-opacity:1; fill:none" points="690.595,1471.98 1322.8,2078.81 1955,2553.73 2587.2,2764.8 3219.4,2822.84 3851.6,2843.95 "/>
<polyline clip-path="url(#clip932)" style="stroke:#e26f46; stroke-linecap:round; stroke-linejoin:round; stroke-width:24; stroke-opacity:1; fill:none" points="690.595,1471.98 1322.8,2078.81 1955,2553.73 2587.2,2764.8 3219.4,2822.84 3851.6,2843.95 "/>
<polyline clip-path="url(#clip932)" style="stroke:#3da44d; stroke-linecap:round; stroke-linejoin:round; stroke-width:24; stroke-opacity:1; fill:none" stroke-dasharray="96, 48, 12, 48" points="690.595,1471.98 1322.8,2078.81 1955,2553.73 2587.2,2764.8 3219.4,2822.84 3851.6,2843.95 "/>
<polyline clip-path="url(#clip932)" style="stroke:#c271d2; stroke-linecap:round; stroke-linejoin:round; stroke-width:24; stroke-opacity:1; fill:none" stroke-dasharray="96, 60" points="690.595,1471.98 1322.8,2078.81 1955,2553.73 2587.2,2764.8 3219.4,2822.84 3851.6,2843.95 "/>
<path clip-path="url(#clip930)" d="M3042.95 921.586 L3844.02 921.586 L3844.02 143.986 L3042.95 143.986  Z" fill="#ffffff" fill-rule="evenodd" fill-opacity="1"/>
<polyline clip-path="url(#clip930)" style="stroke:#000000; stroke-linecap:round; stroke-linejoin:round; stroke-width:4; stroke-opacity:1; fill:none" points="3042.95,921.586 3844.02,921.586 3844.02,143.986 3042.95,143.986 3042.95,921.586 "/>
<polyline clip-path="url(#clip930)" style="stroke:#009af9; stroke-linecap:round; stroke-linejoin:round; stroke-width:60; stroke-opacity:1; fill:none" points="3079.19,299.506 3296.67,299.506 "/>
<path clip-path="url(#clip930)" d="M3332.92 331.463 L3332.92 312.49 Q3332.92 310.874 3332.99 310.312 Q3333.06 309.75 3333.48 309.328 Q3333.9 308.907 3334.74 308.907 Q3335.73 308.907 3336.08 309.328 Q3336.5 309.75 3336.78 311.366 Q3338.96 321.274 3343.6 326.544 Q3348.31 331.744 3356.81 331.744 Q3364.89 331.744 3368.96 328.16 Q3373.04 324.576 3373.04 318.674 Q3373.04 308.134 3358.07 305.464 Q3349.43 303.707 3345.85 302.583 Q3342.26 301.388 3339.1 298.788 Q3332.92 293.729 3332.92 286.562 Q3332.92 279.394 3338.33 274.124 Q3343.81 268.854 3355.89 268.854 Q3363.97 268.854 3369.46 272.93 Q3371.07 271.665 3371.92 270.611 Q3373.81 268.854 3374.8 268.854 Q3375.92 268.854 3376.13 269.627 Q3376.34 270.33 3376.34 272.368 L3376.34 286.843 Q3376.34 288.459 3376.27 289.021 Q3376.2 289.583 3375.78 290.005 Q3375.36 290.356 3374.44 290.356 Q3372.83 290.356 3372.76 289.021 Q3371.63 271.595 3355.89 271.595 Q3347.39 271.595 3343.6 274.897 Q3339.8 278.13 3339.8 282.556 Q3339.8 285.016 3340.93 286.913 Q3342.12 288.74 3343.6 289.864 Q3345.14 290.918 3347.95 291.972 Q3350.76 292.956 3352.45 293.307 Q3354.21 293.659 3357.51 294.361 Q3369.03 296.54 3373.88 301.248 Q3379.93 307.291 3379.93 314.95 Q3379.93 323.452 3374.16 329.214 Q3368.4 334.976 3356.81 334.976 Q3347.46 334.976 3340.93 328.722 Q3340.08 329.565 3339.45 330.338 Q3338.82 331.041 3338.54 331.322 Q3338.33 331.603 3338.26 331.814 Q3338.19 331.954 3338.05 332.095 Q3335.17 334.976 3334.46 334.976 Q3333.34 334.976 3333.13 334.203 Q3332.92 333.5 3332.92 331.463 Z" fill="#000000" fill-rule="nonzero" fill-opacity="1" /><path clip-path="url(#clip930)" d="M3383.89 275.811 L3383.89 272.649 Q3390.49 272.368 3394.85 267.73 Q3399.27 263.022 3400.75 257.26 Q3402.3 251.498 3402.44 244.823 L3406.02 244.823 L3406.02 271.314 L3426.61 271.314 L3426.61 275.811 L3406.02 275.811 L3406.02 315.793 Q3406.02 331.322 3415.72 331.322 Q3419.86 331.322 3422.6 327.106 Q3425.34 322.82 3425.34 315.231 L3425.34 307.291 L3428.93 307.291 L3428.93 315.512 Q3428.93 323.311 3425.34 329.144 Q3421.76 334.976 3414.66 334.976 Q3412.06 334.976 3409.46 334.273 Q3406.93 333.641 3403.56 331.954 Q3400.26 330.198 3398.15 325.982 Q3396.11 321.695 3396.11 315.512 L3396.11 275.811 L3383.89 275.811 Z" fill="#000000" fill-rule="nonzero" fill-opacity="1" /><path clip-path="url(#clip930)" d="M3437.79 319.658 Q3437.79 307.431 3452.2 300.966 Q3460.84 296.821 3478.69 295.767 L3478.69 290.497 Q3478.69 281.573 3473.98 276.865 Q3469.34 272.087 3463.44 272.087 Q3452.9 272.087 3447.84 278.692 Q3452.13 278.832 3453.67 281.011 Q3455.22 283.119 3455.22 285.297 Q3455.22 288.178 3453.39 290.075 Q3451.64 291.902 3448.62 291.902 Q3445.73 291.902 3443.84 290.145 Q3441.94 288.318 3441.94 285.156 Q3441.94 278.13 3448.26 273.492 Q3454.66 268.854 3463.72 268.854 Q3475.53 268.854 3483.4 276.795 Q3485.86 279.254 3487.05 282.416 Q3488.32 285.578 3488.46 287.686 Q3488.6 289.724 3488.6 293.799 L3488.6 322.539 Q3488.6 323.382 3488.88 324.787 Q3489.16 326.192 3490.42 328.019 Q3491.76 329.776 3493.94 329.776 Q3499.14 329.776 3499.07 320.571 L3499.07 312.49 L3502.72 312.49 L3502.72 320.571 Q3502.72 328.23 3498.65 331.252 Q3494.64 334.203 3490.92 334.203 Q3486.14 334.203 3483.12 330.69 Q3480.1 327.176 3479.67 322.398 Q3477.5 327.879 3472.51 331.463 Q3467.59 334.976 3460.84 334.976 Q3455.64 334.976 3450.72 333.641 Q3445.88 332.376 3441.8 328.792 Q3437.79 325.138 3437.79 319.658 M3448.9 319.517 Q3448.9 324.857 3452.69 328.3 Q3456.49 331.744 3461.83 331.744 Q3467.87 331.744 3473.28 327.106 Q3478.69 322.398 3478.69 313.193 L3478.69 298.788 Q3462.74 299.35 3455.78 305.745 Q3448.9 312.069 3448.9 319.517 Z" fill="#000000" fill-rule="nonzero" fill-opacity="1" /><path clip-path="url(#clip930)" d="M3506.18 275.811 L3506.18 272.649 Q3512.78 272.368 3517.14 267.73 Q3521.57 263.022 3523.04 257.26 Q3524.59 251.498 3524.73 244.823 L3528.31 244.823 L3528.31 271.314 L3548.9 271.314 L3548.9 275.811 L3528.31 275.811 L3528.31 315.793 Q3528.31 331.322 3538.01 331.322 Q3542.15 331.322 3544.89 327.106 Q3547.64 322.82 3547.64 315.231 L3547.64 307.291 L3551.22 307.291 L3551.22 315.512 Q3551.22 323.311 3547.64 329.144 Q3544.05 334.976 3536.95 334.976 Q3534.35 334.976 3531.75 334.273 Q3529.23 333.641 3525.85 331.954 Q3522.55 330.198 3520.44 325.982 Q3518.4 321.695 3518.4 315.512 L3518.4 275.811 L3506.18 275.811 Z" fill="#000000" fill-rule="nonzero" fill-opacity="1" /><path clip-path="url(#clip930)" d="M3551.64 356.829 Q3559.3 356.829 3561.06 355.845 Q3562.88 354.932 3562.88 350.364 L3562.88 282.978 Q3562.88 278.2 3561.06 277.005 Q3559.3 275.811 3551.64 275.811 L3551.64 271.314 L3572.37 269.768 L3572.37 279.254 Q3581.01 269.768 3592.54 269.768 Q3604.76 269.768 3613.69 279.254 Q3622.61 288.74 3622.61 302.302 Q3622.61 316.004 3613.13 325.49 Q3603.64 334.976 3590.5 334.976 Q3583.33 334.976 3578.48 331.322 Q3573.71 327.598 3572.79 324.857 L3572.79 326.192 L3572.79 350.364 Q3572.79 355.002 3574.62 355.916 Q3576.45 356.829 3584.04 356.829 L3584.04 361.256 Q3568.93 360.834 3567.8 360.834 Q3566.4 360.834 3551.64 361.256 L3551.64 356.829 M3572.79 316.987 Q3572.79 319.166 3573.07 319.939 Q3573.43 320.712 3574.83 323.03 Q3580.52 331.744 3589.8 331.744 Q3589.87 331.744 3589.94 331.744 Q3598.16 331.744 3604.41 323.382 Q3610.67 314.95 3610.67 302.302 Q3610.67 290.216 3604.98 281.783 Q3599.28 273.351 3591.41 273.351 Q3585.79 273.351 3580.87 276.373 Q3575.95 279.394 3572.79 284.875 L3572.79 316.987 Z" fill="#000000" fill-rule="nonzero" fill-opacity="1" /><path clip-path="url(#clip930)" d="M3638.76 333.36 L3638.76 328.933 Q3646.42 328.933 3648.18 328.019 Q3649.94 327.036 3649.94 322.398 L3649.94 283.681 Q3649.94 278.34 3648.11 277.076 Q3646.35 275.811 3639.33 275.811 L3639.33 271.314 L3659.42 269.768 L3659.42 322.539 Q3659.42 326.825 3660.97 327.879 Q3662.51 328.933 3669.54 328.933 L3669.54 333.36 Q3654.85 332.938 3654.57 332.938 Q3652.61 332.938 3638.76 333.36 M3644.81 244.682 Q3644.81 241.801 3646.98 239.483 Q3649.23 237.093 3652.4 237.093 Q3655.56 237.093 3657.81 239.272 Q3660.05 241.38 3660.05 244.753 Q3660.05 248.055 3657.81 250.233 Q3655.56 252.341 3652.4 252.341 Q3649.09 252.341 3646.91 250.023 Q3644.81 247.704 3644.81 244.682 Z" fill="#000000" fill-rule="nonzero" fill-opacity="1" /><polyline clip-path="url(#clip930)" style="stroke:#e26f46; stroke-linecap:round; stroke-linejoin:round; stroke-width:60; stroke-opacity:1; fill:none" points="3079.19,455.026 3296.67,455.026 "/>
<path clip-path="url(#clip930)" d="M3332.92 458.939 Q3332.92 445.237 3342.47 435.75 Q3352.03 426.264 3364.96 426.264 Q3375.92 426.264 3383.09 435.188 L3383.09 404.06 Q3383.09 398.72 3381.19 397.384 Q3379.36 396.049 3371.92 396.049 L3371.92 391.552 L3392.64 390.006 L3392.64 477.349 Q3392.64 482.689 3394.47 484.094 Q3396.37 485.429 3403.82 485.429 L3403.82 489.856 L3382.67 491.472 L3382.67 481.916 Q3375.22 491.402 3363.41 491.472 Q3351.05 491.472 3341.98 481.986 Q3332.92 472.5 3332.92 458.939 M3344.86 459.079 Q3344.86 472.43 3349.01 479.035 Q3354.77 488.24 3364.12 488.24 Q3374.8 488.24 3381.12 478.192 Q3382.74 475.733 3382.67 472.852 L3382.67 443.339 Q3382.67 440.458 3381.12 438.069 Q3375.22 429.426 3365.59 429.426 Q3355.54 429.426 3349.29 438.631 Q3344.86 445.518 3344.86 459.079 Z" fill="#000000" fill-rule="nonzero" fill-opacity="1" /><path clip-path="url(#clip930)" d="M3409.67 507.704 Q3409.67 504.683 3411.43 503.067 Q3413.25 501.521 3415.71 501.521 Q3418.31 501.521 3420 503.137 Q3421.76 504.823 3421.76 507.564 Q3421.76 512.904 3416.13 513.607 Q3418.88 516.207 3422.88 516.207 Q3427.17 516.207 3430.61 513.045 Q3434.12 509.882 3435.6 506.861 Q3437.14 503.839 3439.32 498.359 Q3441.36 494.072 3442.91 489.856 L3421.33 437.296 Q3419.93 433.853 3417.75 433.08 Q3415.57 432.307 3409.67 432.307 L3409.67 427.81 Q3416.13 428.232 3423.65 428.232 Q3428.08 428.232 3439.32 427.81 L3439.32 432.307 Q3431.24 432.307 3431.24 436.032 Q3431.24 436.453 3432.09 438.631 L3448.11 477.349 L3462.65 441.934 Q3463.49 439.896 3463.49 438.491 Q3463.49 432.588 3456.75 432.307 L3456.75 427.81 Q3466.24 428.232 3469.26 428.232 Q3475.16 428.232 3480.01 427.81 L3480.01 432.307 Q3470.38 432.307 3466.66 441.512 L3441.29 502.926 Q3434.4 519.298 3422.88 519.369 Q3417.4 519.369 3413.53 515.996 Q3409.67 512.623 3409.67 507.704 Z" fill="#000000" fill-rule="nonzero" fill-opacity="1" /><path clip-path="url(#clip930)" d="M3489.37 489.856 L3489.37 485.429 Q3497.03 485.429 3498.78 484.516 Q3500.54 483.532 3500.54 478.895 L3500.54 440.318 Q3500.54 434.977 3498.64 433.642 Q3496.82 432.307 3489.37 432.307 L3489.37 427.81 L3509.61 426.264 L3509.61 441.372 Q3516.35 426.264 3530.9 426.264 Q3541.72 426.264 3546 431.605 Q3549.17 435.188 3549.8 439.194 Q3550.5 443.199 3550.5 453.598 L3550.5 481.073 Q3550.64 484.094 3552.96 484.797 Q3555.28 485.429 3561.74 485.429 L3561.74 489.856 Q3547.06 489.435 3545.58 489.435 Q3544.46 489.435 3529.35 489.856 L3529.35 485.429 Q3537.01 485.429 3538.77 484.516 Q3540.59 483.532 3540.59 478.895 L3540.59 445.377 Q3540.59 438.069 3538.35 433.783 Q3536.1 429.426 3529.91 429.426 Q3522.46 429.426 3516.49 435.68 Q3510.52 441.934 3510.52 452.474 L3510.52 478.895 Q3510.52 483.532 3512.28 484.516 Q3514.1 485.429 3521.69 485.429 L3521.69 489.856 Q3507.01 489.435 3505.6 489.435 Q3504.48 489.435 3489.37 489.856 Z" fill="#000000" fill-rule="nonzero" fill-opacity="1" /><path clip-path="url(#clip930)" d="M3560.31 513.326 Q3567.97 513.326 3569.73 512.342 Q3571.56 511.428 3571.56 506.861 L3571.56 439.475 Q3571.56 434.696 3569.73 433.502 Q3567.97 432.307 3560.31 432.307 L3560.31 427.81 L3581.04 426.264 L3581.04 435.75 Q3589.68 426.264 3601.21 426.264 Q3613.44 426.264 3622.36 435.75 Q3631.28 445.237 3631.28 458.798 Q3631.28 472.5 3621.8 481.986 Q3612.31 491.472 3599.17 491.472 Q3592 491.472 3587.16 487.819 Q3582.38 484.094 3581.46 481.354 L3581.46 482.689 L3581.46 506.861 Q3581.46 511.499 3583.29 512.412 Q3585.12 513.326 3592.71 513.326 L3592.71 517.752 Q3577.6 517.331 3576.47 517.331 Q3575.07 517.331 3560.31 517.752 L3560.31 513.326 M3581.46 473.484 Q3581.46 475.662 3581.74 476.435 Q3582.1 477.208 3583.5 479.527 Q3589.19 488.24 3598.47 488.24 Q3598.54 488.24 3598.61 488.24 Q3606.83 488.24 3613.08 479.878 Q3619.34 471.446 3619.34 458.798 Q3619.34 446.712 3613.65 438.28 Q3607.95 429.848 3600.08 429.848 Q3594.46 429.848 3589.54 432.869 Q3584.63 435.891 3581.46 441.372 L3581.46 473.484 Z" fill="#000000" fill-rule="nonzero" fill-opacity="1" /><path clip-path="url(#clip930)" d="M3647.43 489.856 L3647.43 485.429 Q3655.09 485.429 3656.85 484.516 Q3658.61 483.532 3658.61 478.895 L3658.61 440.177 Q3658.61 434.837 3656.78 433.572 Q3655.02 432.307 3648 432.307 L3648 427.81 L3668.09 426.264 L3668.09 479.035 Q3668.09 483.321 3669.64 484.375 Q3671.18 485.429 3678.21 485.429 L3678.21 489.856 Q3663.53 489.435 3663.24 489.435 Q3661.28 489.435 3647.43 489.856 M3653.48 401.179 Q3653.48 398.298 3655.66 395.979 Q3657.9 393.59 3661.07 393.59 Q3664.23 393.59 3666.48 395.768 Q3668.73 397.876 3668.73 401.249 Q3668.73 404.552 3666.48 406.73 Q3664.23 408.838 3661.07 408.838 Q3657.76 408.838 3655.59 406.519 Q3653.48 404.2 3653.48 401.179 Z" fill="#000000" fill-rule="nonzero" fill-opacity="1" /><polyline clip-path="url(#clip930)" style="stroke:#3da44d; stroke-linecap:round; stroke-linejoin:round; stroke-width:60; stroke-opacity:1; fill:none" stroke-dasharray="240, 120, 30, 120" points="3079.19,610.546 3296.67,610.546 "/>
<path clip-path="url(#clip930)" d="M3332.92 659.23 L3332.92 654.804 Q3338.12 654.804 3341.42 653.82 Q3344.72 652.766 3345.92 650.869 Q3347.18 648.901 3347.46 647.636 Q3347.74 646.301 3347.74 644.123 L3347.74 572.169 Q3347.74 568.023 3345.92 566.759 Q3344.16 565.424 3336.36 565.424 L3332.92 565.424 L3332.92 560.926 L3357.23 560.926 Q3359.83 560.926 3360.53 561.418 Q3361.23 561.84 3362.29 564.088 L3393.49 644.685 L3424.97 563.667 Q3425.67 561.629 3426.3 561.278 Q3427 560.926 3429.75 560.926 L3454.06 560.926 L3454.06 565.424 L3450.61 565.424 Q3442.81 565.424 3440.99 566.759 Q3439.23 568.023 3439.23 572.169 L3439.23 647.988 Q3439.23 652.133 3440.99 653.469 Q3442.81 654.804 3450.61 654.804 L3454.06 654.804 L3454.06 659.23 Q3448.72 658.809 3433.47 658.809 Q3418.08 658.809 3412.74 659.23 L3412.74 654.804 L3416.25 654.804 Q3424.05 654.804 3425.81 653.539 Q3427.57 652.204 3427.57 647.988 L3427.57 565.424 L3427.43 565.424 L3392.08 656.49 Q3391.1 659.23 3389.48 659.23 Q3387.73 659.23 3386.6 656.068 L3351.89 566.548 L3351.75 566.548 L3351.75 644.123 Q3351.75 646.301 3352.03 647.636 Q3352.31 648.901 3353.5 650.869 Q3354.77 652.766 3358.07 653.82 Q3361.37 654.804 3366.57 654.804 L3366.57 659.23 Q3351.47 658.809 3349.71 658.809 Q3348.02 658.809 3332.92 659.23 Z" fill="#000000" fill-rule="nonzero" fill-opacity="1" /><path clip-path="url(#clip930)" d="M3477.23 658.949 L3477.23 630.14 Q3477.23 628.524 3477.3 627.961 Q3477.37 627.399 3477.79 626.978 Q3478.21 626.556 3479.05 626.556 Q3480.67 626.556 3480.81 628.032 Q3481.23 642.296 3489.73 650.166 Q3498.1 657.966 3512.43 657.966 Q3521.07 657.966 3526.41 651.782 Q3531.75 645.528 3531.75 637.377 Q3531.75 629.578 3527.26 624.097 Q3525.36 621.637 3522.97 620.092 Q3520.65 618.475 3519.18 617.984 Q3517.77 617.492 3515.03 616.789 Q3497.18 612.503 3496.06 612.011 Q3487.56 609.13 3482.36 601.892 Q3477.23 594.585 3477.23 585.661 Q3477.23 574.137 3485.31 565.986 Q3493.46 557.764 3505.26 557.764 Q3511.17 557.764 3516.08 559.662 Q3521.07 561.489 3523.11 563.175 Q3525.15 564.861 3528.31 567.883 L3533.3 559.662 Q3534.42 557.764 3535.48 557.764 Q3536.6 557.764 3536.81 558.467 Q3537.09 559.099 3537.09 561.208 L3537.09 590.158 Q3537.09 591.774 3537.02 592.336 Q3536.95 592.898 3536.46 593.249 Q3536.04 593.601 3535.2 593.601 Q3533.79 593.601 3533.44 591.914 Q3529.44 561.84 3505.4 561.84 Q3497.18 561.84 3491.77 567.391 Q3486.43 572.872 3486.43 580.672 Q3486.43 586.996 3490.37 592.195 Q3494.3 597.325 3500.98 598.941 L3519.39 603.368 Q3528.59 605.546 3534.78 613.697 Q3540.96 621.848 3540.96 632.459 Q3540.96 644.685 3532.95 653.539 Q3525.01 662.392 3512.57 662.392 Q3503.65 662.392 3496.76 659.441 Q3489.88 656.49 3486.15 652.344 Q3483.27 657.122 3481.37 659.793 L3480.95 660.495 Q3479.83 662.392 3478.77 662.392 Q3477.65 662.392 3477.44 661.69 Q3477.23 660.987 3477.23 658.949 Z" fill="#000000" fill-rule="nonzero" fill-opacity="1" /><path clip-path="url(#clip930)" d="M3562.62 658.949 L3562.62 630.14 Q3562.62 628.524 3562.69 627.961 Q3562.76 627.399 3563.18 626.978 Q3563.6 626.556 3564.45 626.556 Q3566.06 626.556 3566.2 628.032 Q3566.63 642.296 3575.13 650.166 Q3583.49 657.966 3597.82 657.966 Q3606.47 657.966 3611.81 651.782 Q3617.15 645.528 3617.15 637.377 Q3617.15 629.578 3612.65 624.097 Q3610.75 621.637 3608.36 620.092 Q3606.05 618.475 3604.57 617.984 Q3603.16 617.492 3600.42 616.789 Q3582.58 612.503 3581.45 612.011 Q3572.95 609.13 3567.75 601.892 Q3562.62 594.585 3562.62 585.661 Q3562.62 574.137 3570.7 565.986 Q3578.85 557.764 3590.66 557.764 Q3596.56 557.764 3601.48 559.662 Q3606.47 561.489 3608.51 563.175 Q3610.54 564.861 3613.7 567.883 L3618.69 559.662 Q3619.82 557.764 3620.87 557.764 Q3622 557.764 3622.21 558.467 Q3622.49 559.099 3622.49 561.208 L3622.49 590.158 Q3622.49 591.774 3622.42 592.336 Q3622.35 592.898 3621.86 593.249 Q3621.43 593.601 3620.59 593.601 Q3619.19 593.601 3618.83 591.914 Q3614.83 561.84 3590.8 561.84 Q3582.58 561.84 3577.17 567.391 Q3571.83 572.872 3571.83 580.672 Q3571.83 586.996 3575.76 592.195 Q3579.7 597.325 3586.37 598.941 L3604.78 603.368 Q3613.99 605.546 3620.17 613.697 Q3626.35 621.848 3626.35 632.459 Q3626.35 644.685 3618.34 653.539 Q3610.4 662.392 3597.97 662.392 Q3589.04 662.392 3582.15 659.441 Q3575.27 656.49 3571.54 652.344 Q3568.66 657.122 3566.77 659.793 L3566.34 660.495 Q3565.22 662.392 3564.17 662.392 Q3563.04 662.392 3562.83 661.69 Q3562.62 660.987 3562.62 658.949 Z" fill="#000000" fill-rule="nonzero" fill-opacity="1" /><path clip-path="url(#clip930)" d="M3648.01 659.23 L3648.01 654.804 L3651.46 654.804 Q3659.26 654.804 3661.01 653.539 Q3662.84 652.204 3662.84 647.988 L3662.84 572.169 Q3662.84 568.023 3661.01 566.759 Q3659.19 565.424 3651.46 565.424 L3648.01 565.424 L3648.01 560.926 L3700.64 560.926 Q3714.35 560.926 3723.48 568.305 Q3732.62 575.612 3732.62 585.239 Q3732.62 593.179 3725.87 599.503 Q3719.19 605.827 3708.72 607.865 Q3720.67 609.13 3728.54 616.367 Q3736.48 623.535 3736.48 632.88 Q3736.48 643.42 3727.42 651.361 Q3718.35 659.23 3704.44 659.23 L3648.01 659.23 M3674.79 649.042 Q3674.79 652.766 3675.84 653.82 Q3676.89 654.804 3681.81 654.804 L3699.8 654.804 Q3710.13 654.804 3716.1 648.058 Q3722.08 641.242 3722.08 632.74 Q3722.08 624.237 3716.81 617 Q3711.61 609.692 3701.84 609.692 L3674.79 609.692 L3674.79 649.042 M3674.79 606.53 L3695.66 606.53 Q3706.76 606.53 3712.66 599.855 Q3718.63 593.179 3718.63 585.239 Q3718.63 578.212 3713.85 571.818 Q3709.15 565.424 3699.66 565.424 L3681.81 565.424 Q3676.89 565.424 3675.84 566.407 Q3674.79 567.391 3674.79 571.185 L3674.79 606.53 Z" fill="#000000" fill-rule="nonzero" fill-opacity="1" /><polyline clip-path="url(#clip930)" style="stroke:#c271d2; stroke-linecap:round; stroke-linejoin:round; stroke-width:60; stroke-opacity:1; fill:none" stroke-dasharray="240, 150" points="3079.19,766.066 3296.67,766.066 "/>
<path clip-path="url(#clip930)" d="M3332.92 814.75 L3332.92 810.324 Q3338.12 810.324 3341.42 809.34 Q3344.72 808.286 3345.92 806.389 Q3347.18 804.421 3347.46 803.156 Q3347.74 801.821 3347.74 799.643 L3347.74 727.689 Q3347.74 723.543 3345.92 722.279 Q3344.16 720.944 3336.36 720.944 L3332.92 720.944 L3332.92 716.446 L3357.23 716.446 Q3359.83 716.446 3360.53 716.938 Q3361.23 717.36 3362.29 719.608 L3393.49 800.205 L3424.97 719.187 Q3425.67 717.149 3426.3 716.798 Q3427 716.446 3429.75 716.446 L3454.06 716.446 L3454.06 720.944 L3450.61 720.944 Q3442.81 720.944 3440.99 722.279 Q3439.23 723.543 3439.23 727.689 L3439.23 803.508 Q3439.23 807.653 3440.99 808.989 Q3442.81 810.324 3450.61 810.324 L3454.06 810.324 L3454.06 814.75 Q3448.72 814.329 3433.47 814.329 Q3418.08 814.329 3412.74 814.75 L3412.74 810.324 L3416.25 810.324 Q3424.05 810.324 3425.81 809.059 Q3427.57 807.724 3427.57 803.508 L3427.57 720.944 L3427.43 720.944 L3392.08 812.01 Q3391.1 814.75 3389.48 814.75 Q3387.73 814.75 3386.6 811.588 L3351.89 722.068 L3351.75 722.068 L3351.75 799.643 Q3351.75 801.821 3352.03 803.156 Q3352.31 804.421 3353.5 806.389 Q3354.77 808.286 3358.07 809.34 Q3361.37 810.324 3366.57 810.324 L3366.57 814.75 Q3351.47 814.329 3349.71 814.329 Q3348.02 814.329 3332.92 814.75 Z" fill="#000000" fill-rule="nonzero" fill-opacity="1" /><path clip-path="url(#clip930)" d="M3477.23 814.469 L3477.23 785.66 Q3477.23 784.044 3477.3 783.481 Q3477.37 782.919 3477.79 782.498 Q3478.21 782.076 3479.05 782.076 Q3480.67 782.076 3480.81 783.552 Q3481.23 797.816 3489.73 805.686 Q3498.1 813.486 3512.43 813.486 Q3521.07 813.486 3526.41 807.302 Q3531.75 801.048 3531.75 792.897 Q3531.75 785.098 3527.26 779.617 Q3525.36 777.157 3522.97 775.612 Q3520.65 773.995 3519.18 773.504 Q3517.77 773.012 3515.03 772.309 Q3497.18 768.023 3496.06 767.531 Q3487.56 764.65 3482.36 757.412 Q3477.23 750.105 3477.23 741.181 Q3477.23 729.657 3485.31 721.506 Q3493.46 713.284 3505.26 713.284 Q3511.17 713.284 3516.08 715.182 Q3521.07 717.009 3523.11 718.695 Q3525.15 720.381 3528.31 723.403 L3533.3 715.182 Q3534.42 713.284 3535.48 713.284 Q3536.6 713.284 3536.81 713.987 Q3537.09 714.619 3537.09 716.728 L3537.09 745.678 Q3537.09 747.294 3537.02 747.856 Q3536.95 748.418 3536.46 748.769 Q3536.04 749.121 3535.2 749.121 Q3533.79 749.121 3533.44 747.434 Q3529.44 717.36 3505.4 717.36 Q3497.18 717.36 3491.77 722.911 Q3486.43 728.392 3486.43 736.192 Q3486.43 742.516 3490.37 747.715 Q3494.3 752.845 3500.98 754.461 L3519.39 758.888 Q3528.59 761.066 3534.78 769.217 Q3540.96 777.368 3540.96 787.979 Q3540.96 800.205 3532.95 809.059 Q3525.01 817.912 3512.57 817.912 Q3503.65 817.912 3496.76 814.961 Q3489.88 812.01 3486.15 807.864 Q3483.27 812.642 3481.37 815.313 L3480.95 816.015 Q3479.83 817.912 3478.77 817.912 Q3477.65 817.912 3477.44 817.21 Q3477.23 816.507 3477.23 814.469 Z" fill="#000000" fill-rule="nonzero" fill-opacity="1" /><path clip-path="url(#clip930)" d="M3562.62 814.75 L3562.62 810.324 Q3567.82 810.324 3571.12 809.34 Q3574.43 808.286 3575.62 806.389 Q3576.88 804.421 3577.17 803.156 Q3577.45 801.821 3577.45 799.643 L3577.45 727.689 Q3577.45 723.543 3575.62 722.279 Q3573.86 720.944 3566.06 720.944 L3562.62 720.944 L3562.62 716.446 L3586.93 716.446 Q3589.53 716.446 3590.24 716.938 Q3590.94 717.36 3591.99 719.608 L3623.19 800.205 L3654.67 719.187 Q3655.37 717.149 3656.01 716.798 Q3656.71 716.446 3659.45 716.446 L3683.76 716.446 L3683.76 720.944 L3680.32 720.944 Q3672.52 720.944 3670.69 722.279 Q3668.94 723.543 3668.94 727.689 L3668.94 803.508 Q3668.94 807.653 3670.69 808.989 Q3672.52 810.324 3680.32 810.324 L3683.76 810.324 L3683.76 814.75 Q3678.42 814.329 3663.17 814.329 Q3647.78 814.329 3642.44 814.75 L3642.44 810.324 L3645.96 810.324 Q3653.76 810.324 3655.51 809.059 Q3657.27 807.724 3657.27 803.508 L3657.27 720.944 L3657.13 720.944 L3621.79 812.01 Q3620.8 814.75 3619.19 814.75 Q3617.43 814.75 3616.3 811.588 L3581.59 722.068 L3581.45 722.068 L3581.45 799.643 Q3581.45 801.821 3581.73 803.156 Q3582.01 804.421 3583.21 806.389 Q3584.47 808.286 3587.78 809.34 Q3591.08 810.324 3596.28 810.324 L3596.28 814.75 Q3581.17 814.329 3579.41 814.329 Q3577.73 814.329 3562.62 814.75 Z" fill="#000000" fill-rule="nonzero" fill-opacity="1" /><path clip-path="url(#clip930)" d="M3706.93 814.75 L3706.93 810.324 L3710.37 810.324 Q3718.17 810.324 3719.93 809.059 Q3721.76 807.724 3721.76 803.508 L3721.76 727.689 Q3721.76 723.543 3719.93 722.279 Q3718.1 720.944 3710.37 720.944 L3706.93 720.944 L3706.93 716.446 L3759.56 716.446 Q3773.26 716.446 3782.4 723.825 Q3791.53 731.132 3791.53 740.759 Q3791.53 748.699 3784.79 755.023 Q3778.11 761.347 3767.64 763.385 Q3779.59 764.65 3787.46 771.887 Q3795.4 779.055 3795.4 788.4 Q3795.4 798.94 3786.33 806.881 Q3777.27 814.75 3763.36 814.75 L3706.93 814.75 M3733.7 804.562 Q3733.7 808.286 3734.76 809.34 Q3735.81 810.324 3740.73 810.324 L3758.72 810.324 Q3769.05 810.324 3775.02 803.578 Q3780.99 796.762 3780.99 788.26 Q3780.99 779.757 3775.72 772.52 Q3770.52 765.212 3760.76 765.212 L3733.7 765.212 L3733.7 804.562 M3733.7 762.05 L3754.57 762.05 Q3765.67 762.05 3771.58 755.375 Q3777.55 748.699 3777.55 740.759 Q3777.55 733.732 3772.77 727.338 Q3768.06 720.944 3758.58 720.944 L3740.73 720.944 Q3735.81 720.944 3734.76 721.927 Q3733.7 722.911 3733.7 726.705 L3733.7 762.05 Z" fill="#000000" fill-rule="nonzero" fill-opacity="1" /></svg>
