<?xml version="1.0" encoding="utf-8"?>
<svg xmlns="http://www.w3.org/2000/svg" xmlns:xlink="http://www.w3.org/1999/xlink" width="1000" height="800" viewBox="0 0 4000 3200">
<defs>
  <clipPath id="clip320">
    <rect x="0" y="0" width="4000" height="3200"/>
  </clipPath>
</defs>
<path clip-path="url(#clip320)" d="M0 3200 L4000 3200 L4000 0 L0 0  Z" fill="#ffffff" fill-rule="evenodd" fill-opacity="1"/>
<defs>
  <clipPath id="clip321">
    <rect x="800" y="0" width="2801" height="2801"/>
  </clipPath>
</defs>
<path clip-path="url(#clip320)" d="M467.487 2726.38 L3952.76 2726.38 L3952.76 47.2441 L467.487 47.2441  Z" fill="#ffffff" fill-rule="evenodd" fill-opacity="1"/>
<defs>
  <clipPath id="clip322">
    <rect x="467" y="47" width="3486" height="2680"/>
  </clipPath>
</defs>
<polyline clip-path="url(#clip322)" style="stroke:#000000; stroke-linecap:round; stroke-linejoin:round; stroke-width:2; stroke-opacity:0.1; fill:none" points="467.487,2726.38 467.487,47.2441 "/>
<polyline clip-path="url(#clip322)" style="stroke:#000000; stroke-linecap:round; stroke-linejoin:round; stroke-width:2; stroke-opacity:0.1; fill:none" points="1142.93,2726.38 1142.93,47.2441 "/>
<polyline clip-path="url(#clip322)" style="stroke:#000000; stroke-linecap:round; stroke-linejoin:round; stroke-width:2; stroke-opacity:0.1; fill:none" points="1818.37,2726.38 1818.37,47.2441 "/>
<polyline clip-path="url(#clip322)" style="stroke:#000000; stroke-linecap:round; stroke-linejoin:round; stroke-width:2; stroke-opacity:0.1; fill:none" points="2493.81,2726.38 2493.81,47.2441 "/>
<polyline clip-path="url(#clip322)" style="stroke:#000000; stroke-linecap:round; stroke-linejoin:round; stroke-width:2; stroke-opacity:0.1; fill:none" points="3169.25,2726.38 3169.25,47.2441 "/>
<polyline clip-path="url(#clip322)" style="stroke:#000000; stroke-linecap:round; stroke-linejoin:round; stroke-width:2; stroke-opacity:0.1; fill:none" points="3844.69,2726.38 3844.69,47.2441 "/>
<polyline clip-path="url(#clip320)" style="stroke:#000000; stroke-linecap:round; stroke-linejoin:round; stroke-width:4; stroke-opacity:1; fill:none" points="467.487,2726.38 3952.76,2726.38 "/>
<polyline clip-path="url(#clip320)" style="stroke:#000000; stroke-linecap:round; stroke-linejoin:round; stroke-width:4; stroke-opacity:1; fill:none" points="467.487,47.2441 3952.76,47.2441 "/>
<polyline clip-path="url(#clip320)" style="stroke:#000000; stroke-linecap:round; stroke-linejoin:round; stroke-width:4; stroke-opacity:1; fill:none" points="467.487,2726.38 467.487,2707.48 "/>
<polyline clip-path="url(#clip320)" style="stroke:#000000; stroke-linecap:round; stroke-linejoin:round; stroke-width:4; stroke-opacity:1; fill:none" points="1142.93,2726.38 1142.93,2707.48 "/>
<polyline clip-path="url(#clip320)" style="stroke:#000000; stroke-linecap:round; stroke-linejoin:round; stroke-width:4; stroke-opacity:1; fill:none" points="1818.37,2726.38 1818.37,2707.48 "/>
<polyline clip-path="url(#clip320)" style="stroke:#000000; stroke-linecap:round; stroke-linejoin:round; stroke-width:4; stroke-opacity:1; fill:none" points="2493.81,2726.38 2493.81,2707.48 "/>
<polyline clip-path="url(#clip320)" style="stroke:#000000; stroke-linecap:round; stroke-linejoin:round; stroke-width:4; stroke-opacity:1; fill:none" points="3169.25,2726.38 3169.25,2707.48 "/>
<polyline clip-path="url(#clip320)" style="stroke:#000000; stroke-linecap:round; stroke-linejoin:round; stroke-width:4; stroke-opacity:1; fill:none" points="3844.69,2726.38 3844.69,2707.48 "/>
<path clip-path="url(#clip320)" d="M384.544 2802.32 Q371.003 2802.32 364.145 2815.69 Q357.374 2828.97 357.374 2855.71 Q357.374 2882.36 364.145 2895.73 Q371.003 2909.01 384.544 2909.01 Q398.173 2909.01 404.944 2895.73 Q411.801 2882.36 411.801 2855.71 Q411.801 2828.97 404.944 2815.69 Q398.173 2802.32 384.544 2802.32 M384.544 2788.44 Q406.333 2788.44 417.791 2805.71 Q429.336 2822.9 429.336 2855.71 Q429.336 2888.44 417.791 2905.71 Q406.333 2922.9 384.544 2922.9 Q362.756 2922.9 351.211 2905.71 Q339.753 2888.44 339.753 2855.71 Q339.753 2822.9 351.211 2805.71 Q362.756 2788.44 384.544 2788.44 Z" fill="#000000" fill-rule="nonzero" fill-opacity="1" /><path clip-path="url(#clip320)" d="M460.152 2898.33 L478.468 2898.33 L478.468 2920.38 L460.152 2920.38 L460.152 2898.33 Z" fill="#000000" fill-rule="nonzero" fill-opacity="1" /><path clip-path="url(#clip320)" d="M516.835 2790.78 L585.672 2790.78 L585.672 2805.54 L532.894 2805.54 L532.894 2837.31 Q536.714 2836.01 540.533 2835.4 Q544.353 2834.7 548.172 2834.7 Q569.873 2834.7 582.547 2846.6 Q595.22 2858.49 595.22 2878.8 Q595.22 2899.72 582.2 2911.35 Q569.179 2922.9 545.481 2922.9 Q537.321 2922.9 528.814 2921.51 Q520.394 2920.12 511.367 2917.34 L511.367 2899.72 Q519.179 2903.97 527.512 2906.06 Q535.846 2908.14 545.134 2908.14 Q560.151 2908.14 568.918 2900.24 Q577.686 2892.34 577.686 2878.8 Q577.686 2865.26 568.918 2857.36 Q560.151 2849.46 545.134 2849.46 Q538.103 2849.46 531.071 2851.02 Q524.127 2852.59 516.835 2855.88 L516.835 2790.78 Z" fill="#000000" fill-rule="nonzero" fill-opacity="1" /><path clip-path="url(#clip320)" d="M1019.75 2905.62 L1048.4 2905.62 L1048.4 2806.75 L1017.23 2813 L1017.23 2797.03 L1048.22 2790.78 L1065.76 2790.78 L1065.76 2905.62 L1094.4 2905.62 L1094.4 2920.38 L1019.75 2920.38 L1019.75 2905.62 Z" fill="#000000" fill-rule="nonzero" fill-opacity="1" /><path clip-path="url(#clip320)" d="M1129.82 2898.33 L1148.13 2898.33 L1148.13 2920.38 L1129.82 2920.38 L1129.82 2898.33 Z" fill="#000000" fill-rule="nonzero" fill-opacity="1" /><path clip-path="url(#clip320)" d="M1223.83 2802.32 Q1210.29 2802.32 1203.43 2815.69 Q1196.66 2828.97 1196.66 2855.71 Q1196.66 2882.36 1203.43 2895.73 Q1210.29 2909.01 1223.83 2909.01 Q1237.46 2909.01 1244.23 2895.73 Q1251.09 2882.36 1251.09 2855.71 Q1251.09 2828.97 1244.23 2815.69 Q1237.46 2802.32 1223.83 2802.32 M1223.83 2788.44 Q1245.62 2788.44 1257.08 2805.71 Q1268.62 2822.9 1268.62 2855.71 Q1268.62 2888.44 1257.08 2905.71 Q1245.62 2922.9 1223.83 2922.9 Q1202.04 2922.9 1190.5 2905.71 Q1179.04 2888.44 1179.04 2855.71 Q1179.04 2822.9 1190.5 2805.71 Q1202.04 2788.44 1223.83 2788.44 Z" fill="#000000" fill-rule="nonzero" fill-opacity="1" /><path clip-path="url(#clip320)" d="M1697.06 2905.62 L1725.7 2905.62 L1725.7 2806.75 L1694.54 2813 L1694.54 2797.03 L1725.53 2790.78 L1743.06 2790.78 L1743.06 2905.62 L1771.71 2905.62 L1771.71 2920.38 L1697.06 2920.38 L1697.06 2905.62 Z" fill="#000000" fill-rule="nonzero" fill-opacity="1" /><path clip-path="url(#clip320)" d="M1807.12 2898.33 L1825.44 2898.33 L1825.44 2920.38 L1807.12 2920.38 L1807.12 2898.33 Z" fill="#000000" fill-rule="nonzero" fill-opacity="1" /><path clip-path="url(#clip320)" d="M1863.81 2790.78 L1932.65 2790.78 L1932.65 2805.54 L1879.87 2805.54 L1879.87 2837.31 Q1883.69 2836.01 1887.51 2835.4 Q1891.33 2834.7 1895.15 2834.7 Q1916.85 2834.7 1929.52 2846.6 Q1942.19 2858.49 1942.19 2878.8 Q1942.19 2899.72 1929.17 2911.35 Q1916.15 2922.9 1892.45 2922.9 Q1884.29 2922.9 1875.79 2921.51 Q1867.37 2920.12 1858.34 2917.34 L1858.34 2899.72 Q1866.15 2903.97 1874.49 2906.06 Q1882.82 2908.14 1892.11 2908.14 Q1907.12 2908.14 1915.89 2900.24 Q1924.66 2892.34 1924.66 2878.8 Q1924.66 2865.26 1915.89 2857.36 Q1907.12 2849.46 1892.11 2849.46 Q1885.08 2849.46 1878.04 2851.02 Q1871.1 2852.59 1863.81 2855.88 L1863.81 2790.78 Z" fill="#000000" fill-rule="nonzero" fill-opacity="1" /><path clip-path="url(#clip320)" d="M2385.95 2905.62 L2447.15 2905.62 L2447.15 2920.38 L2364.86 2920.38 L2364.86 2905.62 Q2374.84 2895.29 2392.03 2877.93 Q2409.3 2860.48 2413.73 2855.45 Q2422.15 2845.99 2425.45 2839.48 Q2428.83 2832.88 2428.83 2826.54 Q2428.83 2816.21 2421.54 2809.7 Q2414.34 2803.19 2402.7 2803.19 Q2394.46 2803.19 2385.26 2806.06 Q2376.14 2808.92 2365.73 2814.74 L2365.73 2797.03 Q2376.32 2792.78 2385.52 2790.61 Q2394.72 2788.44 2402.36 2788.44 Q2422.5 2788.44 2434.47 2798.51 Q2446.45 2808.57 2446.45 2825.42 Q2446.45 2833.4 2443.42 2840.61 Q2440.46 2847.72 2432.57 2857.45 Q2430.39 2859.96 2418.76 2872.03 Q2407.13 2884.01 2385.95 2905.62 Z" fill="#000000" fill-rule="nonzero" fill-opacity="1" /><path clip-path="url(#clip320)" d="M2483.95 2898.33 L2502.27 2898.33 L2502.27 2920.38 L2483.95 2920.38 L2483.95 2898.33 Z" fill="#000000" fill-rule="nonzero" fill-opacity="1" /><path clip-path="url(#clip320)" d="M2577.96 2802.32 Q2564.42 2802.32 2557.56 2815.69 Q2550.79 2828.97 2550.79 2855.71 Q2550.79 2882.36 2557.56 2895.73 Q2564.42 2909.01 2577.96 2909.01 Q2591.59 2909.01 2598.36 2895.73 Q2605.22 2882.36 2605.22 2855.71 Q2605.22 2828.97 2598.36 2815.69 Q2591.59 2802.32 2577.96 2802.32 M2577.96 2788.44 Q2599.75 2788.44 2611.21 2805.71 Q2622.75 2822.9 2622.75 2855.71 Q2622.75 2888.44 2611.21 2905.71 Q2599.75 2922.9 2577.96 2922.9 Q2556.18 2922.9 2544.63 2905.71 Q2533.17 2888.44 2533.17 2855.71 Q2533.17 2822.9 2544.63 2805.71 Q2556.18 2788.44 2577.96 2788.44 Z" fill="#000000" fill-rule="nonzero" fill-opacity="1" /><path clip-path="url(#clip320)" d="M3063.26 2905.62 L3124.45 2905.62 L3124.45 2920.38 L3042.16 2920.38 L3042.16 2905.62 Q3052.15 2895.29 3069.33 2877.93 Q3086.61 2860.48 3091.03 2855.45 Q3099.45 2845.99 3102.75 2839.48 Q3106.14 2832.88 3106.14 2826.54 Q3106.14 2816.21 3098.85 2809.7 Q3091.64 2803.19 3080.01 2803.19 Q3071.76 2803.19 3062.56 2806.06 Q3053.45 2808.92 3043.03 2814.74 L3043.03 2797.03 Q3053.62 2792.78 3062.82 2790.61 Q3072.02 2788.44 3079.66 2788.44 Q3099.8 2788.44 3111.78 2798.51 Q3123.76 2808.57 3123.76 2825.42 Q3123.76 2833.4 3120.72 2840.61 Q3117.77 2847.72 3109.87 2857.45 Q3107.7 2859.96 3096.07 2872.03 Q3084.44 2884.01 3063.26 2905.62 Z" fill="#000000" fill-rule="nonzero" fill-opacity="1" /><path clip-path="url(#clip320)" d="M3161.26 2898.33 L3179.58 2898.33 L3179.58 2920.38 L3161.26 2920.38 L3161.26 2898.33 Z" fill="#000000" fill-rule="nonzero" fill-opacity="1" /><path clip-path="url(#clip320)" d="M3217.94 2790.78 L3286.78 2790.78 L3286.78 2805.54 L3234 2805.54 L3234 2837.31 Q3237.82 2836.01 3241.64 2835.4 Q3245.46 2834.7 3249.28 2834.7 Q3270.98 2834.7 3283.65 2846.6 Q3296.33 2858.49 3296.33 2878.8 Q3296.33 2899.72 3283.31 2911.35 Q3270.29 2922.9 3246.59 2922.9 Q3238.43 2922.9 3229.92 2921.51 Q3221.5 2920.12 3212.47 2917.34 L3212.47 2899.72 Q3220.29 2903.97 3228.62 2906.06 Q3236.95 2908.14 3246.24 2908.14 Q3261.26 2908.14 3270.03 2900.24 Q3278.79 2892.34 3278.79 2878.8 Q3278.79 2865.26 3270.03 2857.36 Q3261.26 2849.46 3246.24 2849.46 Q3239.21 2849.46 3232.18 2851.02 Q3225.24 2852.59 3217.94 2855.88 L3217.94 2790.78 Z" fill="#000000" fill-rule="nonzero" fill-opacity="1" /><path clip-path="url(#clip320)" d="M3774.59 2850.5 Q3787.18 2853.19 3794.21 2861.7 Q3801.33 2870.21 3801.33 2882.71 Q3801.33 2901.89 3788.13 2912.39 Q3774.94 2922.9 3750.63 2922.9 Q3742.47 2922.9 3733.79 2921.25 Q3725.2 2919.69 3716 2916.47 L3716 2899.55 Q3723.29 2903.8 3731.97 2905.97 Q3740.65 2908.14 3750.11 2908.14 Q3766.6 2908.14 3775.2 2901.63 Q3783.88 2895.12 3783.88 2882.71 Q3783.88 2871.25 3775.81 2864.82 Q3767.82 2858.31 3753.5 2858.31 L3738.39 2858.31 L3738.39 2843.9 L3754.19 2843.9 Q3767.13 2843.9 3773.98 2838.78 Q3780.84 2833.57 3780.84 2823.85 Q3780.84 2813.87 3773.72 2808.57 Q3766.69 2803.19 3753.5 2803.19 Q3746.29 2803.19 3738.05 2804.76 Q3729.8 2806.32 3719.9 2809.62 L3719.9 2793.99 Q3729.89 2791.21 3738.57 2789.82 Q3747.33 2788.44 3755.06 2788.44 Q3775.02 2788.44 3786.66 2797.55 Q3798.29 2806.58 3798.29 2822.03 Q3798.29 2832.79 3792.13 2840.26 Q3785.96 2847.64 3774.59 2850.5 Z" fill="#000000" fill-rule="nonzero" fill-opacity="1" /><path clip-path="url(#clip320)" d="M3834.57 2898.33 L3852.89 2898.33 L3852.89 2920.38 L3834.57 2920.38 L3834.57 2898.33 Z" fill="#000000" fill-rule="nonzero" fill-opacity="1" /><path clip-path="url(#clip320)" d="M3928.58 2802.32 Q3915.04 2802.32 3908.18 2815.69 Q3901.41 2828.97 3901.41 2855.71 Q3901.41 2882.36 3908.18 2895.73 Q3915.04 2909.01 3928.58 2909.01 Q3942.21 2909.01 3948.98 2895.73 Q3955.84 2882.36 3955.84 2855.71 Q3955.84 2828.97 3948.98 2815.69 Q3942.21 2802.32 3928.58 2802.32 M3928.58 2788.44 Q3950.37 2788.44 3961.83 2805.71 Q3973.37 2822.9 3973.37 2855.71 Q3973.37 2888.44 3961.83 2905.71 Q3950.37 2922.9 3928.58 2922.9 Q3906.79 2922.9 3895.25 2905.71 Q3883.79 2888.44 3883.79 2855.71 Q3883.79 2822.9 3895.25 2805.71 Q3906.79 2788.44 3928.58 2788.44 Z" fill="#000000" fill-rule="nonzero" fill-opacity="1" /><path clip-path="url(#clip320)" d="M1675.57 3165.54 L1675.57 3158.16 L1681.31 3158.16 Q1694.31 3158.16 1697.23 3156.05 Q1700.28 3153.83 1700.28 3146.8 L1700.28 3020.44 Q1700.28 3013.53 1697.23 3011.42 Q1694.19 3009.2 1681.31 3009.2 L1675.57 3009.2 L1675.57 3001.7 Q1684 3002.4 1711.99 3002.4 Q1743.61 3002.4 1752.28 3001.7 L1752.28 3009.2 L1744.31 3009.2 Q1733.3 3009.2 1728.27 3010.6 Q1723.23 3012.01 1722.41 3014 Q1721.59 3015.87 1721.59 3020.67 L1721.59 3148.56 Q1721.59 3154.77 1723.35 3156.52 Q1725.22 3158.16 1733.3 3158.16 L1752.98 3158.16 Q1765.16 3158.16 1773.94 3154.53 Q1782.73 3150.9 1787.41 3146.33 Q1792.09 3141.77 1795.14 3133.22 Q1798.3 3124.55 1799.24 3119.05 Q1800.29 3113.54 1801.23 3103.71 L1807.2 3103.71 L1800.53 3165.54 L1675.57 3165.54 Z" fill="#000000" fill-rule="nonzero" fill-opacity="1" /><path clip-path="url(#clip320)" d="M1839.85 3152.66 Q1824.04 3136.97 1824.04 3114.25 Q1824.04 3091.41 1839.5 3074.78 Q1855.07 3058.03 1877.32 3058.03 Q1899.11 3058.03 1914.68 3074.66 Q1930.38 3091.17 1930.38 3114.25 Q1930.38 3136.85 1914.57 3152.54 Q1898.87 3168.23 1877.09 3168.23 Q1855.78 3168.23 1839.85 3152.66 M1843.95 3112.25 Q1843.95 3135.56 1850.04 3146.1 Q1859.41 3162.14 1877.32 3162.14 Q1886.22 3162.14 1893.6 3157.34 Q1901.1 3152.54 1905.2 3144.46 Q1910.47 3133.92 1910.47 3112.25 Q1910.47 3089.18 1904.14 3078.99 Q1894.77 3063.42 1877.09 3063.42 Q1869.36 3063.42 1861.75 3067.52 Q1854.25 3071.5 1849.69 3079.46 Q1843.95 3090 1843.95 3112.25 Z" fill="#000000" fill-rule="nonzero" fill-opacity="1" /><path clip-path="url(#clip320)" d="M1942.81 3142.7 Q1942.81 3122.33 1966.82 3111.55 Q1981.23 3104.64 2010.97 3102.89 L2010.97 3094.1 Q2010.97 3079.23 2003.13 3071.38 Q1995.4 3063.42 1985.56 3063.42 Q1967.99 3063.42 1959.56 3074.43 Q1966.71 3074.66 1969.28 3078.29 Q1971.86 3081.81 1971.86 3085.44 Q1971.86 3090.24 1968.81 3093.4 Q1965.89 3096.44 1960.85 3096.44 Q1956.05 3096.44 1952.89 3093.52 Q1949.72 3090.47 1949.72 3085.2 Q1949.72 3073.49 1960.26 3065.76 Q1970.92 3058.03 1986.03 3058.03 Q2005.7 3058.03 2018.82 3071.27 Q2022.92 3075.36 2024.91 3080.63 Q2027.02 3085.9 2027.25 3089.42 Q2027.49 3092.81 2027.49 3099.61 L2027.49 3147.51 Q2027.49 3148.91 2027.95 3151.25 Q2028.42 3153.6 2030.53 3156.64 Q2032.76 3159.57 2036.39 3159.57 Q2045.05 3159.57 2044.94 3144.23 L2044.94 3130.76 L2051.03 3130.76 L2051.03 3144.23 Q2051.03 3156.99 2044.23 3162.03 Q2037.56 3166.95 2031.35 3166.95 Q2023.39 3166.95 2018.35 3161.09 Q2013.32 3155.23 2012.61 3147.27 Q2008.98 3156.41 2000.67 3162.38 Q1992.47 3168.23 1981.23 3168.23 Q1972.56 3168.23 1964.36 3166.01 Q1956.28 3163.9 1949.49 3157.93 Q1942.81 3151.84 1942.81 3142.7 M1961.32 3142.47 Q1961.32 3151.37 1967.64 3157.11 Q1973.97 3162.85 1982.87 3162.85 Q1992.94 3162.85 2001.96 3155.12 Q2010.97 3147.27 2010.97 3131.93 L2010.97 3107.92 Q1984.39 3108.86 1972.8 3119.52 Q1961.32 3130.06 1961.32 3142.47 Z" fill="#000000" fill-rule="nonzero" fill-opacity="1" /><path clip-path="url(#clip320)" d="M2061.59 3114.01 Q2061.59 3091.17 2077.52 3075.36 Q2093.44 3059.55 2114.99 3059.55 Q2133.26 3059.55 2145.21 3074.43 L2145.21 3022.55 Q2145.21 3013.65 2142.05 3011.42 Q2139 3009.2 2126.59 3009.2 L2126.59 3001.7 L2161.14 2999.12 L2161.14 3144.69 Q2161.14 3153.6 2164.18 3155.94 Q2167.34 3158.16 2179.76 3158.16 L2179.76 3165.54 L2144.51 3168.23 L2144.51 3152.31 Q2132.09 3168.12 2112.42 3168.23 Q2091.81 3168.23 2076.7 3152.42 Q2061.59 3136.61 2061.59 3114.01 M2081.5 3114.25 Q2081.5 3136.5 2088.41 3147.51 Q2098.01 3162.85 2113.59 3162.85 Q2131.39 3162.85 2141.93 3146.1 Q2144.62 3142 2144.51 3137.2 L2144.51 3088.01 Q2144.51 3083.21 2141.93 3079.23 Q2132.09 3064.82 2116.05 3064.82 Q2099.3 3064.82 2088.88 3080.17 Q2081.5 3091.64 2081.5 3114.25 Z" fill="#000000" fill-rule="nonzero" fill-opacity="1" /><path clip-path="url(#clip320)" d="M2256.73 3162.38 L2256.73 3130.76 Q2256.73 3128.06 2256.84 3127.13 Q2256.96 3126.19 2257.66 3125.49 Q2258.37 3124.79 2259.77 3124.79 Q2261.41 3124.79 2262 3125.49 Q2262.7 3126.19 2263.17 3128.88 Q2266.8 3145.4 2274.53 3154.18 Q2282.37 3162.85 2296.55 3162.85 Q2310.01 3162.85 2316.81 3156.87 Q2323.6 3150.9 2323.6 3141.06 Q2323.6 3123.5 2298.65 3119.05 Q2284.25 3116.12 2278.28 3114.25 Q2272.3 3112.25 2267.03 3107.92 Q2256.73 3099.49 2256.73 3087.54 Q2256.73 3075.6 2265.74 3066.81 Q2274.88 3058.03 2295.02 3058.03 Q2308.49 3058.03 2317.63 3064.82 Q2320.32 3062.72 2321.72 3060.96 Q2324.89 3058.03 2326.53 3058.03 Q2328.4 3058.03 2328.75 3059.32 Q2329.1 3060.49 2329.1 3063.89 L2329.1 3088.01 Q2329.1 3090.71 2328.99 3091.64 Q2328.87 3092.58 2328.17 3093.28 Q2327.46 3093.87 2325.94 3093.87 Q2323.25 3093.87 2323.13 3091.64 Q2321.26 3062.6 2295.02 3062.6 Q2280.85 3062.6 2274.53 3068.1 Q2268.2 3073.49 2268.2 3080.87 Q2268.2 3084.97 2270.08 3088.13 Q2272.07 3091.17 2274.53 3093.05 Q2277.1 3094.8 2281.79 3096.56 Q2286.47 3098.2 2289.28 3098.79 Q2292.21 3099.37 2297.72 3100.54 Q2316.92 3104.17 2325 3112.02 Q2335.08 3122.09 2335.08 3134.86 Q2335.08 3149.03 2325.47 3158.63 Q2315.87 3168.23 2296.55 3168.23 Q2280.97 3168.23 2270.08 3157.81 Q2268.67 3159.22 2267.62 3160.5 Q2266.56 3161.68 2266.1 3162.14 Q2265.74 3162.61 2265.63 3162.96 Q2265.51 3163.2 2265.28 3163.43 Q2260.47 3168.23 2259.3 3168.23 Q2257.43 3168.23 2257.08 3166.95 Q2256.73 3165.77 2256.73 3162.38 Z" fill="#000000" fill-rule="nonzero" fill-opacity="1" /><path clip-path="url(#clip320)" d="M2364.48 3152.42 Q2349.26 3136.5 2349.26 3113.78 Q2349.26 3090.94 2364.25 3074.54 Q2379.24 3058.03 2401.25 3058.03 Q2415.89 3058.03 2426.9 3065.06 Q2437.91 3071.97 2437.91 3083.8 Q2437.91 3089.07 2434.75 3092.11 Q2431.7 3095.04 2426.9 3095.04 Q2421.87 3095.04 2418.82 3091.99 Q2415.89 3088.83 2415.89 3084.03 Q2415.89 3081.92 2416.6 3079.81 Q2417.3 3077.71 2419.88 3075.48 Q2422.57 3073.26 2427.14 3072.9 Q2418.59 3064.12 2401.96 3064.12 Q2401.72 3064.12 2401.49 3064.12 Q2389.31 3064.12 2379.24 3075.6 Q2369.17 3087.08 2369.17 3113.31 Q2369.17 3127.01 2372.45 3137.08 Q2375.84 3147.04 2381.35 3152.19 Q2386.85 3157.34 2392.24 3159.8 Q2397.62 3162.14 2402.89 3162.14 Q2426.43 3162.14 2434.4 3136.97 Q2435.1 3134.62 2437.44 3134.62 Q2440.6 3134.62 2440.6 3136.97 Q2440.6 3138.14 2439.67 3141.18 Q2438.73 3144.23 2435.8 3149.03 Q2432.87 3153.83 2428.66 3158.05 Q2424.56 3162.14 2417.18 3165.19 Q2409.92 3168.23 2400.79 3168.23 Q2379.71 3168.23 2364.48 3152.42 Z" fill="#000000" fill-rule="nonzero" fill-opacity="1" /><path clip-path="url(#clip320)" d="M2452.77 3142.7 Q2452.77 3122.33 2476.78 3111.55 Q2491.19 3104.64 2520.93 3102.89 L2520.93 3094.1 Q2520.93 3079.23 2513.09 3071.38 Q2505.36 3063.42 2495.52 3063.42 Q2477.95 3063.42 2469.52 3074.43 Q2476.66 3074.66 2479.24 3078.29 Q2481.82 3081.81 2481.82 3085.44 Q2481.82 3090.24 2478.77 3093.4 Q2475.84 3096.44 2470.81 3096.44 Q2466.01 3096.44 2462.85 3093.52 Q2459.68 3090.47 2459.68 3085.2 Q2459.68 3073.49 2470.22 3065.76 Q2480.88 3058.03 2495.99 3058.03 Q2515.66 3058.03 2528.78 3071.27 Q2532.88 3075.36 2534.87 3080.63 Q2536.98 3085.9 2537.21 3089.42 Q2537.45 3092.81 2537.45 3099.61 L2537.45 3147.51 Q2537.45 3148.91 2537.91 3151.25 Q2538.38 3153.6 2540.49 3156.64 Q2542.72 3159.57 2546.35 3159.57 Q2555.01 3159.57 2554.9 3144.23 L2554.9 3130.76 L2560.99 3130.76 L2560.99 3144.23 Q2560.99 3156.99 2554.19 3162.03 Q2547.52 3166.95 2541.31 3166.95 Q2533.35 3166.95 2528.31 3161.09 Q2523.28 3155.23 2522.57 3147.27 Q2518.94 3156.41 2510.63 3162.38 Q2502.43 3168.23 2491.19 3168.23 Q2482.52 3168.23 2474.32 3166.01 Q2466.24 3163.9 2459.45 3157.93 Q2452.77 3151.84 2452.77 3142.7 M2471.28 3142.47 Q2471.28 3151.37 2477.6 3157.11 Q2483.93 3162.85 2492.83 3162.85 Q2502.9 3162.85 2511.92 3155.12 Q2520.93 3147.27 2520.93 3131.93 L2520.93 3107.92 Q2494.35 3108.86 2482.75 3119.52 Q2471.28 3130.06 2471.28 3142.47 Z" fill="#000000" fill-rule="nonzero" fill-opacity="1" /><path clip-path="url(#clip320)" d="M2570.59 3165.54 L2570.59 3158.16 Q2583.36 3158.16 2586.28 3156.64 Q2589.21 3155 2589.21 3147.27 L2589.21 3022.55 Q2589.21 3013.65 2586.05 3011.42 Q2583 3009.2 2570.59 3009.2 L2570.59 3001.7 L2605.02 2999.12 L2605.02 3147.27 Q2605.02 3155 2608.07 3156.64 Q2611.11 3158.16 2623.76 3158.16 L2623.76 3165.54 Q2620.83 3165.54 2614.74 3165.31 Q2608.65 3165.07 2604.2 3164.96 Q2599.75 3164.84 2597.17 3164.84 Q2594.36 3164.84 2570.59 3165.54 Z" fill="#000000" fill-rule="nonzero" fill-opacity="1" /><path clip-path="url(#clip320)" d="M2639.24 3112.72 Q2639.24 3090.12 2653.76 3074.08 Q2668.28 3058.03 2689.13 3058.03 Q2710.21 3058.03 2721.1 3071.73 Q2732.11 3085.44 2732.11 3105.11 Q2732.11 3108.74 2731.17 3109.44 Q2730.23 3110.15 2726.13 3110.15 L2659.15 3110.15 Q2659.15 3134.62 2666.41 3146.1 Q2676.48 3162.14 2693.46 3162.14 Q2695.8 3162.14 2698.61 3161.68 Q2701.42 3161.21 2707.16 3159.22 Q2712.9 3157.11 2717.94 3151.6 Q2722.97 3146.1 2725.9 3137.43 Q2726.6 3134.04 2728.95 3134.15 Q2732.11 3134.15 2732.11 3136.97 Q2732.11 3139.07 2729.77 3143.87 Q2727.54 3148.56 2723.21 3154.18 Q2718.87 3159.8 2710.44 3164.02 Q2702.13 3168.23 2692.06 3168.23 Q2670.97 3168.23 2655.05 3152.31 Q2639.24 3136.26 2639.24 3112.72 M2659.38 3105.11 L2716.3 3105.11 Q2716.3 3100.07 2715.36 3094.45 Q2714.54 3088.83 2711.96 3081.1 Q2709.5 3073.26 2703.65 3068.34 Q2697.79 3063.42 2689.13 3063.42 Q2685.26 3063.42 2681.05 3065.06 Q2676.95 3066.7 2671.91 3070.68 Q2666.88 3074.66 2663.36 3083.68 Q2659.85 3092.7 2659.38 3105.11 Z" fill="#000000" fill-rule="nonzero" fill-opacity="1" /><polyline clip-path="url(#clip322)" style="stroke:#000000; stroke-linecap:round; stroke-linejoin:round; stroke-width:2; stroke-opacity:0.1; fill:none" points="467.487,2726.38 3952.76,2726.38 "/>
<polyline clip-path="url(#clip322)" style="stroke:#000000; stroke-linecap:round; stroke-linejoin:round; stroke-width:2; stroke-opacity:0.1; fill:none" points="467.487,2117.49 3952.76,2117.49 "/>
<polyline clip-path="url(#clip322)" style="stroke:#000000; stroke-linecap:round; stroke-linejoin:round; stroke-width:2; stroke-opacity:0.1; fill:none" points="467.487,1508.59 3952.76,1508.59 "/>
<polyline clip-path="url(#clip322)" style="stroke:#000000; stroke-linecap:round; stroke-linejoin:round; stroke-width:2; stroke-opacity:0.1; fill:none" points="467.487,899.696 3952.76,899.696 "/>
<polyline clip-path="url(#clip322)" style="stroke:#000000; stroke-linecap:round; stroke-linejoin:round; stroke-width:2; stroke-opacity:0.1; fill:none" points="467.487,290.802 3952.76,290.802 "/>
<polyline clip-path="url(#clip320)" style="stroke:#000000; stroke-linecap:round; stroke-linejoin:round; stroke-width:4; stroke-opacity:1; fill:none" points="467.487,2726.38 467.487,47.2441 "/>
<polyline clip-path="url(#clip320)" style="stroke:#000000; stroke-linecap:round; stroke-linejoin:round; stroke-width:4; stroke-opacity:1; fill:none" points="3952.76,2726.38 3952.76,47.2441 "/>
<polyline clip-path="url(#clip320)" style="stroke:#000000; stroke-linecap:round; stroke-linejoin:round; stroke-width:4; stroke-opacity:1; fill:none" points="467.487,2726.38 486.384,2726.38 "/>
<polyline clip-path="url(#clip320)" style="stroke:#000000; stroke-linecap:round; stroke-linejoin:round; stroke-width:4; stroke-opacity:1; fill:none" points="467.487,2117.49 486.384,2117.49 "/>
<polyline clip-path="url(#clip320)" style="stroke:#000000; stroke-linecap:round; stroke-linejoin:round; stroke-width:4; stroke-opacity:1; fill:none" points="467.487,1508.59 486.384,1508.59 "/>
<polyline clip-path="url(#clip320)" style="stroke:#000000; stroke-linecap:round; stroke-linejoin:round; stroke-width:4; stroke-opacity:1; fill:none" points="467.487,899.696 486.384,899.696 "/>
<polyline clip-path="url(#clip320)" style="stroke:#000000; stroke-linecap:round; stroke-linejoin:round; stroke-width:4; stroke-opacity:1; fill:none" points="467.487,290.802 486.384,290.802 "/>
<path clip-path="url(#clip320)" d="M193.078 2673.12 Q179.537 2673.12 172.679 2686.49 Q165.908 2699.77 165.908 2726.51 Q165.908 2753.16 172.679 2766.53 Q179.537 2779.81 193.078 2779.81 Q206.707 2779.81 213.477 2766.53 Q220.335 2753.16 220.335 2726.51 Q220.335 2699.77 213.477 2686.49 Q206.707 2673.12 193.078 2673.12 M193.078 2659.24 Q214.866 2659.24 226.324 2676.51 Q237.87 2693.7 237.87 2726.51 Q237.87 2759.24 226.324 2776.51 Q214.866 2793.7 193.078 2793.7 Q171.29 2793.7 159.745 2776.51 Q148.287 2759.24 148.287 2726.51 Q148.287 2693.7 159.745 2676.51 Q171.29 2659.24 193.078 2659.24 Z" fill="#000000" fill-rule="nonzero" fill-opacity="1" /><path clip-path="url(#clip320)" d="M268.685 2769.13 L287.001 2769.13 L287.001 2791.18 L268.685 2791.18 L268.685 2769.13 Z" fill="#000000" fill-rule="nonzero" fill-opacity="1" /><path clip-path="url(#clip320)" d="M362.695 2673.12 Q349.154 2673.12 342.296 2686.49 Q335.525 2699.77 335.525 2726.51 Q335.525 2753.16 342.296 2766.53 Q349.154 2779.81 362.695 2779.81 Q376.324 2779.81 383.094 2766.53 Q389.952 2753.16 389.952 2726.51 Q389.952 2699.77 383.094 2686.49 Q376.324 2673.12 362.695 2673.12 M362.695 2659.24 Q384.483 2659.24 395.942 2676.51 Q407.487 2693.7 407.487 2726.51 Q407.487 2759.24 395.942 2776.51 Q384.483 2793.7 362.695 2793.7 Q340.907 2793.7 329.362 2776.51 Q317.904 2759.24 317.904 2726.51 Q317.904 2693.7 329.362 2676.51 Q340.907 2659.24 362.695 2659.24 Z" fill="#000000" fill-rule="nonzero" fill-opacity="1" /><path clip-path="url(#clip320)" d="M174.415 2167.53 L235.613 2167.53 L235.613 2182.29 L153.321 2182.29 L153.321 2167.53 Q163.304 2157.2 180.491 2139.84 Q197.766 2122.39 202.193 2117.36 Q210.613 2107.89 213.911 2101.38 Q217.297 2094.79 217.297 2088.45 Q217.297 2078.12 210.005 2071.61 Q202.8 2065.1 191.168 2065.1 Q182.922 2065.1 173.721 2067.96 Q164.606 2070.83 154.189 2076.64 L154.189 2058.94 Q164.78 2054.68 173.981 2052.51 Q183.182 2050.34 190.821 2050.34 Q210.96 2050.34 222.939 2060.41 Q234.918 2070.48 234.918 2087.32 Q234.918 2095.31 231.88 2102.51 Q228.929 2109.63 221.029 2119.35 Q218.859 2121.87 207.227 2133.93 Q195.595 2145.91 174.415 2167.53 Z" fill="#000000" fill-rule="nonzero" fill-opacity="1" /><path clip-path="url(#clip320)" d="M272.418 2160.24 L290.734 2160.24 L290.734 2182.29 L272.418 2182.29 L272.418 2160.24 Z" fill="#000000" fill-rule="nonzero" fill-opacity="1" /><path clip-path="url(#clip320)" d="M329.102 2052.69 L397.938 2052.69 L397.938 2067.44 L345.161 2067.44 L345.161 2099.21 Q348.98 2097.91 352.799 2097.3 Q356.619 2096.61 360.438 2096.61 Q382.14 2096.61 394.813 2108.5 Q407.487 2120.39 407.487 2140.71 Q407.487 2161.63 394.466 2173.26 Q381.445 2184.8 357.747 2184.8 Q349.588 2184.8 341.081 2183.41 Q332.661 2182.02 323.633 2179.25 L323.633 2161.63 Q331.445 2165.88 339.779 2167.96 Q348.112 2170.05 357.4 2170.05 Q372.417 2170.05 381.185 2162.15 Q389.952 2154.25 389.952 2140.71 Q389.952 2127.16 381.185 2119.26 Q372.417 2111.37 357.4 2111.37 Q350.369 2111.37 343.338 2112.93 Q336.393 2114.49 329.102 2117.79 L329.102 2052.69 Z" fill="#000000" fill-rule="nonzero" fill-opacity="1" /><path clip-path="url(#clip320)" d="M155.752 1443.79 L224.588 1443.79 L224.588 1458.55 L171.811 1458.55 L171.811 1490.32 Q175.63 1489.02 179.45 1488.41 Q183.269 1487.71 187.089 1487.71 Q208.79 1487.71 221.463 1499.61 Q234.137 1511.5 234.137 1531.81 Q234.137 1552.73 221.116 1564.36 Q208.095 1575.91 184.398 1575.91 Q176.238 1575.91 167.731 1574.52 Q159.311 1573.13 150.283 1570.35 L150.283 1552.73 Q158.096 1556.98 166.429 1559.07 Q174.762 1561.15 184.05 1561.15 Q199.068 1561.15 207.835 1553.25 Q216.602 1545.35 216.602 1531.81 Q216.602 1518.27 207.835 1510.37 Q199.068 1502.47 184.05 1502.47 Q177.019 1502.47 169.988 1504.03 Q163.044 1505.6 155.752 1508.89 L155.752 1443.79 Z" fill="#000000" fill-rule="nonzero" fill-opacity="1" /><path clip-path="url(#clip320)" d="M268.685 1551.34 L287.001 1551.34 L287.001 1573.39 L268.685 1573.39 L268.685 1551.34 Z" fill="#000000" fill-rule="nonzero" fill-opacity="1" /><path clip-path="url(#clip320)" d="M362.695 1455.34 Q349.154 1455.34 342.296 1468.7 Q335.525 1481.99 335.525 1508.72 Q335.525 1535.37 342.296 1548.74 Q349.154 1562.02 362.695 1562.02 Q376.324 1562.02 383.094 1548.74 Q389.952 1535.37 389.952 1508.72 Q389.952 1481.99 383.094 1468.7 Q376.324 1455.34 362.695 1455.34 M362.695 1441.45 Q384.483 1441.45 395.942 1458.72 Q407.487 1475.91 407.487 1508.72 Q407.487 1541.45 395.942 1558.72 Q384.483 1575.91 362.695 1575.91 Q340.907 1575.91 329.362 1558.72 Q317.904 1541.45 317.904 1508.72 Q317.904 1475.91 329.362 1458.72 Q340.907 1441.45 362.695 1441.45 Z" fill="#000000" fill-rule="nonzero" fill-opacity="1" /><path clip-path="url(#clip320)" d="M154.884 834.896 L238.217 834.896 L238.217 842.362 L191.168 964.496 L172.853 964.496 L217.123 849.653 L154.884 849.653 L154.884 834.896 Z" fill="#000000" fill-rule="nonzero" fill-opacity="1" /><path clip-path="url(#clip320)" d="M272.418 942.448 L290.734 942.448 L290.734 964.496 L272.418 964.496 L272.418 942.448 Z" fill="#000000" fill-rule="nonzero" fill-opacity="1" /><path clip-path="url(#clip320)" d="M329.102 834.896 L397.938 834.896 L397.938 849.653 L345.161 849.653 L345.161 881.424 Q348.98 880.122 352.799 879.514 Q356.619 878.82 360.438 878.82 Q382.14 878.82 394.813 890.712 Q407.487 902.604 407.487 922.917 Q407.487 943.837 394.466 955.469 Q381.445 967.014 357.747 967.014 Q349.588 967.014 341.081 965.625 Q332.661 964.236 323.633 961.458 L323.633 943.837 Q331.445 948.09 339.779 950.174 Q348.112 952.257 357.4 952.257 Q372.417 952.257 381.185 944.358 Q389.952 936.458 389.952 922.917 Q389.952 909.375 381.185 901.476 Q372.417 893.577 357.4 893.577 Q350.369 893.577 343.338 895.139 Q336.393 896.702 329.102 900 L329.102 834.896 Z" fill="#000000" fill-rule="nonzero" fill-opacity="1" /><path clip-path="url(#clip320)" d="M45.5095 340.845 L74.1552 340.845 L74.1552 241.974 L42.9921 248.224 L42.9921 232.252 L73.9815 226.002 L91.5162 226.002 L91.5162 340.845 L120.162 340.845 L120.162 355.602 L45.5095 355.602 L45.5095 340.845 Z" fill="#000000" fill-rule="nonzero" fill-opacity="1" /><path clip-path="url(#clip320)" d="M193.078 237.547 Q179.537 237.547 172.679 250.915 Q165.908 264.196 165.908 290.932 Q165.908 317.581 172.679 330.949 Q179.537 344.23 193.078 344.23 Q206.707 344.23 213.477 330.949 Q220.335 317.581 220.335 290.932 Q220.335 264.196 213.477 250.915 Q206.707 237.547 193.078 237.547 M193.078 223.658 Q214.866 223.658 226.324 240.932 Q237.87 258.12 237.87 290.932 Q237.87 323.658 226.324 340.932 Q214.866 358.119 193.078 358.119 Q171.29 358.119 159.745 340.932 Q148.287 323.658 148.287 290.932 Q148.287 258.12 159.745 240.932 Q171.29 223.658 193.078 223.658 Z" fill="#000000" fill-rule="nonzero" fill-opacity="1" /><path clip-path="url(#clip320)" d="M268.685 333.553 L287.001 333.553 L287.001 355.602 L268.685 355.602 L268.685 333.553 Z" fill="#000000" fill-rule="nonzero" fill-opacity="1" /><path clip-path="url(#clip320)" d="M362.695 237.547 Q349.154 237.547 342.296 250.915 Q335.525 264.196 335.525 290.932 Q335.525 317.581 342.296 330.949 Q349.154 344.23 362.695 344.23 Q376.324 344.23 383.094 330.949 Q389.952 317.581 389.952 290.932 Q389.952 264.196 383.094 250.915 Q376.324 237.547 362.695 237.547 M362.695 223.658 Q384.483 223.658 395.942 240.932 Q407.487 258.12 407.487 290.932 Q407.487 323.658 395.942 340.932 Q384.483 358.119 362.695 358.119 Q340.907 358.119 329.362 340.932 Q317.904 323.658 317.904 290.932 Q317.904 258.12 329.362 240.932 Q340.907 223.658 362.695 223.658 Z" fill="#000000" fill-rule="nonzero" fill-opacity="1" /><polyline clip-path="url(#clip322)" style="stroke:#009af9; stroke-linecap:round; stroke-linejoin:round; stroke-width:24; stroke-opacity:1; fill:none" points="467.487,290.802 1142.93,607.427 1818.37,1289.39 2493.81,1727.79 3169.25,1995.71 3844.69,2166.2 "/>
<polyline clip-path="url(#clip322)" style="stroke:#e26f46; stroke-linecap:round; stroke-linejoin:round; stroke-width:24; stroke-opacity:1; fill:none" points="467.487,290.802 1142.93,607.427 1818.37,1289.39 2493.81,1727.79 3169.25,1995.71 3844.69,2166.2 "/>
<polyline clip-path="url(#clip322)" style="stroke:#3da44d; stroke-linecap:round; stroke-linejoin:round; stroke-width:24; stroke-opacity:1; fill:none" stroke-dasharray="96, 48, 12, 48" points="467.487,315.158 1142.93,607.427 1818.37,1289.39 2493.81,1727.79 3169.25,1995.71 3844.69,2166.2 "/>
<polyline clip-path="url(#clip322)" style="stroke:#c271d2; stroke-linecap:round; stroke-linejoin:round; stroke-width:24; stroke-opacity:1; fill:none" stroke-dasharray="96, 60" points="467.487,315.158 1142.93,607.427 1818.37,1289.39 2493.81,1727.79 3169.25,1995.71 3844.69,2166.2 "/>
</svg>
