<?xml version="1.0" encoding="utf-8"?>
<svg xmlns="http://www.w3.org/2000/svg" xmlns:xlink="http://www.w3.org/1999/xlink" width="600" height="400" viewBox="0 0 2400 1600">
<defs>
  <clipPath id="clip650">
    <rect x="0" y="0" width="2400" height="1600"/>
  </clipPath>
</defs>
<path clip-path="url(#clip650)" d="M0 1600 L2400 1600 L2400 0 L0 0  Z" fill="#ffffff" fill-rule="evenodd" fill-opacity="1"/>
<defs>
  <clipPath id="clip651">
    <rect x="480" y="0" width="1681" height="1600"/>
  </clipPath>
</defs>
<path clip-path="url(#clip650)" d="M247.459 1423.18 L2352.76 1423.18 L2352.76 47.2441 L247.459 47.2441  Z" fill="#ffffff" fill-rule="evenodd" fill-opacity="1"/>
<defs>
  <clipPath id="clip652">
    <rect x="247" y="47" width="2106" height="1377"/>
  </clipPath>
</defs>
<polyline clip-path="url(#clip652)" style="stroke:#000000; stroke-linecap:round; stroke-linejoin:round; stroke-width:2; stroke-opacity:0.1; fill:none" points="247.459,1423.18 247.459,47.2441 "/>
<polyline clip-path="url(#clip652)" style="stroke:#000000; stroke-linecap:round; stroke-linejoin:round; stroke-width:2; stroke-opacity:0.1; fill:none" points="668.518,1423.18 668.518,47.2441 "/>
<polyline clip-path="url(#clip652)" style="stroke:#000000; stroke-linecap:round; stroke-linejoin:round; stroke-width:2; stroke-opacity:0.1; fill:none" points="1089.58,1423.18 1089.58,47.2441 "/>
<polyline clip-path="url(#clip652)" style="stroke:#000000; stroke-linecap:round; stroke-linejoin:round; stroke-width:2; stroke-opacity:0.1; fill:none" points="1510.64,1423.18 1510.64,47.2441 "/>
<polyline clip-path="url(#clip652)" style="stroke:#000000; stroke-linecap:round; stroke-linejoin:round; stroke-width:2; stroke-opacity:0.1; fill:none" points="1931.7,1423.18 1931.7,47.2441 "/>
<polyline clip-path="url(#clip652)" style="stroke:#000000; stroke-linecap:round; stroke-linejoin:round; stroke-width:2; stroke-opacity:0.1; fill:none" points="2352.76,1423.18 2352.76,47.2441 "/>
<polyline clip-path="url(#clip650)" style="stroke:#000000; stroke-linecap:round; stroke-linejoin:round; stroke-width:4; stroke-opacity:1; fill:none" points="247.459,1423.18 2352.76,1423.18 "/>
<polyline clip-path="url(#clip650)" style="stroke:#000000; stroke-linecap:round; stroke-linejoin:round; stroke-width:4; stroke-opacity:1; fill:none" points="247.459,1423.18 247.459,1404.28 "/>
<polyline clip-path="url(#clip650)" style="stroke:#000000; stroke-linecap:round; stroke-linejoin:round; stroke-width:4; stroke-opacity:1; fill:none" points="668.518,1423.18 668.518,1404.28 "/>
<polyline clip-path="url(#clip650)" style="stroke:#000000; stroke-linecap:round; stroke-linejoin:round; stroke-width:4; stroke-opacity:1; fill:none" points="1089.58,1423.18 1089.58,1404.28 "/>
<polyline clip-path="url(#clip650)" style="stroke:#000000; stroke-linecap:round; stroke-linejoin:round; stroke-width:4; stroke-opacity:1; fill:none" points="1510.64,1423.18 1510.64,1404.28 "/>
<polyline clip-path="url(#clip650)" style="stroke:#000000; stroke-linecap:round; stroke-linejoin:round; stroke-width:4; stroke-opacity:1; fill:none" points="1931.7,1423.18 1931.7,1404.28 "/>
<polyline clip-path="url(#clip650)" style="stroke:#000000; stroke-linecap:round; stroke-linejoin:round; stroke-width:4; stroke-opacity:1; fill:none" points="2352.76,1423.18 2352.76,1404.28 "/>
<path clip-path="url(#clip650)" d="M225.341 1454.1 Q221.73 1454.1 219.901 1457.66 Q218.095 1461.2 218.095 1468.33 Q218.095 1475.44 219.901 1479.01 Q221.73 1482.55 225.341 1482.55 Q228.975 1482.55 230.781 1479.01 Q232.609 1475.44 232.609 1468.33 Q232.609 1461.2 230.781 1457.66 Q228.975 1454.1 225.341 1454.1 M225.341 1450.39 Q231.151 1450.39 234.206 1455 Q237.285 1459.58 237.285 1468.33 Q237.285 1477.06 234.206 1481.67 Q231.151 1486.25 225.341 1486.25 Q219.531 1486.25 216.452 1481.67 Q213.396 1477.06 213.396 1468.33 Q213.396 1459.58 216.452 1455 Q219.531 1450.39 225.341 1450.39 Z" fill="#000000" fill-rule="nonzero" fill-opacity="1" /><path clip-path="url(#clip650)" d="M245.503 1479.7 L250.387 1479.7 L250.387 1485.58 L245.503 1485.58 L245.503 1479.7 Z" fill="#000000" fill-rule="nonzero" fill-opacity="1" /><path clip-path="url(#clip650)" d="M260.618 1451.02 L278.975 1451.02 L278.975 1454.96 L264.901 1454.96 L264.901 1463.43 Q265.919 1463.08 266.938 1462.92 Q267.956 1462.73 268.975 1462.73 Q274.762 1462.73 278.141 1465.9 Q281.521 1469.08 281.521 1474.49 Q281.521 1480.07 278.049 1483.17 Q274.577 1486.25 268.257 1486.25 Q266.081 1486.25 263.813 1485.88 Q261.567 1485.51 259.16 1484.77 L259.16 1480.07 Q261.243 1481.2 263.466 1481.76 Q265.688 1482.32 268.165 1482.32 Q272.169 1482.32 274.507 1480.21 Q276.845 1478.1 276.845 1474.49 Q276.845 1470.88 274.507 1468.77 Q272.169 1466.67 268.165 1466.67 Q266.29 1466.67 264.415 1467.08 Q262.563 1467.5 260.618 1468.38 L260.618 1451.02 Z" fill="#000000" fill-rule="nonzero" fill-opacity="1" /><path clip-path="url(#clip650)" d="M635.671 1481.64 L643.31 1481.64 L643.31 1455.28 L635 1456.95 L635 1452.69 L643.264 1451.02 L647.94 1451.02 L647.94 1481.64 L655.578 1481.64 L655.578 1485.58 L635.671 1485.58 L635.671 1481.64 Z" fill="#000000" fill-rule="nonzero" fill-opacity="1" /><path clip-path="url(#clip650)" d="M665.023 1479.7 L669.907 1479.7 L669.907 1485.58 L665.023 1485.58 L665.023 1479.7 Z" fill="#000000" fill-rule="nonzero" fill-opacity="1" /><path clip-path="url(#clip650)" d="M690.092 1454.1 Q686.481 1454.1 684.652 1457.66 Q682.847 1461.2 682.847 1468.33 Q682.847 1475.44 684.652 1479.01 Q686.481 1482.55 690.092 1482.55 Q693.726 1482.55 695.532 1479.01 Q697.361 1475.44 697.361 1468.33 Q697.361 1461.2 695.532 1457.66 Q693.726 1454.1 690.092 1454.1 M690.092 1450.39 Q695.902 1450.39 698.958 1455 Q702.036 1459.58 702.036 1468.33 Q702.036 1477.06 698.958 1481.67 Q695.902 1486.25 690.092 1486.25 Q684.282 1486.25 681.203 1481.67 Q678.148 1477.06 678.148 1468.33 Q678.148 1459.58 681.203 1455 Q684.282 1450.39 690.092 1450.39 Z" fill="#000000" fill-rule="nonzero" fill-opacity="1" /><path clip-path="url(#clip650)" d="M1057.23 1481.64 L1064.87 1481.64 L1064.87 1455.28 L1056.56 1456.95 L1056.56 1452.69 L1064.82 1451.02 L1069.5 1451.02 L1069.5 1481.64 L1077.14 1481.64 L1077.14 1485.58 L1057.23 1485.58 L1057.23 1481.64 Z" fill="#000000" fill-rule="nonzero" fill-opacity="1" /><path clip-path="url(#clip650)" d="M1086.58 1479.7 L1091.46 1479.7 L1091.46 1485.58 L1086.58 1485.58 L1086.58 1479.7 Z" fill="#000000" fill-rule="nonzero" fill-opacity="1" /><path clip-path="url(#clip650)" d="M1101.7 1451.02 L1120.05 1451.02 L1120.05 1454.96 L1105.98 1454.96 L1105.98 1463.43 Q1107 1463.08 1108.01 1462.92 Q1109.03 1462.73 1110.05 1462.73 Q1115.84 1462.73 1119.22 1465.9 Q1122.6 1469.08 1122.6 1474.49 Q1122.6 1480.07 1119.13 1483.17 Q1115.65 1486.25 1109.33 1486.25 Q1107.16 1486.25 1104.89 1485.88 Q1102.64 1485.51 1100.24 1484.77 L1100.24 1480.07 Q1102.32 1481.2 1104.54 1481.76 Q1106.76 1482.32 1109.24 1482.32 Q1113.25 1482.32 1115.58 1480.21 Q1117.92 1478.1 1117.92 1474.49 Q1117.92 1470.88 1115.58 1468.77 Q1113.25 1466.67 1109.24 1466.67 Q1107.37 1466.67 1105.49 1467.08 Q1103.64 1467.5 1101.7 1468.38 L1101.7 1451.02 Z" fill="#000000" fill-rule="nonzero" fill-opacity="1" /><path clip-path="url(#clip650)" d="M1481.88 1481.64 L1498.19 1481.64 L1498.19 1485.58 L1476.25 1485.58 L1476.25 1481.64 Q1478.91 1478.89 1483.5 1474.26 Q1488.1 1469.61 1489.28 1468.27 Q1491.53 1465.74 1492.41 1464.01 Q1493.31 1462.25 1493.31 1460.56 Q1493.31 1457.8 1491.37 1456.07 Q1489.45 1454.33 1486.34 1454.33 Q1484.14 1454.33 1481.69 1455.09 Q1479.26 1455.86 1476.48 1457.41 L1476.48 1452.69 Q1479.31 1451.55 1481.76 1450.97 Q1484.21 1450.39 1486.25 1450.39 Q1491.62 1450.39 1494.82 1453.08 Q1498.01 1455.77 1498.01 1460.26 Q1498.01 1462.39 1497.2 1464.31 Q1496.41 1466.2 1494.31 1468.8 Q1493.73 1469.47 1490.63 1472.69 Q1487.52 1475.88 1481.88 1481.64 Z" fill="#000000" fill-rule="nonzero" fill-opacity="1" /><path clip-path="url(#clip650)" d="M1508.01 1479.7 L1512.89 1479.7 L1512.89 1485.58 L1508.01 1485.58 L1508.01 1479.7 Z" fill="#000000" fill-rule="nonzero" fill-opacity="1" /><path clip-path="url(#clip650)" d="M1533.08 1454.1 Q1529.47 1454.1 1527.64 1457.66 Q1525.83 1461.2 1525.83 1468.33 Q1525.83 1475.44 1527.64 1479.01 Q1529.47 1482.55 1533.08 1482.55 Q1536.71 1482.55 1538.52 1479.01 Q1540.35 1475.44 1540.35 1468.33 Q1540.35 1461.2 1538.52 1457.66 Q1536.71 1454.1 1533.08 1454.1 M1533.08 1450.39 Q1538.89 1450.39 1541.94 1455 Q1545.02 1459.58 1545.02 1468.33 Q1545.02 1477.06 1541.94 1481.67 Q1538.89 1486.25 1533.08 1486.25 Q1527.27 1486.25 1524.19 1481.67 Q1521.13 1477.06 1521.13 1468.33 Q1521.13 1459.58 1524.19 1455 Q1527.27 1450.39 1533.08 1450.39 Z" fill="#000000" fill-rule="nonzero" fill-opacity="1" /><path clip-path="url(#clip650)" d="M1903.43 1481.64 L1919.75 1481.64 L1919.75 1485.58 L1897.81 1485.58 L1897.81 1481.64 Q1900.47 1478.89 1905.05 1474.26 Q1909.66 1469.61 1910.84 1468.27 Q1913.09 1465.74 1913.97 1464.01 Q1914.87 1462.25 1914.87 1460.56 Q1914.87 1457.8 1912.92 1456.07 Q1911 1454.33 1907.9 1454.33 Q1905.7 1454.33 1903.25 1455.09 Q1900.82 1455.86 1898.04 1457.41 L1898.04 1452.69 Q1900.86 1451.55 1903.32 1450.97 Q1905.77 1450.39 1907.81 1450.39 Q1913.18 1450.39 1916.37 1453.08 Q1919.57 1455.77 1919.57 1460.26 Q1919.57 1462.39 1918.76 1464.31 Q1917.97 1466.2 1915.86 1468.8 Q1915.28 1469.47 1912.18 1472.69 Q1909.08 1475.88 1903.43 1481.64 Z" fill="#000000" fill-rule="nonzero" fill-opacity="1" /><path clip-path="url(#clip650)" d="M1929.57 1479.7 L1934.45 1479.7 L1934.45 1485.58 L1929.57 1485.58 L1929.57 1479.7 Z" fill="#000000" fill-rule="nonzero" fill-opacity="1" /><path clip-path="url(#clip650)" d="M1944.68 1451.02 L1963.04 1451.02 L1963.04 1454.96 L1948.96 1454.96 L1948.96 1463.43 Q1949.98 1463.08 1951 1462.92 Q1952.02 1462.73 1953.04 1462.73 Q1958.83 1462.73 1962.21 1465.9 Q1965.59 1469.08 1965.59 1474.49 Q1965.59 1480.07 1962.11 1483.17 Q1958.64 1486.25 1952.32 1486.25 Q1950.15 1486.25 1947.88 1485.88 Q1945.63 1485.51 1943.22 1484.77 L1943.22 1480.07 Q1945.31 1481.2 1947.53 1481.76 Q1949.75 1482.32 1952.23 1482.32 Q1956.23 1482.32 1958.57 1480.21 Q1960.91 1478.1 1960.91 1474.49 Q1960.91 1470.88 1958.57 1468.77 Q1956.23 1466.67 1952.23 1466.67 Q1950.35 1466.67 1948.48 1467.08 Q1946.63 1467.5 1944.68 1468.38 L1944.68 1451.02 Z" fill="#000000" fill-rule="nonzero" fill-opacity="1" /><path clip-path="url(#clip650)" d="M2334.06 1466.95 Q2337.42 1467.66 2339.3 1469.93 Q2341.19 1472.2 2341.19 1475.53 Q2341.19 1480.65 2337.67 1483.45 Q2334.16 1486.25 2327.68 1486.25 Q2325.5 1486.25 2323.18 1485.81 Q2320.89 1485.39 2318.44 1484.54 L2318.44 1480.02 Q2320.38 1481.16 2322.7 1481.74 Q2325.01 1482.32 2327.54 1482.32 Q2331.93 1482.32 2334.23 1480.58 Q2336.54 1478.84 2336.54 1475.53 Q2336.54 1472.48 2334.39 1470.77 Q2332.26 1469.03 2328.44 1469.03 L2324.41 1469.03 L2324.41 1465.19 L2328.62 1465.19 Q2332.07 1465.19 2333.9 1463.82 Q2335.73 1462.43 2335.73 1459.84 Q2335.73 1457.18 2333.83 1455.77 Q2331.96 1454.33 2328.44 1454.33 Q2326.52 1454.33 2324.32 1454.75 Q2322.12 1455.16 2319.48 1456.04 L2319.48 1451.88 Q2322.14 1451.14 2324.46 1450.77 Q2326.8 1450.39 2328.86 1450.39 Q2334.18 1450.39 2337.28 1452.83 Q2340.38 1455.23 2340.38 1459.35 Q2340.38 1462.22 2338.74 1464.21 Q2337.1 1466.18 2334.06 1466.95 Z" fill="#000000" fill-rule="nonzero" fill-opacity="1" /><path clip-path="url(#clip650)" d="M2350.06 1479.7 L2354.94 1479.7 L2354.94 1485.58 L2350.06 1485.58 L2350.06 1479.7 Z" fill="#000000" fill-rule="nonzero" fill-opacity="1" /><path clip-path="url(#clip650)" d="M2375.13 1454.1 Q2371.52 1454.1 2369.69 1457.66 Q2367.88 1461.2 2367.88 1468.33 Q2367.88 1475.44 2369.69 1479.01 Q2371.52 1482.55 2375.13 1482.55 Q2378.76 1482.55 2380.57 1479.01 Q2382.4 1475.44 2382.4 1468.33 Q2382.4 1461.2 2380.57 1457.66 Q2378.76 1454.1 2375.13 1454.1 M2375.13 1450.39 Q2380.94 1450.39 2383.99 1455 Q2387.07 1459.58 2387.07 1468.33 Q2387.07 1477.06 2383.99 1481.67 Q2380.94 1486.25 2375.13 1486.25 Q2369.32 1486.25 2366.24 1481.67 Q2363.18 1477.06 2363.18 1468.33 Q2363.18 1459.58 2366.24 1455 Q2369.32 1450.39 2375.13 1450.39 Z" fill="#000000" fill-rule="nonzero" fill-opacity="1" /><path clip-path="url(#clip650)" d="M1153.1 1561.83 L1153.1 1559.8 L1154.68 1559.8 Q1158.25 1559.8 1159.06 1559.22 Q1159.9 1558.61 1159.9 1556.68 L1159.9 1521.93 Q1159.9 1520.03 1159.06 1519.45 Q1158.22 1518.83 1154.68 1518.83 L1153.1 1518.83 L1153.1 1516.77 Q1155.42 1516.97 1163.12 1516.97 Q1171.81 1516.97 1174.2 1516.77 L1174.2 1518.83 L1172.01 1518.83 Q1168.98 1518.83 1167.59 1519.22 Q1166.21 1519.61 1165.98 1520.15 Q1165.76 1520.67 1165.76 1521.99 L1165.76 1557.16 Q1165.76 1558.87 1166.24 1559.35 Q1166.76 1559.8 1168.98 1559.8 L1174.39 1559.8 Q1177.74 1559.8 1180.15 1558.8 Q1182.57 1557.8 1183.86 1556.55 Q1185.15 1555.29 1185.98 1552.94 Q1186.85 1550.56 1187.11 1549.04 Q1187.4 1547.53 1187.66 1544.82 L1189.3 1544.82 L1187.46 1561.83 L1153.1 1561.83 Z" fill="#000000" fill-rule="nonzero" fill-opacity="1" /><path clip-path="url(#clip650)" d="M1198.28 1558.29 Q1193.93 1553.97 1193.93 1547.72 Q1193.93 1541.44 1198.18 1536.87 Q1202.46 1532.26 1208.58 1532.26 Q1214.57 1532.26 1218.86 1536.84 Q1223.17 1541.38 1223.17 1547.72 Q1223.17 1553.94 1218.83 1558.25 Q1214.51 1562.57 1208.52 1562.57 Q1202.66 1562.57 1198.28 1558.29 M1199.41 1547.18 Q1199.41 1553.58 1201.08 1556.48 Q1203.66 1560.89 1208.58 1560.89 Q1211.03 1560.89 1213.06 1559.57 Q1215.12 1558.25 1216.25 1556.03 Q1217.7 1553.13 1217.7 1547.18 Q1217.7 1540.83 1215.96 1538.03 Q1213.38 1533.75 1208.52 1533.75 Q1206.39 1533.75 1204.3 1534.87 Q1202.24 1535.97 1200.98 1538.16 Q1199.41 1541.06 1199.41 1547.18 Z" fill="#000000" fill-rule="nonzero" fill-opacity="1" /><path clip-path="url(#clip650)" d="M1226.59 1555.55 Q1226.59 1549.94 1233.2 1546.98 Q1237.16 1545.08 1245.34 1544.6 L1245.34 1542.18 Q1245.34 1538.09 1243.18 1535.94 Q1241.05 1533.75 1238.35 1533.75 Q1233.52 1533.75 1231.2 1536.77 Q1233.16 1536.84 1233.87 1537.84 Q1234.58 1538.8 1234.58 1539.8 Q1234.58 1541.12 1233.74 1541.99 Q1232.94 1542.83 1231.55 1542.83 Q1230.23 1542.83 1229.36 1542.02 Q1228.49 1541.18 1228.49 1539.74 Q1228.49 1536.51 1231.39 1534.39 Q1234.32 1532.26 1238.48 1532.26 Q1243.89 1532.26 1247.5 1535.9 Q1248.62 1537.03 1249.17 1538.48 Q1249.75 1539.93 1249.81 1540.89 Q1249.88 1541.83 1249.88 1543.7 L1249.88 1556.87 Q1249.88 1557.26 1250.01 1557.9 Q1250.14 1558.54 1250.72 1559.38 Q1251.33 1560.19 1252.33 1560.19 Q1254.71 1560.19 1254.68 1555.97 L1254.68 1552.26 L1256.35 1552.26 L1256.35 1555.97 Q1256.35 1559.48 1254.48 1560.86 Q1252.65 1562.22 1250.94 1562.22 Q1248.75 1562.22 1247.37 1560.6 Q1245.98 1558.99 1245.79 1556.8 Q1244.79 1559.32 1242.5 1560.96 Q1240.25 1562.57 1237.16 1562.57 Q1234.77 1562.57 1232.52 1561.96 Q1230.3 1561.38 1228.43 1559.74 Q1226.59 1558.06 1226.59 1555.55 M1231.68 1555.48 Q1231.68 1557.93 1233.42 1559.51 Q1235.16 1561.09 1237.61 1561.09 Q1240.38 1561.09 1242.86 1558.96 Q1245.34 1556.8 1245.34 1552.59 L1245.34 1545.98 Q1238.03 1546.24 1234.84 1549.17 Q1231.68 1552.07 1231.68 1555.48 Z" fill="#000000" fill-rule="nonzero" fill-opacity="1" /><path clip-path="url(#clip650)" d="M1259.26 1547.66 Q1259.26 1541.38 1263.64 1537.03 Q1268.02 1532.68 1273.94 1532.68 Q1278.97 1532.68 1282.25 1536.77 L1282.25 1522.51 Q1282.25 1520.06 1281.38 1519.45 Q1280.55 1518.83 1277.13 1518.83 L1277.13 1516.77 L1286.63 1516.06 L1286.63 1556.1 Q1286.63 1558.54 1287.47 1559.19 Q1288.34 1559.8 1291.75 1559.8 L1291.75 1561.83 L1282.06 1562.57 L1282.06 1558.19 Q1278.65 1562.54 1273.24 1562.57 Q1267.57 1562.57 1263.41 1558.22 Q1259.26 1553.87 1259.26 1547.66 M1264.73 1547.72 Q1264.73 1553.84 1266.63 1556.87 Q1269.27 1561.09 1273.56 1561.09 Q1278.45 1561.09 1281.35 1556.48 Q1282.09 1555.36 1282.06 1554.03 L1282.06 1540.51 Q1282.06 1539.19 1281.35 1538.09 Q1278.65 1534.13 1274.23 1534.13 Q1269.63 1534.13 1266.76 1538.35 Q1264.73 1541.51 1264.73 1547.72 Z" fill="#000000" fill-rule="nonzero" fill-opacity="1" /><path clip-path="url(#clip650)" d="M1312.93 1560.96 L1312.93 1552.26 Q1312.93 1551.52 1312.96 1551.27 Q1312.99 1551.01 1313.18 1550.81 Q1313.38 1550.62 1313.76 1550.62 Q1314.21 1550.62 1314.38 1550.81 Q1314.57 1551.01 1314.7 1551.75 Q1315.7 1556.29 1317.82 1558.7 Q1319.98 1561.09 1323.88 1561.09 Q1327.58 1561.09 1329.45 1559.45 Q1331.32 1557.8 1331.32 1555.1 Q1331.32 1550.27 1324.46 1549.04 Q1320.49 1548.24 1318.85 1547.72 Q1317.21 1547.18 1315.76 1545.98 Q1312.93 1543.66 1312.93 1540.38 Q1312.93 1537.09 1315.41 1534.68 Q1317.92 1532.26 1323.46 1532.26 Q1327.16 1532.26 1329.67 1534.13 Q1330.41 1533.55 1330.8 1533.07 Q1331.67 1532.26 1332.12 1532.26 Q1332.64 1532.26 1332.73 1532.62 Q1332.83 1532.94 1332.83 1533.87 L1332.83 1540.51 Q1332.83 1541.25 1332.8 1541.51 Q1332.76 1541.76 1332.57 1541.96 Q1332.38 1542.12 1331.96 1542.12 Q1331.22 1542.12 1331.19 1541.51 Q1330.67 1533.52 1323.46 1533.52 Q1319.56 1533.52 1317.82 1535.03 Q1316.08 1536.51 1316.08 1538.54 Q1316.08 1539.67 1316.6 1540.54 Q1317.15 1541.38 1317.82 1541.89 Q1318.53 1542.38 1319.82 1542.86 Q1321.11 1543.31 1321.88 1543.47 Q1322.68 1543.63 1324.2 1543.95 Q1329.48 1544.95 1331.7 1547.11 Q1334.47 1549.88 1334.47 1553.39 Q1334.47 1557.29 1331.83 1559.93 Q1329.19 1562.57 1323.88 1562.57 Q1319.59 1562.57 1316.6 1559.7 Q1316.21 1560.09 1315.92 1560.44 Q1315.63 1560.77 1315.5 1560.89 Q1315.41 1561.02 1315.37 1561.12 Q1315.34 1561.18 1315.28 1561.25 Q1313.96 1562.57 1313.63 1562.57 Q1313.12 1562.57 1313.02 1562.22 Q1312.93 1561.89 1312.93 1560.96 Z" fill="#000000" fill-rule="nonzero" fill-opacity="1" /><path clip-path="url(#clip650)" d="M1342.56 1558.22 Q1338.37 1553.84 1338.37 1547.59 Q1338.37 1541.31 1342.49 1536.8 Q1346.62 1532.26 1352.67 1532.26 Q1356.7 1532.26 1359.72 1534.2 Q1362.75 1536.1 1362.75 1539.35 Q1362.75 1540.8 1361.88 1541.64 Q1361.05 1542.44 1359.72 1542.44 Q1358.34 1542.44 1357.5 1541.6 Q1356.7 1540.73 1356.7 1539.41 Q1356.7 1538.83 1356.89 1538.25 Q1357.08 1537.67 1357.79 1537.06 Q1358.53 1536.45 1359.79 1536.35 Q1357.44 1533.94 1352.86 1533.94 Q1352.8 1533.94 1352.74 1533.94 Q1349.39 1533.94 1346.62 1537.09 Q1343.85 1540.25 1343.85 1547.46 Q1343.85 1551.23 1344.75 1554 Q1345.68 1556.74 1347.2 1558.16 Q1348.71 1559.57 1350.19 1560.25 Q1351.67 1560.89 1353.12 1560.89 Q1359.6 1560.89 1361.79 1553.97 Q1361.98 1553.33 1362.62 1553.33 Q1363.49 1553.33 1363.49 1553.97 Q1363.49 1554.29 1363.24 1555.13 Q1362.98 1555.97 1362.17 1557.29 Q1361.37 1558.61 1360.21 1559.77 Q1359.08 1560.89 1357.05 1561.73 Q1355.05 1562.57 1352.54 1562.57 Q1346.75 1562.57 1342.56 1558.22 Z" fill="#000000" fill-rule="nonzero" fill-opacity="1" /><path clip-path="url(#clip650)" d="M1366.84 1555.55 Q1366.84 1549.94 1373.44 1546.98 Q1377.4 1545.08 1385.58 1544.6 L1385.58 1542.18 Q1385.58 1538.09 1383.43 1535.94 Q1381.3 1533.75 1378.6 1533.75 Q1373.76 1533.75 1371.45 1536.77 Q1373.41 1536.84 1374.12 1537.84 Q1374.83 1538.8 1374.83 1539.8 Q1374.83 1541.12 1373.99 1541.99 Q1373.18 1542.83 1371.8 1542.83 Q1370.48 1542.83 1369.61 1542.02 Q1368.74 1541.18 1368.74 1539.74 Q1368.74 1536.51 1371.64 1534.39 Q1374.57 1532.26 1378.72 1532.26 Q1384.13 1532.26 1387.74 1535.9 Q1388.87 1537.03 1389.42 1538.48 Q1390 1539.93 1390.06 1540.89 Q1390.12 1541.83 1390.12 1543.7 L1390.12 1556.87 Q1390.12 1557.26 1390.25 1557.9 Q1390.38 1558.54 1390.96 1559.38 Q1391.57 1560.19 1392.57 1560.19 Q1394.96 1560.19 1394.92 1555.97 L1394.92 1552.26 L1396.6 1552.26 L1396.6 1555.97 Q1396.6 1559.48 1394.73 1560.86 Q1392.89 1562.22 1391.19 1562.22 Q1389 1562.22 1387.61 1560.6 Q1386.23 1558.99 1386.03 1556.8 Q1385.04 1559.32 1382.75 1560.96 Q1380.5 1562.57 1377.4 1562.57 Q1375.02 1562.57 1372.77 1561.96 Q1370.54 1561.38 1368.68 1559.74 Q1366.84 1558.06 1366.84 1555.55 M1371.93 1555.48 Q1371.93 1557.93 1373.67 1559.51 Q1375.41 1561.09 1377.85 1561.09 Q1380.62 1561.09 1383.1 1558.96 Q1385.58 1556.8 1385.58 1552.59 L1385.58 1545.98 Q1378.27 1546.24 1375.08 1549.17 Q1371.93 1552.07 1371.93 1555.48 Z" fill="#000000" fill-rule="nonzero" fill-opacity="1" /><path clip-path="url(#clip650)" d="M1399.24 1561.83 L1399.24 1559.8 Q1402.75 1559.8 1403.56 1559.38 Q1404.36 1558.93 1404.36 1556.8 L1404.36 1522.51 Q1404.36 1520.06 1403.49 1519.45 Q1402.65 1518.83 1399.24 1518.83 L1399.24 1516.77 L1408.71 1516.06 L1408.71 1556.8 Q1408.71 1558.93 1409.55 1559.38 Q1410.38 1559.8 1413.86 1559.8 L1413.86 1561.83 Q1413.06 1561.83 1411.38 1561.76 Q1409.71 1561.7 1408.48 1561.67 Q1407.26 1561.64 1406.55 1561.64 Q1405.78 1561.64 1399.24 1561.83 Z" fill="#000000" fill-rule="nonzero" fill-opacity="1" /><path clip-path="url(#clip650)" d="M1418.12 1547.3 Q1418.12 1541.09 1422.11 1536.68 Q1426.11 1532.26 1431.84 1532.26 Q1437.64 1532.26 1440.63 1536.03 Q1443.66 1539.8 1443.66 1545.21 Q1443.66 1546.21 1443.4 1546.4 Q1443.14 1546.6 1442.02 1546.6 L1423.59 1546.6 Q1423.59 1553.33 1425.59 1556.48 Q1428.36 1560.89 1433.03 1560.89 Q1433.67 1560.89 1434.45 1560.77 Q1435.22 1560.64 1436.8 1560.09 Q1438.38 1559.51 1439.76 1558 Q1441.15 1556.48 1441.95 1554.1 Q1442.14 1553.17 1442.79 1553.2 Q1443.66 1553.2 1443.66 1553.97 Q1443.66 1554.55 1443.01 1555.87 Q1442.4 1557.16 1441.21 1558.7 Q1440.02 1560.25 1437.7 1561.41 Q1435.41 1562.57 1432.64 1562.57 Q1426.85 1562.57 1422.47 1558.19 Q1418.12 1553.78 1418.12 1547.3 M1423.66 1545.21 L1439.31 1545.21 Q1439.31 1543.83 1439.05 1542.28 Q1438.83 1540.73 1438.12 1538.61 Q1437.44 1536.45 1435.83 1535.1 Q1434.22 1533.75 1431.84 1533.75 Q1430.78 1533.75 1429.62 1534.2 Q1428.49 1534.65 1427.1 1535.74 Q1425.72 1536.84 1424.75 1539.32 Q1423.79 1541.8 1423.66 1545.21 Z" fill="#000000" fill-rule="nonzero" fill-opacity="1" /><polyline clip-path="url(#clip652)" style="stroke:#000000; stroke-linecap:round; stroke-linejoin:round; stroke-width:2; stroke-opacity:0.1; fill:none" points="247.459,1423.18 2352.76,1423.18 "/>
<polyline clip-path="url(#clip652)" style="stroke:#000000; stroke-linecap:round; stroke-linejoin:round; stroke-width:2; stroke-opacity:0.1; fill:none" points="247.459,1110.47 2352.76,1110.47 "/>
<polyline clip-path="url(#clip652)" style="stroke:#000000; stroke-linecap:round; stroke-linejoin:round; stroke-width:2; stroke-opacity:0.1; fill:none" points="247.459,797.755 2352.76,797.755 "/>
<polyline clip-path="url(#clip652)" style="stroke:#000000; stroke-linecap:round; stroke-linejoin:round; stroke-width:2; stroke-opacity:0.1; fill:none" points="247.459,485.042 2352.76,485.042 "/>
<polyline clip-path="url(#clip652)" style="stroke:#000000; stroke-linecap:round; stroke-linejoin:round; stroke-width:2; stroke-opacity:0.1; fill:none" points="247.459,172.329 2352.76,172.329 "/>
<polyline clip-path="url(#clip650)" style="stroke:#000000; stroke-linecap:round; stroke-linejoin:round; stroke-width:4; stroke-opacity:1; fill:none" points="247.459,1423.18 247.459,47.2441 "/>
<polyline clip-path="url(#clip650)" style="stroke:#000000; stroke-linecap:round; stroke-linejoin:round; stroke-width:4; stroke-opacity:1; fill:none" points="247.459,1423.18 266.356,1423.18 "/>
<polyline clip-path="url(#clip650)" style="stroke:#000000; stroke-linecap:round; stroke-linejoin:round; stroke-width:4; stroke-opacity:1; fill:none" points="247.459,1110.47 266.356,1110.47 "/>
<polyline clip-path="url(#clip650)" style="stroke:#000000; stroke-linecap:round; stroke-linejoin:round; stroke-width:4; stroke-opacity:1; fill:none" points="247.459,797.755 266.356,797.755 "/>
<polyline clip-path="url(#clip650)" style="stroke:#000000; stroke-linecap:round; stroke-linejoin:round; stroke-width:4; stroke-opacity:1; fill:none" points="247.459,485.042 266.356,485.042 "/>
<polyline clip-path="url(#clip650)" style="stroke:#000000; stroke-linecap:round; stroke-linejoin:round; stroke-width:4; stroke-opacity:1; fill:none" points="247.459,172.329 266.356,172.329 "/>
<path clip-path="url(#clip650)" d="M154.283 1408.98 Q150.672 1408.98 148.843 1412.54 Q147.038 1416.08 147.038 1423.21 Q147.038 1430.32 148.843 1433.89 Q150.672 1437.43 154.283 1437.43 Q157.917 1437.43 159.723 1433.89 Q161.552 1430.32 161.552 1423.21 Q161.552 1416.08 159.723 1412.54 Q157.917 1408.98 154.283 1408.98 M154.283 1405.27 Q160.093 1405.27 163.149 1409.88 Q166.227 1414.46 166.227 1423.21 Q166.227 1431.94 163.149 1436.55 Q160.093 1441.13 154.283 1441.13 Q148.473 1441.13 145.394 1436.55 Q142.339 1431.94 142.339 1423.21 Q142.339 1414.46 145.394 1409.88 Q148.473 1405.27 154.283 1405.27 Z" fill="#000000" fill-rule="nonzero" fill-opacity="1" /><path clip-path="url(#clip650)" d="M174.445 1434.58 L179.329 1434.58 L179.329 1440.46 L174.445 1440.46 L174.445 1434.58 Z" fill="#000000" fill-rule="nonzero" fill-opacity="1" /><path clip-path="url(#clip650)" d="M199.514 1408.98 Q195.903 1408.98 194.075 1412.54 Q192.269 1416.08 192.269 1423.21 Q192.269 1430.32 194.075 1433.89 Q195.903 1437.43 199.514 1437.43 Q203.149 1437.43 204.954 1433.89 Q206.783 1430.32 206.783 1423.21 Q206.783 1416.08 204.954 1412.54 Q203.149 1408.98 199.514 1408.98 M199.514 1405.27 Q205.324 1405.27 208.38 1409.88 Q211.459 1414.46 211.459 1423.21 Q211.459 1431.94 208.38 1436.55 Q205.324 1441.13 199.514 1441.13 Q193.704 1441.13 190.625 1436.55 Q187.57 1431.94 187.57 1423.21 Q187.57 1414.46 190.625 1409.88 Q193.704 1405.27 199.514 1405.27 Z" fill="#000000" fill-rule="nonzero" fill-opacity="1" /><path clip-path="url(#clip650)" d="M149.306 1123.81 L165.626 1123.81 L165.626 1127.75 L143.681 1127.75 L143.681 1123.81 Q146.343 1121.06 150.927 1116.43 Q155.533 1111.78 156.714 1110.43 Q158.959 1107.91 159.839 1106.17 Q160.741 1104.41 160.741 1102.72 Q160.741 1099.97 158.797 1098.23 Q156.876 1096.5 153.774 1096.5 Q151.575 1096.5 149.121 1097.26 Q146.691 1098.03 143.913 1099.58 L143.913 1094.85 Q146.737 1093.72 149.191 1093.14 Q151.644 1092.56 153.681 1092.56 Q159.052 1092.56 162.246 1095.25 Q165.44 1097.93 165.44 1102.42 Q165.44 1104.55 164.63 1106.47 Q163.843 1108.37 161.737 1110.96 Q161.158 1111.64 158.056 1114.85 Q154.954 1118.05 149.306 1123.81 Z" fill="#000000" fill-rule="nonzero" fill-opacity="1" /><path clip-path="url(#clip650)" d="M175.44 1121.87 L180.325 1121.87 L180.325 1127.75 L175.44 1127.75 L175.44 1121.87 Z" fill="#000000" fill-rule="nonzero" fill-opacity="1" /><path clip-path="url(#clip650)" d="M190.556 1093.19 L208.912 1093.19 L208.912 1097.12 L194.838 1097.12 L194.838 1105.59 Q195.857 1105.25 196.875 1105.09 Q197.894 1104.9 198.912 1104.9 Q204.699 1104.9 208.079 1108.07 Q211.459 1111.24 211.459 1116.66 Q211.459 1122.24 207.987 1125.34 Q204.514 1128.42 198.195 1128.42 Q196.019 1128.42 193.75 1128.05 Q191.505 1127.68 189.098 1126.94 L189.098 1122.24 Q191.181 1123.37 193.403 1123.93 Q195.625 1124.48 198.102 1124.48 Q202.107 1124.48 204.445 1122.38 Q206.783 1120.27 206.783 1116.66 Q206.783 1113.05 204.445 1110.94 Q202.107 1108.84 198.102 1108.84 Q196.227 1108.84 194.352 1109.25 Q192.5 1109.67 190.556 1110.55 L190.556 1093.19 Z" fill="#000000" fill-rule="nonzero" fill-opacity="1" /><path clip-path="url(#clip650)" d="M144.329 780.475 L162.686 780.475 L162.686 784.41 L148.612 784.41 L148.612 792.882 Q149.63 792.535 150.649 792.373 Q151.667 792.187 152.686 792.187 Q158.473 792.187 161.852 795.359 Q165.232 798.53 165.232 803.947 Q165.232 809.525 161.76 812.627 Q158.288 815.706 151.968 815.706 Q149.792 815.706 147.524 815.335 Q145.279 814.965 142.871 814.224 L142.871 809.525 Q144.954 810.66 147.177 811.215 Q149.399 811.771 151.876 811.771 Q155.88 811.771 158.218 809.664 Q160.556 807.558 160.556 803.947 Q160.556 800.336 158.218 798.229 Q155.88 796.123 151.876 796.123 Q150.001 796.123 148.126 796.539 Q146.274 796.956 144.329 797.836 L144.329 780.475 Z" fill="#000000" fill-rule="nonzero" fill-opacity="1" /><path clip-path="url(#clip650)" d="M174.445 809.155 L179.329 809.155 L179.329 815.035 L174.445 815.035 L174.445 809.155 Z" fill="#000000" fill-rule="nonzero" fill-opacity="1" /><path clip-path="url(#clip650)" d="M199.514 783.553 Q195.903 783.553 194.075 787.118 Q192.269 790.66 192.269 797.789 Q192.269 804.896 194.075 808.46 Q195.903 812.002 199.514 812.002 Q203.149 812.002 204.954 808.46 Q206.783 804.896 206.783 797.789 Q206.783 790.66 204.954 787.118 Q203.149 783.553 199.514 783.553 M199.514 779.85 Q205.324 779.85 208.38 784.456 Q211.459 789.039 211.459 797.789 Q211.459 806.516 208.38 811.122 Q205.324 815.706 199.514 815.706 Q193.704 815.706 190.625 811.122 Q187.57 806.516 187.57 797.789 Q187.57 789.039 190.625 784.456 Q193.704 779.85 199.514 779.85 Z" fill="#000000" fill-rule="nonzero" fill-opacity="1" /><path clip-path="url(#clip650)" d="M144.098 467.762 L166.32 467.762 L166.32 469.753 L153.774 502.322 L148.89 502.322 L160.695 471.697 L144.098 471.697 L144.098 467.762 Z" fill="#000000" fill-rule="nonzero" fill-opacity="1" /><path clip-path="url(#clip650)" d="M175.44 496.442 L180.325 496.442 L180.325 502.322 L175.44 502.322 L175.44 496.442 Z" fill="#000000" fill-rule="nonzero" fill-opacity="1" /><path clip-path="url(#clip650)" d="M190.556 467.762 L208.912 467.762 L208.912 471.697 L194.838 471.697 L194.838 480.169 Q195.857 479.822 196.875 479.66 Q197.894 479.475 198.912 479.475 Q204.699 479.475 208.079 482.646 Q211.459 485.817 211.459 491.234 Q211.459 496.813 207.987 499.914 Q204.514 502.993 198.195 502.993 Q196.019 502.993 193.75 502.623 Q191.505 502.252 189.098 501.512 L189.098 496.813 Q191.181 497.947 193.403 498.502 Q195.625 499.058 198.102 499.058 Q202.107 499.058 204.445 496.951 Q206.783 494.845 206.783 491.234 Q206.783 487.623 204.445 485.516 Q202.107 483.41 198.102 483.41 Q196.227 483.41 194.352 483.827 Q192.5 484.243 190.556 485.123 L190.556 467.762 Z" fill="#000000" fill-rule="nonzero" fill-opacity="1" /><path clip-path="url(#clip650)" d="M114.931 185.674 L122.57 185.674 L122.57 159.308 L114.26 160.975 L114.26 156.716 L122.524 155.049 L127.2 155.049 L127.2 185.674 L134.839 185.674 L134.839 189.609 L114.931 189.609 L114.931 185.674 Z" fill="#000000" fill-rule="nonzero" fill-opacity="1" /><path clip-path="url(#clip650)" d="M154.283 158.128 Q150.672 158.128 148.843 161.693 Q147.038 165.234 147.038 172.364 Q147.038 179.47 148.843 183.035 Q150.672 186.577 154.283 186.577 Q157.917 186.577 159.723 183.035 Q161.552 179.47 161.552 172.364 Q161.552 165.234 159.723 161.693 Q157.917 158.128 154.283 158.128 M154.283 154.424 Q160.093 154.424 163.149 159.031 Q166.227 163.614 166.227 172.364 Q166.227 181.091 163.149 185.697 Q160.093 190.28 154.283 190.28 Q148.473 190.28 145.394 185.697 Q142.339 181.091 142.339 172.364 Q142.339 163.614 145.394 159.031 Q148.473 154.424 154.283 154.424 Z" fill="#000000" fill-rule="nonzero" fill-opacity="1" /><path clip-path="url(#clip650)" d="M174.445 183.73 L179.329 183.73 L179.329 189.609 L174.445 189.609 L174.445 183.73 Z" fill="#000000" fill-rule="nonzero" fill-opacity="1" /><path clip-path="url(#clip650)" d="M199.514 158.128 Q195.903 158.128 194.075 161.693 Q192.269 165.234 192.269 172.364 Q192.269 179.47 194.075 183.035 Q195.903 186.577 199.514 186.577 Q203.149 186.577 204.954 183.035 Q206.783 179.47 206.783 172.364 Q206.783 165.234 204.954 161.693 Q203.149 158.128 199.514 158.128 M199.514 154.424 Q205.324 154.424 208.38 159.031 Q211.459 163.614 211.459 172.364 Q211.459 181.091 208.38 185.697 Q205.324 190.28 199.514 190.28 Q193.704 190.28 190.625 185.697 Q187.57 181.091 187.57 172.364 Q187.57 163.614 190.625 159.031 Q193.704 154.424 199.514 154.424 Z" fill="#000000" fill-rule="nonzero" fill-opacity="1" /><path clip-path="url(#clip650)" d="M72.045 873.624 L70.0161 873.624 L70.0161 872.046 Q70.0161 868.471 69.4364 867.666 Q68.8244 866.829 66.8921 866.829 L32.142 866.829 Q30.2418 866.829 29.6621 867.666 Q29.0502 868.503 29.0502 872.046 L29.0502 873.624 L26.989 873.624 Q27.1823 871.305 27.1823 863.608 Q27.1823 854.912 26.989 852.529 L29.0502 852.529 L29.0502 854.719 Q29.0502 857.746 29.4367 859.131 Q29.8231 860.516 30.3706 860.742 Q30.8859 860.967 32.2064 860.967 L67.3752 860.967 Q69.0821 860.967 69.5652 860.484 Q70.0161 859.969 70.0161 857.746 L70.0161 852.336 Q70.0161 848.986 69.0177 846.571 Q68.0193 844.156 66.7633 842.867 Q65.5072 841.579 63.1562 840.742 Q60.773 839.872 59.2593 839.615 Q57.7456 839.325 55.0403 839.067 L55.0403 837.425 L72.045 839.26 L72.045 873.624 Z" fill="#000000" fill-rule="nonzero" fill-opacity="1" /><path clip-path="url(#clip650)" d="M72.045 834.114 L70.0161 834.114 Q70.0161 830.603 69.5974 829.798 Q69.1465 828.993 67.0209 828.993 L49.2755 828.993 Q46.8278 828.993 46.2481 829.83 Q45.6684 830.636 45.6684 833.856 L43.6073 833.856 L42.8987 824.645 L67.0853 824.645 Q69.0499 824.645 69.533 823.937 Q70.0161 823.228 70.0161 820.008 L72.045 820.008 Q71.8518 826.739 71.8518 826.868 Q71.8518 827.769 72.045 834.114 M31.4012 831.344 Q30.0808 831.344 29.018 830.346 Q27.923 829.315 27.923 827.866 Q27.923 826.417 28.9214 825.386 Q29.8876 824.356 31.4334 824.356 Q32.9471 824.356 33.9455 825.386 Q34.9117 826.417 34.9117 827.866 Q34.9117 829.38 33.8489 830.378 Q32.7861 831.344 31.4012 831.344 Z" fill="#000000" fill-rule="nonzero" fill-opacity="1" /><path clip-path="url(#clip650)" d="M72.045 815.499 L70.0161 815.499 Q70.0161 811.989 69.5974 811.184 Q69.1465 810.379 67.0209 810.379 L49.3399 810.379 Q46.8923 810.379 46.2803 811.248 Q45.6684 812.086 45.6684 815.499 L43.6073 815.499 L42.8987 806.224 L49.823 806.224 Q42.8987 803.132 42.8987 796.466 Q42.8987 791.506 45.3464 789.542 Q46.9889 788.092 48.8246 787.802 Q50.6603 787.48 55.4268 787.48 L68.0193 787.48 Q69.4042 787.416 69.7262 786.353 Q70.0161 785.29 70.0161 782.327 L72.045 782.327 Q71.8518 789.058 71.8518 789.735 Q71.8518 790.25 72.045 797.174 L70.0161 797.174 Q70.0161 793.664 69.5974 792.859 Q69.1465 792.021 67.0209 792.021 L51.6587 792.021 Q48.3093 792.021 46.3448 793.052 Q44.348 794.083 44.348 796.917 Q44.348 800.33 47.2143 803.068 Q50.0806 805.805 54.9115 805.805 L67.0209 805.805 Q69.1465 805.805 69.5974 805 Q70.0161 804.163 70.0161 800.685 L72.045 800.685 Q71.8518 807.416 71.8518 808.06 Q71.8518 808.575 72.045 815.499 Z" fill="#000000" fill-rule="nonzero" fill-opacity="1" /><path clip-path="url(#clip650)" d="M57.5202 777.415 Q51.3045 777.415 46.8923 773.421 Q42.4801 769.428 42.4801 763.695 Q42.4801 757.898 46.2481 754.903 Q50.0162 751.875 55.4268 751.875 Q56.4252 751.875 56.6184 752.133 Q56.8117 752.391 56.8117 753.518 L56.8117 771.94 Q63.5427 771.94 66.6989 769.943 Q71.1111 767.173 71.1111 762.503 Q71.1111 761.859 70.9822 761.086 Q70.8534 760.313 70.3059 758.735 Q69.7262 757.157 68.2125 755.772 Q66.6989 754.388 64.3156 753.582 Q63.3817 753.389 63.4139 752.745 Q63.4139 751.875 64.1868 751.875 Q64.7665 751.875 66.0869 752.52 Q67.3752 753.132 68.9211 754.323 Q70.4669 755.515 71.6264 757.834 Q72.7858 760.12 72.7858 762.89 Q72.7858 768.687 68.4058 773.067 Q63.9936 777.415 57.5202 777.415 M55.4268 771.875 L55.4268 756.223 Q54.042 756.223 52.4961 756.481 Q50.9502 756.706 48.8246 757.415 Q46.6668 758.091 45.3142 759.702 Q43.9615 761.312 43.9615 763.695 Q43.9615 764.758 44.4124 765.917 Q44.8633 767.044 45.9583 768.429 Q47.0533 769.814 49.5331 770.78 Q52.013 771.747 55.4268 771.875 Z" fill="#000000" fill-rule="nonzero" fill-opacity="1" /><path clip-path="url(#clip650)" d="M71.1755 730.988 L62.4799 730.988 Q61.7392 730.988 61.4815 730.956 Q61.2239 730.924 61.0306 730.73 Q60.8374 730.537 60.8374 730.151 Q60.8374 729.7 61.0306 729.539 Q61.2239 729.346 61.9646 729.217 Q66.5056 728.218 68.9211 726.093 Q71.3043 723.935 71.3043 720.038 Q71.3043 716.334 69.6618 714.467 Q68.0193 712.599 65.314 712.599 Q60.4831 712.599 59.2593 719.458 Q58.4542 723.42 57.9389 725.062 Q57.3914 726.705 56.1997 728.154 Q53.8809 730.988 50.5959 730.988 Q47.3109 730.988 44.8955 728.508 Q42.4801 725.996 42.4801 720.457 Q42.4801 716.753 44.348 714.241 Q43.7683 713.5 43.2852 713.114 Q42.4801 712.244 42.4801 711.793 Q42.4801 711.278 42.8343 711.182 Q43.1564 711.085 44.0903 711.085 L50.7248 711.085 Q51.4655 711.085 51.7231 711.117 Q51.9808 711.149 52.174 711.343 Q52.335 711.536 52.335 711.954 Q52.335 712.695 51.7231 712.727 Q43.7361 713.243 43.7361 720.457 Q43.7361 724.354 45.2498 726.093 Q46.7312 727.832 48.7602 727.832 Q49.8874 727.832 50.757 727.317 Q51.5943 726.769 52.1096 726.093 Q52.5927 725.384 53.0758 724.096 Q53.5267 722.808 53.6877 722.035 Q53.8487 721.23 54.1708 719.716 Q55.1692 714.434 57.327 712.212 Q60.0967 709.442 63.6071 709.442 Q67.504 709.442 70.1449 712.083 Q72.7858 714.724 72.7858 720.038 Q72.7858 724.322 69.9194 727.317 Q70.3059 727.703 70.6602 727.993 Q70.9822 728.283 71.1111 728.412 Q71.2399 728.508 71.3365 728.54 Q71.4009 728.573 71.4653 728.637 Q72.7858 729.958 72.7858 730.28 Q72.7858 730.795 72.4315 730.892 Q72.1094 730.988 71.1755 730.988 Z" fill="#000000" fill-rule="nonzero" fill-opacity="1" /><path clip-path="url(#clip650)" d="M68.438 701.355 Q64.058 705.542 57.81 705.542 Q51.5299 705.542 47.0211 701.42 Q42.4801 697.297 42.4801 691.243 Q42.4801 687.217 44.4124 684.189 Q46.3125 681.162 49.5653 681.162 Q51.0146 681.162 51.852 682.032 Q52.6571 682.869 52.6571 684.189 Q52.6571 685.574 51.8198 686.412 Q50.9502 687.217 49.6298 687.217 Q49.05 687.217 48.4703 687.024 Q47.8906 686.83 47.2787 686.122 Q46.6668 685.381 46.5702 684.125 Q44.1548 686.476 44.1548 691.049 Q44.1548 691.114 44.1548 691.178 Q44.1548 694.528 47.3109 697.297 Q50.4671 700.067 57.6812 700.067 Q61.4493 700.067 64.219 699.165 Q66.9565 698.231 68.3736 696.718 Q69.7906 695.204 70.4669 693.722 Q71.1111 692.241 71.1111 690.792 Q71.1111 684.318 64.1868 682.128 Q63.5427 681.935 63.5427 681.291 Q63.5427 680.421 64.1868 680.421 Q64.5089 680.421 65.3462 680.679 Q66.1836 680.937 67.504 681.742 Q68.8244 682.547 69.9839 683.706 Q71.1111 684.834 71.9484 686.863 Q72.7858 688.859 72.7858 691.371 Q72.7858 697.168 68.438 701.355 Z" fill="#000000" fill-rule="nonzero" fill-opacity="1" /><path clip-path="url(#clip650)" d="M65.7649 677.074 Q60.1611 677.074 57.1981 670.472 Q55.298 666.511 54.8149 658.33 L52.3995 658.33 Q48.3093 658.33 46.1515 660.488 Q43.9615 662.614 43.9615 665.319 Q43.9615 670.15 46.9889 672.469 Q47.0533 670.504 48.0517 669.796 Q49.0178 669.087 50.0162 669.087 Q51.3367 669.087 52.2062 669.925 Q53.0436 670.73 53.0436 672.115 Q53.0436 673.435 52.2384 674.305 Q51.4011 675.174 49.9518 675.174 Q46.7312 675.174 44.6056 672.276 Q42.4801 669.345 42.4801 665.19 Q42.4801 659.78 46.1193 656.173 Q47.2465 655.045 48.6958 654.498 Q50.145 653.918 51.1112 653.854 Q52.0452 653.789 53.9131 653.789 L67.0853 653.789 Q67.4718 653.789 68.1159 653.661 Q68.76 653.532 69.5974 652.952 Q70.4025 652.34 70.4025 651.342 Q70.4025 648.958 66.1836 648.991 L62.4799 648.991 L62.4799 647.316 L66.1836 647.316 Q69.694 647.316 71.0789 649.184 Q72.4315 651.02 72.4315 652.727 Q72.4315 654.917 70.8212 656.301 Q69.2109 657.686 67.0209 657.88 Q69.533 658.878 71.1755 661.165 Q72.7858 663.419 72.7858 666.511 Q72.7858 668.894 72.1739 671.148 Q71.5942 673.371 69.9517 675.238 Q68.2769 677.074 65.7649 677.074 M65.7005 671.986 Q68.1481 671.986 69.7262 670.247 Q71.3043 668.507 71.3043 666.06 Q71.3043 663.29 69.1787 660.81 Q67.0209 658.33 62.802 658.33 L56.1997 658.33 Q56.4574 665.641 59.3881 668.83 Q62.2867 671.986 65.7005 671.986 Z" fill="#000000" fill-rule="nonzero" fill-opacity="1" /><path clip-path="url(#clip650)" d="M72.045 644.674 L70.0161 644.674 Q70.0161 641.164 69.5974 640.359 Q69.1465 639.553 67.0209 639.553 L32.7217 639.553 Q30.274 639.553 29.6621 640.423 Q29.0502 641.26 29.0502 644.674 L26.989 644.674 L26.2805 635.206 L67.0209 635.206 Q69.1465 635.206 69.5974 634.368 Q70.0161 633.531 70.0161 630.053 L72.045 630.053 Q72.045 630.858 71.9806 632.533 Q71.9162 634.207 71.884 635.431 Q71.8518 636.655 71.8518 637.363 Q71.8518 638.136 72.045 644.674 Z" fill="#000000" fill-rule="nonzero" fill-opacity="1" /><path clip-path="url(#clip650)" d="M57.5202 625.796 Q51.3045 625.796 46.8923 621.802 Q42.4801 617.809 42.4801 612.076 Q42.4801 606.279 46.2481 603.284 Q50.0162 600.256 55.4268 600.256 Q56.4252 600.256 56.6184 600.514 Q56.8117 600.772 56.8117 601.899 L56.8117 620.321 Q63.5427 620.321 66.6989 618.324 Q71.1111 615.554 71.1111 610.884 Q71.1111 610.24 70.9822 609.467 Q70.8534 608.694 70.3059 607.116 Q69.7262 605.538 68.2125 604.153 Q66.6989 602.769 64.3156 601.963 Q63.3817 601.77 63.4139 601.126 Q63.4139 600.256 64.1868 600.256 Q64.7665 600.256 66.0869 600.901 Q67.3752 601.512 68.9211 602.704 Q70.4669 603.896 71.6264 606.215 Q72.7858 608.501 72.7858 611.271 Q72.7858 617.068 68.4058 621.448 Q63.9936 625.796 57.5202 625.796 M55.4268 620.256 L55.4268 604.604 Q54.042 604.604 52.4961 604.862 Q50.9502 605.087 48.8246 605.796 Q46.6668 606.472 45.3142 608.082 Q43.9615 609.693 43.9615 612.076 Q43.9615 613.139 44.4124 614.298 Q44.8633 615.425 45.9583 616.81 Q47.0533 618.195 49.5331 619.161 Q52.013 620.127 55.4268 620.256 Z" fill="#000000" fill-rule="nonzero" fill-opacity="1" /><polyline clip-path="url(#clip652)" style="stroke:#009af9; stroke-linecap:round; stroke-linejoin:round; stroke-width:16; stroke-opacity:1; fill:none" points="247.459,722.703 668.518,1010.4 1089.58,1235.55 1510.64,1335.62 1931.7,1363.14 2352.76,1373.15 "/>
<polyline clip-path="url(#clip652)" style="stroke:#e26f46; stroke-linecap:round; stroke-linejoin:round; stroke-width:16; stroke-opacity:1; fill:none" points="247.459,722.703 668.518,1010.4 1089.58,1235.55 1510.64,1335.62 1931.7,1363.14 2352.76,1373.15 "/>
<polyline clip-path="url(#clip652)" style="stroke:#3da44d; stroke-linecap:round; stroke-linejoin:round; stroke-width:16; stroke-opacity:1; fill:none" stroke-dasharray="64, 32, 8, 32" points="247.459,722.703 668.518,1010.4 1089.58,1235.55 1510.64,1335.62 1931.7,1363.14 2352.76,1373.15 "/>
<polyline clip-path="url(#clip652)" style="stroke:#c271d2; stroke-linecap:round; stroke-linejoin:round; stroke-width:16; stroke-opacity:1; fill:none" stroke-dasharray="64, 40" points="247.459,722.703 668.518,1010.4 1089.58,1235.55 1510.64,1335.62 1931.7,1363.14 2352.76,1373.15 "/>
<path clip-path="url(#clip650)" d="M1913.79 352.309 L2282.58 352.309 L2282.58 93.1086 L1913.79 93.1086  Z" fill="#ffffff" fill-rule="evenodd" fill-opacity="1"/>
<polyline clip-path="url(#clip650)" style="stroke:#000000; stroke-linecap:round; stroke-linejoin:round; stroke-width:4; stroke-opacity:1; fill:none" points="1913.79,352.309 2282.58,352.309 2282.58,93.1086 1913.79,93.1086 1913.79,352.309 "/>
<polyline clip-path="url(#clip650)" style="stroke:#009af9; stroke-linecap:round; stroke-linejoin:round; stroke-width:16; stroke-opacity:1; fill:none" points="1937.18,144.949 2077.54,144.949 "/>
<path clip-path="url(#clip650)" d="M2100.93 155.605 L2100.93 149.281 Q2100.93 148.742 2100.95 148.555 Q2100.98 148.368 2101.12 148.227 Q2101.26 148.087 2101.54 148.087 Q2101.87 148.087 2101.98 148.227 Q2102.12 148.368 2102.22 148.906 Q2102.94 152.209 2104.49 153.966 Q2106.06 155.699 2108.89 155.699 Q2111.59 155.699 2112.94 154.504 Q2114.3 153.31 2114.3 151.342 Q2114.3 147.829 2109.31 146.939 Q2106.43 146.353 2105.24 145.979 Q2104.04 145.58 2102.99 144.714 Q2100.93 143.027 2100.93 140.638 Q2100.93 138.249 2102.73 136.493 Q2104.56 134.736 2108.59 134.736 Q2111.28 134.736 2113.11 136.094 Q2113.65 135.673 2113.93 135.321 Q2114.56 134.736 2114.89 134.736 Q2115.26 134.736 2115.33 134.994 Q2115.4 135.228 2115.4 135.907 L2115.4 140.732 Q2115.4 141.271 2115.38 141.458 Q2115.36 141.645 2115.22 141.786 Q2115.08 141.903 2114.77 141.903 Q2114.23 141.903 2114.21 141.458 Q2113.83 135.649 2108.59 135.649 Q2105.75 135.649 2104.49 136.75 Q2103.22 137.828 2103.22 139.303 Q2103.22 140.123 2103.6 140.755 Q2104 141.364 2104.49 141.739 Q2105 142.091 2105.94 142.442 Q2106.88 142.77 2107.44 142.887 Q2108.03 143.004 2109.13 143.238 Q2112.97 143.964 2114.58 145.534 Q2116.6 147.548 2116.6 150.101 Q2116.6 152.935 2114.68 154.856 Q2112.76 156.776 2108.89 156.776 Q2105.78 156.776 2103.6 154.692 Q2103.32 154.973 2103.11 155.231 Q2102.9 155.465 2102.8 155.558 Q2102.73 155.652 2102.71 155.722 Q2102.69 155.769 2102.64 155.816 Q2101.68 156.776 2101.44 156.776 Q2101.07 156.776 2101 156.519 Q2100.93 156.285 2100.93 155.605 Z" fill="#000000" fill-rule="nonzero" fill-opacity="1" /><path clip-path="url(#clip650)" d="M2117.97 137.055 L2117.97 136.001 Q2120.17 135.907 2121.62 134.361 Q2123.1 132.792 2123.59 130.871 Q2124.11 128.951 2124.15 126.725 L2125.35 126.725 L2125.35 135.556 L2132.21 135.556 L2132.21 137.055 L2125.35 137.055 L2125.35 150.382 Q2125.35 155.558 2128.58 155.558 Q2129.96 155.558 2130.88 154.153 Q2131.79 152.724 2131.79 150.195 L2131.79 147.548 L2132.98 147.548 L2132.98 150.288 Q2132.98 152.888 2131.79 154.832 Q2130.6 156.776 2128.23 156.776 Q2127.36 156.776 2126.5 156.542 Q2125.65 156.331 2124.53 155.769 Q2123.43 155.184 2122.73 153.778 Q2122.05 152.35 2122.05 150.288 L2122.05 137.055 L2117.97 137.055 Z" fill="#000000" fill-rule="nonzero" fill-opacity="1" /><path clip-path="url(#clip650)" d="M2135.9 151.67 Q2135.9 147.595 2140.7 145.44 Q2143.58 144.058 2149.53 143.707 L2149.53 141.95 Q2149.53 138.975 2147.96 137.406 Q2146.41 135.813 2144.44 135.813 Q2140.93 135.813 2139.24 138.015 Q2140.67 138.062 2141.19 138.788 Q2141.7 139.491 2141.7 140.217 Q2141.7 141.177 2141.1 141.809 Q2140.51 142.418 2139.5 142.418 Q2138.54 142.418 2137.91 141.833 Q2137.28 141.224 2137.28 140.17 Q2137.28 137.828 2139.39 136.282 Q2141.52 134.736 2144.54 134.736 Q2148.47 134.736 2151.1 137.383 Q2151.92 138.202 2152.31 139.256 Q2152.74 140.31 2152.78 141.013 Q2152.83 141.692 2152.83 143.051 L2152.83 152.631 Q2152.83 152.912 2152.92 153.38 Q2153.02 153.849 2153.44 154.458 Q2153.88 155.043 2154.61 155.043 Q2156.34 155.043 2156.32 151.975 L2156.32 149.281 L2157.54 149.281 L2157.54 151.975 Q2157.54 154.528 2156.18 155.535 Q2154.84 156.519 2153.6 156.519 Q2152.01 156.519 2151 155.348 Q2150 154.177 2149.86 152.584 Q2149.13 154.411 2147.47 155.605 Q2145.83 156.776 2143.58 156.776 Q2141.84 156.776 2140.21 156.331 Q2138.59 155.91 2137.23 154.715 Q2135.9 153.497 2135.9 151.67 M2139.6 151.623 Q2139.6 153.404 2140.86 154.551 Q2142.13 155.699 2143.91 155.699 Q2145.92 155.699 2147.72 154.153 Q2149.53 152.584 2149.53 149.515 L2149.53 144.714 Q2144.21 144.901 2141.89 147.033 Q2139.6 149.141 2139.6 151.623 Z" fill="#000000" fill-rule="nonzero" fill-opacity="1" /><path clip-path="url(#clip650)" d="M2158.69 137.055 L2158.69 136.001 Q2160.89 135.907 2162.34 134.361 Q2163.82 132.792 2164.31 130.871 Q2164.82 128.951 2164.87 126.725 L2166.06 126.725 L2166.06 135.556 L2172.93 135.556 L2172.93 137.055 L2166.06 137.055 L2166.06 150.382 Q2166.06 155.558 2169.3 155.558 Q2170.68 155.558 2171.59 154.153 Q2172.5 152.724 2172.5 150.195 L2172.5 147.548 L2173.7 147.548 L2173.7 150.288 Q2173.7 152.888 2172.5 154.832 Q2171.31 156.776 2168.94 156.776 Q2168.08 156.776 2167.21 156.542 Q2166.37 156.331 2165.24 155.769 Q2164.14 155.184 2163.44 153.778 Q2162.76 152.35 2162.76 150.288 L2162.76 137.055 L2158.69 137.055 Z" fill="#000000" fill-rule="nonzero" fill-opacity="1" /><path clip-path="url(#clip650)" d="M2173.84 164.061 Q2176.39 164.061 2176.98 163.733 Q2177.58 163.428 2177.58 161.906 L2177.58 139.444 Q2177.58 137.851 2176.98 137.453 Q2176.39 137.055 2173.84 137.055 L2173.84 135.556 L2180.75 135.04 L2180.75 138.202 Q2183.63 135.04 2187.47 135.04 Q2191.54 135.04 2194.52 138.202 Q2197.49 141.364 2197.49 145.885 Q2197.49 150.452 2194.33 153.614 Q2191.17 156.776 2186.79 156.776 Q2184.4 156.776 2182.78 155.558 Q2181.19 154.317 2180.89 153.404 L2180.89 153.849 L2180.89 161.906 Q2180.89 163.452 2181.5 163.756 Q2182.11 164.061 2184.63 164.061 L2184.63 165.536 Q2179.6 165.396 2179.22 165.396 Q2178.76 165.396 2173.84 165.536 L2173.84 164.061 M2180.89 150.78 Q2180.89 151.506 2180.98 151.764 Q2181.1 152.022 2181.57 152.795 Q2183.46 155.699 2186.56 155.699 Q2186.58 155.699 2186.6 155.699 Q2189.34 155.699 2191.43 152.912 Q2193.51 150.101 2193.51 145.885 Q2193.51 141.856 2191.61 139.046 Q2189.72 136.235 2187.09 136.235 Q2185.22 136.235 2183.58 137.242 Q2181.94 138.249 2180.89 140.076 L2180.89 150.78 Z" fill="#000000" fill-rule="nonzero" fill-opacity="1" /><path clip-path="url(#clip650)" d="M2202.87 156.238 L2202.87 154.762 Q2205.43 154.762 2206.01 154.458 Q2206.6 154.13 2206.6 152.584 L2206.6 139.678 Q2206.6 137.898 2205.99 137.476 Q2205.4 137.055 2203.06 137.055 L2203.06 135.556 L2209.76 135.04 L2209.76 152.631 Q2209.76 154.059 2210.27 154.411 Q2210.79 154.762 2213.13 154.762 L2213.13 156.238 Q2208.24 156.097 2208.14 156.097 Q2207.49 156.097 2202.87 156.238 M2204.89 126.679 Q2204.89 125.718 2205.61 124.945 Q2206.36 124.149 2207.42 124.149 Q2208.47 124.149 2209.22 124.875 Q2209.97 125.578 2209.97 126.702 Q2209.97 127.803 2209.22 128.529 Q2208.47 129.232 2207.42 129.232 Q2206.32 129.232 2205.59 128.459 Q2204.89 127.686 2204.89 126.679 Z" fill="#000000" fill-rule="nonzero" fill-opacity="1" /><polyline clip-path="url(#clip650)" style="stroke:#e26f46; stroke-linecap:round; stroke-linejoin:round; stroke-width:16; stroke-opacity:1; fill:none" points="1937.18,196.789 2077.54,196.789 "/>
<path clip-path="url(#clip650)" d="M2100.93 198.092 Q2100.93 193.525 2104.11 190.363 Q2107.3 187.201 2111.61 187.201 Q2115.26 187.201 2117.65 190.175 L2117.65 179.799 Q2117.65 178.019 2117.02 177.574 Q2116.41 177.129 2113.93 177.129 L2113.93 175.63 L2120.84 175.115 L2120.84 204.229 Q2120.84 206.009 2121.45 206.477 Q2122.08 206.922 2124.56 206.922 L2124.56 208.398 L2117.51 208.937 L2117.51 205.751 Q2115.03 208.913 2111.09 208.937 Q2106.97 208.937 2103.95 205.775 Q2100.93 202.613 2100.93 198.092 M2104.91 198.139 Q2104.91 202.589 2106.29 204.791 Q2108.21 207.859 2111.33 207.859 Q2114.89 207.859 2117 204.51 Q2117.54 203.69 2117.51 202.73 L2117.51 192.892 Q2117.51 191.932 2117 191.136 Q2115.03 188.255 2111.82 188.255 Q2108.47 188.255 2106.39 191.323 Q2104.91 193.618 2104.91 198.139 Z" fill="#000000" fill-rule="nonzero" fill-opacity="1" /><path clip-path="url(#clip650)" d="M2126.51 214.347 Q2126.51 213.34 2127.09 212.801 Q2127.7 212.286 2128.52 212.286 Q2129.39 212.286 2129.95 212.825 Q2130.54 213.387 2130.54 214.3 Q2130.54 216.081 2128.66 216.315 Q2129.58 217.181 2130.91 217.181 Q2132.34 217.181 2133.49 216.127 Q2134.66 215.073 2135.15 214.066 Q2135.67 213.059 2136.39 211.232 Q2137.07 209.803 2137.59 208.398 L2130.4 190.878 Q2129.93 189.73 2129.2 189.473 Q2128.48 189.215 2126.51 189.215 L2126.51 187.716 Q2128.66 187.857 2131.17 187.857 Q2132.65 187.857 2136.39 187.716 L2136.39 189.215 Q2133.7 189.215 2133.7 190.456 Q2133.7 190.597 2133.98 191.323 L2139.32 204.229 L2144.17 192.424 Q2144.45 191.745 2144.45 191.276 Q2144.45 189.309 2142.2 189.215 L2142.2 187.716 Q2145.36 187.857 2146.37 187.857 Q2148.34 187.857 2149.95 187.716 L2149.95 189.215 Q2146.75 189.215 2145.5 192.283 L2137.05 212.755 Q2134.75 218.212 2130.91 218.235 Q2129.09 218.235 2127.8 217.111 Q2126.51 215.987 2126.51 214.347 Z" fill="#000000" fill-rule="nonzero" fill-opacity="1" /><path clip-path="url(#clip650)" d="M2153.07 208.398 L2153.07 206.922 Q2155.62 206.922 2156.21 206.618 Q2156.79 206.29 2156.79 204.744 L2156.79 191.885 Q2156.79 190.105 2156.16 189.66 Q2155.55 189.215 2153.07 189.215 L2153.07 187.716 L2159.82 187.201 L2159.82 192.237 Q2162.06 187.201 2166.91 187.201 Q2170.52 187.201 2171.95 188.981 Q2173 190.175 2173.21 191.51 Q2173.45 192.845 2173.45 196.312 L2173.45 205.47 Q2173.49 206.477 2174.27 206.712 Q2175.04 206.922 2177.2 206.922 L2177.2 208.398 Q2172.3 208.257 2171.81 208.257 Q2171.43 208.257 2166.4 208.398 L2166.4 206.922 Q2168.95 206.922 2169.54 206.618 Q2170.15 206.29 2170.15 204.744 L2170.15 193.572 Q2170.15 191.136 2169.4 189.707 Q2168.65 188.255 2166.59 188.255 Q2164.1 188.255 2162.11 190.339 Q2160.12 192.424 2160.12 195.937 L2160.12 204.744 Q2160.12 206.29 2160.71 206.618 Q2161.32 206.922 2163.84 206.922 L2163.84 208.398 Q2158.95 208.257 2158.48 208.257 Q2158.11 208.257 2153.07 208.398 Z" fill="#000000" fill-rule="nonzero" fill-opacity="1" /><path clip-path="url(#clip650)" d="M2176.67 216.221 Q2179.23 216.221 2179.81 215.893 Q2180.42 215.589 2180.42 214.066 L2180.42 191.604 Q2180.42 190.011 2179.81 189.613 Q2179.23 189.215 2176.67 189.215 L2176.67 187.716 L2183.58 187.201 L2183.58 190.363 Q2186.46 187.201 2190.3 187.201 Q2194.38 187.201 2197.35 190.363 Q2200.33 193.525 2200.33 198.045 Q2200.33 202.613 2197.17 205.775 Q2194 208.937 2189.62 208.937 Q2187.24 208.937 2185.62 207.719 Q2184.03 206.477 2183.72 205.564 L2183.72 206.009 L2183.72 214.066 Q2183.72 215.612 2184.33 215.917 Q2184.94 216.221 2187.47 216.221 L2187.47 217.697 Q2182.43 217.556 2182.06 217.556 Q2181.59 217.556 2176.67 217.697 L2176.67 216.221 M2183.72 202.941 Q2183.72 203.667 2183.82 203.924 Q2183.93 204.182 2184.4 204.955 Q2186.3 207.859 2189.39 207.859 Q2189.41 207.859 2189.44 207.859 Q2192.18 207.859 2194.26 205.072 Q2196.35 202.261 2196.35 198.045 Q2196.35 194.017 2194.45 191.206 Q2192.55 188.395 2189.93 188.395 Q2188.06 188.395 2186.42 189.402 Q2184.78 190.41 2183.72 192.237 L2183.72 202.941 Z" fill="#000000" fill-rule="nonzero" fill-opacity="1" /><path clip-path="url(#clip650)" d="M2205.71 208.398 L2205.71 206.922 Q2208.26 206.922 2208.85 206.618 Q2209.43 206.29 2209.43 204.744 L2209.43 191.838 Q2209.43 190.058 2208.82 189.637 Q2208.24 189.215 2205.9 189.215 L2205.9 187.716 L2212.59 187.201 L2212.59 204.791 Q2212.59 206.22 2213.11 206.571 Q2213.62 206.922 2215.97 206.922 L2215.97 208.398 Q2211.07 208.257 2210.98 208.257 Q2210.32 208.257 2205.71 208.398 M2207.72 178.839 Q2207.72 177.879 2208.45 177.106 Q2209.2 176.309 2210.25 176.309 Q2211.31 176.309 2212.06 177.035 Q2212.8 177.738 2212.8 178.862 Q2212.8 179.963 2212.06 180.689 Q2211.31 181.392 2210.25 181.392 Q2209.15 181.392 2208.42 180.619 Q2207.72 179.846 2207.72 178.839 Z" fill="#000000" fill-rule="nonzero" fill-opacity="1" /><polyline clip-path="url(#clip650)" style="stroke:#3da44d; stroke-linecap:round; stroke-linejoin:round; stroke-width:16; stroke-opacity:1; fill:none" stroke-dasharray="64, 32, 8, 32" points="1937.18,248.629 2077.54,248.629 "/>
<path clip-path="url(#clip650)" d="M2100.93 264.847 L2100.93 263.372 Q2102.66 263.372 2103.76 263.044 Q2104.86 262.693 2105.26 262.06 Q2105.68 261.404 2105.78 260.983 Q2105.87 260.538 2105.87 259.812 L2105.87 235.827 Q2105.87 234.445 2105.26 234.023 Q2104.68 233.578 2102.08 233.578 L2100.93 233.578 L2100.93 232.079 L2109.03 232.079 Q2109.9 232.079 2110.13 232.243 Q2110.37 232.384 2110.72 233.133 L2121.12 259.999 L2131.61 232.993 Q2131.85 232.314 2132.06 232.196 Q2132.29 232.079 2133.21 232.079 L2141.31 232.079 L2141.31 233.578 L2140.16 233.578 Q2137.56 233.578 2136.95 234.023 Q2136.37 234.445 2136.37 235.827 L2136.37 261.1 Q2136.37 262.482 2136.95 262.927 Q2137.56 263.372 2140.16 263.372 L2141.31 263.372 L2141.31 264.847 Q2139.53 264.707 2134.45 264.707 Q2129.32 264.707 2127.54 264.847 L2127.54 263.372 L2128.71 263.372 Q2131.31 263.372 2131.89 262.95 Q2132.48 262.505 2132.48 261.1 L2132.48 233.578 L2132.43 233.578 L2120.65 263.934 Q2120.32 264.847 2119.78 264.847 Q2119.2 264.847 2118.82 263.793 L2107.25 233.953 L2107.21 233.953 L2107.21 259.812 Q2107.21 260.538 2107.3 260.983 Q2107.39 261.404 2107.79 262.06 Q2108.21 262.693 2109.31 263.044 Q2110.42 263.372 2112.15 263.372 L2112.15 264.847 Q2107.11 264.707 2106.53 264.707 Q2105.97 264.707 2100.93 264.847 Z" fill="#000000" fill-rule="nonzero" fill-opacity="1" /><path clip-path="url(#clip650)" d="M2149.02 264.754 L2149.02 255.15 Q2149.02 254.612 2149.05 254.424 Q2149.07 254.237 2149.21 254.096 Q2149.35 253.956 2149.63 253.956 Q2150.17 253.956 2150.22 254.448 Q2150.36 259.203 2153.19 261.826 Q2155.98 264.426 2160.76 264.426 Q2163.64 264.426 2165.42 262.365 Q2167.2 260.28 2167.2 257.563 Q2167.2 254.963 2165.7 253.136 Q2165.07 252.316 2164.27 251.801 Q2163.5 251.262 2163.01 251.098 Q2162.54 250.934 2161.63 250.7 Q2155.68 249.271 2155.3 249.107 Q2152.47 248.147 2150.73 245.735 Q2149.02 243.299 2149.02 240.324 Q2149.02 236.483 2151.72 233.766 Q2154.44 231.025 2158.37 231.025 Q2160.34 231.025 2161.98 231.658 Q2163.64 232.267 2164.32 232.829 Q2165 233.391 2166.05 234.398 L2167.72 231.658 Q2168.09 231.025 2168.44 231.025 Q2168.82 231.025 2168.89 231.26 Q2168.98 231.47 2168.98 232.173 L2168.98 241.823 Q2168.98 242.362 2168.96 242.549 Q2168.93 242.737 2168.77 242.854 Q2168.63 242.971 2168.35 242.971 Q2167.88 242.971 2167.76 242.409 Q2166.43 232.384 2158.42 232.384 Q2155.68 232.384 2153.87 234.234 Q2152.09 236.061 2152.09 238.661 Q2152.09 240.769 2153.4 242.502 Q2154.72 244.212 2156.94 244.751 L2163.08 246.227 Q2166.15 246.953 2168.21 249.67 Q2170.27 252.387 2170.27 255.923 Q2170.27 259.999 2167.6 262.95 Q2164.95 265.901 2160.81 265.901 Q2157.83 265.901 2155.54 264.918 Q2153.24 263.934 2152 262.552 Q2151.04 264.145 2150.41 265.035 L2150.27 265.269 Q2149.89 265.901 2149.54 265.901 Q2149.17 265.901 2149.1 265.667 Q2149.02 265.433 2149.02 264.754 Z" fill="#000000" fill-rule="nonzero" fill-opacity="1" /><path clip-path="url(#clip650)" d="M2177.48 264.754 L2177.48 255.15 Q2177.48 254.612 2177.51 254.424 Q2177.53 254.237 2177.67 254.096 Q2177.81 253.956 2178.09 253.956 Q2178.63 253.956 2178.68 254.448 Q2178.82 259.203 2181.65 261.826 Q2184.44 264.426 2189.22 264.426 Q2192.1 264.426 2193.88 262.365 Q2195.66 260.28 2195.66 257.563 Q2195.66 254.963 2194.16 253.136 Q2193.53 252.316 2192.73 251.801 Q2191.96 251.262 2191.47 251.098 Q2191 250.934 2190.09 250.7 Q2184.14 249.271 2183.76 249.107 Q2180.93 248.147 2179.19 245.735 Q2177.48 243.299 2177.48 240.324 Q2177.48 236.483 2180.18 233.766 Q2182.89 231.025 2186.83 231.025 Q2188.8 231.025 2190.44 231.658 Q2192.1 232.267 2192.78 232.829 Q2193.46 233.391 2194.51 234.398 L2196.18 231.658 Q2196.55 231.025 2196.9 231.025 Q2197.28 231.025 2197.35 231.26 Q2197.44 231.47 2197.44 232.173 L2197.44 241.823 Q2197.44 242.362 2197.42 242.549 Q2197.39 242.737 2197.23 242.854 Q2197.09 242.971 2196.81 242.971 Q2196.34 242.971 2196.22 242.409 Q2194.89 232.384 2186.88 232.384 Q2184.14 232.384 2182.33 234.234 Q2180.55 236.061 2180.55 238.661 Q2180.55 240.769 2181.86 242.502 Q2183.18 244.212 2185.4 244.751 L2191.54 246.227 Q2194.61 246.953 2196.67 249.67 Q2198.73 252.387 2198.73 255.923 Q2198.73 259.999 2196.06 262.95 Q2193.41 265.901 2189.27 265.901 Q2186.29 265.901 2184 264.918 Q2181.7 263.934 2180.46 262.552 Q2179.5 264.145 2178.87 265.035 L2178.73 265.269 Q2178.35 265.901 2178 265.901 Q2177.62 265.901 2177.55 265.667 Q2177.48 265.433 2177.48 264.754 Z" fill="#000000" fill-rule="nonzero" fill-opacity="1" /><path clip-path="url(#clip650)" d="M2205.94 264.847 L2205.94 263.372 L2207.09 263.372 Q2209.69 263.372 2210.28 262.95 Q2210.89 262.505 2210.89 261.1 L2210.89 235.827 Q2210.89 234.445 2210.28 234.023 Q2209.67 233.578 2207.09 233.578 L2205.94 233.578 L2205.94 232.079 L2223.49 232.079 Q2228.05 232.079 2231.1 234.539 Q2234.14 236.975 2234.14 240.184 Q2234.14 242.83 2231.9 244.938 Q2229.67 247.046 2226.18 247.726 Q2230.16 248.147 2232.79 250.56 Q2235.43 252.949 2235.43 256.064 Q2235.43 259.577 2232.41 262.224 Q2229.39 264.847 2224.75 264.847 L2205.94 264.847 M2214.87 261.451 Q2214.87 262.693 2215.22 263.044 Q2215.57 263.372 2217.21 263.372 L2223.21 263.372 Q2226.65 263.372 2228.64 261.123 Q2230.63 258.851 2230.63 256.017 Q2230.63 253.183 2228.87 250.77 Q2227.14 248.335 2223.89 248.335 L2214.87 248.335 L2214.87 261.451 M2214.87 247.281 L2221.82 247.281 Q2225.53 247.281 2227.49 245.055 Q2229.48 242.83 2229.48 240.184 Q2229.48 237.841 2227.89 235.71 Q2226.32 233.578 2223.16 233.578 L2217.21 233.578 Q2215.57 233.578 2215.22 233.906 Q2214.87 234.234 2214.87 235.499 L2214.87 247.281 Z" fill="#000000" fill-rule="nonzero" fill-opacity="1" /><polyline clip-path="url(#clip650)" style="stroke:#c271d2; stroke-linecap:round; stroke-linejoin:round; stroke-width:16; stroke-opacity:1; fill:none" stroke-dasharray="64, 40" points="1937.18,300.469 2077.54,300.469 "/>
<path clip-path="url(#clip650)" d="M2100.93 316.687 L2100.93 315.212 Q2102.66 315.212 2103.76 314.884 Q2104.86 314.533 2105.26 313.9 Q2105.68 313.244 2105.78 312.823 Q2105.87 312.378 2105.87 311.652 L2105.87 287.667 Q2105.87 286.285 2105.26 285.863 Q2104.68 285.418 2102.08 285.418 L2100.93 285.418 L2100.93 283.919 L2109.03 283.919 Q2109.9 283.919 2110.13 284.083 Q2110.37 284.224 2110.72 284.973 L2121.12 311.839 L2131.61 284.833 Q2131.85 284.154 2132.06 284.036 Q2132.29 283.919 2133.21 283.919 L2141.31 283.919 L2141.31 285.418 L2140.16 285.418 Q2137.56 285.418 2136.95 285.863 Q2136.37 286.285 2136.37 287.667 L2136.37 312.94 Q2136.37 314.322 2136.95 314.767 Q2137.56 315.212 2140.16 315.212 L2141.31 315.212 L2141.31 316.687 Q2139.53 316.547 2134.45 316.547 Q2129.32 316.547 2127.54 316.687 L2127.54 315.212 L2128.71 315.212 Q2131.31 315.212 2131.89 314.79 Q2132.48 314.345 2132.48 312.94 L2132.48 285.418 L2132.43 285.418 L2120.65 315.774 Q2120.32 316.687 2119.78 316.687 Q2119.2 316.687 2118.82 315.633 L2107.25 285.793 L2107.21 285.793 L2107.21 311.652 Q2107.21 312.378 2107.3 312.823 Q2107.39 313.244 2107.79 313.9 Q2108.21 314.533 2109.31 314.884 Q2110.42 315.212 2112.15 315.212 L2112.15 316.687 Q2107.11 316.547 2106.53 316.547 Q2105.97 316.547 2100.93 316.687 Z" fill="#000000" fill-rule="nonzero" fill-opacity="1" /><path clip-path="url(#clip650)" d="M2149.02 316.594 L2149.02 306.99 Q2149.02 306.452 2149.05 306.264 Q2149.07 306.077 2149.21 305.936 Q2149.35 305.796 2149.63 305.796 Q2150.17 305.796 2150.22 306.288 Q2150.36 311.043 2153.19 313.666 Q2155.98 316.266 2160.76 316.266 Q2163.64 316.266 2165.42 314.205 Q2167.2 312.12 2167.2 309.403 Q2167.2 306.803 2165.7 304.976 Q2165.07 304.156 2164.27 303.641 Q2163.5 303.102 2163.01 302.938 Q2162.54 302.774 2161.63 302.54 Q2155.68 301.111 2155.3 300.947 Q2152.47 299.987 2150.73 297.575 Q2149.02 295.139 2149.02 292.164 Q2149.02 288.323 2151.72 285.606 Q2154.44 282.865 2158.37 282.865 Q2160.34 282.865 2161.98 283.498 Q2163.64 284.107 2164.32 284.669 Q2165 285.231 2166.05 286.238 L2167.72 283.498 Q2168.09 282.865 2168.44 282.865 Q2168.82 282.865 2168.89 283.1 Q2168.98 283.31 2168.98 284.013 L2168.98 293.663 Q2168.98 294.202 2168.96 294.389 Q2168.93 294.577 2168.77 294.694 Q2168.63 294.811 2168.35 294.811 Q2167.88 294.811 2167.76 294.249 Q2166.43 284.224 2158.42 284.224 Q2155.68 284.224 2153.87 286.074 Q2152.09 287.901 2152.09 290.501 Q2152.09 292.609 2153.4 294.342 Q2154.72 296.052 2156.94 296.591 L2163.08 298.067 Q2166.15 298.793 2168.21 301.51 Q2170.27 304.227 2170.27 307.763 Q2170.27 311.839 2167.6 314.79 Q2164.95 317.741 2160.81 317.741 Q2157.83 317.741 2155.54 316.758 Q2153.24 315.774 2152 314.392 Q2151.04 315.985 2150.41 316.875 L2150.27 317.109 Q2149.89 317.741 2149.54 317.741 Q2149.17 317.741 2149.1 317.507 Q2149.02 317.273 2149.02 316.594 Z" fill="#000000" fill-rule="nonzero" fill-opacity="1" /><path clip-path="url(#clip650)" d="M2177.48 316.687 L2177.48 315.212 Q2179.22 315.212 2180.32 314.884 Q2181.42 314.533 2181.82 313.9 Q2182.24 313.244 2182.33 312.823 Q2182.43 312.378 2182.43 311.652 L2182.43 287.667 Q2182.43 286.285 2181.82 285.863 Q2181.23 285.418 2178.63 285.418 L2177.48 285.418 L2177.48 283.919 L2185.59 283.919 Q2186.46 283.919 2186.69 284.083 Q2186.92 284.224 2187.27 284.973 L2197.67 311.839 L2208.17 284.833 Q2208.4 284.154 2208.61 284.036 Q2208.85 283.919 2209.76 283.919 L2217.86 283.919 L2217.86 285.418 L2216.72 285.418 Q2214.12 285.418 2213.51 285.863 Q2212.92 286.285 2212.92 287.667 L2212.92 312.94 Q2212.92 314.322 2213.51 314.767 Q2214.12 315.212 2216.72 315.212 L2217.86 315.212 L2217.86 316.687 Q2216.08 316.547 2211 316.547 Q2205.87 316.547 2204.09 316.687 L2204.09 315.212 L2205.26 315.212 Q2207.86 315.212 2208.45 314.79 Q2209.03 314.345 2209.03 312.94 L2209.03 285.418 L2208.99 285.418 L2197.21 315.774 Q2196.88 316.687 2196.34 316.687 Q2195.75 316.687 2195.38 315.633 L2183.81 285.793 L2183.76 285.793 L2183.76 311.652 Q2183.76 312.378 2183.86 312.823 Q2183.95 313.244 2184.35 313.9 Q2184.77 314.533 2185.87 314.884 Q2186.97 315.212 2188.7 315.212 L2188.7 316.687 Q2183.67 316.547 2183.08 316.547 Q2182.52 316.547 2177.48 316.687 Z" fill="#000000" fill-rule="nonzero" fill-opacity="1" /><path clip-path="url(#clip650)" d="M2225.58 316.687 L2225.58 315.212 L2226.73 315.212 Q2229.33 315.212 2229.91 314.79 Q2230.52 314.345 2230.52 312.94 L2230.52 287.667 Q2230.52 286.285 2229.91 285.863 Q2229.3 285.418 2226.73 285.418 L2225.58 285.418 L2225.58 283.919 L2243.12 283.919 Q2247.69 283.919 2250.74 286.379 Q2253.78 288.815 2253.78 292.024 Q2253.78 294.67 2251.53 296.778 Q2249.31 298.886 2245.82 299.566 Q2249.8 299.987 2252.42 302.4 Q2255.07 304.789 2255.07 307.904 Q2255.07 311.417 2252.05 314.064 Q2249.03 316.687 2244.39 316.687 L2225.58 316.687 M2234.5 313.291 Q2234.5 314.533 2234.86 314.884 Q2235.21 315.212 2236.85 315.212 L2242.84 315.212 Q2246.29 315.212 2248.28 312.963 Q2250.27 310.691 2250.27 307.857 Q2250.27 305.023 2248.51 302.61 Q2246.78 300.175 2243.52 300.175 L2234.5 300.175 L2234.5 313.291 M2234.5 299.121 L2241.46 299.121 Q2245.16 299.121 2247.13 296.895 Q2249.12 294.67 2249.12 292.024 Q2249.12 289.681 2247.53 287.55 Q2245.96 285.418 2242.8 285.418 L2236.85 285.418 Q2235.21 285.418 2234.86 285.746 Q2234.5 286.074 2234.5 287.339 L2234.5 299.121 Z" fill="#000000" fill-rule="nonzero" fill-opacity="1" /></svg>
