<?xml version="1.0" encoding="utf-8"?>
<svg xmlns="http://www.w3.org/2000/svg" xmlns:xlink="http://www.w3.org/1999/xlink" width="1000" height="800" viewBox="0 0 4000 3200">
<defs>
  <clipPath id="clip060">
    <rect x="0" y="0" width="4000" height="3200"/>
  </clipPath>
</defs>
<path clip-path="url(#clip060)" d="M0 3200 L4000 3200 L4000 0 L0 0  Z" fill="#ffffff" fill-rule="evenodd" fill-opacity="1"/>
<defs>
  <clipPath id="clip061">
    <rect x="800" y="0" width="2801" height="2801"/>
  </clipPath>
</defs>
<path clip-path="url(#clip060)" d="M467.487 2949.49 L3952.76 2949.49 L3952.76 47.2441 L467.487 47.2441  Z" fill="#ffffff" fill-rule="evenodd" fill-opacity="1"/>
<defs>
  <clipPath id="clip062">
    <rect x="467" y="47" width="3486" height="2903"/>
  </clipPath>
</defs>
<polyline clip-path="url(#clip062)" style="stroke:#000000; stroke-linecap:round; stroke-linejoin:round; stroke-width:2; stroke-opacity:0.1; fill:none" points="467.487,2949.49 467.487,47.2441 "/>
<polyline clip-path="url(#clip062)" style="stroke:#000000; stroke-linecap:round; stroke-linejoin:round; stroke-width:2; stroke-opacity:0.1; fill:none" points="1142.93,2949.49 1142.93,47.2441 "/>
<polyline clip-path="url(#clip062)" style="stroke:#000000; stroke-linecap:round; stroke-linejoin:round; stroke-width:2; stroke-opacity:0.1; fill:none" points="1818.37,2949.49 1818.37,47.2441 "/>
<polyline clip-path="url(#clip062)" style="stroke:#000000; stroke-linecap:round; stroke-linejoin:round; stroke-width:2; stroke-opacity:0.1; fill:none" points="2493.81,2949.49 2493.81,47.2441 "/>
<polyline clip-path="url(#clip062)" style="stroke:#000000; stroke-linecap:round; stroke-linejoin:round; stroke-width:2; stroke-opacity:0.1; fill:none" points="3169.25,2949.49 3169.25,47.2441 "/>
<polyline clip-path="url(#clip062)" style="stroke:#000000; stroke-linecap:round; stroke-linejoin:round; stroke-width:2; stroke-opacity:0.1; fill:none" points="3844.69,2949.49 3844.69,47.2441 "/>
<polyline clip-path="url(#clip060)" style="stroke:#000000; stroke-linecap:round; stroke-linejoin:round; stroke-width:4; stroke-opacity:1; fill:none" points="467.487,2949.49 3952.76,2949.49 "/>
<polyline clip-path="url(#clip060)" style="stroke:#000000; stroke-linecap:round; stroke-linejoin:round; stroke-width:4; stroke-opacity:1; fill:none" points="467.487,47.2441 3952.76,47.2441 "/>
<polyline clip-path="url(#clip060)" style="stroke:#000000; stroke-linecap:round; stroke-linejoin:round; stroke-width:4; stroke-opacity:1; fill:none" points="467.487,2949.49 467.487,2930.59 "/>
<polyline clip-path="url(#clip060)" style="stroke:#000000; stroke-linecap:round; stroke-linejoin:round; stroke-width:4; stroke-opacity:1; fill:none" points="1142.93,2949.49 1142.93,2930.59 "/>
<polyline clip-path="url(#clip060)" style="stroke:#000000; stroke-linecap:round; stroke-linejoin:round; stroke-width:4; stroke-opacity:1; fill:none" points="1818.37,2949.49 1818.37,2930.59 "/>
<polyline clip-path="url(#clip060)" style="stroke:#000000; stroke-linecap:round; stroke-linejoin:round; stroke-width:4; stroke-opacity:1; fill:none" points="2493.81,2949.49 2493.81,2930.59 "/>
<polyline clip-path="url(#clip060)" style="stroke:#000000; stroke-linecap:round; stroke-linejoin:round; stroke-width:4; stroke-opacity:1; fill:none" points="3169.25,2949.49 3169.25,2930.59 "/>
<polyline clip-path="url(#clip060)" style="stroke:#000000; stroke-linecap:round; stroke-linejoin:round; stroke-width:4; stroke-opacity:1; fill:none" points="3844.69,2949.49 3844.69,2930.59 "/>
<path clip-path="url(#clip060)" d="M384.544 3025.43 Q371.003 3025.43 364.145 3038.8 Q357.374 3052.08 357.374 3078.82 Q357.374 3105.47 364.145 3118.84 Q371.003 3132.12 384.544 3132.12 Q398.173 3132.12 404.944 3118.84 Q411.801 3105.47 411.801 3078.82 Q411.801 3052.08 404.944 3038.8 Q398.173 3025.43 384.544 3025.43 M384.544 3011.54 Q406.333 3011.54 417.791 3028.82 Q429.336 3046.01 429.336 3078.82 Q429.336 3111.54 417.791 3128.82 Q406.333 3146.01 384.544 3146.01 Q362.756 3146.01 351.211 3128.82 Q339.753 3111.54 339.753 3078.82 Q339.753 3046.01 351.211 3028.82 Q362.756 3011.54 384.544 3011.54 Z" fill="#000000" fill-rule="nonzero" fill-opacity="1" /><path clip-path="url(#clip060)" d="M460.152 3121.44 L478.468 3121.44 L478.468 3143.49 L460.152 3143.49 L460.152 3121.44 Z" fill="#000000" fill-rule="nonzero" fill-opacity="1" /><path clip-path="url(#clip060)" d="M516.835 3013.89 L585.672 3013.89 L585.672 3028.64 L532.894 3028.64 L532.894 3060.42 Q536.714 3059.11 540.533 3058.51 Q544.353 3057.81 548.172 3057.81 Q569.873 3057.81 582.547 3069.7 Q595.22 3081.6 595.22 3101.91 Q595.22 3122.83 582.2 3134.46 Q569.179 3146.01 545.481 3146.01 Q537.321 3146.01 528.814 3144.62 Q520.394 3143.23 511.367 3140.45 L511.367 3122.83 Q519.179 3127.08 527.512 3129.17 Q535.846 3131.25 545.134 3131.25 Q560.151 3131.25 568.918 3123.35 Q577.686 3115.45 577.686 3101.91 Q577.686 3088.37 568.918 3080.47 Q560.151 3072.57 545.134 3072.57 Q538.103 3072.57 531.071 3074.13 Q524.127 3075.69 516.835 3078.99 L516.835 3013.89 Z" fill="#000000" fill-rule="nonzero" fill-opacity="1" /><path clip-path="url(#clip060)" d="M1019.75 3128.73 L1048.4 3128.73 L1048.4 3029.86 L1017.23 3036.11 L1017.23 3020.14 L1048.22 3013.89 L1065.76 3013.89 L1065.76 3128.73 L1094.4 3128.73 L1094.4 3143.49 L1019.75 3143.49 L1019.75 3128.73 Z" fill="#000000" fill-rule="nonzero" fill-opacity="1" /><path clip-path="url(#clip060)" d="M1129.82 3121.44 L1148.13 3121.44 L1148.13 3143.49 L1129.82 3143.49 L1129.82 3121.44 Z" fill="#000000" fill-rule="nonzero" fill-opacity="1" /><path clip-path="url(#clip060)" d="M1223.83 3025.43 Q1210.29 3025.43 1203.43 3038.8 Q1196.66 3052.08 1196.66 3078.82 Q1196.66 3105.47 1203.43 3118.84 Q1210.29 3132.12 1223.83 3132.12 Q1237.46 3132.12 1244.23 3118.84 Q1251.09 3105.47 1251.09 3078.82 Q1251.09 3052.08 1244.23 3038.8 Q1237.46 3025.43 1223.83 3025.43 M1223.83 3011.54 Q1245.62 3011.54 1257.08 3028.82 Q1268.62 3046.01 1268.62 3078.82 Q1268.62 3111.54 1257.08 3128.82 Q1245.62 3146.01 1223.83 3146.01 Q1202.04 3146.01 1190.5 3128.82 Q1179.04 3111.54 1179.04 3078.82 Q1179.04 3046.01 1190.5 3028.82 Q1202.04 3011.54 1223.83 3011.54 Z" fill="#000000" fill-rule="nonzero" fill-opacity="1" /><path clip-path="url(#clip060)" d="M1697.06 3128.73 L1725.7 3128.73 L1725.7 3029.86 L1694.54 3036.11 L1694.54 3020.14 L1725.53 3013.89 L1743.06 3013.89 L1743.06 3128.73 L1771.71 3128.73 L1771.71 3143.49 L1697.06 3143.49 L1697.06 3128.73 Z" fill="#000000" fill-rule="nonzero" fill-opacity="1" /><path clip-path="url(#clip060)" d="M1807.12 3121.44 L1825.44 3121.44 L1825.44 3143.49 L1807.12 3143.49 L1807.12 3121.44 Z" fill="#000000" fill-rule="nonzero" fill-opacity="1" /><path clip-path="url(#clip060)" d="M1863.81 3013.89 L1932.65 3013.89 L1932.65 3028.64 L1879.87 3028.64 L1879.87 3060.42 Q1883.69 3059.11 1887.51 3058.51 Q1891.33 3057.81 1895.15 3057.81 Q1916.85 3057.81 1929.52 3069.7 Q1942.19 3081.6 1942.19 3101.91 Q1942.19 3122.83 1929.17 3134.46 Q1916.15 3146.01 1892.45 3146.01 Q1884.29 3146.01 1875.79 3144.62 Q1867.37 3143.23 1858.34 3140.45 L1858.34 3122.83 Q1866.15 3127.08 1874.49 3129.17 Q1882.82 3131.25 1892.11 3131.25 Q1907.12 3131.25 1915.89 3123.35 Q1924.66 3115.45 1924.66 3101.91 Q1924.66 3088.37 1915.89 3080.47 Q1907.12 3072.57 1892.11 3072.57 Q1885.08 3072.57 1878.04 3074.13 Q1871.1 3075.69 1863.81 3078.99 L1863.81 3013.89 Z" fill="#000000" fill-rule="nonzero" fill-opacity="1" /><path clip-path="url(#clip060)" d="M2385.95 3128.73 L2447.15 3128.73 L2447.15 3143.49 L2364.86 3143.49 L2364.86 3128.73 Q2374.84 3118.4 2392.03 3101.04 Q2409.3 3083.59 2413.73 3078.56 Q2422.15 3069.1 2425.45 3062.59 Q2428.83 3055.99 2428.83 3049.65 Q2428.83 3039.32 2421.54 3032.81 Q2414.34 3026.3 2402.7 3026.3 Q2394.46 3026.3 2385.26 3029.17 Q2376.14 3032.03 2365.73 3037.85 L2365.73 3020.14 Q2376.32 3015.88 2385.52 3013.71 Q2394.72 3011.54 2402.36 3011.54 Q2422.5 3011.54 2434.47 3021.61 Q2446.45 3031.68 2446.45 3048.52 Q2446.45 3056.51 2443.42 3063.71 Q2440.46 3070.83 2432.57 3080.55 Q2430.39 3083.07 2418.76 3095.14 Q2407.13 3107.12 2385.95 3128.73 Z" fill="#000000" fill-rule="nonzero" fill-opacity="1" /><path clip-path="url(#clip060)" d="M2483.95 3121.44 L2502.27 3121.44 L2502.27 3143.49 L2483.95 3143.49 L2483.95 3121.44 Z" fill="#000000" fill-rule="nonzero" fill-opacity="1" /><path clip-path="url(#clip060)" d="M2577.96 3025.43 Q2564.42 3025.43 2557.56 3038.8 Q2550.79 3052.08 2550.79 3078.82 Q2550.79 3105.47 2557.56 3118.84 Q2564.42 3132.12 2577.96 3132.12 Q2591.59 3132.12 2598.36 3118.84 Q2605.22 3105.47 2605.22 3078.82 Q2605.22 3052.08 2598.36 3038.8 Q2591.59 3025.43 2577.96 3025.43 M2577.96 3011.54 Q2599.75 3011.54 2611.21 3028.82 Q2622.75 3046.01 2622.75 3078.82 Q2622.75 3111.54 2611.21 3128.82 Q2599.75 3146.01 2577.96 3146.01 Q2556.18 3146.01 2544.63 3128.82 Q2533.17 3111.54 2533.17 3078.82 Q2533.17 3046.01 2544.63 3028.82 Q2556.18 3011.54 2577.96 3011.54 Z" fill="#000000" fill-rule="nonzero" fill-opacity="1" /><path clip-path="url(#clip060)" d="M3063.26 3128.73 L3124.45 3128.73 L3124.45 3143.49 L3042.16 3143.49 L3042.16 3128.73 Q3052.15 3118.4 3069.33 3101.04 Q3086.61 3083.59 3091.03 3078.56 Q3099.45 3069.1 3102.75 3062.59 Q3106.14 3055.99 3106.14 3049.65 Q3106.14 3039.32 3098.85 3032.81 Q3091.64 3026.3 3080.01 3026.3 Q3071.76 3026.3 3062.56 3029.17 Q3053.45 3032.03 3043.03 3037.85 L3043.03 3020.14 Q3053.62 3015.88 3062.82 3013.71 Q3072.02 3011.54 3079.66 3011.54 Q3099.8 3011.54 3111.78 3021.61 Q3123.76 3031.68 3123.76 3048.52 Q3123.76 3056.51 3120.72 3063.71 Q3117.77 3070.83 3109.87 3080.55 Q3107.7 3083.07 3096.07 3095.14 Q3084.44 3107.12 3063.26 3128.73 Z" fill="#000000" fill-rule="nonzero" fill-opacity="1" /><path clip-path="url(#clip060)" d="M3161.26 3121.44 L3179.58 3121.44 L3179.58 3143.49 L3161.26 3143.49 L3161.26 3121.44 Z" fill="#000000" fill-rule="nonzero" fill-opacity="1" /><path clip-path="url(#clip060)" d="M3217.94 3013.89 L3286.78 3013.89 L3286.78 3028.64 L3234 3028.64 L3234 3060.42 Q3237.82 3059.11 3241.64 3058.51 Q3245.46 3057.81 3249.28 3057.81 Q3270.98 3057.81 3283.65 3069.7 Q3296.33 3081.6 3296.33 3101.91 Q3296.33 3122.83 3283.31 3134.46 Q3270.29 3146.01 3246.59 3146.01 Q3238.43 3146.01 3229.92 3144.62 Q3221.5 3143.23 3212.47 3140.45 L3212.47 3122.83 Q3220.29 3127.08 3228.62 3129.17 Q3236.95 3131.25 3246.24 3131.25 Q3261.26 3131.25 3270.03 3123.35 Q3278.79 3115.45 3278.79 3101.91 Q3278.79 3088.37 3270.03 3080.47 Q3261.26 3072.57 3246.24 3072.57 Q3239.21 3072.57 3232.18 3074.13 Q3225.24 3075.69 3217.94 3078.99 L3217.94 3013.89 Z" fill="#000000" fill-rule="nonzero" fill-opacity="1" /><path clip-path="url(#clip060)" d="M3774.59 3073.61 Q3787.18 3076.3 3794.21 3084.81 Q3801.33 3093.31 3801.33 3105.81 Q3801.33 3125 3788.13 3135.5 Q3774.94 3146.01 3750.63 3146.01 Q3742.47 3146.01 3733.79 3144.36 Q3725.2 3142.79 3716 3139.58 L3716 3122.65 Q3723.29 3126.91 3731.97 3129.08 Q3740.65 3131.25 3750.11 3131.25 Q3766.6 3131.25 3775.2 3124.74 Q3783.88 3118.23 3783.88 3105.81 Q3783.88 3094.36 3775.81 3087.93 Q3767.82 3081.42 3753.5 3081.42 L3738.39 3081.42 L3738.39 3067.01 L3754.19 3067.01 Q3767.13 3067.01 3773.98 3061.89 Q3780.84 3056.68 3780.84 3046.96 Q3780.84 3036.98 3773.72 3031.68 Q3766.69 3026.3 3753.5 3026.3 Q3746.29 3026.3 3738.05 3027.86 Q3729.8 3029.43 3719.9 3032.72 L3719.9 3017.1 Q3729.89 3014.32 3738.57 3012.93 Q3747.33 3011.54 3755.06 3011.54 Q3775.02 3011.54 3786.66 3020.66 Q3798.29 3029.69 3798.29 3045.14 Q3798.29 3055.9 3792.13 3063.37 Q3785.96 3070.75 3774.59 3073.61 Z" fill="#000000" fill-rule="nonzero" fill-opacity="1" /><path clip-path="url(#clip060)" d="M3834.57 3121.44 L3852.89 3121.44 L3852.89 3143.49 L3834.57 3143.49 L3834.57 3121.44 Z" fill="#000000" fill-rule="nonzero" fill-opacity="1" /><path clip-path="url(#clip060)" d="M3928.58 3025.43 Q3915.04 3025.43 3908.18 3038.8 Q3901.41 3052.08 3901.41 3078.82 Q3901.41 3105.47 3908.18 3118.84 Q3915.04 3132.12 3928.58 3132.12 Q3942.21 3132.12 3948.98 3118.84 Q3955.84 3105.47 3955.84 3078.82 Q3955.84 3052.08 3948.98 3038.8 Q3942.21 3025.43 3928.58 3025.43 M3928.58 3011.54 Q3950.37 3011.54 3961.83 3028.82 Q3973.37 3046.01 3973.37 3078.82 Q3973.37 3111.54 3961.83 3128.82 Q3950.37 3146.01 3928.58 3146.01 Q3906.79 3146.01 3895.25 3128.82 Q3883.79 3111.54 3883.79 3078.82 Q3883.79 3046.01 3895.25 3028.82 Q3906.79 3011.54 3928.58 3011.54 Z" fill="#000000" fill-rule="nonzero" fill-opacity="1" /><polyline clip-path="url(#clip062)" style="stroke:#000000; stroke-linecap:round; stroke-linejoin:round; stroke-width:2; stroke-opacity:0.1; fill:none" points="467.487,2949.49 3952.76,2949.49 "/>
<polyline clip-path="url(#clip062)" style="stroke:#000000; stroke-linecap:round; stroke-linejoin:round; stroke-width:2; stroke-opacity:0.1; fill:none" points="467.487,2289.89 3952.76,2289.89 "/>
<polyline clip-path="url(#clip062)" style="stroke:#000000; stroke-linecap:round; stroke-linejoin:round; stroke-width:2; stroke-opacity:0.1; fill:none" points="467.487,1630.29 3952.76,1630.29 "/>
<polyline clip-path="url(#clip062)" style="stroke:#000000; stroke-linecap:round; stroke-linejoin:round; stroke-width:2; stroke-opacity:0.1; fill:none" points="467.487,970.685 3952.76,970.685 "/>
<polyline clip-path="url(#clip062)" style="stroke:#000000; stroke-linecap:round; stroke-linejoin:round; stroke-width:2; stroke-opacity:0.1; fill:none" points="467.487,311.084 3952.76,311.084 "/>
<polyline clip-path="url(#clip060)" style="stroke:#000000; stroke-linecap:round; stroke-linejoin:round; stroke-width:4; stroke-opacity:1; fill:none" points="467.487,2949.49 467.487,47.2441 "/>
<polyline clip-path="url(#clip060)" style="stroke:#000000; stroke-linecap:round; stroke-linejoin:round; stroke-width:4; stroke-opacity:1; fill:none" points="3952.76,2949.49 3952.76,47.2441 "/>
<polyline clip-path="url(#clip060)" style="stroke:#000000; stroke-linecap:round; stroke-linejoin:round; stroke-width:4; stroke-opacity:1; fill:none" points="467.487,2949.49 486.384,2949.49 "/>
<polyline clip-path="url(#clip060)" style="stroke:#000000; stroke-linecap:round; stroke-linejoin:round; stroke-width:4; stroke-opacity:1; fill:none" points="467.487,2289.89 486.384,2289.89 "/>
<polyline clip-path="url(#clip060)" style="stroke:#000000; stroke-linecap:round; stroke-linejoin:round; stroke-width:4; stroke-opacity:1; fill:none" points="467.487,1630.29 486.384,1630.29 "/>
<polyline clip-path="url(#clip060)" style="stroke:#000000; stroke-linecap:round; stroke-linejoin:round; stroke-width:4; stroke-opacity:1; fill:none" points="467.487,970.685 486.384,970.685 "/>
<polyline clip-path="url(#clip060)" style="stroke:#000000; stroke-linecap:round; stroke-linejoin:round; stroke-width:4; stroke-opacity:1; fill:none" points="467.487,311.084 486.384,311.084 "/>
<path clip-path="url(#clip060)" d="M193.078 2896.23 Q179.537 2896.23 172.679 2909.6 Q165.908 2922.88 165.908 2949.62 Q165.908 2976.27 172.679 2989.64 Q179.537 3002.92 193.078 3002.92 Q206.707 3002.92 213.477 2989.64 Q220.335 2976.27 220.335 2949.62 Q220.335 2922.88 213.477 2909.6 Q206.707 2896.23 193.078 2896.23 M193.078 2882.34 Q214.866 2882.34 226.324 2899.62 Q237.87 2916.81 237.87 2949.62 Q237.87 2982.34 226.324 2999.62 Q214.866 3016.81 193.078 3016.81 Q171.29 3016.81 159.745 2999.62 Q148.287 2982.34 148.287 2949.62 Q148.287 2916.81 159.745 2899.62 Q171.29 2882.34 193.078 2882.34 Z" fill="#000000" fill-rule="nonzero" fill-opacity="1" /><path clip-path="url(#clip060)" d="M268.685 2992.24 L287.001 2992.24 L287.001 3014.29 L268.685 3014.29 L268.685 2992.24 Z" fill="#000000" fill-rule="nonzero" fill-opacity="1" /><path clip-path="url(#clip060)" d="M362.695 2896.23 Q349.154 2896.23 342.296 2909.6 Q335.525 2922.88 335.525 2949.62 Q335.525 2976.27 342.296 2989.64 Q349.154 3002.92 362.695 3002.92 Q376.324 3002.92 383.094 2989.64 Q389.952 2976.27 389.952 2949.62 Q389.952 2922.88 383.094 2909.6 Q376.324 2896.23 362.695 2896.23 M362.695 2882.34 Q384.483 2882.34 395.942 2899.62 Q407.487 2916.81 407.487 2949.62 Q407.487 2982.34 395.942 2999.62 Q384.483 3016.81 362.695 3016.81 Q340.907 3016.81 329.362 2999.62 Q317.904 2982.34 317.904 2949.62 Q317.904 2916.81 329.362 2899.62 Q340.907 2882.34 362.695 2882.34 Z" fill="#000000" fill-rule="nonzero" fill-opacity="1" /><path clip-path="url(#clip060)" d="M174.415 2339.93 L235.613 2339.93 L235.613 2354.69 L153.321 2354.69 L153.321 2339.93 Q163.304 2329.6 180.491 2312.24 Q197.766 2294.79 202.193 2289.76 Q210.613 2280.3 213.911 2273.78 Q217.297 2267.19 217.297 2260.85 Q217.297 2250.52 210.005 2244.01 Q202.8 2237.5 191.168 2237.5 Q182.922 2237.5 173.721 2240.36 Q164.606 2243.23 154.189 2249.05 L154.189 2231.34 Q164.78 2227.08 173.981 2224.91 Q183.182 2222.74 190.821 2222.74 Q210.96 2222.74 222.939 2232.81 Q234.918 2242.88 234.918 2259.72 Q234.918 2267.71 231.88 2274.91 Q228.929 2282.03 221.029 2291.75 Q218.859 2294.27 207.227 2306.34 Q195.595 2318.32 174.415 2339.93 Z" fill="#000000" fill-rule="nonzero" fill-opacity="1" /><path clip-path="url(#clip060)" d="M272.418 2332.64 L290.734 2332.64 L290.734 2354.69 L272.418 2354.69 L272.418 2332.64 Z" fill="#000000" fill-rule="nonzero" fill-opacity="1" /><path clip-path="url(#clip060)" d="M329.102 2225.09 L397.938 2225.09 L397.938 2239.84 L345.161 2239.84 L345.161 2271.61 Q348.98 2270.31 352.799 2269.7 Q356.619 2269.01 360.438 2269.01 Q382.14 2269.01 394.813 2280.9 Q407.487 2292.79 407.487 2313.11 Q407.487 2334.03 394.466 2345.66 Q381.445 2357.2 357.747 2357.2 Q349.588 2357.2 341.081 2355.82 Q332.661 2354.43 323.633 2351.65 L323.633 2334.03 Q331.445 2338.28 339.779 2340.36 Q348.112 2342.45 357.4 2342.45 Q372.417 2342.45 381.185 2334.55 Q389.952 2326.65 389.952 2313.11 Q389.952 2299.57 381.185 2291.67 Q372.417 2283.77 357.4 2283.77 Q350.369 2283.77 343.338 2285.33 Q336.393 2286.89 329.102 2290.19 L329.102 2225.09 Z" fill="#000000" fill-rule="nonzero" fill-opacity="1" /><path clip-path="url(#clip060)" d="M155.752 1565.49 L224.588 1565.49 L224.588 1580.24 L171.811 1580.24 L171.811 1612.01 Q175.63 1610.71 179.45 1610.1 Q183.269 1609.41 187.089 1609.41 Q208.79 1609.41 221.463 1621.3 Q234.137 1633.19 234.137 1653.51 Q234.137 1674.43 221.116 1686.06 Q208.095 1697.6 184.398 1697.6 Q176.238 1697.6 167.731 1696.21 Q159.311 1694.83 150.283 1692.05 L150.283 1674.43 Q158.096 1678.68 166.429 1680.76 Q174.762 1682.85 184.05 1682.85 Q199.068 1682.85 207.835 1674.95 Q216.602 1667.05 216.602 1653.51 Q216.602 1639.96 207.835 1632.07 Q199.068 1624.17 184.05 1624.17 Q177.019 1624.17 169.988 1625.73 Q163.044 1627.29 155.752 1630.59 L155.752 1565.49 Z" fill="#000000" fill-rule="nonzero" fill-opacity="1" /><path clip-path="url(#clip060)" d="M268.685 1673.04 L287.001 1673.04 L287.001 1695.09 L268.685 1695.09 L268.685 1673.04 Z" fill="#000000" fill-rule="nonzero" fill-opacity="1" /><path clip-path="url(#clip060)" d="M362.695 1577.03 Q349.154 1577.03 342.296 1590.4 Q335.525 1603.68 335.525 1630.42 Q335.525 1657.07 342.296 1670.43 Q349.154 1683.71 362.695 1683.71 Q376.324 1683.71 383.094 1670.43 Q389.952 1657.07 389.952 1630.42 Q389.952 1603.68 383.094 1590.4 Q376.324 1577.03 362.695 1577.03 M362.695 1563.14 Q384.483 1563.14 395.942 1580.42 Q407.487 1597.6 407.487 1630.42 Q407.487 1663.14 395.942 1680.42 Q384.483 1697.6 362.695 1697.6 Q340.907 1697.6 329.362 1680.42 Q317.904 1663.14 317.904 1630.42 Q317.904 1597.6 329.362 1580.42 Q340.907 1563.14 362.695 1563.14 Z" fill="#000000" fill-rule="nonzero" fill-opacity="1" /><path clip-path="url(#clip060)" d="M154.884 905.885 L238.217 905.885 L238.217 913.351 L191.168 1035.49 L172.853 1035.49 L217.123 920.642 L154.884 920.642 L154.884 905.885 Z" fill="#000000" fill-rule="nonzero" fill-opacity="1" /><path clip-path="url(#clip060)" d="M272.418 1013.44 L290.734 1013.44 L290.734 1035.49 L272.418 1035.49 L272.418 1013.44 Z" fill="#000000" fill-rule="nonzero" fill-opacity="1" /><path clip-path="url(#clip060)" d="M329.102 905.885 L397.938 905.885 L397.938 920.642 L345.161 920.642 L345.161 952.413 Q348.98 951.111 352.799 950.503 Q356.619 949.809 360.438 949.809 Q382.14 949.809 394.813 961.701 Q407.487 973.593 407.487 993.906 Q407.487 1014.83 394.466 1026.46 Q381.445 1038 357.747 1038 Q349.588 1038 341.081 1036.61 Q332.661 1035.22 323.633 1032.45 L323.633 1014.83 Q331.445 1019.08 339.779 1021.16 Q348.112 1023.25 357.4 1023.25 Q372.417 1023.25 381.185 1015.35 Q389.952 1007.45 389.952 993.906 Q389.952 980.364 381.185 972.465 Q372.417 964.566 357.4 964.566 Q350.369 964.566 343.338 966.128 Q336.393 967.691 329.102 970.989 L329.102 905.885 Z" fill="#000000" fill-rule="nonzero" fill-opacity="1" /><path clip-path="url(#clip060)" d="M45.5095 361.128 L74.1552 361.128 L74.1552 262.257 L42.9921 268.507 L42.9921 252.534 L73.9815 246.284 L91.5162 246.284 L91.5162 361.128 L120.162 361.128 L120.162 375.884 L45.5095 375.884 L45.5095 361.128 Z" fill="#000000" fill-rule="nonzero" fill-opacity="1" /><path clip-path="url(#clip060)" d="M193.078 257.83 Q179.537 257.83 172.679 271.197 Q165.908 284.479 165.908 311.215 Q165.908 337.864 172.679 351.232 Q179.537 364.513 193.078 364.513 Q206.707 364.513 213.477 351.232 Q220.335 337.864 220.335 311.215 Q220.335 284.479 213.477 271.197 Q206.707 257.83 193.078 257.83 M193.078 243.941 Q214.866 243.941 226.324 261.215 Q237.87 278.402 237.87 311.215 Q237.87 343.94 226.324 361.214 Q214.866 378.402 193.078 378.402 Q171.29 378.402 159.745 361.214 Q148.287 343.94 148.287 311.215 Q148.287 278.402 159.745 261.215 Q171.29 243.941 193.078 243.941 Z" fill="#000000" fill-rule="nonzero" fill-opacity="1" /><path clip-path="url(#clip060)" d="M268.685 353.836 L287.001 353.836 L287.001 375.884 L268.685 375.884 L268.685 353.836 Z" fill="#000000" fill-rule="nonzero" fill-opacity="1" /><path clip-path="url(#clip060)" d="M362.695 257.83 Q349.154 257.83 342.296 271.197 Q335.525 284.479 335.525 311.215 Q335.525 337.864 342.296 351.232 Q349.154 364.513 362.695 364.513 Q376.324 364.513 383.094 351.232 Q389.952 337.864 389.952 311.215 Q389.952 284.479 383.094 271.197 Q376.324 257.83 362.695 257.83 M362.695 243.941 Q384.483 243.941 395.942 261.215 Q407.487 278.402 407.487 311.215 Q407.487 343.94 395.942 361.214 Q384.483 378.402 362.695 378.402 Q340.907 378.402 329.362 361.214 Q317.904 343.94 317.904 311.215 Q317.904 278.402 329.362 261.215 Q340.907 243.941 362.695 243.941 Z" fill="#000000" fill-rule="nonzero" fill-opacity="1" /><polyline clip-path="url(#clip062)" style="stroke:#009af9; stroke-linecap:round; stroke-linejoin:round; stroke-width:24; stroke-opacity:1; fill:none" points="467.487,1128.99 1142.93,785.997 1818.37,574.925 2493.81,522.157 3169.25,627.693 3844.69,838.765 "/>
<polyline clip-path="url(#clip062)" style="stroke:#e26f46; stroke-linecap:round; stroke-linejoin:round; stroke-width:24; stroke-opacity:1; fill:none" points="467.487,1128.99 1142.93,785.997 1818.37,574.925 2493.81,522.157 3169.25,627.693 3844.69,838.765 "/>
<polyline clip-path="url(#clip062)" style="stroke:#3da44d; stroke-linecap:round; stroke-linejoin:round; stroke-width:24; stroke-opacity:1; fill:none" stroke-dasharray="96, 48, 12, 48" points="467.487,1128.99 1142.93,785.997 1818.37,574.925 2493.81,522.157 3169.25,654.077 3844.69,865.149 "/>
<polyline clip-path="url(#clip062)" style="stroke:#c271d2; stroke-linecap:round; stroke-linejoin:round; stroke-width:24; stroke-opacity:1; fill:none" stroke-dasharray="96, 60" points="467.487,1128.99 1142.93,785.997 1818.37,574.925 2493.81,522.157 3169.25,654.077 3844.69,865.149 "/>
</svg>
