<?xml version="1.0" encoding="utf-8"?>
<svg xmlns="http://www.w3.org/2000/svg" xmlns:xlink="http://www.w3.org/1999/xlink" width="1000" height="800" viewBox="0 0 4000 3200">
<defs>
  <clipPath id="clip190">
    <rect x="0" y="0" width="4000" height="3200"/>
  </clipPath>
</defs>
<path clip-path="url(#clip190)" d="M0 3200 L4000 3200 L4000 0 L0 0  Z" fill="#ffffff" fill-rule="evenodd" fill-opacity="1"/>
<defs>
  <clipPath id="clip191">
    <rect x="800" y="0" width="2801" height="2801"/>
  </clipPath>
</defs>
<path clip-path="url(#clip190)" d="M690.595 2726.38 L3952.76 2726.38 L3952.76 47.2441 L690.595 47.2441  Z" fill="#ffffff" fill-rule="evenodd" fill-opacity="1"/>
<defs>
  <clipPath id="clip192">
    <rect x="690" y="47" width="3263" height="2680"/>
  </clipPath>
</defs>
<polyline clip-path="url(#clip192)" style="stroke:#000000; stroke-linecap:round; stroke-linejoin:round; stroke-width:2; stroke-opacity:0.1; fill:none" points="690.595,2726.38 690.595,47.2441 "/>
<polyline clip-path="url(#clip192)" style="stroke:#000000; stroke-linecap:round; stroke-linejoin:round; stroke-width:2; stroke-opacity:0.1; fill:none" points="1322.8,2726.38 1322.8,47.2441 "/>
<polyline clip-path="url(#clip192)" style="stroke:#000000; stroke-linecap:round; stroke-linejoin:round; stroke-width:2; stroke-opacity:0.1; fill:none" points="1955,2726.38 1955,47.2441 "/>
<polyline clip-path="url(#clip192)" style="stroke:#000000; stroke-linecap:round; stroke-linejoin:round; stroke-width:2; stroke-opacity:0.1; fill:none" points="2587.2,2726.38 2587.2,47.2441 "/>
<polyline clip-path="url(#clip192)" style="stroke:#000000; stroke-linecap:round; stroke-linejoin:round; stroke-width:2; stroke-opacity:0.1; fill:none" points="3219.4,2726.38 3219.4,47.2441 "/>
<polyline clip-path="url(#clip192)" style="stroke:#000000; stroke-linecap:round; stroke-linejoin:round; stroke-width:2; stroke-opacity:0.1; fill:none" points="3851.6,2726.38 3851.6,47.2441 "/>
<polyline clip-path="url(#clip190)" style="stroke:#000000; stroke-linecap:round; stroke-linejoin:round; stroke-width:4; stroke-opacity:1; fill:none" points="690.595,2726.38 3952.76,2726.38 "/>
<polyline clip-path="url(#clip190)" style="stroke:#000000; stroke-linecap:round; stroke-linejoin:round; stroke-width:4; stroke-opacity:1; fill:none" points="690.595,47.2441 3952.76,47.2441 "/>
<polyline clip-path="url(#clip190)" style="stroke:#000000; stroke-linecap:round; stroke-linejoin:round; stroke-width:4; stroke-opacity:1; fill:none" points="690.595,2726.38 690.595,2707.48 "/>
<polyline clip-path="url(#clip190)" style="stroke:#000000; stroke-linecap:round; stroke-linejoin:round; stroke-width:4; stroke-opacity:1; fill:none" points="1322.8,2726.38 1322.8,2707.48 "/>
<polyline clip-path="url(#clip190)" style="stroke:#000000; stroke-linecap:round; stroke-linejoin:round; stroke-width:4; stroke-opacity:1; fill:none" points="1955,2726.38 1955,2707.48 "/>
<polyline clip-path="url(#clip190)" style="stroke:#000000; stroke-linecap:round; stroke-linejoin:round; stroke-width:4; stroke-opacity:1; fill:none" points="2587.2,2726.38 2587.2,2707.48 "/>
<polyline clip-path="url(#clip190)" style="stroke:#000000; stroke-linecap:round; stroke-linejoin:round; stroke-width:4; stroke-opacity:1; fill:none" points="3219.4,2726.38 3219.4,2707.48 "/>
<polyline clip-path="url(#clip190)" style="stroke:#000000; stroke-linecap:round; stroke-linejoin:round; stroke-width:4; stroke-opacity:1; fill:none" points="3851.6,2726.38 3851.6,2707.48 "/>
<path clip-path="url(#clip190)" d="M607.652 2802.32 Q594.111 2802.32 587.253 2815.69 Q580.482 2828.97 580.482 2855.71 Q580.482 2882.36 587.253 2895.73 Q594.111 2909.01 607.652 2909.01 Q621.281 2909.01 628.052 2895.73 Q634.909 2882.36 634.909 2855.71 Q634.909 2828.97 628.052 2815.69 Q621.281 2802.32 607.652 2802.32 M607.652 2788.44 Q629.441 2788.44 640.899 2805.71 Q652.444 2822.9 652.444 2855.71 Q652.444 2888.44 640.899 2905.71 Q629.441 2922.9 607.652 2922.9 Q585.864 2922.9 574.319 2905.71 Q562.861 2888.44 562.861 2855.71 Q562.861 2822.9 574.319 2805.71 Q585.864 2788.44 607.652 2788.44 Z" fill="#000000" fill-rule="nonzero" fill-opacity="1" /><path clip-path="url(#clip190)" d="M683.26 2898.33 L701.576 2898.33 L701.576 2920.38 L683.26 2920.38 L683.26 2898.33 Z" fill="#000000" fill-rule="nonzero" fill-opacity="1" /><path clip-path="url(#clip190)" d="M739.943 2790.78 L808.78 2790.78 L808.78 2805.54 L756.002 2805.54 L756.002 2837.31 Q759.822 2836.01 763.641 2835.4 Q767.461 2834.7 771.28 2834.7 Q792.981 2834.7 805.655 2846.6 Q818.328 2858.49 818.328 2878.8 Q818.328 2899.72 805.308 2911.35 Q792.287 2922.9 768.589 2922.9 Q760.429 2922.9 751.923 2921.51 Q743.502 2920.12 734.475 2917.34 L734.475 2899.72 Q742.287 2903.97 750.62 2906.06 Q758.954 2908.14 768.242 2908.14 Q783.259 2908.14 792.026 2900.24 Q800.794 2892.34 800.794 2878.8 Q800.794 2865.26 792.026 2857.36 Q783.259 2849.46 768.242 2849.46 Q761.211 2849.46 754.179 2851.02 Q747.235 2852.59 739.943 2855.88 L739.943 2790.78 Z" fill="#000000" fill-rule="nonzero" fill-opacity="1" /><path clip-path="url(#clip190)" d="M1199.62 2905.62 L1228.27 2905.62 L1228.27 2806.75 L1197.1 2813 L1197.1 2797.03 L1228.09 2790.78 L1245.63 2790.78 L1245.63 2905.62 L1274.27 2905.62 L1274.27 2920.38 L1199.62 2920.38 L1199.62 2905.62 Z" fill="#000000" fill-rule="nonzero" fill-opacity="1" /><path clip-path="url(#clip190)" d="M1309.69 2898.33 L1328 2898.33 L1328 2920.38 L1309.69 2920.38 L1309.69 2898.33 Z" fill="#000000" fill-rule="nonzero" fill-opacity="1" /><path clip-path="url(#clip190)" d="M1403.7 2802.32 Q1390.16 2802.32 1383.3 2815.69 Q1376.53 2828.97 1376.53 2855.71 Q1376.53 2882.36 1383.3 2895.73 Q1390.16 2909.01 1403.7 2909.01 Q1417.33 2909.01 1424.1 2895.73 Q1430.96 2882.36 1430.96 2855.71 Q1430.96 2828.97 1424.1 2815.69 Q1417.33 2802.32 1403.7 2802.32 M1403.7 2788.44 Q1425.49 2788.44 1436.95 2805.71 Q1448.49 2822.9 1448.49 2855.71 Q1448.49 2888.44 1436.95 2905.71 Q1425.49 2922.9 1403.7 2922.9 Q1381.91 2922.9 1370.37 2905.71 Q1358.91 2888.44 1358.91 2855.71 Q1358.91 2822.9 1370.37 2805.71 Q1381.91 2788.44 1403.7 2788.44 Z" fill="#000000" fill-rule="nonzero" fill-opacity="1" /><path clip-path="url(#clip190)" d="M1833.69 2905.62 L1862.33 2905.62 L1862.33 2806.75 L1831.17 2813 L1831.17 2797.03 L1862.16 2790.78 L1879.69 2790.78 L1879.69 2905.62 L1908.34 2905.62 L1908.34 2920.38 L1833.69 2920.38 L1833.69 2905.62 Z" fill="#000000" fill-rule="nonzero" fill-opacity="1" /><path clip-path="url(#clip190)" d="M1943.76 2898.33 L1962.07 2898.33 L1962.07 2920.38 L1943.76 2920.38 L1943.76 2898.33 Z" fill="#000000" fill-rule="nonzero" fill-opacity="1" /><path clip-path="url(#clip190)" d="M2000.44 2790.78 L2069.28 2790.78 L2069.28 2805.54 L2016.5 2805.54 L2016.5 2837.31 Q2020.32 2836.01 2024.14 2835.4 Q2027.96 2834.7 2031.78 2834.7 Q2053.48 2834.7 2066.15 2846.6 Q2078.83 2858.49 2078.83 2878.8 Q2078.83 2899.72 2065.8 2911.35 Q2052.78 2922.9 2029.09 2922.9 Q2020.93 2922.9 2012.42 2921.51 Q2004 2920.12 1994.97 2917.34 L1994.97 2899.72 Q2002.78 2903.97 2011.12 2906.06 Q2019.45 2908.14 2028.74 2908.14 Q2043.76 2908.14 2052.52 2900.24 Q2061.29 2892.34 2061.29 2878.8 Q2061.29 2865.26 2052.52 2857.36 Q2043.76 2849.46 2028.74 2849.46 Q2021.71 2849.46 2014.68 2851.02 Q2007.73 2852.59 2000.44 2855.88 L2000.44 2790.78 Z" fill="#000000" fill-rule="nonzero" fill-opacity="1" /><path clip-path="url(#clip190)" d="M2479.34 2905.62 L2540.54 2905.62 L2540.54 2920.38 L2458.25 2920.38 L2458.25 2905.62 Q2468.23 2895.29 2485.42 2877.93 Q2502.7 2860.48 2507.12 2855.45 Q2515.54 2845.99 2518.84 2839.48 Q2522.23 2832.88 2522.23 2826.54 Q2522.23 2816.21 2514.93 2809.7 Q2507.73 2803.19 2496.1 2803.19 Q2487.85 2803.19 2478.65 2806.06 Q2469.54 2808.92 2459.12 2814.74 L2459.12 2797.03 Q2469.71 2792.78 2478.91 2790.61 Q2488.11 2788.44 2495.75 2788.44 Q2515.89 2788.44 2527.87 2798.51 Q2539.85 2808.57 2539.85 2825.42 Q2539.85 2833.4 2536.81 2840.61 Q2533.86 2847.72 2525.96 2857.45 Q2523.79 2859.96 2512.16 2872.03 Q2500.53 2884.01 2479.34 2905.62 Z" fill="#000000" fill-rule="nonzero" fill-opacity="1" /><path clip-path="url(#clip190)" d="M2577.35 2898.33 L2595.66 2898.33 L2595.66 2920.38 L2577.35 2920.38 L2577.35 2898.33 Z" fill="#000000" fill-rule="nonzero" fill-opacity="1" /><path clip-path="url(#clip190)" d="M2671.36 2802.32 Q2657.82 2802.32 2650.96 2815.69 Q2644.19 2828.97 2644.19 2855.71 Q2644.19 2882.36 2650.96 2895.73 Q2657.82 2909.01 2671.36 2909.01 Q2684.99 2909.01 2691.76 2895.73 Q2698.61 2882.36 2698.61 2855.71 Q2698.61 2828.97 2691.76 2815.69 Q2684.99 2802.32 2671.36 2802.32 M2671.36 2788.44 Q2693.15 2788.44 2704.6 2805.71 Q2716.15 2822.9 2716.15 2855.71 Q2716.15 2888.44 2704.6 2905.71 Q2693.15 2922.9 2671.36 2922.9 Q2649.57 2922.9 2638.02 2905.71 Q2626.57 2888.44 2626.57 2855.71 Q2626.57 2822.9 2638.02 2805.71 Q2649.57 2788.44 2671.36 2788.44 Z" fill="#000000" fill-rule="nonzero" fill-opacity="1" /><path clip-path="url(#clip190)" d="M3113.41 2905.62 L3174.61 2905.62 L3174.61 2920.38 L3092.32 2920.38 L3092.32 2905.62 Q3102.3 2895.29 3119.49 2877.93 Q3136.76 2860.48 3141.19 2855.45 Q3149.61 2845.99 3152.91 2839.48 Q3156.29 2832.88 3156.29 2826.54 Q3156.29 2816.21 3149 2809.7 Q3141.8 2803.19 3130.17 2803.19 Q3121.92 2803.19 3112.72 2806.06 Q3103.6 2808.92 3093.19 2814.74 L3093.19 2797.03 Q3103.78 2792.78 3112.98 2790.61 Q3122.18 2788.44 3129.82 2788.44 Q3149.96 2788.44 3161.94 2798.51 Q3173.92 2808.57 3173.92 2825.42 Q3173.92 2833.4 3170.88 2840.61 Q3167.93 2847.72 3160.03 2857.45 Q3157.86 2859.96 3146.23 2872.03 Q3134.59 2884.01 3113.41 2905.62 Z" fill="#000000" fill-rule="nonzero" fill-opacity="1" /><path clip-path="url(#clip190)" d="M3211.42 2898.33 L3229.73 2898.33 L3229.73 2920.38 L3211.42 2920.38 L3211.42 2898.33 Z" fill="#000000" fill-rule="nonzero" fill-opacity="1" /><path clip-path="url(#clip190)" d="M3268.1 2790.78 L3336.94 2790.78 L3336.94 2805.54 L3284.16 2805.54 L3284.16 2837.31 Q3287.98 2836.01 3291.8 2835.4 Q3295.62 2834.7 3299.44 2834.7 Q3321.14 2834.7 3333.81 2846.6 Q3346.48 2858.49 3346.48 2878.8 Q3346.48 2899.72 3333.46 2911.35 Q3320.44 2922.9 3296.75 2922.9 Q3288.59 2922.9 3280.08 2921.51 Q3271.66 2920.12 3262.63 2917.34 L3262.63 2899.72 Q3270.44 2903.97 3278.78 2906.06 Q3287.11 2908.14 3296.4 2908.14 Q3311.42 2908.14 3320.18 2900.24 Q3328.95 2892.34 3328.95 2878.8 Q3328.95 2865.26 3320.18 2857.36 Q3311.42 2849.46 3296.4 2849.46 Q3289.37 2849.46 3282.34 2851.02 Q3275.39 2852.59 3268.1 2855.88 L3268.1 2790.78 Z" fill="#000000" fill-rule="nonzero" fill-opacity="1" /><path clip-path="url(#clip190)" d="M3781.51 2850.5 Q3794.1 2853.19 3801.13 2861.7 Q3808.24 2870.21 3808.24 2882.71 Q3808.24 2901.89 3795.05 2912.39 Q3781.86 2922.9 3757.55 2922.9 Q3749.39 2922.9 3740.71 2921.25 Q3732.12 2919.69 3722.92 2916.47 L3722.92 2899.55 Q3730.21 2903.8 3738.89 2905.97 Q3747.57 2908.14 3757.03 2908.14 Q3773.52 2908.14 3782.12 2901.63 Q3790.8 2895.12 3790.8 2882.71 Q3790.8 2871.25 3782.72 2864.82 Q3774.74 2858.31 3760.41 2858.31 L3745.31 2858.31 L3745.31 2843.9 L3761.11 2843.9 Q3774.04 2843.9 3780.9 2838.78 Q3787.76 2833.57 3787.76 2823.85 Q3787.76 2813.87 3780.64 2808.57 Q3773.61 2803.19 3760.41 2803.19 Q3753.21 2803.19 3744.96 2804.76 Q3736.72 2806.32 3726.82 2809.62 L3726.82 2793.99 Q3736.8 2791.21 3745.48 2789.82 Q3754.25 2788.44 3761.98 2788.44 Q3781.94 2788.44 3793.57 2797.55 Q3805.21 2806.58 3805.21 2822.03 Q3805.21 2832.79 3799.04 2840.26 Q3792.88 2847.64 3781.51 2850.5 Z" fill="#000000" fill-rule="nonzero" fill-opacity="1" /><path clip-path="url(#clip190)" d="M3841.49 2898.33 L3859.81 2898.33 L3859.81 2920.38 L3841.49 2920.38 L3841.49 2898.33 Z" fill="#000000" fill-rule="nonzero" fill-opacity="1" /><path clip-path="url(#clip190)" d="M3935.5 2802.32 Q3921.96 2802.32 3915.1 2815.69 Q3908.33 2828.97 3908.33 2855.71 Q3908.33 2882.36 3915.1 2895.73 Q3921.96 2909.01 3935.5 2909.01 Q3949.13 2909.01 3955.9 2895.73 Q3962.76 2882.36 3962.76 2855.71 Q3962.76 2828.97 3955.9 2815.69 Q3949.13 2802.32 3935.5 2802.32 M3935.5 2788.44 Q3957.29 2788.44 3968.75 2805.71 Q3980.29 2822.9 3980.29 2855.71 Q3980.29 2888.44 3968.75 2905.71 Q3957.29 2922.9 3935.5 2922.9 Q3913.71 2922.9 3902.17 2905.71 Q3890.71 2888.44 3890.71 2855.71 Q3890.71 2822.9 3902.17 2805.71 Q3913.71 2788.44 3935.5 2788.44 Z" fill="#000000" fill-rule="nonzero" fill-opacity="1" /><path clip-path="url(#clip190)" d="M1787.12 3165.54 L1787.12 3158.16 L1792.86 3158.16 Q1805.86 3158.16 1808.79 3156.05 Q1811.83 3153.83 1811.83 3146.8 L1811.83 3020.44 Q1811.83 3013.53 1808.79 3011.42 Q1805.74 3009.2 1792.86 3009.2 L1787.12 3009.2 L1787.12 3001.7 Q1795.55 3002.4 1823.54 3002.4 Q1855.16 3002.4 1863.83 3001.7 L1863.83 3009.2 L1855.87 3009.2 Q1844.86 3009.2 1839.82 3010.6 Q1834.79 3012.01 1833.97 3014 Q1833.15 3015.87 1833.15 3020.67 L1833.15 3148.56 Q1833.15 3154.77 1834.9 3156.52 Q1836.78 3158.16 1844.86 3158.16 L1864.53 3158.16 Q1876.71 3158.16 1885.5 3154.53 Q1894.28 3150.9 1898.96 3146.33 Q1903.65 3141.77 1906.69 3133.22 Q1909.86 3124.55 1910.79 3119.05 Q1911.85 3113.54 1912.78 3103.71 L1918.76 3103.71 L1912.08 3165.54 L1787.12 3165.54 Z" fill="#000000" fill-rule="nonzero" fill-opacity="1" /><path clip-path="url(#clip190)" d="M1951.4 3152.66 Q1935.59 3136.97 1935.59 3114.25 Q1935.59 3091.41 1951.05 3074.78 Q1966.63 3058.03 1988.88 3058.03 Q2010.66 3058.03 2026.24 3074.66 Q2041.93 3091.17 2041.93 3114.25 Q2041.93 3136.85 2026.12 3152.54 Q2010.43 3168.23 1988.64 3168.23 Q1967.33 3168.23 1951.4 3152.66 M1955.5 3112.25 Q1955.5 3135.56 1961.59 3146.1 Q1970.96 3162.14 1988.88 3162.14 Q1997.78 3162.14 2005.16 3157.34 Q2012.65 3152.54 2016.75 3144.46 Q2022.02 3133.92 2022.02 3112.25 Q2022.02 3089.18 2015.7 3078.99 Q2006.33 3063.42 1988.64 3063.42 Q1980.91 3063.42 1973.3 3067.52 Q1965.81 3071.5 1961.24 3079.46 Q1955.5 3090 1955.5 3112.25 Z" fill="#000000" fill-rule="nonzero" fill-opacity="1" /><path clip-path="url(#clip190)" d="M2054.37 3142.7 Q2054.37 3122.33 2078.38 3111.55 Q2092.78 3104.64 2122.53 3102.89 L2122.53 3094.1 Q2122.53 3079.23 2114.68 3071.38 Q2106.95 3063.42 2097.11 3063.42 Q2079.55 3063.42 2071.12 3074.43 Q2078.26 3074.66 2080.84 3078.29 Q2083.41 3081.81 2083.41 3085.44 Q2083.41 3090.24 2080.37 3093.4 Q2077.44 3096.44 2072.4 3096.44 Q2067.6 3096.44 2064.44 3093.52 Q2061.28 3090.47 2061.28 3085.2 Q2061.28 3073.49 2071.82 3065.76 Q2082.48 3058.03 2097.58 3058.03 Q2117.26 3058.03 2130.37 3071.27 Q2134.47 3075.36 2136.46 3080.63 Q2138.57 3085.9 2138.81 3089.42 Q2139.04 3092.81 2139.04 3099.61 L2139.04 3147.51 Q2139.04 3148.91 2139.51 3151.25 Q2139.98 3153.6 2142.09 3156.64 Q2144.31 3159.57 2147.94 3159.57 Q2156.61 3159.57 2156.49 3144.23 L2156.49 3130.76 L2162.58 3130.76 L2162.58 3144.23 Q2162.58 3156.99 2155.79 3162.03 Q2149.11 3166.95 2142.91 3166.95 Q2134.94 3166.95 2129.91 3161.09 Q2124.87 3155.23 2124.17 3147.27 Q2120.54 3156.41 2112.22 3162.38 Q2104.02 3168.23 2092.78 3168.23 Q2084.11 3168.23 2075.92 3166.01 Q2067.84 3163.9 2061.04 3157.93 Q2054.37 3151.84 2054.37 3142.7 M2072.87 3142.47 Q2072.87 3151.37 2079.2 3157.11 Q2085.52 3162.85 2094.42 3162.85 Q2104.49 3162.85 2113.51 3155.12 Q2122.53 3147.27 2122.53 3131.93 L2122.53 3107.92 Q2095.94 3108.86 2084.35 3119.52 Q2072.87 3130.06 2072.87 3142.47 Z" fill="#000000" fill-rule="nonzero" fill-opacity="1" /><path clip-path="url(#clip190)" d="M2173.14 3114.01 Q2173.14 3091.17 2189.07 3075.36 Q2205 3059.55 2226.55 3059.55 Q2244.82 3059.55 2256.76 3074.43 L2256.76 3022.55 Q2256.76 3013.65 2253.6 3011.42 Q2250.56 3009.2 2238.14 3009.2 L2238.14 3001.7 L2272.69 2999.12 L2272.69 3144.69 Q2272.69 3153.6 2275.73 3155.94 Q2278.9 3158.16 2291.31 3158.16 L2291.31 3165.54 L2256.06 3168.23 L2256.06 3152.31 Q2243.65 3168.12 2223.97 3168.23 Q2203.36 3168.23 2188.25 3152.42 Q2173.14 3136.61 2173.14 3114.01 M2193.05 3114.25 Q2193.05 3136.5 2199.96 3147.51 Q2209.57 3162.85 2225.14 3162.85 Q2242.94 3162.85 2253.48 3146.1 Q2256.18 3142 2256.06 3137.2 L2256.06 3088.01 Q2256.06 3083.21 2253.48 3079.23 Q2243.65 3064.82 2227.6 3064.82 Q2210.85 3064.82 2200.43 3080.17 Q2193.05 3091.64 2193.05 3114.25 Z" fill="#000000" fill-rule="nonzero" fill-opacity="1" /><path clip-path="url(#clip190)" d="M2368.28 3162.38 L2368.28 3130.76 Q2368.28 3128.06 2368.4 3127.13 Q2368.52 3126.19 2369.22 3125.49 Q2369.92 3124.79 2371.33 3124.79 Q2372.97 3124.79 2373.55 3125.49 Q2374.25 3126.19 2374.72 3128.88 Q2378.35 3145.4 2386.08 3154.18 Q2393.93 3162.85 2408.1 3162.85 Q2421.57 3162.85 2428.36 3156.87 Q2435.15 3150.9 2435.15 3141.06 Q2435.15 3123.5 2410.21 3119.05 Q2395.8 3116.12 2389.83 3114.25 Q2383.86 3112.25 2378.59 3107.92 Q2368.28 3099.49 2368.28 3087.54 Q2368.28 3075.6 2377.3 3066.81 Q2386.43 3058.03 2406.58 3058.03 Q2420.04 3058.03 2429.18 3064.82 Q2431.87 3062.72 2433.28 3060.96 Q2436.44 3058.03 2438.08 3058.03 Q2439.95 3058.03 2440.31 3059.32 Q2440.66 3060.49 2440.66 3063.89 L2440.66 3088.01 Q2440.66 3090.71 2440.54 3091.64 Q2440.42 3092.58 2439.72 3093.28 Q2439.02 3093.87 2437.49 3093.87 Q2434.8 3093.87 2434.68 3091.64 Q2432.81 3062.6 2406.58 3062.6 Q2392.41 3062.6 2386.08 3068.1 Q2379.76 3073.49 2379.76 3080.87 Q2379.76 3084.97 2381.63 3088.13 Q2383.62 3091.17 2386.08 3093.05 Q2388.66 3094.8 2393.34 3096.56 Q2398.03 3098.2 2400.84 3098.79 Q2403.77 3099.37 2409.27 3100.54 Q2428.48 3104.17 2436.56 3112.02 Q2446.63 3122.09 2446.63 3134.86 Q2446.63 3149.03 2437.03 3158.63 Q2427.42 3168.23 2408.1 3168.23 Q2392.52 3168.23 2381.63 3157.81 Q2380.23 3159.22 2379.17 3160.5 Q2378.12 3161.68 2377.65 3162.14 Q2377.3 3162.61 2377.18 3162.96 Q2377.06 3163.2 2376.83 3163.43 Q2372.03 3168.23 2370.86 3168.23 Q2368.98 3168.23 2368.63 3166.95 Q2368.28 3165.77 2368.28 3162.38 Z" fill="#000000" fill-rule="nonzero" fill-opacity="1" /><path clip-path="url(#clip190)" d="M2476.04 3152.42 Q2460.81 3136.5 2460.81 3113.78 Q2460.81 3090.94 2475.8 3074.54 Q2490.79 3058.03 2512.81 3058.03 Q2527.45 3058.03 2538.46 3065.06 Q2549.46 3071.97 2549.46 3083.8 Q2549.46 3089.07 2546.3 3092.11 Q2543.26 3095.04 2538.46 3095.04 Q2533.42 3095.04 2530.38 3091.99 Q2527.45 3088.83 2527.45 3084.03 Q2527.45 3081.92 2528.15 3079.81 Q2528.85 3077.71 2531.43 3075.48 Q2534.12 3073.26 2538.69 3072.9 Q2530.14 3064.12 2513.51 3064.12 Q2513.28 3064.12 2513.04 3064.12 Q2500.86 3064.12 2490.79 3075.6 Q2480.72 3087.08 2480.72 3113.31 Q2480.72 3127.01 2484 3137.08 Q2487.4 3147.04 2492.9 3152.19 Q2498.4 3157.34 2503.79 3159.8 Q2509.18 3162.14 2514.45 3162.14 Q2537.99 3162.14 2545.95 3136.97 Q2546.65 3134.62 2549 3134.62 Q2552.16 3134.62 2552.16 3136.97 Q2552.16 3138.14 2551.22 3141.18 Q2550.28 3144.23 2547.36 3149.03 Q2544.43 3153.83 2540.21 3158.05 Q2536.11 3162.14 2528.74 3165.19 Q2521.47 3168.23 2512.34 3168.23 Q2491.26 3168.23 2476.04 3152.42 Z" fill="#000000" fill-rule="nonzero" fill-opacity="1" /><path clip-path="url(#clip190)" d="M2564.33 3142.7 Q2564.33 3122.33 2588.34 3111.55 Q2602.74 3104.64 2632.49 3102.89 L2632.49 3094.1 Q2632.49 3079.23 2624.64 3071.38 Q2616.91 3063.42 2607.07 3063.42 Q2589.51 3063.42 2581.07 3074.43 Q2588.22 3074.66 2590.8 3078.29 Q2593.37 3081.81 2593.37 3085.44 Q2593.37 3090.24 2590.33 3093.4 Q2587.4 3096.44 2582.36 3096.44 Q2577.56 3096.44 2574.4 3093.52 Q2571.24 3090.47 2571.24 3085.2 Q2571.24 3073.49 2581.78 3065.76 Q2592.43 3058.03 2607.54 3058.03 Q2627.22 3058.03 2640.33 3071.27 Q2644.43 3075.36 2646.42 3080.63 Q2648.53 3085.9 2648.77 3089.42 Q2649 3092.81 2649 3099.61 L2649 3147.51 Q2649 3148.91 2649.47 3151.25 Q2649.94 3153.6 2652.04 3156.64 Q2654.27 3159.57 2657.9 3159.57 Q2666.57 3159.57 2666.45 3144.23 L2666.45 3130.76 L2672.54 3130.76 L2672.54 3144.23 Q2672.54 3156.99 2665.75 3162.03 Q2659.07 3166.95 2652.86 3166.95 Q2644.9 3166.95 2639.87 3161.09 Q2634.83 3155.23 2634.13 3147.27 Q2630.5 3156.41 2622.18 3162.38 Q2613.98 3168.23 2602.74 3168.23 Q2594.07 3168.23 2585.88 3166.01 Q2577.8 3163.9 2571 3157.93 Q2564.33 3151.84 2564.33 3142.7 M2582.83 3142.47 Q2582.83 3151.37 2589.16 3157.11 Q2595.48 3162.85 2604.38 3162.85 Q2614.45 3162.85 2623.47 3155.12 Q2632.49 3147.27 2632.49 3131.93 L2632.49 3107.92 Q2605.9 3108.86 2594.31 3119.52 Q2582.83 3130.06 2582.83 3142.47 Z" fill="#000000" fill-rule="nonzero" fill-opacity="1" /><path clip-path="url(#clip190)" d="M2682.14 3165.54 L2682.14 3158.16 Q2694.91 3158.16 2697.84 3156.64 Q2700.76 3155 2700.76 3147.27 L2700.76 3022.55 Q2700.76 3013.65 2697.6 3011.42 Q2694.56 3009.2 2682.14 3009.2 L2682.14 3001.7 L2716.57 2999.12 L2716.57 3147.27 Q2716.57 3155 2719.62 3156.64 Q2722.66 3158.16 2735.31 3158.16 L2735.31 3165.54 Q2732.38 3165.54 2726.3 3165.31 Q2720.21 3165.07 2715.76 3164.96 Q2711.3 3164.84 2708.73 3164.84 Q2705.92 3164.84 2682.14 3165.54 Z" fill="#000000" fill-rule="nonzero" fill-opacity="1" /><path clip-path="url(#clip190)" d="M2750.79 3112.72 Q2750.79 3090.12 2765.31 3074.08 Q2779.84 3058.03 2800.68 3058.03 Q2821.76 3058.03 2832.65 3071.73 Q2843.66 3085.44 2843.66 3105.11 Q2843.66 3108.74 2842.72 3109.44 Q2841.79 3110.15 2837.69 3110.15 L2770.7 3110.15 Q2770.7 3134.62 2777.96 3146.1 Q2788.03 3162.14 2805.01 3162.14 Q2807.36 3162.14 2810.17 3161.68 Q2812.98 3161.21 2818.72 3159.22 Q2824.46 3157.11 2829.49 3151.6 Q2834.53 3146.1 2837.45 3137.43 Q2838.16 3134.04 2840.5 3134.15 Q2843.66 3134.15 2843.66 3136.97 Q2843.66 3139.07 2841.32 3143.87 Q2839.09 3148.56 2834.76 3154.18 Q2830.43 3159.8 2822 3164.02 Q2813.68 3168.23 2803.61 3168.23 Q2782.53 3168.23 2766.6 3152.31 Q2750.79 3136.26 2750.79 3112.72 M2770.93 3105.11 L2827.85 3105.11 Q2827.85 3100.07 2826.91 3094.45 Q2826.09 3088.83 2823.52 3081.1 Q2821.06 3073.26 2815.2 3068.34 Q2809.35 3063.42 2800.68 3063.42 Q2796.82 3063.42 2792.6 3065.06 Q2788.5 3066.7 2783.47 3070.68 Q2778.43 3074.66 2774.92 3083.68 Q2771.4 3092.7 2770.93 3105.11 Z" fill="#000000" fill-rule="nonzero" fill-opacity="1" /><polyline clip-path="url(#clip192)" style="stroke:#000000; stroke-linecap:round; stroke-linejoin:round; stroke-width:2; stroke-opacity:0.1; fill:none" points="690.595,2726.38 3952.76,2726.38 "/>
<polyline clip-path="url(#clip192)" style="stroke:#000000; stroke-linecap:round; stroke-linejoin:round; stroke-width:2; stroke-opacity:0.1; fill:none" points="690.595,2117.49 3952.76,2117.49 "/>
<polyline clip-path="url(#clip192)" style="stroke:#000000; stroke-linecap:round; stroke-linejoin:round; stroke-width:2; stroke-opacity:0.1; fill:none" points="690.595,1508.59 3952.76,1508.59 "/>
<polyline clip-path="url(#clip192)" style="stroke:#000000; stroke-linecap:round; stroke-linejoin:round; stroke-width:2; stroke-opacity:0.1; fill:none" points="690.595,899.696 3952.76,899.696 "/>
<polyline clip-path="url(#clip192)" style="stroke:#000000; stroke-linecap:round; stroke-linejoin:round; stroke-width:2; stroke-opacity:0.1; fill:none" points="690.595,290.802 3952.76,290.802 "/>
<polyline clip-path="url(#clip190)" style="stroke:#000000; stroke-linecap:round; stroke-linejoin:round; stroke-width:4; stroke-opacity:1; fill:none" points="690.595,2726.38 690.595,47.2441 "/>
<polyline clip-path="url(#clip190)" style="stroke:#000000; stroke-linecap:round; stroke-linejoin:round; stroke-width:4; stroke-opacity:1; fill:none" points="3952.76,2726.38 3952.76,47.2441 "/>
<polyline clip-path="url(#clip190)" style="stroke:#000000; stroke-linecap:round; stroke-linejoin:round; stroke-width:4; stroke-opacity:1; fill:none" points="690.595,2726.38 709.492,2726.38 "/>
<polyline clip-path="url(#clip190)" style="stroke:#000000; stroke-linecap:round; stroke-linejoin:round; stroke-width:4; stroke-opacity:1; fill:none" points="690.595,2117.49 709.492,2117.49 "/>
<polyline clip-path="url(#clip190)" style="stroke:#000000; stroke-linecap:round; stroke-linejoin:round; stroke-width:4; stroke-opacity:1; fill:none" points="690.595,1508.59 709.492,1508.59 "/>
<polyline clip-path="url(#clip190)" style="stroke:#000000; stroke-linecap:round; stroke-linejoin:round; stroke-width:4; stroke-opacity:1; fill:none" points="690.595,899.696 709.492,899.696 "/>
<polyline clip-path="url(#clip190)" style="stroke:#000000; stroke-linecap:round; stroke-linejoin:round; stroke-width:4; stroke-opacity:1; fill:none" points="690.595,290.802 709.492,290.802 "/>
<path clip-path="url(#clip190)" d="M416.186 2673.12 Q402.645 2673.12 395.787 2686.49 Q389.016 2699.77 389.016 2726.51 Q389.016 2753.16 395.787 2766.53 Q402.645 2779.81 416.186 2779.81 Q429.815 2779.81 436.585 2766.53 Q443.443 2753.16 443.443 2726.51 Q443.443 2699.77 436.585 2686.49 Q429.815 2673.12 416.186 2673.12 M416.186 2659.24 Q437.974 2659.24 449.433 2676.51 Q460.978 2693.7 460.978 2726.51 Q460.978 2759.24 449.433 2776.51 Q437.974 2793.7 416.186 2793.7 Q394.398 2793.7 382.853 2776.51 Q371.395 2759.24 371.395 2726.51 Q371.395 2693.7 382.853 2676.51 Q394.398 2659.24 416.186 2659.24 Z" fill="#000000" fill-rule="nonzero" fill-opacity="1" /><path clip-path="url(#clip190)" d="M491.793 2769.13 L510.109 2769.13 L510.109 2791.18 L491.793 2791.18 L491.793 2769.13 Z" fill="#000000" fill-rule="nonzero" fill-opacity="1" /><path clip-path="url(#clip190)" d="M585.803 2673.12 Q572.262 2673.12 565.404 2686.49 Q558.633 2699.77 558.633 2726.51 Q558.633 2753.16 565.404 2766.53 Q572.262 2779.81 585.803 2779.81 Q599.432 2779.81 606.203 2766.53 Q613.06 2753.16 613.06 2726.51 Q613.06 2699.77 606.203 2686.49 Q599.432 2673.12 585.803 2673.12 M585.803 2659.24 Q607.591 2659.24 619.05 2676.51 Q630.595 2693.7 630.595 2726.51 Q630.595 2759.24 619.05 2776.51 Q607.591 2793.7 585.803 2793.7 Q564.015 2793.7 552.47 2776.51 Q541.012 2759.24 541.012 2726.51 Q541.012 2693.7 552.47 2676.51 Q564.015 2659.24 585.803 2659.24 Z" fill="#000000" fill-rule="nonzero" fill-opacity="1" /><path clip-path="url(#clip190)" d="M397.523 2167.53 L458.721 2167.53 L458.721 2182.29 L376.429 2182.29 L376.429 2167.53 Q386.412 2157.2 403.599 2139.84 Q420.874 2122.39 425.301 2117.36 Q433.721 2107.89 437.019 2101.38 Q440.405 2094.79 440.405 2088.45 Q440.405 2078.12 433.113 2071.61 Q425.908 2065.1 414.276 2065.1 Q406.03 2065.1 396.829 2067.96 Q387.714 2070.83 377.297 2076.64 L377.297 2058.94 Q387.888 2054.68 397.089 2052.51 Q406.29 2050.34 413.929 2050.34 Q434.068 2050.34 446.047 2060.41 Q458.026 2070.48 458.026 2087.32 Q458.026 2095.31 454.988 2102.51 Q452.037 2109.63 444.137 2119.35 Q441.967 2121.87 430.335 2133.93 Q418.704 2145.91 397.523 2167.53 Z" fill="#000000" fill-rule="nonzero" fill-opacity="1" /><path clip-path="url(#clip190)" d="M495.526 2160.24 L513.842 2160.24 L513.842 2182.29 L495.526 2182.29 L495.526 2160.24 Z" fill="#000000" fill-rule="nonzero" fill-opacity="1" /><path clip-path="url(#clip190)" d="M552.21 2052.69 L621.046 2052.69 L621.046 2067.44 L568.269 2067.44 L568.269 2099.21 Q572.088 2097.91 575.908 2097.3 Q579.727 2096.61 583.546 2096.61 Q605.248 2096.61 617.921 2108.5 Q630.595 2120.39 630.595 2140.71 Q630.595 2161.63 617.574 2173.26 Q604.553 2184.8 580.855 2184.8 Q572.696 2184.8 564.189 2183.41 Q555.769 2182.02 546.741 2179.25 L546.741 2161.63 Q554.553 2165.88 562.887 2167.96 Q571.22 2170.05 580.508 2170.05 Q595.525 2170.05 604.293 2162.15 Q613.06 2154.25 613.06 2140.71 Q613.06 2127.16 604.293 2119.26 Q595.525 2111.37 580.508 2111.37 Q573.477 2111.37 566.446 2112.93 Q559.501 2114.49 552.21 2117.79 L552.21 2052.69 Z" fill="#000000" fill-rule="nonzero" fill-opacity="1" /><path clip-path="url(#clip190)" d="M378.86 1443.79 L447.696 1443.79 L447.696 1458.55 L394.919 1458.55 L394.919 1490.32 Q398.738 1489.02 402.558 1488.41 Q406.377 1487.71 410.197 1487.71 Q431.898 1487.71 444.571 1499.61 Q457.245 1511.5 457.245 1531.81 Q457.245 1552.73 444.224 1564.36 Q431.203 1575.91 407.506 1575.91 Q399.346 1575.91 390.839 1574.52 Q382.419 1573.13 373.391 1570.35 L373.391 1552.73 Q381.204 1556.98 389.537 1559.07 Q397.87 1561.15 407.158 1561.15 Q422.176 1561.15 430.943 1553.25 Q439.71 1545.35 439.71 1531.81 Q439.71 1518.27 430.943 1510.37 Q422.176 1502.47 407.158 1502.47 Q400.127 1502.47 393.096 1504.03 Q386.152 1505.6 378.86 1508.89 L378.86 1443.79 Z" fill="#000000" fill-rule="nonzero" fill-opacity="1" /><path clip-path="url(#clip190)" d="M491.793 1551.34 L510.109 1551.34 L510.109 1573.39 L491.793 1573.39 L491.793 1551.34 Z" fill="#000000" fill-rule="nonzero" fill-opacity="1" /><path clip-path="url(#clip190)" d="M585.803 1455.34 Q572.262 1455.34 565.404 1468.7 Q558.633 1481.99 558.633 1508.72 Q558.633 1535.37 565.404 1548.74 Q572.262 1562.02 585.803 1562.02 Q599.432 1562.02 606.203 1548.74 Q613.06 1535.37 613.06 1508.72 Q613.06 1481.99 606.203 1468.7 Q599.432 1455.34 585.803 1455.34 M585.803 1441.45 Q607.591 1441.45 619.05 1458.72 Q630.595 1475.91 630.595 1508.72 Q630.595 1541.45 619.05 1558.72 Q607.591 1575.91 585.803 1575.91 Q564.015 1575.91 552.47 1558.72 Q541.012 1541.45 541.012 1508.72 Q541.012 1475.91 552.47 1458.72 Q564.015 1441.45 585.803 1441.45 Z" fill="#000000" fill-rule="nonzero" fill-opacity="1" /><path clip-path="url(#clip190)" d="M377.992 834.896 L461.325 834.896 L461.325 842.362 L414.276 964.496 L395.961 964.496 L440.231 849.653 L377.992 849.653 L377.992 834.896 Z" fill="#000000" fill-rule="nonzero" fill-opacity="1" /><path clip-path="url(#clip190)" d="M495.526 942.448 L513.842 942.448 L513.842 964.496 L495.526 964.496 L495.526 942.448 Z" fill="#000000" fill-rule="nonzero" fill-opacity="1" /><path clip-path="url(#clip190)" d="M552.21 834.896 L621.046 834.896 L621.046 849.653 L568.269 849.653 L568.269 881.424 Q572.088 880.122 575.908 879.514 Q579.727 878.82 583.546 878.82 Q605.248 878.82 617.921 890.712 Q630.595 902.604 630.595 922.917 Q630.595 943.837 617.574 955.469 Q604.553 967.014 580.855 967.014 Q572.696 967.014 564.189 965.625 Q555.769 964.236 546.741 961.458 L546.741 943.837 Q554.553 948.09 562.887 950.174 Q571.22 952.257 580.508 952.257 Q595.525 952.257 604.293 944.358 Q613.06 936.458 613.06 922.917 Q613.06 909.375 604.293 901.476 Q595.525 893.577 580.508 893.577 Q573.477 893.577 566.446 895.139 Q559.501 896.702 552.21 900 L552.21 834.896 Z" fill="#000000" fill-rule="nonzero" fill-opacity="1" /><path clip-path="url(#clip190)" d="M268.618 340.845 L297.263 340.845 L297.263 241.974 L266.1 248.224 L266.1 232.252 L297.09 226.002 L314.624 226.002 L314.624 340.845 L343.27 340.845 L343.27 355.602 L268.618 355.602 L268.618 340.845 Z" fill="#000000" fill-rule="nonzero" fill-opacity="1" /><path clip-path="url(#clip190)" d="M416.186 237.547 Q402.645 237.547 395.787 250.915 Q389.016 264.196 389.016 290.932 Q389.016 317.581 395.787 330.949 Q402.645 344.23 416.186 344.23 Q429.815 344.23 436.585 330.949 Q443.443 317.581 443.443 290.932 Q443.443 264.196 436.585 250.915 Q429.815 237.547 416.186 237.547 M416.186 223.658 Q437.974 223.658 449.433 240.932 Q460.978 258.12 460.978 290.932 Q460.978 323.658 449.433 340.932 Q437.974 358.119 416.186 358.119 Q394.398 358.119 382.853 340.932 Q371.395 323.658 371.395 290.932 Q371.395 258.12 382.853 240.932 Q394.398 223.658 416.186 223.658 Z" fill="#000000" fill-rule="nonzero" fill-opacity="1" /><path clip-path="url(#clip190)" d="M491.793 333.553 L510.109 333.553 L510.109 355.602 L491.793 355.602 L491.793 333.553 Z" fill="#000000" fill-rule="nonzero" fill-opacity="1" /><path clip-path="url(#clip190)" d="M585.803 237.547 Q572.262 237.547 565.404 250.915 Q558.633 264.196 558.633 290.932 Q558.633 317.581 565.404 330.949 Q572.262 344.23 585.803 344.23 Q599.432 344.23 606.203 330.949 Q613.06 317.581 613.06 290.932 Q613.06 264.196 606.203 250.915 Q599.432 237.547 585.803 237.547 M585.803 223.658 Q607.591 223.658 619.05 240.932 Q630.595 258.12 630.595 290.932 Q630.595 323.658 619.05 340.932 Q607.591 358.119 585.803 358.119 Q564.015 358.119 552.47 340.932 Q541.012 323.658 541.012 290.932 Q541.012 258.12 552.47 240.932 Q564.015 223.658 585.803 223.658 Z" fill="#000000" fill-rule="nonzero" fill-opacity="1" /><path clip-path="url(#clip190)" d="M183.501 1890.11 L176.123 1890.11 L176.123 1884.37 Q176.123 1871.37 174.015 1868.45 Q171.79 1865.4 164.763 1865.4 L38.3988 1865.4 Q31.4892 1865.4 29.3812 1868.45 Q27.1561 1871.49 27.1561 1884.37 L27.1561 1890.11 L19.6609 1890.11 Q20.3636 1881.68 20.3636 1853.69 Q20.3636 1822.07 19.6609 1813.4 L27.1561 1813.4 L27.1561 1821.37 Q27.1561 1832.37 28.5614 1837.41 Q29.9668 1842.45 31.9577 1843.27 Q33.8315 1844.09 38.6331 1844.09 L166.52 1844.09 Q172.727 1844.09 174.483 1842.33 Q176.123 1840.46 176.123 1832.37 L176.123 1812.7 Q176.123 1800.52 172.492 1791.74 Q168.862 1782.95 164.294 1778.27 Q159.727 1773.58 151.178 1770.54 Q142.512 1767.38 137.007 1766.44 Q131.503 1765.39 121.666 1764.45 L121.666 1758.48 L183.501 1765.15 L183.501 1890.11 Z" fill="#000000" fill-rule="nonzero" fill-opacity="1" /><path clip-path="url(#clip190)" d="M183.501 1746.44 L176.123 1746.44 Q176.123 1733.68 174.6 1730.75 Q172.961 1727.82 165.231 1727.82 L100.703 1727.82 Q91.802 1727.82 89.694 1730.87 Q87.586 1733.79 87.586 1745.5 L80.0908 1745.5 L77.5143 1712.01 L165.466 1712.01 Q172.609 1712.01 174.366 1709.43 Q176.123 1706.86 176.123 1695.15 L183.501 1695.15 Q182.798 1719.62 182.798 1720.09 Q182.798 1723.37 183.501 1746.44 M35.7053 1736.37 Q30.9037 1736.37 27.039 1732.74 Q23.0571 1728.99 23.0571 1723.72 Q23.0571 1718.45 26.6876 1714.7 Q30.201 1710.96 35.8224 1710.96 Q41.3266 1710.96 44.9571 1714.7 Q48.4705 1718.45 48.4705 1723.72 Q48.4705 1729.23 44.6058 1732.86 Q40.7411 1736.37 35.7053 1736.37 Z" fill="#000000" fill-rule="nonzero" fill-opacity="1" /><path clip-path="url(#clip190)" d="M183.501 1678.75 L176.123 1678.75 Q176.123 1665.99 174.6 1663.06 Q172.961 1660.13 165.231 1660.13 L100.937 1660.13 Q92.0362 1660.13 89.8111 1663.29 Q87.586 1666.34 87.586 1678.75 L80.0908 1678.75 L77.5143 1645.03 L102.693 1645.03 Q77.5143 1633.78 77.5143 1609.54 Q77.5143 1591.5 86.4149 1584.36 Q92.3876 1579.09 99.063 1578.04 Q105.738 1576.87 123.071 1576.87 L168.862 1576.87 Q173.898 1576.63 175.069 1572.77 Q176.123 1568.9 176.123 1558.13 L183.501 1558.13 Q182.798 1582.6 182.798 1585.06 Q182.798 1586.94 183.501 1612.12 L176.123 1612.12 Q176.123 1599.35 174.6 1596.42 Q172.961 1593.38 165.231 1593.38 L109.369 1593.38 Q97.1892 1593.38 90.0453 1597.13 Q82.7844 1600.87 82.7844 1611.18 Q82.7844 1623.59 93.2074 1633.55 Q103.63 1643.5 121.197 1643.5 L165.231 1643.5 Q172.961 1643.5 174.6 1640.58 Q176.123 1637.53 176.123 1624.88 L183.501 1624.88 Q182.798 1649.36 182.798 1651.7 Q182.798 1653.57 183.501 1678.75 Z" fill="#000000" fill-rule="nonzero" fill-opacity="1" /><path clip-path="url(#clip190)" d="M130.683 1540.27 Q108.081 1540.27 92.0362 1525.74 Q75.9919 1511.22 75.9919 1490.38 Q75.9919 1469.3 89.694 1458.4 Q103.396 1447.4 123.071 1447.4 Q126.701 1447.4 127.404 1448.33 Q128.107 1449.27 128.107 1453.37 L128.107 1520.36 Q152.583 1520.36 164.06 1513.1 Q180.105 1503.02 180.105 1486.04 Q180.105 1483.7 179.636 1480.89 Q179.168 1478.08 177.177 1472.34 Q175.069 1466.6 169.565 1461.57 Q164.06 1456.53 155.394 1453.6 Q151.998 1452.9 152.115 1450.56 Q152.115 1447.4 154.926 1447.4 Q157.034 1447.4 161.835 1449.74 Q166.52 1451.96 172.141 1456.3 Q177.762 1460.63 181.978 1469.06 Q186.194 1477.38 186.194 1487.45 Q186.194 1508.53 170.267 1524.46 Q154.223 1540.27 130.683 1540.27 M123.071 1520.12 L123.071 1463.21 Q118.035 1463.21 112.414 1464.14 Q106.792 1464.96 99.063 1467.54 Q91.2165 1470 86.2977 1475.85 Q81.379 1481.71 81.379 1490.38 Q81.379 1494.24 83.0186 1498.46 Q84.6582 1502.56 88.64 1507.59 Q92.6218 1512.63 101.639 1516.14 Q110.657 1519.65 123.071 1520.12 Z" fill="#000000" fill-rule="nonzero" fill-opacity="1" /><path clip-path="url(#clip190)" d="M180.339 1371.46 L148.719 1371.46 Q146.025 1371.46 145.088 1371.34 Q144.151 1371.23 143.449 1370.52 Q142.746 1369.82 142.746 1368.42 Q142.746 1366.78 143.449 1366.19 Q144.151 1365.49 146.845 1365.02 Q163.358 1361.39 172.141 1353.66 Q180.807 1345.81 180.807 1331.64 Q180.807 1318.17 174.835 1311.38 Q168.862 1304.59 159.024 1304.59 Q141.458 1304.59 137.007 1329.53 Q134.08 1343.94 132.206 1349.91 Q130.215 1355.88 125.882 1361.15 Q117.45 1371.46 105.504 1371.46 Q93.5587 1371.46 84.7753 1362.44 Q75.9919 1353.31 75.9919 1333.16 Q75.9919 1319.7 82.7844 1310.56 Q80.6764 1307.87 78.9197 1306.46 Q75.9919 1303.3 75.9919 1301.66 Q75.9919 1299.79 77.2801 1299.44 Q78.4512 1299.08 81.8475 1299.08 L105.973 1299.08 Q108.666 1299.08 109.603 1299.2 Q110.54 1299.32 111.243 1300.02 Q111.828 1300.72 111.828 1302.25 Q111.828 1304.94 109.603 1305.06 Q80.5592 1306.93 80.5592 1333.16 Q80.5592 1347.33 86.0635 1353.66 Q91.4507 1359.98 98.8287 1359.98 Q102.928 1359.98 106.09 1358.11 Q109.135 1356.12 111.008 1353.66 Q112.765 1351.08 114.522 1346.4 Q116.161 1341.71 116.747 1338.9 Q117.332 1335.97 118.504 1330.47 Q122.134 1311.26 129.981 1303.18 Q140.052 1293.11 152.817 1293.11 Q166.988 1293.11 176.591 1302.72 Q186.194 1312.32 186.194 1331.64 Q186.194 1347.22 175.771 1358.11 Q177.177 1359.51 178.465 1360.57 Q179.636 1361.62 180.105 1362.09 Q180.573 1362.44 180.924 1362.56 Q181.159 1362.68 181.393 1362.91 Q186.194 1367.71 186.194 1368.88 Q186.194 1370.76 184.906 1371.11 Q183.735 1371.46 180.339 1371.46 Z" fill="#000000" fill-rule="nonzero" fill-opacity="1" /><path clip-path="url(#clip190)" d="M170.384 1263.71 Q154.457 1278.93 131.737 1278.93 Q108.9 1278.93 92.5047 1263.94 Q75.9919 1248.95 75.9919 1226.93 Q75.9919 1212.29 83.0186 1201.28 Q89.9282 1190.28 101.757 1190.28 Q107.027 1190.28 110.072 1193.44 Q112.999 1196.48 112.999 1201.28 Q112.999 1206.32 109.954 1209.37 Q106.792 1212.29 101.991 1212.29 Q99.8828 1212.29 97.7747 1211.59 Q95.6667 1210.89 93.4416 1208.31 Q91.2165 1205.62 90.8651 1201.05 Q82.0817 1209.6 82.0817 1226.23 Q82.0817 1226.46 82.0817 1226.7 Q82.0817 1238.88 93.5587 1248.95 Q105.036 1259.02 131.269 1259.02 Q144.971 1259.02 155.043 1255.74 Q164.997 1252.35 170.15 1246.84 Q175.303 1241.34 177.762 1235.95 Q180.105 1230.56 180.105 1225.29 Q180.105 1201.75 154.926 1193.79 Q152.583 1193.09 152.583 1190.74 Q152.583 1187.58 154.926 1187.58 Q156.097 1187.58 159.142 1188.52 Q162.186 1189.46 166.988 1192.38 Q171.79 1195.31 176.006 1199.53 Q180.105 1203.63 183.15 1211.01 Q186.194 1218.27 186.194 1227.4 Q186.194 1248.48 170.384 1263.71 Z" fill="#000000" fill-rule="nonzero" fill-opacity="1" /><path clip-path="url(#clip190)" d="M160.664 1175.41 Q140.286 1175.41 129.512 1151.41 Q122.603 1137 120.846 1107.25 L112.062 1107.25 Q97.1892 1107.25 89.3427 1115.1 Q81.379 1122.83 81.379 1132.67 Q81.379 1150.23 92.3876 1158.67 Q92.6218 1151.52 96.2523 1148.95 Q99.7656 1146.37 103.396 1146.37 Q108.198 1146.37 111.36 1149.41 Q114.405 1152.34 114.405 1157.38 Q114.405 1162.18 111.477 1165.34 Q108.432 1168.5 103.162 1168.5 Q91.4507 1168.5 83.7213 1157.96 Q75.9919 1147.31 75.9919 1132.2 Q75.9919 1112.52 89.2255 1099.41 Q93.3245 1095.31 98.5945 1093.32 Q103.865 1091.21 107.378 1090.98 Q110.774 1090.74 117.567 1090.74 L165.466 1090.74 Q166.871 1090.74 169.213 1090.27 Q171.555 1089.8 174.6 1087.7 Q177.528 1085.47 177.528 1081.84 Q177.528 1073.17 162.186 1073.29 L148.719 1073.29 L148.719 1067.2 L162.186 1067.2 Q174.952 1067.2 179.988 1073.99 Q184.906 1080.67 184.906 1086.88 Q184.906 1094.84 179.051 1099.88 Q173.195 1104.91 165.231 1105.61 Q174.366 1109.24 180.339 1117.56 Q186.194 1125.76 186.194 1137 Q186.194 1145.67 183.969 1153.86 Q181.861 1161.95 175.889 1168.74 Q169.799 1175.41 160.664 1175.41 M160.43 1156.91 Q169.33 1156.91 175.069 1150.59 Q180.807 1144.26 180.807 1135.36 Q180.807 1125.29 173.078 1116.27 Q165.231 1107.25 149.89 1107.25 L125.882 1107.25 Q126.819 1133.84 137.476 1145.43 Q148.016 1156.91 160.43 1156.91 Z" fill="#000000" fill-rule="nonzero" fill-opacity="1" /><path clip-path="url(#clip190)" d="M183.501 1057.6 L176.123 1057.6 Q176.123 1044.83 174.6 1041.9 Q172.961 1038.98 165.231 1038.98 L40.5069 1038.98 Q31.6063 1038.98 29.3812 1042.14 Q27.1561 1045.18 27.1561 1057.6 L19.6609 1057.6 L17.0844 1023.17 L165.231 1023.17 Q172.961 1023.17 174.6 1020.12 Q176.123 1017.08 176.123 1004.43 L183.501 1004.43 Q183.501 1007.36 183.267 1013.45 Q183.032 1019.54 182.915 1023.99 Q182.798 1028.44 182.798 1031.01 Q182.798 1033.82 183.501 1057.6 Z" fill="#000000" fill-rule="nonzero" fill-opacity="1" /><path clip-path="url(#clip190)" d="M130.683 988.95 Q108.081 988.95 92.0362 974.428 Q75.9919 959.906 75.9919 939.06 Q75.9919 917.98 89.694 907.088 Q103.396 896.08 123.071 896.08 Q126.701 896.08 127.404 897.017 Q128.107 897.953 128.107 902.052 L128.107 969.041 Q152.583 969.041 164.06 961.78 Q180.105 951.708 180.105 934.727 Q180.105 932.384 179.636 929.574 Q179.168 926.763 177.177 921.025 Q175.069 915.286 169.565 910.25 Q164.06 905.214 155.394 902.287 Q151.998 901.584 152.115 899.242 Q152.115 896.08 154.926 896.08 Q157.034 896.08 161.835 898.422 Q166.52 900.647 172.141 904.98 Q177.762 909.313 181.978 917.745 Q186.194 926.06 186.194 936.132 Q186.194 957.212 170.267 973.139 Q154.223 988.95 130.683 988.95 M123.071 968.806 L123.071 911.89 Q118.035 911.89 112.414 912.827 Q106.792 913.646 99.063 916.223 Q91.2165 918.682 86.2977 924.538 Q81.379 930.394 81.379 939.06 Q81.379 942.925 83.0186 947.141 Q84.6582 951.24 88.64 956.275 Q92.6218 961.311 101.639 964.825 Q110.657 968.338 123.071 968.806 Z" fill="#000000" fill-rule="nonzero" fill-opacity="1" /><polyline clip-path="url(#clip192)" style="stroke:#009af9; stroke-linecap:round; stroke-linejoin:round; stroke-width:24; stroke-opacity:1; fill:none" points="690.595,1435.52 1322.8,1581.66 1955,1630.37 2587.2,2677.67 "/>
<polyline clip-path="url(#clip192)" style="stroke:#e26f46; stroke-linecap:round; stroke-linejoin:round; stroke-width:24; stroke-opacity:1; fill:none" points="690.595,1411.17 1322.8,1581.66 1955,1630.37 2587.2,2677.67 "/>
<polyline clip-path="url(#clip192)" style="stroke:#3da44d; stroke-linecap:round; stroke-linejoin:round; stroke-width:24; stroke-opacity:1; fill:none" stroke-dasharray="96, 48, 12, 48" points="690.595,1435.52 1322.8,1581.66 1955,1630.37 2587.2,2677.67 "/>
<polyline clip-path="url(#clip192)" style="stroke:#c271d2; stroke-linecap:round; stroke-linejoin:round; stroke-width:24; stroke-opacity:1; fill:none" stroke-dasharray="96, 60" points="690.595,1435.52 1322.8,1581.66 1955,1630.37 2587.2,2677.67 "/>
</svg>
